<svg width="438" height="76" viewBox="0 0 438 76" fill="none" xmlns="http://www.w3.org/2000/svg">
<path d="M33.3304 1.27273V74H17.954V15.8679H17.5279L0.873047 26.3082V12.6719L18.8773 1.27273H33.3304ZM77.4977 74.9943C72.1947 74.9943 67.4717 74.0829 63.3287 72.2599C59.2093 70.4134 55.9541 67.8802 53.563 64.6605C51.1956 61.4171 49.9764 57.6766 49.9054 53.4389H65.3883C65.483 55.2145 66.063 56.777 67.1284 58.1264C68.2174 59.4522 69.6615 60.482 71.4608 61.2159C73.26 61.9498 75.2842 62.3168 77.5332 62.3168C79.877 62.3168 81.9484 61.9025 83.7477 61.0739C85.5469 60.2453 86.9556 59.0971 87.9735 57.6293C88.9915 56.1615 89.5005 54.4687 89.5005 52.5511C89.5005 50.6098 88.956 48.8935 87.867 47.402C86.8017 45.8868 85.2628 44.7031 83.2505 43.8509C81.2619 42.9986 78.8945 42.5724 76.1483 42.5724H69.3656V31.2798H76.1483C78.4683 31.2798 80.5162 30.8774 82.2917 30.0724C84.091 29.2675 85.4877 28.1548 86.4821 26.7344C87.4764 25.2902 87.9735 23.6094 87.9735 21.6918C87.9735 19.8688 87.5356 18.2708 86.6596 16.8977C85.8074 15.5009 84.6 14.4119 83.0375 13.6307C81.4986 12.8494 79.6994 12.4588 77.6397 12.4588C75.5564 12.4588 73.6506 12.8376 71.9224 13.5952C70.1942 14.3291 68.8092 15.3826 67.7676 16.7557C66.7259 18.1288 66.1696 19.7386 66.0985 21.5852H51.3613C51.4324 17.3949 52.6279 13.7017 54.948 10.5057C57.2681 7.30966 60.3931 4.81202 64.323 3.01278C68.2766 1.18986 72.7392 0.278406 77.7108 0.278406C82.7297 0.278406 87.1213 1.18986 90.8855 3.01278C94.6497 4.8357 97.5735 7.29782 99.6568 10.3991C101.764 13.4768 102.805 16.9332 102.782 20.7685C102.805 24.8404 101.539 28.2377 98.9821 30.9602C96.4489 33.6828 93.1464 35.411 89.0744 36.1449V36.7131C94.4248 37.3996 98.4967 39.258 101.29 42.2884C104.108 45.295 105.504 49.0592 105.481 53.581C105.504 57.724 104.309 61.4053 101.894 64.625C99.5029 67.8447 96.2003 70.3778 91.9863 72.2244C87.7723 74.071 82.9428 74.9943 77.4977 74.9943ZM139.82 19.4545H154.273V61.9972H169.65V19.4545H184.103V61.9972H199.479V19.4545H213.932V74H139.82V19.4545ZM241.214 75.0298C237.734 75.0298 234.633 74.4261 231.91 73.2188C229.187 71.9877 227.033 70.1766 225.447 67.7855C223.884 65.3707 223.103 62.3641 223.103 58.7656C223.103 55.7353 223.66 53.1903 224.772 51.1307C225.885 49.071 227.4 47.4138 229.318 46.1591C231.235 44.9044 233.413 43.9574 235.852 43.3182C238.314 42.679 240.894 42.2292 243.593 41.9688C246.766 41.6373 249.322 41.3295 251.264 41.0455C253.205 40.7377 254.614 40.2879 255.49 39.696C256.365 39.1042 256.803 38.2282 256.803 37.0682V36.8551C256.803 34.6061 256.093 32.866 254.673 31.6349C253.276 30.4039 251.287 29.7884 248.707 29.7884C245.984 29.7884 243.818 30.392 242.208 31.5994C240.598 32.7831 239.533 34.2746 239.012 36.0739L225.021 34.9375C225.731 31.6231 227.128 28.7585 229.211 26.3438C231.294 23.9053 233.981 22.035 237.272 20.733C240.587 19.4072 244.422 18.7443 248.778 18.7443C251.808 18.7443 254.708 19.0994 257.478 19.8097C260.272 20.5199 262.746 21.6207 264.9 23.1122C267.078 24.6037 268.794 26.5213 270.049 28.8651C271.304 31.1851 271.931 33.9669 271.931 37.2102V74H257.585V66.4361H257.159C256.283 68.1406 255.111 69.6439 253.643 70.946C252.175 72.2244 250.411 73.2306 248.352 73.9645C246.292 74.6747 243.913 75.0298 241.214 75.0298ZM245.546 64.5895C247.772 64.5895 249.737 64.1515 251.441 63.2756C253.146 62.3759 254.483 61.1686 255.454 59.6534C256.425 58.1383 256.91 56.4219 256.91 54.5043V48.7159C256.436 49.0237 255.785 49.3078 254.957 49.5682C254.152 49.8049 253.24 50.0298 252.222 50.2429C251.204 50.4323 250.186 50.6098 249.169 50.7756C248.151 50.9176 247.227 51.0478 246.399 51.1662C244.623 51.4266 243.072 51.8409 241.747 52.4091C240.421 52.9773 239.391 53.7467 238.657 54.7173C237.923 55.6643 237.556 56.848 237.556 58.2685C237.556 60.3281 238.302 61.9025 239.794 62.9915C241.309 64.0568 243.226 64.5895 245.546 64.5895ZM321.026 19.4545V31.3509H298.369V74H283.668V19.4545H321.026ZM352.942 75.0653C347.425 75.0653 342.655 73.8935 338.631 71.5497C334.63 69.1823 331.54 65.8916 329.362 61.6776C327.184 57.4399 326.095 52.5275 326.095 46.9403C326.095 41.3059 327.184 36.3816 329.362 32.1676C331.54 27.9299 334.63 24.6392 338.631 22.2955C342.655 19.928 347.425 18.7443 352.942 18.7443C358.458 18.7443 363.216 19.928 367.217 22.2955C371.242 24.6392 374.343 27.9299 376.521 32.1676C378.699 36.3816 379.788 41.3059 379.788 46.9403C379.788 52.5275 378.699 57.4399 376.521 61.6776C374.343 65.8916 371.242 69.1823 367.217 71.5497C363.216 73.8935 358.458 75.0653 352.942 75.0653ZM353.013 63.3466C355.522 63.3466 357.617 62.6364 359.298 61.2159C360.979 59.7718 362.246 57.8068 363.098 55.321C363.974 52.8352 364.412 50.0062 364.412 46.8338C364.412 43.6615 363.974 40.8324 363.098 38.3466C362.246 35.8608 360.979 33.8958 359.298 32.4517C357.617 31.0076 355.522 30.2855 353.013 30.2855C350.479 30.2855 348.349 31.0076 346.621 32.4517C344.916 33.8958 343.626 35.8608 342.75 38.3466C341.898 40.8324 341.471 43.6615 341.471 46.8338C341.471 50.0062 341.898 52.8352 342.75 55.321C343.626 57.8068 344.916 59.7718 346.621 61.2159C348.349 62.6364 350.479 63.3466 353.013 63.3466ZM389.625 74V19.4545H412.885C419.608 19.4545 424.923 20.733 428.829 23.2898C432.736 25.8466 434.689 29.4806 434.689 34.1918C434.689 37.151 433.588 39.6132 431.386 41.5781C429.184 43.5431 426.131 44.8688 422.224 45.5554C425.491 45.7921 428.273 46.5379 430.569 47.7926C432.89 49.0237 434.653 50.6217 435.861 52.5866C437.092 54.5516 437.707 56.7296 437.707 59.1207C437.707 62.2221 436.879 64.8854 435.221 67.1108C433.588 69.3362 431.185 71.0407 428.013 72.2244C424.864 73.4081 421.017 74 416.471 74H389.625ZM403.723 62.6719H416.471C418.578 62.6719 420.224 62.1747 421.407 61.1804C422.615 60.1624 423.219 58.7775 423.219 57.0256C423.219 55.0843 422.615 53.5573 421.407 52.4446C420.224 51.3319 418.578 50.7756 416.471 50.7756H403.723V62.6719ZM403.723 41.8977H413.204C414.72 41.8977 416.01 41.6847 417.075 41.2585C418.164 40.8087 418.993 40.1695 419.561 39.3409C420.153 38.5123 420.449 37.5298 420.449 36.3935C420.449 34.7126 419.774 33.3987 418.425 32.4517C417.075 31.5047 415.229 31.0312 412.885 31.0312H403.723V41.8977Z" fill="#085CF7" fill-opacity="0.5"/>
</svg>
