<svg width="306" height="53" viewBox="0 0 306 53" fill="none" xmlns="http://www.w3.org/2000/svg">
<path d="M22.8813 1.09091V52H12.1178V11.3075H11.8195L0.161133 18.6158V9.07031L12.7641 1.09091H22.8813ZM53.7984 52.696C50.0863 52.696 46.7802 52.058 43.8801 50.782C40.9965 49.4893 38.7179 47.7161 37.0441 45.4624C35.3869 43.192 34.5335 40.5736 34.4838 37.6072H45.3218C45.3881 38.8501 45.7941 39.9439 46.5399 40.8885C47.3022 41.8165 48.3131 42.5374 49.5725 43.0511C50.832 43.5649 52.2489 43.8217 53.8232 43.8217C55.4639 43.8217 56.9139 43.5317 58.1734 42.9517C59.4329 42.3717 60.4189 41.5679 61.1315 40.5405C61.8441 39.513 62.2004 38.3281 62.2004 36.9858C62.2004 35.6269 61.8192 34.4254 61.0569 33.3814C60.3112 32.3208 59.234 31.4922 57.8254 30.8956C56.4333 30.299 54.7761 30.0007 52.8538 30.0007H48.1059V22.0959H52.8538C54.4778 22.0959 55.9113 21.8142 57.1542 21.2507C58.4137 20.6873 59.3914 19.9084 60.0874 18.9141C60.7835 17.9032 61.1315 16.7266 61.1315 15.3842C61.1315 14.1082 60.8249 12.9896 60.2117 12.0284C59.6151 11.0507 58.77 10.2884 57.6762 9.74148C56.599 9.1946 55.3396 8.92116 53.8978 8.92116C52.4395 8.92116 51.1054 9.18632 49.8957 9.71662C48.6859 10.2303 47.7165 10.9678 46.9873 11.929C46.2581 12.8901 45.8687 14.017 45.819 15.3097H35.5029C35.5526 12.3764 36.3895 9.79119 38.0136 7.55398C39.6376 5.31676 41.8251 3.56842 44.5761 2.30895C47.3436 1.03291 50.4674 0.394884 53.9475 0.394884C57.4608 0.394884 60.5349 1.03291 63.1698 2.30895C65.8048 3.58499 67.8514 5.30847 69.3097 7.4794C70.7847 9.63376 71.5138 12.0533 71.4972 14.7379C71.5138 17.5883 70.6272 19.9664 68.8374 21.8722C67.0642 23.7779 64.7525 24.9877 61.9021 25.5014V25.8991C65.6473 26.3797 68.4977 27.6806 70.4532 29.8018C72.4253 31.9065 73.403 34.5414 73.3865 37.7067C73.403 40.6068 72.5661 43.1837 70.8758 45.4375C69.202 47.6913 66.8902 49.4645 63.9404 50.7571C60.9906 52.0497 57.6099 52.696 53.7984 52.696ZM97.4241 13.8182H107.541V43.598H118.305V13.8182H128.422V43.598H139.185V13.8182H149.303V52H97.4241V13.8182ZM168.4 52.7209C165.964 52.7209 163.793 52.2983 161.887 51.4531C159.981 50.5914 158.473 49.3236 157.363 47.6499C156.269 45.9595 155.722 43.8549 155.722 41.3359C155.722 39.2147 156.112 37.4332 156.891 35.9915C157.669 34.5497 158.73 33.3897 160.072 32.5114C161.415 31.633 162.939 30.9702 164.646 30.5227C166.37 30.0753 168.176 29.7604 170.065 29.5781C172.286 29.3461 174.076 29.1307 175.435 28.9318C176.793 28.7164 177.78 28.4015 178.393 27.9872C179.006 27.5729 179.312 26.9598 179.312 26.1477V25.9986C179.312 24.4242 178.815 23.2062 177.821 22.3445C176.843 21.4827 175.451 21.0518 173.645 21.0518C171.739 21.0518 170.223 21.4744 169.096 22.3196C167.969 23.1482 167.223 24.1922 166.859 25.4517L157.065 24.6562C157.562 22.3362 158.539 20.331 159.998 18.6406C161.456 16.9337 163.337 15.6245 165.641 14.7131C167.961 13.785 170.645 13.321 173.695 13.321C175.816 13.321 177.846 13.5696 179.785 14.0668C181.74 14.5639 183.472 15.3345 184.98 16.3785C186.505 17.4226 187.706 18.7649 188.584 20.4055C189.463 22.0296 189.902 23.9768 189.902 26.2472V52H179.859V46.7053H179.561C178.948 47.8984 178.128 48.9508 177.1 49.8622C176.073 50.7571 174.838 51.4614 173.396 51.9751C171.954 52.4723 170.289 52.7209 168.4 52.7209ZM171.432 45.4126C172.99 45.4126 174.366 45.1061 175.559 44.4929C176.752 43.8632 177.688 43.018 178.368 41.9574C179.047 40.8968 179.387 39.6953 179.387 38.353V34.3011C179.056 34.5166 178.6 34.7154 178.02 34.8977C177.456 35.0634 176.818 35.2209 176.106 35.37C175.393 35.5026 174.681 35.6269 173.968 35.7429C173.255 35.8423 172.609 35.9335 172.029 36.0163C170.786 36.1986 169.701 36.4886 168.773 36.8864C167.845 37.2841 167.124 37.8227 166.61 38.5021C166.096 39.165 165.839 39.9936 165.839 40.9879C165.839 42.4297 166.361 43.5317 167.405 44.294C168.466 45.0398 169.808 45.4126 171.432 45.4126ZM224.268 13.8182V22.1456H208.409V52H198.117V13.8182H224.268ZM246.609 52.7457C242.748 52.7457 239.409 51.9254 236.591 50.2848C233.791 48.6276 231.628 46.3241 230.103 43.3743C228.579 40.4079 227.816 36.9692 227.816 33.0582C227.816 29.1141 228.579 25.6671 230.103 22.7173C231.628 19.7509 233.791 17.4474 236.591 15.8068C239.409 14.1496 242.748 13.321 246.609 13.321C250.47 13.321 253.801 14.1496 256.602 15.8068C259.419 17.4474 261.59 19.7509 263.115 22.7173C264.639 25.6671 265.402 29.1141 265.402 33.0582C265.402 36.9692 264.639 40.4079 263.115 43.3743C261.59 46.3241 259.419 48.6276 256.602 50.2848C253.801 51.9254 250.47 52.7457 246.609 52.7457ZM246.659 44.5426C248.415 44.5426 249.882 44.0455 251.059 43.0511C252.235 42.0402 253.122 40.6648 253.718 38.9247C254.332 37.1847 254.638 35.2043 254.638 32.9837C254.638 30.763 254.332 28.7827 253.718 27.0426C253.122 25.3026 252.235 23.9271 251.059 22.9162C249.882 21.9053 248.415 21.3999 246.659 21.3999C244.886 21.3999 243.394 21.9053 242.184 22.9162C240.991 23.9271 240.088 25.3026 239.475 27.0426C238.878 28.7827 238.58 30.763 238.58 32.9837C238.58 35.2043 238.878 37.1847 239.475 38.9247C240.088 40.6648 240.991 42.0402 242.184 43.0511C243.394 44.0455 244.886 44.5426 246.659 44.5426ZM272.287 52V13.8182H288.569C293.276 13.8182 296.996 14.7131 299.731 16.5028C302.465 18.2926 303.832 20.8364 303.832 24.1342C303.832 26.2057 303.062 27.9292 301.52 29.3047C299.979 30.6802 297.841 31.6082 295.107 32.0888C297.394 32.2545 299.341 32.7765 300.949 33.6548C302.573 34.5166 303.807 35.6352 304.652 37.0107C305.514 38.3861 305.945 39.9107 305.945 41.5845C305.945 43.7554 305.365 45.6198 304.205 47.1776C303.062 48.7353 301.379 49.9285 299.159 50.7571C296.955 51.5857 294.262 52 291.08 52H272.287ZM282.156 44.0703H291.08C292.555 44.0703 293.707 43.7223 294.535 43.0263C295.38 42.3137 295.803 41.3442 295.803 40.1179C295.803 38.759 295.38 37.6901 294.535 36.9112C293.707 36.1323 292.555 35.7429 291.08 35.7429H282.156V44.0703ZM282.156 29.5284H288.793C289.854 29.5284 290.757 29.3793 291.503 29.081C292.265 28.7661 292.845 28.3187 293.243 27.7386C293.657 27.1586 293.864 26.4709 293.864 25.6754C293.864 24.4988 293.392 23.5791 292.447 22.9162C291.503 22.2533 290.21 21.9219 288.569 21.9219H282.156V29.5284Z" fill="#085CF7" fill-opacity="0.5"/>
</svg>
