<svg width="1311" height="226" viewBox="0 0 1311 226" fill="none" xmlns="http://www.w3.org/2000/svg">
<path d="M97.4913 3.81818V222H51.362V47.6037H50.0836L0.119141 78.9247V38.0156L54.1319 3.81818H97.4913ZM229.993 224.983C214.084 224.983 199.915 222.249 187.486 216.78C175.128 211.24 165.362 203.641 158.189 193.982C151.087 184.251 147.429 173.03 147.216 160.317H193.665C193.949 165.643 195.689 170.331 198.885 174.379C202.152 178.357 206.485 181.446 211.882 183.648C217.28 185.849 223.352 186.95 230.1 186.95C237.131 186.95 243.345 185.707 248.743 183.222C254.141 180.736 258.367 177.291 261.421 172.888C264.475 168.484 266.002 163.406 266.002 157.653C266.002 151.83 264.368 146.68 261.101 142.206C257.905 137.661 253.289 134.109 247.252 131.553C241.286 128.996 234.183 127.717 225.945 127.717H205.597V93.8395H225.945C232.905 93.8395 239.048 92.6321 244.375 90.2173C249.773 87.8026 253.963 84.4645 256.946 80.2031C259.929 75.8707 261.421 70.8281 261.421 65.0753C261.421 59.6065 260.107 54.8125 257.479 50.6932C254.922 46.5028 251.3 43.2358 246.612 40.892C241.996 38.5483 236.598 37.3764 230.419 37.3764C224.169 37.3764 218.452 38.5128 213.267 40.7855C208.083 42.9872 203.928 46.1477 200.803 50.267C197.678 54.3864 196.009 59.2159 195.796 64.7557H151.584C151.797 52.1847 155.384 41.1051 162.344 31.517C169.304 21.929 178.679 14.4361 190.469 9.03834C202.33 3.56959 215.718 0.835219 230.632 0.835219C245.689 0.835219 258.864 3.56959 270.156 9.03834C281.449 14.5071 290.22 21.8935 296.47 31.1974C302.791 40.4304 305.916 50.7997 305.845 62.3054C305.916 74.5213 302.117 84.7131 294.446 92.8807C286.847 101.048 276.939 106.233 264.723 108.435V110.139C280.774 112.199 292.99 117.774 301.371 126.865C309.823 135.885 314.013 147.178 313.942 160.743C314.013 173.172 310.426 184.216 303.182 193.875C296.009 203.534 286.101 211.134 273.459 216.673C260.817 222.213 246.328 224.983 229.993 224.983ZM416.96 58.3636H460.32V185.991H506.449V58.3636H549.808V185.991H595.938V58.3636H639.297V222H416.96V58.3636ZM721.142 225.089C710.702 225.089 701.398 223.278 693.23 219.656C685.062 215.963 678.599 210.53 673.841 203.357C669.153 196.112 666.809 187.092 666.809 176.297C666.809 167.206 668.479 159.571 671.817 153.392C675.155 147.213 679.7 142.241 685.453 138.477C691.206 134.713 697.74 131.872 705.055 129.955C712.442 128.037 720.183 126.688 728.28 125.906C737.797 124.912 745.467 123.989 751.291 123.136C757.115 122.213 761.341 120.864 763.969 119.088C766.596 117.312 767.91 114.685 767.91 111.205V110.565C767.91 103.818 765.78 98.598 761.518 94.9048C757.328 91.2116 751.362 89.3651 743.621 89.3651C735.453 89.3651 728.954 91.1761 724.125 94.7983C719.295 98.3494 716.099 102.824 714.537 108.222L672.562 104.812C674.693 94.8693 678.883 86.2756 685.133 79.0312C691.383 71.7159 699.444 66.1051 709.317 62.1989C719.26 58.2216 730.765 56.233 743.834 56.233C752.925 56.233 761.625 57.2983 769.934 59.429C778.315 61.5597 785.737 64.8622 792.2 69.3366C798.734 73.8111 803.883 79.5639 807.648 86.5952C811.412 93.5554 813.294 101.901 813.294 111.631V222H770.254V199.308H768.976C766.348 204.422 762.832 208.932 758.429 212.838C754.025 216.673 748.734 219.692 742.555 221.893C736.376 224.024 729.238 225.089 721.142 225.089ZM734.139 193.768C740.815 193.768 746.71 192.455 751.824 189.827C756.937 187.128 760.95 183.506 763.862 178.96C766.774 174.415 768.23 169.266 768.23 163.513V146.148C766.809 147.071 764.856 147.923 762.371 148.705C759.956 149.415 757.221 150.089 754.167 150.729C751.113 151.297 748.059 151.83 745.006 152.327C741.952 152.753 739.182 153.143 736.696 153.499C731.369 154.28 726.717 155.523 722.74 157.227C718.763 158.932 715.673 161.24 713.471 164.152C711.27 166.993 710.169 170.544 710.169 174.805C710.169 180.984 712.406 185.707 716.881 188.974C721.426 192.17 727.179 193.768 734.139 193.768ZM960.577 58.3636V94.0526H892.608V222H848.503V58.3636H960.577ZM1056.32 225.196C1039.78 225.196 1025.47 221.68 1013.39 214.649C1001.39 207.547 992.12 197.675 985.586 185.033C979.052 172.32 975.785 157.582 975.785 140.821C975.785 123.918 979.052 109.145 985.586 96.5028C992.12 83.7898 1001.39 73.9176 1013.39 66.8864C1025.47 59.7841 1039.78 56.233 1056.32 56.233C1072.87 56.233 1087.15 59.7841 1099.15 66.8864C1111.23 73.9176 1120.53 83.7898 1127.06 96.5028C1133.6 109.145 1136.86 123.918 1136.86 140.821C1136.86 157.582 1133.6 172.32 1127.06 185.033C1120.53 197.675 1111.23 207.547 1099.15 214.649C1087.15 221.68 1072.87 225.196 1056.32 225.196ZM1056.54 190.04C1064.07 190.04 1070.35 187.909 1075.39 183.648C1080.44 179.315 1084.24 173.42 1086.79 165.963C1089.42 158.506 1090.74 150.018 1090.74 140.501C1090.74 130.984 1089.42 122.497 1086.79 115.04C1084.24 107.582 1080.44 101.687 1075.39 97.3551C1070.35 93.0227 1064.07 90.8565 1056.54 90.8565C1048.94 90.8565 1042.55 93.0227 1037.36 97.3551C1032.25 101.687 1028.38 107.582 1025.75 115.04C1023.19 122.497 1021.91 130.984 1021.91 140.501C1021.91 150.018 1023.19 158.506 1025.75 165.963C1028.38 173.42 1032.25 179.315 1037.36 183.648C1042.55 187.909 1048.94 190.04 1056.54 190.04ZM1166.37 222V58.3636H1236.15C1256.32 58.3636 1272.27 62.1989 1283.99 69.8693C1295.71 77.5398 1301.57 88.4418 1301.57 102.575C1301.57 111.453 1298.26 118.839 1291.66 124.734C1285.05 130.629 1275.89 134.607 1264.17 136.666C1273.97 137.376 1282.32 139.614 1289.21 143.378C1296.17 147.071 1301.46 151.865 1305.08 157.76C1308.78 163.655 1310.62 170.189 1310.62 177.362C1310.62 186.666 1308.14 194.656 1303.16 201.332C1298.26 208.009 1291.05 213.122 1281.54 216.673C1272.09 220.224 1260.55 222 1246.91 222H1166.37ZM1208.67 188.016H1246.91C1253.24 188.016 1258.17 186.524 1261.72 183.541C1265.34 180.487 1267.16 176.332 1267.16 171.077C1267.16 165.253 1265.34 160.672 1261.72 157.334C1258.17 153.996 1253.24 152.327 1246.91 152.327H1208.67V188.016ZM1208.67 125.693H1237.11C1241.66 125.693 1245.53 125.054 1248.73 123.776C1251.99 122.426 1254.48 120.509 1256.18 118.023C1257.96 115.537 1258.85 112.589 1258.85 109.18C1258.85 104.138 1256.82 100.196 1252.77 97.3551C1248.73 94.5142 1243.19 93.0938 1236.15 93.0938H1208.67V125.693Z" fill="#085CF7" fill-opacity="0.5"/>
</svg>
