<svg width="32" height="32" viewBox="0 0 32 32" fill="none" xmlns="http://www.w3.org/2000/svg">
<g clip-path="url(#clip0_49_2907)">
<path d="M22.509 12.689L16.509 9.139C16.352 9.046 16.176 9 16 9C15.824 9 15.648 9.046 15.491 9.14L9.491 12.69C9.187 12.869 9 13.196 9 13.55V20.45C9 20.804 9.187 21.131 9.491 21.31L15.491 24.86C15.648 24.954 15.824 25 16 25C16.176 25 16.352 24.954 16.509 24.86L22.509 21.31C22.813 21.131 23 20.804 23 20.45V13.55C23 13.196 22.813 12.869 22.509 12.689ZM21 19.88L16 22.838L11 19.88V14.12L16 11.162L21 14.12V19.88Z" fill="#085CF7"/>
<path d="M6 20.1841V11.0701L12.2 7.40608L11.183 5.68408L4.491 9.63908C4.187 9.81908 4 10.1461 4 10.5001V20.1841C2.839 20.5981 2 21.6981 2 23.0001C2 24.6541 3.346 26.0001 5 26.0001C6.654 26.0001 8 24.6541 8 23.0001C8 21.6981 7.161 20.5981 6 20.1841ZM5 24.0001C4.449 24.0001 4 23.5521 4 23.0001C4 22.4481 4.449 22.0001 5 22.0001C5.551 22.0001 6 22.4481 6 23.0001C6 23.5521 5.551 24.0001 5 24.0001Z" fill="#085CF7"/>
<path d="M27.0001 20C25.3461 20 24.0001 21.346 24.0001 23C24.0001 23.353 24.0721 23.687 24.1851 24.002L16.0001 28.838L9.5961 25.054L8.5791 26.776L15.4911 30.86C15.6481 30.954 15.8241 31 16.0001 31C16.1761 31 16.3521 30.954 16.5091 30.861L25.4691 25.566C25.9191 25.835 26.4391 26 27.0001 26C28.6541 26 30.0001 24.654 30.0001 23C30.0001 21.346 28.6541 20 27.0001 20ZM27.0001 24C26.4491 24 26.0001 23.552 26.0001 23C26.0001 22.448 26.4491 22 27.0001 22C27.5511 22 28.0001 22.448 28.0001 23C28.0001 23.552 27.5511 24 27.0001 24Z" fill="#085CF7"/>
<path d="M16 7C16.731 7 17.392 6.727 17.913 6.292L26 11.071V18H28V10.5C28 10.146 27.813 9.819 27.509 9.639L18.942 4.577C18.978 4.39 19 4.198 19 4C19 2.346 17.654 1 16 1C14.346 1 13 2.346 13 4C13 5.654 14.346 7 16 7ZM16 3C16.551 3 17 3.448 17 4C17 4.552 16.551 5 16 5C15.449 5 15 4.552 15 4C15 3.448 15.449 3 16 3Z" fill="#085CF7"/>
</g>
<defs>
<clipPath id="clip0_49_2907">
<rect width="32" height="32" fill="white"/>
</clipPath>
</defs>
</svg>
