<svg width="308" height="301" viewBox="0 0 308 301" fill="none" xmlns="http://www.w3.org/2000/svg">
<path d="M307.25 33.9167V375.76C307.25 381.929 302.241 386.938 296.072 386.938H79.0437C72.8748 386.938 67.8662 381.929 67.8662 375.76V33.9167C67.8662 27.7479 72.8748 22.7393 79.0437 22.7393H296.072C302.241 22.7393 307.25 27.7479 307.25 33.9167Z" fill="#ED509E"/>
<path d="M295.361 48.2287V363.759C295.361 369.453 290.85 374.077 285.294 374.077H89.8209C84.2648 374.077 79.7537 369.453 79.7537 363.759V48.2287C79.7537 42.5347 84.2648 37.9116 89.8209 37.9116H285.294C290.85 37.9116 295.361 42.5347 295.361 48.2287Z" fill="#FEF3DD"/>
<path d="M282.857 83.4756C282.857 87.941 279.589 91.5665 275.565 91.5665H209.933C205.908 91.5665 202.64 87.941 202.64 83.4756C202.64 79.0103 205.908 75.3848 209.933 75.3848H275.565C279.589 75.3848 282.857 79.0103 282.857 83.4756Z" fill="#2E03E5"/>
<path d="M282.625 109.193C282.625 113.658 278.482 117.284 273.379 117.284H190.158C185.055 117.284 180.912 113.658 180.912 109.193C180.912 104.728 185.055 101.102 190.158 101.102H273.379C278.482 101.102 282.625 104.728 282.625 109.193Z" fill="#2E03E5"/>
<path d="M162.159 202.527C162.159 206.992 159.355 210.617 155.902 210.617H99.5846C96.1311 210.617 93.3271 206.992 93.3271 202.527C93.3271 198.061 96.1311 194.436 99.5846 194.436H155.902C159.355 194.436 162.159 198.061 162.159 202.527Z" fill="#2E03E5"/>
<path d="M163.315 226.221C163.315 230.686 160.511 234.312 157.058 234.312H100.741C97.2871 234.312 94.4832 230.686 94.4832 226.221C94.4832 221.756 97.2871 218.13 100.741 218.13H157.058C160.511 218.13 163.315 221.756 163.315 226.221Z" fill="#2E03E5"/>
<path d="M241.912 225.065C241.912 229.531 239.108 233.156 235.654 233.156H179.337C175.884 233.156 173.08 229.531 173.08 225.065C173.08 220.6 175.884 216.975 179.337 216.975H235.654C239.108 216.975 241.912 220.6 241.912 225.065Z" fill="#2E03E5"/>
<path d="M284.696 201.949C284.696 206.414 280.149 210.039 274.548 210.039H183.21C177.609 210.039 173.062 206.414 173.062 201.949C173.062 197.483 177.609 193.858 183.21 193.858H274.548C280.149 193.858 284.696 197.483 284.696 201.949Z" fill="#2E03E5"/>
<path d="M204.944 249.916C204.944 254.381 200.396 258.007 194.795 258.007H103.458C97.8567 258.007 93.3091 254.381 93.3091 249.916C93.3091 245.45 97.8567 241.825 103.458 241.825H194.795C200.396 241.825 204.944 245.45 204.944 249.916Z" fill="#2E03E5"/>
<path d="M148.837 92.7223C148.837 108.351 136.148 121.04 120.519 121.04C104.89 121.04 92.2012 108.351 92.2012 92.7223C92.2012 77.0936 104.89 64.4043 120.519 64.4043C136.148 64.4043 148.837 77.0936 148.837 92.7223Z" fill="#2E03E5"/>
<path d="M273.152 58.1889V400.032C273.152 406.201 268.143 411.21 261.975 411.21H44.946C38.7772 411.21 33.7686 406.201 33.7686 400.032V58.1889C33.7686 52.0201 38.7772 47.0115 44.946 47.0115H261.975C268.143 47.0115 273.152 52.0201 273.152 58.1889Z" fill="#ED509E"/>
<path d="M261.264 72.5017V388.032C261.264 393.726 256.753 398.35 251.197 398.35H55.7238C50.1676 398.35 45.6565 393.726 45.6565 388.032V72.5017C45.6565 66.8077 50.1676 62.1846 55.7238 62.1846H251.197C256.753 62.1846 261.264 66.8077 261.264 72.5017Z" fill="#FEF3DD"/>
<path d="M248.76 119.307C248.76 123.772 245.492 127.398 241.467 127.398H175.835C171.811 127.398 168.543 123.772 168.543 119.307C168.543 114.841 171.811 111.216 175.835 111.216H241.467C245.492 111.216 248.76 114.841 248.76 119.307Z" fill="#2E03E5"/>
<path d="M248.912 92.4331C248.912 96.8985 246.503 100.524 243.535 100.524H195.15C192.183 100.524 189.774 96.8985 189.774 92.4331C189.774 87.9678 192.183 84.3423 195.15 84.3423H243.535C246.503 84.3423 248.912 87.9678 248.912 92.4331Z" fill="#2E03E5"/>
<path d="M128.062 226.799C128.062 231.264 125.258 234.89 121.805 234.89H65.4874C62.0339 234.89 59.23 231.264 59.23 226.799C59.23 222.334 62.0339 218.708 65.4874 218.708H121.805C125.258 218.708 128.062 222.334 128.062 226.799Z" fill="#2E03E5"/>
<path d="M129.218 295.571C129.218 300.037 126.414 303.662 122.96 303.662H66.643C63.1895 303.662 60.3855 300.037 60.3855 295.571C60.3855 291.106 63.1895 287.48 66.643 287.48H122.96C126.414 287.48 129.218 291.106 129.218 295.571Z" fill="#2E03E5"/>
<path d="M170.846 274.189C170.846 278.654 166.299 282.28 160.698 282.28H69.3605C63.7595 282.28 59.2119 278.654 59.2119 274.189C59.2119 269.723 63.7595 266.098 69.3605 266.098H160.698C166.299 266.098 170.846 269.723 170.846 274.189Z" fill="#2E03E5"/>
<path d="M217.609 247.026V252.805C217.609 255.676 213.447 258.007 208.321 258.007H67.9701C62.8441 258.007 58.6821 255.676 58.6821 252.805V247.026C58.6821 244.156 62.8441 241.825 67.9701 241.825H208.321C213.447 241.825 217.609 244.156 217.609 247.026Z" fill="#2E03E5"/>
<path d="M114.74 116.995C114.74 132.623 102.051 145.313 86.422 145.313C70.7933 145.313 58.104 132.623 58.104 116.995C58.104 101.366 70.7933 88.6768 86.422 88.6768C102.051 88.6768 114.74 101.366 114.74 116.995Z" fill="#2E03E5"/>
<path d="M239.633 11.3779V353.221C239.633 359.39 234.624 364.399 228.456 364.399H11.427C5.25812 364.399 0.249512 359.39 0.249512 353.221V11.3779C0.249512 5.20905 5.25812 0.200439 11.427 0.200439H228.456C234.624 0.200439 239.633 5.20905 239.633 11.3779Z" fill="#ED509E"/>
<path d="M227.745 25.6899V341.221C227.745 346.915 223.233 351.538 217.677 351.538H22.2042C16.6481 351.538 12.137 346.915 12.137 341.221V25.6899C12.137 19.9959 16.6481 15.3728 22.2042 15.3728H217.677C223.233 15.3728 227.745 19.9959 227.745 25.6899Z" fill="#FEF3DD"/>
<path d="M215.241 49.3784C215.241 53.8438 211.973 57.4693 207.948 57.4693H142.316C138.292 57.4693 135.024 53.8438 135.024 49.3784C135.024 44.9131 138.292 41.2876 142.316 41.2876H207.948C211.973 41.2876 215.241 44.9131 215.241 49.3784Z" fill="#2E03E5"/>
<path d="M215.393 72.2066C215.393 76.6719 212.983 80.2974 210.016 80.2974H161.631C158.664 80.2974 156.255 76.6719 156.255 72.2066C156.255 67.7412 158.664 64.1157 161.631 64.1157H210.016C212.983 64.1157 215.393 67.7412 215.393 72.2066Z" fill="#2E03E5"/>
<path d="M215.009 95.9009C215.009 100.366 210.866 103.992 205.763 103.992H122.542C117.439 103.992 113.295 100.366 113.295 95.9009C113.295 91.4356 117.439 87.8101 122.542 87.8101H205.763C210.866 87.8101 215.009 91.4356 215.009 95.9009Z" fill="#2E03E5"/>
<path d="M94.543 179.988C94.543 184.453 91.7391 188.079 88.2856 188.079H31.9684C28.5149 188.079 25.7109 184.453 25.7109 179.988C25.7109 175.522 28.5149 171.897 31.9684 171.897H88.2856C91.7391 171.897 94.543 175.522 94.543 179.988Z" fill="#2E03E5"/>
<path d="M95.6986 248.76C95.6986 253.226 92.8946 256.851 89.4411 256.851H33.1239C29.6704 256.851 26.8665 253.226 26.8665 248.76C26.8665 244.295 29.6704 240.669 33.1239 240.669H89.4411C92.8946 240.669 95.6986 244.295 95.6986 248.76Z" fill="#2E03E5"/>
<path d="M213.594 225.644C213.594 230.109 210.79 233.734 207.337 233.734H151.019C147.566 233.734 144.762 230.109 144.762 225.644C144.762 221.178 147.566 217.553 151.019 217.553H207.337C210.79 217.553 213.594 221.178 213.594 225.644Z" fill="#2E03E5"/>
<path d="M217.08 179.41C217.08 183.875 212.533 187.501 206.932 187.501H115.594C109.993 187.501 105.446 183.875 105.446 179.41C105.446 174.945 109.993 171.319 115.594 171.319H206.932C212.533 171.319 217.08 174.945 217.08 179.41Z" fill="#2E03E5"/>
<path d="M137.327 227.377C137.327 231.842 132.779 235.468 127.178 235.468H35.841C30.24 235.468 25.6924 231.842 25.6924 227.377C25.6924 222.912 30.24 219.286 35.841 219.286H127.178C132.779 219.286 137.327 222.912 137.327 227.377Z" fill="#2E03E5"/>
<path d="M184.09 200.215V205.994C184.09 208.865 179.928 211.196 174.802 211.196H34.451C29.325 211.196 25.1631 208.865 25.1631 205.994V200.215C25.1631 197.345 29.325 195.014 34.451 195.014H174.802C179.928 195.014 184.09 197.345 184.09 200.215Z" fill="#2E03E5"/>
<path d="M81.2209 70.1835C81.2209 85.8121 68.5316 98.5014 52.9029 98.5014C37.2742 98.5014 24.585 85.8121 24.585 70.1835C24.585 54.5548 37.2742 41.8655 52.9029 41.8655C68.5316 41.8655 81.2209 54.5548 81.2209 70.1835Z" fill="#2E03E5"/>
<path d="M210.34 320.53C210.34 321.918 209.519 322.739 207.878 322.991V317.775C209.519 318.487 210.34 319.405 210.34 320.53ZM202.972 308.997C202.972 307.62 203.77 306.788 205.365 306.501V311.957C203.77 311.166 202.972 310.179 202.972 308.997ZM213.094 324.894C214.311 323.729 214.919 322.194 214.919 320.289C214.919 318.636 214.374 317.228 213.284 316.063C212.193 314.898 210.392 313.863 207.878 312.956V306.432C209.887 306.65 211.694 307.247 213.3 308.222V303.575C212.107 302.91 210.299 302.519 207.878 302.404V299.271H205.365V302.473C203.265 302.679 201.578 303.417 200.305 304.685C199.031 305.953 198.394 307.488 198.394 309.289C198.394 310.965 198.884 312.385 199.866 313.55C200.847 314.715 202.68 315.796 205.365 316.795V323.06C204.332 322.991 203.156 322.727 201.837 322.268C200.517 321.809 199.524 321.31 198.859 320.771V325.539C200.867 326.583 203.035 327.111 205.365 327.123V330.754H207.878V327.019C210.139 326.767 211.878 326.059 213.094 324.894Z" fill="#2E03E5"/>
<path d="M190.062 320.53C190.062 321.918 189.242 322.739 187.601 322.991V317.775C189.242 318.487 190.062 319.405 190.062 320.53ZM182.695 308.997C182.695 307.62 183.493 306.788 185.088 306.501V311.957C183.493 311.166 182.695 310.179 182.695 308.997ZM192.817 324.894C194.033 323.729 194.641 322.194 194.641 320.289C194.641 318.636 194.096 317.228 193.006 316.063C191.916 314.898 190.114 313.863 187.601 312.956V306.432C189.609 306.65 191.417 307.247 193.024 308.222V303.575C191.83 302.91 190.022 302.519 187.601 302.404V299.271H185.088V302.473C182.988 302.679 181.301 303.417 180.027 304.685C178.754 305.953 178.117 307.488 178.117 309.289C178.117 310.965 178.607 312.385 179.588 313.55C180.569 314.715 182.403 315.796 185.088 316.795V323.06C184.055 322.991 182.879 322.727 181.559 322.268C180.239 321.809 179.247 321.31 178.581 320.771V325.539C180.59 326.583 182.759 327.111 185.088 327.123V330.754H187.601V327.019C189.862 326.767 191.6 326.059 192.817 324.894Z" fill="#2E03E5"/>
</svg>
