<svg width="348" height="392" viewBox="0 0 348 392" fill="none" xmlns="http://www.w3.org/2000/svg">
<path d="M535.604 549.802C535.604 550.432 535.48 551.057 535.238 551.639C534.997 552.222 534.643 552.751 534.197 553.197C533.751 553.643 533.222 553.997 532.639 554.238C532.057 554.48 531.432 554.604 530.802 554.604C530.171 554.604 529.547 554.48 528.964 554.238C528.382 553.997 527.852 553.643 527.406 553.197C526.961 552.751 526.607 552.222 526.366 551.639C526.124 551.057 526 550.432 526 549.802C526 549.171 526.124 548.547 526.366 547.964C526.607 547.382 526.961 546.852 527.406 546.406C527.852 545.961 528.382 545.607 528.964 545.366C529.547 545.124 530.171 545 530.802 545C531.432 545 532.057 545.124 532.639 545.366C533.222 545.607 533.751 545.961 534.197 546.406C534.643 546.852 534.997 547.382 535.238 547.964C535.48 548.547 535.604 549.171 535.604 549.802ZM485.604 549.802C485.604 550.432 485.479 551.057 485.238 551.639C484.997 552.222 484.643 552.751 484.197 553.197C483.751 553.643 483.222 553.997 482.639 554.238C482.057 554.48 481.432 554.604 480.802 554.604C480.171 554.604 479.547 554.48 478.964 554.238C478.382 553.997 477.852 553.643 477.406 553.197C476.961 552.751 476.607 552.222 476.366 551.639C476.124 551.057 476 550.432 476 549.802C476 549.171 476.124 548.547 476.366 547.964C476.607 547.382 476.961 546.852 477.406 546.406C477.852 545.961 478.382 545.607 478.964 545.366C479.547 545.124 480.171 545 480.802 545C481.432 545 482.057 545.124 482.639 545.366C483.222 545.607 483.751 545.961 484.197 546.406C484.643 546.852 484.997 547.382 485.238 547.964C485.479 548.547 485.604 549.171 485.604 549.802ZM435.604 549.802C435.604 550.432 435.479 551.057 435.238 551.639C434.997 552.222 434.643 552.751 434.197 553.197C433.751 553.643 433.222 553.997 432.639 554.238C432.057 554.48 431.432 554.604 430.802 554.604C430.171 554.604 429.547 554.48 428.964 554.238C428.382 553.997 427.852 553.643 427.406 553.197C426.961 552.751 426.607 552.222 426.366 551.639C426.124 551.057 426 550.432 426 549.802C426 549.171 426.124 548.547 426.366 547.964C426.607 547.382 426.961 546.852 427.406 546.406C427.852 545.961 428.382 545.607 428.964 545.366C429.547 545.124 430.171 545 430.802 545C431.432 545 432.057 545.124 432.639 545.366C433.222 545.607 433.751 545.961 434.197 546.406C434.643 546.852 434.997 547.382 435.238 547.964C435.479 548.547 435.604 549.171 435.604 549.802ZM385.604 549.802C385.604 550.432 385.479 551.057 385.238 551.639C384.997 552.222 384.643 552.751 384.197 553.197C383.751 553.643 383.222 553.997 382.639 554.238C382.057 554.48 381.432 554.604 380.802 554.604C380.171 554.604 379.547 554.48 378.964 554.238C378.382 553.997 377.852 553.643 377.406 553.197C376.961 552.751 376.607 552.222 376.366 551.639C376.124 551.057 376 550.432 376 549.802C376 549.171 376.124 548.547 376.366 547.964C376.607 547.382 376.961 546.852 377.406 546.406C377.852 545.961 378.382 545.607 378.964 545.366C379.547 545.124 380.171 545 380.802 545C381.432 545 382.057 545.124 382.639 545.366C383.222 545.607 383.751 545.961 384.197 546.406C384.643 546.852 384.997 547.382 385.238 547.964C385.479 548.547 385.604 549.171 385.604 549.802ZM335.604 549.802C335.604 550.432 335.479 551.057 335.238 551.639C334.997 552.222 334.643 552.751 334.197 553.197C333.751 553.643 333.222 553.997 332.639 554.238C332.057 554.48 331.432 554.604 330.802 554.604C330.171 554.604 329.547 554.48 328.964 554.238C328.382 553.997 327.852 553.643 327.406 553.197C326.961 552.751 326.607 552.222 326.366 551.639C326.124 551.057 326 550.432 326 549.802C326 549.171 326.124 548.547 326.366 547.964C326.607 547.382 326.961 546.852 327.406 546.406C327.852 545.961 328.382 545.607 328.964 545.366C329.547 545.124 330.171 545 330.802 545C331.432 545 332.057 545.124 332.639 545.366C333.222 545.607 333.751 545.961 334.197 546.406C334.643 546.852 334.997 547.382 335.238 547.964C335.479 548.547 335.604 549.171 335.604 549.802ZM285.604 549.802C285.604 550.432 285.479 551.057 285.238 551.639C284.997 552.222 284.643 552.751 284.197 553.197C283.751 553.643 283.222 553.997 282.639 554.238C282.057 554.48 281.432 554.604 280.802 554.604C280.171 554.604 279.547 554.48 278.964 554.238C278.382 553.997 277.852 553.643 277.406 553.197C276.961 552.751 276.607 552.222 276.366 551.639C276.124 551.057 276 550.432 276 549.802C276 549.171 276.124 548.547 276.366 547.964C276.607 547.382 276.961 546.852 277.406 546.406C277.852 545.961 278.382 545.607 278.964 545.366C279.547 545.124 280.171 545 280.802 545C281.432 545 282.057 545.124 282.639 545.366C283.222 545.607 283.751 545.961 284.197 546.406C284.643 546.852 284.997 547.382 285.238 547.964C285.479 548.547 285.604 549.171 285.604 549.802ZM235.604 549.802C235.604 550.432 235.48 551.057 235.238 551.639C234.997 552.222 234.643 552.751 234.197 553.197C233.751 553.643 233.222 553.997 232.639 554.238C232.057 554.48 231.432 554.604 230.802 554.604C230.171 554.604 229.547 554.48 228.964 554.238C228.382 553.997 227.852 553.643 227.406 553.197C226.961 552.751 226.607 552.222 226.366 551.639C226.124 551.057 226 550.432 226 549.802C226 549.171 226.124 548.547 226.366 547.964C226.607 547.382 226.961 546.852 227.406 546.406C227.852 545.961 228.382 545.607 228.964 545.366C229.547 545.124 230.171 545 230.802 545C231.432 545 232.057 545.124 232.639 545.366C233.222 545.607 233.751 545.961 234.197 546.406C234.643 546.852 234.997 547.382 235.238 547.964C235.48 548.547 235.604 549.171 235.604 549.802ZM185.604 549.802C185.604 550.432 185.48 551.057 185.238 551.639C184.997 552.222 184.643 552.751 184.197 553.197C183.751 553.643 183.222 553.997 182.639 554.238C182.057 554.48 181.432 554.604 180.802 554.604C180.171 554.604 179.547 554.48 178.964 554.238C178.382 553.997 177.852 553.643 177.406 553.197C176.961 552.751 176.607 552.222 176.366 551.639C176.124 551.057 176 550.432 176 549.802C176 549.171 176.124 548.547 176.366 547.964C176.607 547.382 176.961 546.852 177.406 546.406C177.852 545.961 178.382 545.607 178.964 545.366C179.547 545.124 180.171 545 180.802 545C181.432 545 182.057 545.124 182.639 545.366C183.222 545.607 183.751 545.961 184.197 546.406C184.643 546.852 184.997 547.382 185.238 547.964C185.48 548.547 185.604 549.171 185.604 549.802ZM135.604 549.802C135.604 550.432 135.48 551.057 135.238 551.639C134.997 552.222 134.643 552.751 134.197 553.197C133.751 553.643 133.222 553.997 132.639 554.238C132.057 554.48 131.432 554.604 130.802 554.604C130.171 554.604 129.547 554.48 128.964 554.238C128.382 553.997 127.852 553.643 127.406 553.197C126.961 552.751 126.607 552.222 126.366 551.639C126.124 551.057 126 550.432 126 549.802C126 549.171 126.124 548.547 126.366 547.964C126.607 547.382 126.961 546.852 127.406 546.406C127.852 545.961 128.382 545.607 128.964 545.366C129.547 545.124 130.171 545 130.802 545C131.432 545 132.057 545.124 132.639 545.366C133.222 545.607 133.751 545.961 134.197 546.406C134.643 546.852 134.997 547.382 135.238 547.964C135.48 548.547 135.604 549.171 135.604 549.802ZM85.6037 549.802C85.6037 550.432 85.4795 551.057 85.2382 551.639C84.9969 552.222 84.6432 552.751 84.1973 553.197C83.7514 553.643 83.222 553.997 82.6395 554.238C82.0569 554.48 81.4324 554.604 80.8019 554.604C80.1713 554.604 79.5469 554.48 78.9643 554.238C78.3817 553.997 77.8523 553.643 77.4064 553.197C76.9605 552.751 76.6068 552.222 76.3655 551.639C76.1242 551.057 76 550.432 76 549.802C76 548.528 76.5059 547.307 77.4064 546.406C78.307 545.506 79.5283 545 80.8019 545C81.4324 545 82.0569 545.124 82.6395 545.366C83.222 545.607 83.7514 545.961 84.1973 546.406C84.6432 546.852 84.9969 547.382 85.2382 547.964C85.4795 548.547 85.6037 549.171 85.6037 549.802ZM35.6037 549.802C35.6037 550.432 35.4795 551.057 35.2382 551.639C34.9969 552.222 34.6432 552.751 34.1973 553.197C33.7514 553.643 33.222 553.997 32.6394 554.238C32.0569 554.48 31.4324 554.604 30.8019 554.604C30.1713 554.604 29.5469 554.48 28.9643 554.238C28.3817 553.997 27.8523 553.643 27.4064 553.197C26.9605 552.751 26.6068 552.222 26.3655 551.639C26.1242 551.057 26 550.432 26 549.802C26 548.528 26.5059 547.307 27.4064 546.406C28.307 545.506 29.5283 545 30.8019 545C32.0754 545 33.2968 545.506 34.1973 546.406C35.0978 547.307 35.6037 548.528 35.6037 549.802ZM535.604 499.802C535.604 500.432 535.48 501.057 535.238 501.639C534.997 502.222 534.643 502.751 534.197 503.197C533.751 503.643 533.222 503.997 532.639 504.238C532.057 504.48 531.432 504.604 530.802 504.604C530.171 504.604 529.547 504.48 528.964 504.238C528.382 503.997 527.852 503.643 527.406 503.197C526.961 502.751 526.607 502.222 526.366 501.639C526.124 501.057 526 500.432 526 499.802C526 499.171 526.124 498.547 526.366 497.964C526.607 497.382 526.961 496.852 527.406 496.406C527.852 495.961 528.382 495.607 528.964 495.366C529.547 495.124 530.171 495 530.802 495C531.432 495 532.057 495.124 532.639 495.366C533.222 495.607 533.751 495.961 534.197 496.406C534.643 496.852 534.997 497.382 535.238 497.964C535.48 498.547 535.604 499.171 535.604 499.802ZM485.604 499.802C485.604 500.432 485.479 501.057 485.238 501.639C484.997 502.222 484.643 502.751 484.197 503.197C483.751 503.643 483.222 503.997 482.639 504.238C482.057 504.48 481.432 504.604 480.802 504.604C480.171 504.604 479.547 504.48 478.964 504.238C478.382 503.997 477.852 503.643 477.406 503.197C476.961 502.751 476.607 502.222 476.366 501.639C476.124 501.057 476 500.432 476 499.802C476 499.171 476.124 498.547 476.366 497.964C476.607 497.382 476.961 496.852 477.406 496.406C477.852 495.961 478.382 495.607 478.964 495.366C479.547 495.124 480.171 495 480.802 495C481.432 495 482.057 495.124 482.639 495.366C483.222 495.607 483.751 495.961 484.197 496.406C484.643 496.852 484.997 497.382 485.238 497.964C485.479 498.547 485.604 499.171 485.604 499.802ZM435.604 499.802C435.604 500.432 435.479 501.057 435.238 501.639C434.997 502.222 434.643 502.751 434.197 503.197C433.751 503.643 433.222 503.997 432.639 504.238C432.057 504.48 431.432 504.604 430.802 504.604C430.171 504.604 429.547 504.48 428.964 504.238C428.382 503.997 427.852 503.643 427.406 503.197C426.961 502.751 426.607 502.222 426.366 501.639C426.124 501.057 426 500.432 426 499.802C426 499.171 426.124 498.547 426.366 497.964C426.607 497.382 426.961 496.852 427.406 496.406C427.852 495.961 428.382 495.607 428.964 495.366C429.547 495.124 430.171 495 430.802 495C431.432 495 432.057 495.124 432.639 495.366C433.222 495.607 433.751 495.961 434.197 496.406C434.643 496.852 434.997 497.382 435.238 497.964C435.479 498.547 435.604 499.171 435.604 499.802ZM385.604 499.802C385.604 500.432 385.479 501.057 385.238 501.639C384.997 502.222 384.643 502.751 384.197 503.197C383.751 503.643 383.222 503.997 382.639 504.238C382.057 504.48 381.432 504.604 380.802 504.604C380.171 504.604 379.547 504.48 378.964 504.238C378.382 503.997 377.852 503.643 377.406 503.197C376.961 502.751 376.607 502.222 376.366 501.639C376.124 501.057 376 500.432 376 499.802C376 499.171 376.124 498.547 376.366 497.964C376.607 497.382 376.961 496.852 377.406 496.406C377.852 495.961 378.382 495.607 378.964 495.366C379.547 495.124 380.171 495 380.802 495C381.432 495 382.057 495.124 382.639 495.366C383.222 495.607 383.751 495.961 384.197 496.406C384.643 496.852 384.997 497.382 385.238 497.964C385.479 498.547 385.604 499.171 385.604 499.802ZM335.604 499.802C335.604 500.432 335.479 501.057 335.238 501.639C334.997 502.222 334.643 502.751 334.197 503.197C333.751 503.643 333.222 503.997 332.639 504.238C332.057 504.48 331.432 504.604 330.802 504.604C330.171 504.604 329.547 504.48 328.964 504.238C328.382 503.997 327.852 503.643 327.406 503.197C326.961 502.751 326.607 502.222 326.366 501.639C326.124 501.057 326 500.432 326 499.802C326 499.171 326.124 498.547 326.366 497.964C326.607 497.382 326.961 496.852 327.406 496.406C327.852 495.961 328.382 495.607 328.964 495.366C329.547 495.124 330.171 495 330.802 495C331.432 495 332.057 495.124 332.639 495.366C333.222 495.607 333.751 495.961 334.197 496.406C334.643 496.852 334.997 497.382 335.238 497.964C335.479 498.547 335.604 499.171 335.604 499.802ZM285.604 499.802C285.604 500.432 285.479 501.057 285.238 501.639C284.997 502.222 284.643 502.751 284.197 503.197C283.751 503.643 283.222 503.997 282.639 504.238C282.057 504.48 281.432 504.604 280.802 504.604C280.171 504.604 279.547 504.48 278.964 504.238C278.382 503.997 277.852 503.643 277.406 503.197C276.961 502.751 276.607 502.222 276.366 501.639C276.124 501.057 276 500.432 276 499.802C276 499.171 276.124 498.547 276.366 497.964C276.607 497.382 276.961 496.852 277.406 496.406C277.852 495.961 278.382 495.607 278.964 495.366C279.547 495.124 280.171 495 280.802 495C281.432 495 282.057 495.124 282.639 495.366C283.222 495.607 283.751 495.961 284.197 496.406C284.643 496.852 284.997 497.382 285.238 497.964C285.479 498.547 285.604 499.171 285.604 499.802ZM235.604 499.802C235.604 500.432 235.48 501.057 235.238 501.639C234.997 502.222 234.643 502.751 234.197 503.197C233.751 503.643 233.222 503.997 232.639 504.238C232.057 504.48 231.432 504.604 230.802 504.604C230.171 504.604 229.547 504.48 228.964 504.238C228.382 503.997 227.852 503.643 227.406 503.197C226.961 502.751 226.607 502.222 226.366 501.639C226.124 501.057 226 500.432 226 499.802C226 499.171 226.124 498.547 226.366 497.964C226.607 497.382 226.961 496.852 227.406 496.406C227.852 495.961 228.382 495.607 228.964 495.366C229.547 495.124 230.171 495 230.802 495C231.432 495 232.057 495.124 232.639 495.366C233.222 495.607 233.751 495.961 234.197 496.406C234.643 496.852 234.997 497.382 235.238 497.964C235.48 498.547 235.604 499.171 235.604 499.802ZM185.604 499.802C185.604 500.432 185.48 501.057 185.238 501.639C184.997 502.222 184.643 502.751 184.197 503.197C183.751 503.643 183.222 503.997 182.639 504.238C182.057 504.48 181.432 504.604 180.802 504.604C180.171 504.604 179.547 504.48 178.964 504.238C178.382 503.997 177.852 503.643 177.406 503.197C176.961 502.751 176.607 502.222 176.366 501.639C176.124 501.057 176 500.432 176 499.802C176 499.171 176.124 498.547 176.366 497.964C176.607 497.382 176.961 496.852 177.406 496.406C177.852 495.961 178.382 495.607 178.964 495.366C179.547 495.124 180.171 495 180.802 495C181.432 495 182.057 495.124 182.639 495.366C183.222 495.607 183.751 495.961 184.197 496.406C184.643 496.852 184.997 497.382 185.238 497.964C185.48 498.547 185.604 499.171 185.604 499.802ZM135.604 499.802C135.604 500.432 135.48 501.057 135.238 501.639C134.997 502.222 134.643 502.751 134.197 503.197C133.751 503.643 133.222 503.997 132.639 504.238C132.057 504.48 131.432 504.604 130.802 504.604C130.171 504.604 129.547 504.48 128.964 504.238C128.382 503.997 127.852 503.643 127.406 503.197C126.961 502.751 126.607 502.222 126.366 501.639C126.124 501.057 126 500.432 126 499.802C126 499.171 126.124 498.547 126.366 497.964C126.607 497.382 126.961 496.852 127.406 496.406C127.852 495.961 128.382 495.607 128.964 495.366C129.547 495.124 130.171 495 130.802 495C131.432 495 132.057 495.124 132.639 495.366C133.222 495.607 133.751 495.961 134.197 496.406C134.643 496.852 134.997 497.382 135.238 497.964C135.48 498.547 135.604 499.171 135.604 499.802ZM85.6037 499.802C85.6037 500.432 85.4795 501.057 85.2382 501.639C84.9969 502.222 84.6432 502.751 84.1973 503.197C83.7514 503.643 83.222 503.997 82.6395 504.238C82.0569 504.48 81.4324 504.604 80.8019 504.604C80.1713 504.604 79.5469 504.48 78.9643 504.238C78.3817 503.997 77.8523 503.643 77.4064 503.197C76.9605 502.751 76.6068 502.222 76.3655 501.639C76.1242 501.057 76 500.432 76 499.802C76 499.171 76.1242 498.547 76.3655 497.964C76.6068 497.382 76.9605 496.852 77.4064 496.406C77.8523 495.961 78.3817 495.607 78.9643 495.366C79.5469 495.124 80.1713 495 80.8019 495C81.4324 495 82.0569 495.124 82.6395 495.366C83.222 495.607 83.7514 495.961 84.1973 496.406C84.6432 496.852 84.9969 497.382 85.2382 497.964C85.4795 498.547 85.6037 499.171 85.6037 499.802ZM35.6037 499.802C35.6037 500.432 35.4795 501.057 35.2382 501.639C34.9969 502.222 34.6432 502.751 34.1973 503.197C33.7514 503.643 33.222 503.997 32.6394 504.238C32.0569 504.48 31.4324 504.604 30.8019 504.604C30.1713 504.604 29.5469 504.48 28.9643 504.238C28.3817 503.997 27.8523 503.643 27.4064 503.197C26.9605 502.751 26.6068 502.222 26.3655 501.639C26.1242 501.057 26 500.432 26 499.802C26 499.171 26.1242 498.547 26.3655 497.964C26.6068 497.382 26.9605 496.852 27.4064 496.406C27.8523 495.961 28.3817 495.607 28.9643 495.366C29.5469 495.124 30.1713 495 30.8019 495C31.4324 495 32.0569 495.124 32.6395 495.366C33.222 495.607 33.7514 495.961 34.1973 496.406C34.6432 496.852 34.9969 497.382 35.2382 497.964C35.4795 498.547 35.6037 499.171 35.6037 499.802ZM535.604 449.802C535.604 450.432 535.48 451.057 535.238 451.639C534.997 452.222 534.643 452.751 534.197 453.197C533.751 453.643 533.222 453.997 532.639 454.238C532.057 454.48 531.432 454.604 530.802 454.604C530.171 454.604 529.547 454.48 528.964 454.238C528.382 453.997 527.852 453.643 527.406 453.197C526.961 452.751 526.607 452.222 526.366 451.639C526.124 451.057 526 450.432 526 449.802C526 449.171 526.124 448.547 526.366 447.964C526.607 447.382 526.961 446.852 527.406 446.406C527.852 445.961 528.382 445.607 528.964 445.366C529.547 445.124 530.171 445 530.802 445C531.432 445 532.057 445.124 532.639 445.366C533.222 445.607 533.751 445.961 534.197 446.406C534.643 446.852 534.997 447.382 535.238 447.964C535.48 448.547 535.604 449.171 535.604 449.802ZM485.604 449.802C485.604 450.432 485.479 451.057 485.238 451.639C484.997 452.222 484.643 452.751 484.197 453.197C483.751 453.643 483.222 453.997 482.639 454.238C482.057 454.48 481.432 454.604 480.802 454.604C480.171 454.604 479.547 454.48 478.964 454.238C478.382 453.997 477.852 453.643 477.406 453.197C476.961 452.751 476.607 452.222 476.366 451.639C476.124 451.057 476 450.432 476 449.802C476 449.171 476.124 448.547 476.366 447.964C476.607 447.382 476.961 446.852 477.406 446.406C477.852 445.961 478.382 445.607 478.964 445.366C479.547 445.124 480.171 445 480.802 445C481.432 445 482.057 445.124 482.639 445.366C483.222 445.607 483.751 445.961 484.197 446.406C484.643 446.852 484.997 447.382 485.238 447.964C485.479 448.547 485.604 449.171 485.604 449.802ZM435.604 449.802C435.604 450.432 435.479 451.057 435.238 451.639C434.997 452.222 434.643 452.751 434.197 453.197C433.751 453.643 433.222 453.997 432.639 454.238C432.057 454.48 431.432 454.604 430.802 454.604C430.171 454.604 429.547 454.48 428.964 454.238C428.382 453.997 427.852 453.643 427.406 453.197C426.961 452.751 426.607 452.222 426.366 451.639C426.124 451.057 426 450.432 426 449.802C426 449.171 426.124 448.547 426.366 447.964C426.607 447.382 426.961 446.852 427.406 446.406C427.852 445.961 428.382 445.607 428.964 445.366C429.547 445.124 430.171 445 430.802 445C431.432 445 432.057 445.124 432.639 445.366C433.222 445.607 433.751 445.961 434.197 446.406C434.643 446.852 434.997 447.382 435.238 447.964C435.479 448.547 435.604 449.171 435.604 449.802ZM385.604 449.802C385.604 450.432 385.479 451.057 385.238 451.639C384.997 452.222 384.643 452.751 384.197 453.197C383.751 453.643 383.222 453.997 382.639 454.238C382.057 454.48 381.432 454.604 380.802 454.604C380.171 454.604 379.547 454.48 378.964 454.238C378.382 453.997 377.852 453.643 377.406 453.197C376.961 452.751 376.607 452.222 376.366 451.639C376.124 451.057 376 450.432 376 449.802C376 449.171 376.124 448.547 376.366 447.964C376.607 447.382 376.961 446.852 377.406 446.406C377.852 445.961 378.382 445.607 378.964 445.366C379.547 445.124 380.171 445 380.802 445C381.432 445 382.057 445.124 382.639 445.366C383.222 445.607 383.751 445.961 384.197 446.406C384.643 446.852 384.997 447.382 385.238 447.964C385.479 448.547 385.604 449.171 385.604 449.802ZM335.604 449.802C335.604 450.432 335.479 451.057 335.238 451.639C334.997 452.222 334.643 452.751 334.197 453.197C333.751 453.643 333.222 453.997 332.639 454.238C332.057 454.48 331.432 454.604 330.802 454.604C330.171 454.604 329.547 454.48 328.964 454.238C328.382 453.997 327.852 453.643 327.406 453.197C326.961 452.751 326.607 452.222 326.366 451.639C326.124 451.057 326 450.432 326 449.802C326 449.171 326.124 448.547 326.366 447.964C326.607 447.382 326.961 446.852 327.406 446.406C327.852 445.961 328.382 445.607 328.964 445.366C329.547 445.124 330.171 445 330.802 445C331.432 445 332.057 445.124 332.639 445.366C333.222 445.607 333.751 445.961 334.197 446.406C334.643 446.852 334.997 447.382 335.238 447.964C335.479 448.547 335.604 449.171 335.604 449.802ZM285.604 449.802C285.604 450.432 285.479 451.057 285.238 451.639C284.997 452.222 284.643 452.751 284.197 453.197C283.751 453.643 283.222 453.997 282.639 454.238C282.057 454.48 281.432 454.604 280.802 454.604C280.171 454.604 279.547 454.48 278.964 454.238C278.382 453.997 277.852 453.643 277.406 453.197C276.961 452.751 276.607 452.222 276.366 451.639C276.124 451.057 276 450.432 276 449.802C276 449.171 276.124 448.547 276.366 447.964C276.607 447.382 276.961 446.852 277.406 446.406C277.852 445.961 278.382 445.607 278.964 445.366C279.547 445.124 280.171 445 280.802 445C281.432 445 282.057 445.124 282.639 445.366C283.222 445.607 283.751 445.961 284.197 446.406C284.643 446.852 284.997 447.382 285.238 447.964C285.479 448.547 285.604 449.171 285.604 449.802ZM235.604 449.802C235.604 450.432 235.48 451.057 235.238 451.639C234.997 452.222 234.643 452.751 234.197 453.197C233.751 453.643 233.222 453.997 232.639 454.238C232.057 454.48 231.432 454.604 230.802 454.604C230.171 454.604 229.547 454.48 228.964 454.238C228.382 453.997 227.852 453.643 227.406 453.197C226.961 452.751 226.607 452.222 226.366 451.639C226.124 451.057 226 450.432 226 449.802C226 449.171 226.124 448.547 226.366 447.964C226.607 447.382 226.961 446.852 227.406 446.406C227.852 445.961 228.382 445.607 228.964 445.366C229.547 445.124 230.171 445 230.802 445C231.432 445 232.057 445.124 232.639 445.366C233.222 445.607 233.751 445.961 234.197 446.406C234.643 446.852 234.997 447.382 235.238 447.964C235.48 448.547 235.604 449.171 235.604 449.802ZM185.604 449.802C185.604 450.432 185.48 451.057 185.238 451.639C184.997 452.222 184.643 452.751 184.197 453.197C183.751 453.643 183.222 453.997 182.639 454.238C182.057 454.48 181.432 454.604 180.802 454.604C180.171 454.604 179.547 454.48 178.964 454.238C178.382 453.997 177.852 453.643 177.406 453.197C176.961 452.751 176.607 452.222 176.366 451.639C176.124 451.057 176 450.432 176 449.802C176 449.171 176.124 448.547 176.366 447.964C176.607 447.382 176.961 446.852 177.406 446.406C177.852 445.961 178.382 445.607 178.964 445.366C179.547 445.124 180.171 445 180.802 445C181.432 445 182.057 445.124 182.639 445.366C183.222 445.607 183.751 445.961 184.197 446.406C184.643 446.852 184.997 447.382 185.238 447.964C185.48 448.547 185.604 449.171 185.604 449.802ZM135.604 449.802C135.604 450.432 135.48 451.057 135.238 451.639C134.997 452.222 134.643 452.751 134.197 453.197C133.751 453.643 133.222 453.997 132.639 454.238C132.057 454.48 131.432 454.604 130.802 454.604C130.171 454.604 129.547 454.48 128.964 454.238C128.382 453.997 127.852 453.643 127.406 453.197C126.961 452.751 126.607 452.222 126.366 451.639C126.124 451.057 126 450.432 126 449.802C126 449.171 126.124 448.547 126.366 447.964C126.607 447.382 126.961 446.852 127.406 446.406C127.852 445.961 128.382 445.607 128.964 445.366C129.547 445.124 130.171 445 130.802 445C131.432 445 132.057 445.124 132.639 445.366C133.222 445.607 133.751 445.961 134.197 446.406C134.643 446.852 134.997 447.382 135.238 447.964C135.48 448.547 135.604 449.171 135.604 449.802ZM85.6037 449.802C85.6037 450.432 85.4795 451.057 85.2382 451.639C84.9969 452.222 84.6432 452.751 84.1973 453.197C83.7514 453.643 83.222 453.997 82.6395 454.238C82.0569 454.48 81.4324 454.604 80.8019 454.604C80.1713 454.604 79.5469 454.48 78.9643 454.238C78.3817 453.997 77.8523 453.643 77.4064 453.197C76.9605 452.751 76.6068 452.222 76.3655 451.639C76.1242 451.057 76 450.432 76 449.802C76 449.171 76.1242 448.547 76.3655 447.964C76.6068 447.382 76.9605 446.852 77.4064 446.406C77.8523 445.961 78.3817 445.607 78.9643 445.366C79.5469 445.124 80.1713 445 80.8019 445C81.4324 445 82.0569 445.124 82.6395 445.366C83.222 445.607 83.7514 445.961 84.1973 446.406C84.6432 446.852 84.9969 447.382 85.2382 447.964C85.4795 448.547 85.6037 449.171 85.6037 449.802ZM35.6037 449.802C35.6037 450.432 35.4795 451.057 35.2382 451.639C34.9969 452.222 34.6432 452.751 34.1973 453.197C33.7514 453.643 33.222 453.997 32.6395 454.238C32.0569 454.48 31.4324 454.604 30.8019 454.604C30.1713 454.604 29.5469 454.48 28.9643 454.238C28.3817 453.997 27.8523 453.643 27.4064 453.197C26.9605 452.751 26.6068 452.222 26.3655 451.639C26.1242 451.057 26 450.432 26 449.802C26 449.171 26.1242 448.547 26.3655 447.964C26.6068 447.382 26.9605 446.852 27.4064 446.406C27.8523 445.961 28.3817 445.607 28.9643 445.366C29.5469 445.124 30.1713 445 30.8019 445C31.4324 445 32.0569 445.124 32.6395 445.366C33.222 445.607 33.7514 445.961 34.1973 446.406C34.6432 446.852 34.9969 447.382 35.2382 447.964C35.4795 448.547 35.6037 449.171 35.6037 449.802ZM535.604 399.802C535.604 400.432 535.48 401.057 535.238 401.639C534.997 402.222 534.643 402.751 534.197 403.197C533.751 403.643 533.222 403.997 532.639 404.238C532.057 404.48 531.432 404.604 530.802 404.604C530.171 404.604 529.547 404.48 528.964 404.238C528.382 403.997 527.852 403.643 527.406 403.197C526.961 402.751 526.607 402.222 526.366 401.639C526.124 401.057 526 400.432 526 399.802C526 399.171 526.124 398.547 526.366 397.964C526.607 397.382 526.961 396.852 527.406 396.406C527.852 395.961 528.382 395.607 528.964 395.366C529.547 395.124 530.171 395 530.802 395C531.432 395 532.057 395.124 532.639 395.366C533.222 395.607 533.751 395.961 534.197 396.406C534.643 396.852 534.997 397.382 535.238 397.964C535.48 398.547 535.604 399.171 535.604 399.802ZM485.604 399.802C485.604 400.432 485.479 401.057 485.238 401.639C484.997 402.222 484.643 402.751 484.197 403.197C483.751 403.643 483.222 403.997 482.639 404.238C482.057 404.48 481.432 404.604 480.802 404.604C480.171 404.604 479.547 404.48 478.964 404.238C478.382 403.997 477.852 403.643 477.406 403.197C476.961 402.751 476.607 402.222 476.366 401.639C476.124 401.057 476 400.432 476 399.802C476 399.171 476.124 398.547 476.366 397.964C476.607 397.382 476.961 396.852 477.406 396.406C477.852 395.961 478.382 395.607 478.964 395.366C479.547 395.124 480.171 395 480.802 395C481.432 395 482.057 395.124 482.639 395.366C483.222 395.607 483.751 395.961 484.197 396.406C484.643 396.852 484.997 397.382 485.238 397.964C485.479 398.547 485.604 399.171 485.604 399.802ZM435.604 399.802C435.604 400.432 435.479 401.057 435.238 401.639C434.997 402.222 434.643 402.751 434.197 403.197C433.751 403.643 433.222 403.997 432.639 404.238C432.057 404.48 431.432 404.604 430.802 404.604C430.171 404.604 429.547 404.48 428.964 404.238C428.382 403.997 427.852 403.643 427.406 403.197C426.961 402.751 426.607 402.222 426.366 401.639C426.124 401.057 426 400.432 426 399.802C426 399.171 426.124 398.547 426.366 397.964C426.607 397.382 426.961 396.852 427.406 396.406C427.852 395.961 428.382 395.607 428.964 395.366C429.547 395.124 430.171 395 430.802 395C431.432 395 432.057 395.124 432.639 395.366C433.222 395.607 433.751 395.961 434.197 396.406C434.643 396.852 434.997 397.382 435.238 397.964C435.479 398.547 435.604 399.171 435.604 399.802ZM385.604 399.802C385.604 400.432 385.479 401.057 385.238 401.639C384.997 402.222 384.643 402.751 384.197 403.197C383.751 403.643 383.222 403.997 382.639 404.238C382.057 404.48 381.432 404.604 380.802 404.604C380.171 404.604 379.547 404.48 378.964 404.238C378.382 403.997 377.852 403.643 377.406 403.197C376.961 402.751 376.607 402.222 376.366 401.639C376.124 401.057 376 400.432 376 399.802C376 399.171 376.124 398.547 376.366 397.964C376.607 397.382 376.961 396.852 377.406 396.406C377.852 395.961 378.382 395.607 378.964 395.366C379.547 395.124 380.171 395 380.802 395C381.432 395 382.057 395.124 382.639 395.366C383.222 395.607 383.751 395.961 384.197 396.406C384.643 396.852 384.997 397.382 385.238 397.964C385.479 398.547 385.604 399.171 385.604 399.802ZM335.604 399.802C335.604 400.432 335.479 401.057 335.238 401.639C334.997 402.222 334.643 402.751 334.197 403.197C333.751 403.643 333.222 403.997 332.639 404.238C332.057 404.48 331.432 404.604 330.802 404.604C330.171 404.604 329.547 404.48 328.964 404.238C328.382 403.997 327.852 403.643 327.406 403.197C326.961 402.751 326.607 402.222 326.366 401.639C326.124 401.057 326 400.432 326 399.802C326 399.171 326.124 398.547 326.366 397.964C326.607 397.382 326.961 396.852 327.406 396.406C327.852 395.961 328.382 395.607 328.964 395.366C329.547 395.124 330.171 395 330.802 395C331.432 395 332.057 395.124 332.639 395.366C333.222 395.607 333.751 395.961 334.197 396.406C334.643 396.852 334.997 397.382 335.238 397.964C335.479 398.547 335.604 399.171 335.604 399.802ZM285.604 399.802C285.604 400.432 285.479 401.057 285.238 401.639C284.997 402.222 284.643 402.751 284.197 403.197C283.751 403.643 283.222 403.997 282.639 404.238C282.057 404.48 281.432 404.604 280.802 404.604C280.171 404.604 279.547 404.48 278.964 404.238C278.382 403.997 277.852 403.643 277.406 403.197C276.961 402.751 276.607 402.222 276.366 401.639C276.124 401.057 276 400.432 276 399.802C276 399.171 276.124 398.547 276.366 397.964C276.607 397.382 276.961 396.852 277.406 396.406C277.852 395.961 278.382 395.607 278.964 395.366C279.547 395.124 280.171 395 280.802 395C281.432 395 282.057 395.124 282.639 395.366C283.222 395.607 283.751 395.961 284.197 396.406C284.643 396.852 284.997 397.382 285.238 397.964C285.479 398.547 285.604 399.171 285.604 399.802ZM235.604 399.802C235.604 400.432 235.48 401.057 235.238 401.639C234.997 402.222 234.643 402.751 234.197 403.197C233.751 403.643 233.222 403.997 232.639 404.238C232.057 404.48 231.432 404.604 230.802 404.604C230.171 404.604 229.547 404.48 228.964 404.238C228.382 403.997 227.852 403.643 227.406 403.197C226.961 402.751 226.607 402.222 226.366 401.639C226.124 401.057 226 400.432 226 399.802C226 399.171 226.124 398.547 226.366 397.964C226.607 397.382 226.961 396.852 227.406 396.406C227.852 395.961 228.382 395.607 228.964 395.366C229.547 395.124 230.171 395 230.802 395C231.432 395 232.057 395.124 232.639 395.366C233.222 395.607 233.751 395.961 234.197 396.406C234.643 396.852 234.997 397.382 235.238 397.964C235.48 398.547 235.604 399.171 235.604 399.802ZM185.604 399.802C185.604 400.432 185.48 401.057 185.238 401.639C184.997 402.222 184.643 402.751 184.197 403.197C183.751 403.643 183.222 403.997 182.639 404.238C182.057 404.48 181.432 404.604 180.802 404.604C180.171 404.604 179.547 404.48 178.964 404.238C178.382 403.997 177.852 403.643 177.406 403.197C176.961 402.751 176.607 402.222 176.366 401.639C176.124 401.057 176 400.432 176 399.802C176 399.171 176.124 398.547 176.366 397.964C176.607 397.382 176.961 396.852 177.406 396.406C177.852 395.961 178.382 395.607 178.964 395.366C179.547 395.124 180.171 395 180.802 395C181.432 395 182.057 395.124 182.639 395.366C183.222 395.607 183.751 395.961 184.197 396.406C184.643 396.852 184.997 397.382 185.238 397.964C185.48 398.547 185.604 399.171 185.604 399.802ZM135.604 399.802C135.604 400.432 135.48 401.057 135.238 401.639C134.997 402.222 134.643 402.751 134.197 403.197C133.751 403.643 133.222 403.997 132.639 404.238C132.057 404.48 131.432 404.604 130.802 404.604C130.171 404.604 129.547 404.48 128.964 404.238C128.382 403.997 127.852 403.643 127.406 403.197C126.961 402.751 126.607 402.222 126.366 401.639C126.124 401.057 126 400.432 126 399.802C126 399.171 126.124 398.547 126.366 397.964C126.607 397.382 126.961 396.852 127.406 396.406C127.852 395.961 128.382 395.607 128.964 395.366C129.547 395.124 130.171 395 130.802 395C131.432 395 132.057 395.124 132.639 395.366C133.222 395.607 133.751 395.961 134.197 396.406C134.643 396.852 134.997 397.382 135.238 397.964C135.48 398.547 135.604 399.171 135.604 399.802ZM85.6037 399.802C85.6037 400.432 85.4795 401.057 85.2382 401.639C84.9969 402.222 84.6432 402.751 84.1973 403.197C83.7514 403.643 83.222 403.997 82.6395 404.238C82.0569 404.48 81.4324 404.604 80.8019 404.604C80.1713 404.604 79.5469 404.48 78.9643 404.238C78.3817 403.997 77.8523 403.643 77.4064 403.197C76.9605 402.751 76.6068 402.222 76.3655 401.639C76.1242 401.057 76 400.432 76 399.802C76 399.171 76.1242 398.547 76.3655 397.964C76.6068 397.382 76.9605 396.852 77.4064 396.406C77.8523 395.961 78.3817 395.607 78.9643 395.366C79.5469 395.124 80.1713 395 80.8019 395C81.4324 395 82.0569 395.124 82.6395 395.366C83.222 395.607 83.7514 395.961 84.1973 396.406C84.6432 396.852 84.9969 397.382 85.2382 397.964C85.4795 398.547 85.6037 399.171 85.6037 399.802ZM35.6037 399.802C35.6037 400.432 35.4795 401.057 35.2382 401.639C34.9969 402.222 34.6432 402.751 34.1973 403.197C33.7514 403.643 33.222 403.997 32.6395 404.238C32.0569 404.48 31.4324 404.604 30.8019 404.604C30.1713 404.604 29.5469 404.48 28.9643 404.238C28.3817 403.997 27.8523 403.643 27.4064 403.197C26.9605 402.751 26.6068 402.222 26.3655 401.639C26.1242 401.057 26 400.432 26 399.802C26 399.171 26.1242 398.547 26.3655 397.964C26.6068 397.382 26.9605 396.852 27.4064 396.406C27.8523 395.961 28.3817 395.607 28.9643 395.366C29.5469 395.124 30.1713 395 30.8019 395C31.4324 395 32.0569 395.124 32.6395 395.366C33.222 395.607 33.7514 395.961 34.1973 396.406C34.6432 396.852 34.9969 397.382 35.2382 397.964C35.4795 398.547 35.6037 399.171 35.6037 399.802ZM535.604 349.802C535.604 350.432 535.48 351.057 535.238 351.639C534.997 352.222 534.643 352.751 534.197 353.197C533.751 353.643 533.222 353.997 532.639 354.238C532.057 354.48 531.432 354.604 530.802 354.604C530.171 354.604 529.547 354.48 528.964 354.238C528.382 353.997 527.852 353.643 527.406 353.197C526.961 352.751 526.607 352.222 526.366 351.639C526.124 351.057 526 350.432 526 349.802C526 349.171 526.124 348.547 526.366 347.964C526.607 347.382 526.961 346.852 527.406 346.406C527.852 345.961 528.382 345.607 528.964 345.366C529.547 345.124 530.171 345 530.802 345C531.432 345 532.057 345.124 532.639 345.366C533.222 345.607 533.751 345.961 534.197 346.406C534.643 346.852 534.997 347.382 535.238 347.964C535.48 348.547 535.604 349.171 535.604 349.802ZM485.604 349.802C485.604 350.432 485.479 351.057 485.238 351.639C484.997 352.222 484.643 352.751 484.197 353.197C483.751 353.643 483.222 353.997 482.639 354.238C482.057 354.48 481.432 354.604 480.802 354.604C480.171 354.604 479.547 354.48 478.964 354.238C478.382 353.997 477.852 353.643 477.406 353.197C476.961 352.751 476.607 352.222 476.366 351.639C476.124 351.057 476 350.432 476 349.802C476 349.171 476.124 348.547 476.366 347.964C476.607 347.382 476.961 346.852 477.406 346.406C477.852 345.961 478.382 345.607 478.964 345.366C479.547 345.124 480.171 345 480.802 345C481.432 345 482.057 345.124 482.639 345.366C483.222 345.607 483.751 345.961 484.197 346.406C484.643 346.852 484.997 347.382 485.238 347.964C485.479 348.547 485.604 349.171 485.604 349.802ZM435.604 349.802C435.604 350.432 435.479 351.057 435.238 351.639C434.997 352.222 434.643 352.751 434.197 353.197C433.751 353.643 433.222 353.997 432.639 354.238C432.057 354.48 431.432 354.604 430.802 354.604C430.171 354.604 429.547 354.48 428.964 354.238C428.382 353.997 427.852 353.643 427.406 353.197C426.961 352.751 426.607 352.222 426.366 351.639C426.124 351.057 426 350.432 426 349.802C426 349.171 426.124 348.547 426.366 347.964C426.607 347.382 426.961 346.852 427.406 346.406C427.852 345.961 428.382 345.607 428.964 345.366C429.547 345.124 430.171 345 430.802 345C431.432 345 432.057 345.124 432.639 345.366C433.222 345.607 433.751 345.961 434.197 346.406C434.643 346.852 434.997 347.382 435.238 347.964C435.479 348.547 435.604 349.171 435.604 349.802ZM385.604 349.802C385.604 350.432 385.479 351.057 385.238 351.639C384.997 352.222 384.643 352.751 384.197 353.197C383.751 353.643 383.222 353.997 382.639 354.238C382.057 354.48 381.432 354.604 380.802 354.604C380.171 354.604 379.547 354.48 378.964 354.238C378.382 353.997 377.852 353.643 377.406 353.197C376.961 352.751 376.607 352.222 376.366 351.639C376.124 351.057 376 350.432 376 349.802C376 349.171 376.124 348.547 376.366 347.964C376.607 347.382 376.961 346.852 377.406 346.406C377.852 345.961 378.382 345.607 378.964 345.366C379.547 345.124 380.171 345 380.802 345C381.432 345 382.057 345.124 382.639 345.366C383.222 345.607 383.751 345.961 384.197 346.406C384.643 346.852 384.997 347.382 385.238 347.964C385.479 348.547 385.604 349.171 385.604 349.802ZM335.604 349.802C335.604 350.432 335.479 351.057 335.238 351.639C334.997 352.222 334.643 352.751 334.197 353.197C333.751 353.643 333.222 353.997 332.639 354.238C332.057 354.48 331.432 354.604 330.802 354.604C330.171 354.604 329.547 354.48 328.964 354.238C328.382 353.997 327.852 353.643 327.406 353.197C326.961 352.751 326.607 352.222 326.366 351.639C326.124 351.057 326 350.432 326 349.802C326 349.171 326.124 348.547 326.366 347.964C326.607 347.382 326.961 346.852 327.406 346.406C327.852 345.961 328.382 345.607 328.964 345.366C329.547 345.124 330.171 345 330.802 345C331.432 345 332.057 345.124 332.639 345.366C333.222 345.607 333.751 345.961 334.197 346.406C334.643 346.852 334.997 347.382 335.238 347.964C335.479 348.547 335.604 349.171 335.604 349.802ZM285.604 349.802C285.604 350.432 285.479 351.057 285.238 351.639C284.997 352.222 284.643 352.751 284.197 353.197C283.751 353.643 283.222 353.997 282.639 354.238C282.057 354.48 281.432 354.604 280.802 354.604C280.171 354.604 279.547 354.48 278.964 354.238C278.382 353.997 277.852 353.643 277.406 353.197C276.961 352.751 276.607 352.222 276.366 351.639C276.124 351.057 276 350.432 276 349.802C276 349.171 276.124 348.547 276.366 347.964C276.607 347.382 276.961 346.852 277.406 346.406C277.852 345.961 278.382 345.607 278.964 345.366C279.547 345.124 280.171 345 280.802 345C281.432 345 282.057 345.124 282.639 345.366C283.222 345.607 283.751 345.961 284.197 346.406C284.643 346.852 284.997 347.382 285.238 347.964C285.479 348.547 285.604 349.171 285.604 349.802ZM235.604 349.802C235.604 350.432 235.48 351.057 235.238 351.639C234.997 352.222 234.643 352.751 234.197 353.197C233.751 353.643 233.222 353.997 232.639 354.238C232.057 354.48 231.432 354.604 230.802 354.604C230.171 354.604 229.547 354.48 228.964 354.238C228.382 353.997 227.852 353.643 227.406 353.197C226.961 352.751 226.607 352.222 226.366 351.639C226.124 351.057 226 350.432 226 349.802C226 349.171 226.124 348.547 226.366 347.964C226.607 347.382 226.961 346.852 227.406 346.406C227.852 345.961 228.382 345.607 228.964 345.366C229.547 345.124 230.171 345 230.802 345C231.432 345 232.057 345.124 232.639 345.366C233.222 345.607 233.751 345.961 234.197 346.406C234.643 346.852 234.997 347.382 235.238 347.964C235.48 348.547 235.604 349.171 235.604 349.802ZM185.604 349.802C185.604 350.432 185.48 351.057 185.238 351.639C184.997 352.222 184.643 352.751 184.197 353.197C183.751 353.643 183.222 353.997 182.639 354.238C182.057 354.48 181.432 354.604 180.802 354.604C180.171 354.604 179.547 354.48 178.964 354.238C178.382 353.997 177.852 353.643 177.406 353.197C176.961 352.751 176.607 352.222 176.366 351.639C176.124 351.057 176 350.432 176 349.802C176 349.171 176.124 348.547 176.366 347.964C176.607 347.382 176.961 346.852 177.406 346.406C177.852 345.961 178.382 345.607 178.964 345.366C179.547 345.124 180.171 345 180.802 345C181.432 345 182.057 345.124 182.639 345.366C183.222 345.607 183.751 345.961 184.197 346.406C184.643 346.852 184.997 347.382 185.238 347.964C185.48 348.547 185.604 349.171 185.604 349.802ZM135.604 349.802C135.604 350.432 135.48 351.057 135.238 351.639C134.997 352.222 134.643 352.751 134.197 353.197C133.751 353.643 133.222 353.997 132.639 354.238C132.057 354.48 131.432 354.604 130.802 354.604C130.171 354.604 129.547 354.48 128.964 354.238C128.382 353.997 127.852 353.643 127.406 353.197C126.961 352.751 126.607 352.222 126.366 351.639C126.124 351.057 126 350.432 126 349.802C126 349.171 126.124 348.547 126.366 347.964C126.607 347.382 126.961 346.852 127.406 346.406C127.852 345.961 128.382 345.607 128.964 345.366C129.547 345.124 130.171 345 130.802 345C131.432 345 132.057 345.124 132.639 345.366C133.222 345.607 133.751 345.961 134.197 346.406C134.643 346.852 134.997 347.382 135.238 347.964C135.48 348.547 135.604 349.171 135.604 349.802ZM85.6037 349.802C85.6037 350.432 85.4795 351.057 85.2382 351.639C84.9969 352.222 84.6432 352.751 84.1973 353.197C83.7514 353.643 83.222 353.997 82.6395 354.238C82.0569 354.48 81.4324 354.604 80.8019 354.604C80.1713 354.604 79.5469 354.48 78.9643 354.238C78.3817 353.997 77.8523 353.643 77.4064 353.197C76.9605 352.751 76.6068 352.222 76.3655 351.639C76.1242 351.057 76 350.432 76 349.802C76 349.171 76.1242 348.547 76.3655 347.964C76.6068 347.382 76.9605 346.852 77.4064 346.406C77.8523 345.961 78.3817 345.607 78.9643 345.366C79.5469 345.124 80.1713 345 80.8019 345C81.4324 345 82.0569 345.124 82.6395 345.366C83.222 345.607 83.7514 345.961 84.1973 346.406C84.6432 346.852 84.9969 347.382 85.2382 347.964C85.4795 348.547 85.6037 349.171 85.6037 349.802ZM35.6037 349.802C35.6037 350.432 35.4795 351.057 35.2382 351.639C34.9969 352.222 34.6432 352.751 34.1973 353.197C33.7514 353.643 33.222 353.997 32.6395 354.238C32.0569 354.48 31.4324 354.604 30.8019 354.604C30.1713 354.604 29.5469 354.48 28.9643 354.238C28.3817 353.997 27.8523 353.643 27.4064 353.197C26.9605 352.751 26.6068 352.222 26.3655 351.639C26.1242 351.057 26 350.432 26 349.802C26 349.171 26.1242 348.547 26.3655 347.964C26.6068 347.382 26.9605 346.852 27.4064 346.406C27.8523 345.961 28.3817 345.607 28.9643 345.366C29.5469 345.124 30.1713 345 30.8019 345C31.4324 345 32.0569 345.124 32.6395 345.366C33.222 345.607 33.7514 345.961 34.1973 346.406C34.6432 346.852 34.9969 347.382 35.2382 347.964C35.4795 348.547 35.6037 349.171 35.6037 349.802ZM535.604 299.802C535.604 300.432 535.48 301.057 535.238 301.639C534.997 302.222 534.643 302.751 534.197 303.197C533.751 303.643 533.222 303.997 532.639 304.238C532.057 304.48 531.432 304.604 530.802 304.604C530.171 304.604 529.547 304.48 528.964 304.238C528.382 303.997 527.852 303.643 527.406 303.197C526.961 302.751 526.607 302.222 526.366 301.639C526.124 301.057 526 300.432 526 299.802C526 299.171 526.124 298.547 526.366 297.964C526.607 297.382 526.961 296.852 527.406 296.406C527.852 295.961 528.382 295.607 528.964 295.366C529.547 295.124 530.171 295 530.802 295C531.432 295 532.057 295.124 532.639 295.366C533.222 295.607 533.751 295.961 534.197 296.406C534.643 296.852 534.997 297.382 535.238 297.964C535.48 298.547 535.604 299.171 535.604 299.802ZM485.604 299.802C485.604 300.432 485.479 301.057 485.238 301.639C484.997 302.222 484.643 302.751 484.197 303.197C483.751 303.643 483.222 303.997 482.639 304.238C482.057 304.48 481.432 304.604 480.802 304.604C480.171 304.604 479.547 304.48 478.964 304.238C478.382 303.997 477.852 303.643 477.406 303.197C476.961 302.751 476.607 302.222 476.366 301.639C476.124 301.057 476 300.432 476 299.802C476 299.171 476.124 298.547 476.366 297.964C476.607 297.382 476.961 296.852 477.406 296.406C477.852 295.961 478.382 295.607 478.964 295.366C479.547 295.124 480.171 295 480.802 295C481.432 295 482.057 295.124 482.639 295.366C483.222 295.607 483.751 295.961 484.197 296.406C484.643 296.852 484.997 297.382 485.238 297.964C485.479 298.547 485.604 299.171 485.604 299.802ZM435.604 299.802C435.604 300.432 435.479 301.057 435.238 301.639C434.997 302.222 434.643 302.751 434.197 303.197C433.751 303.643 433.222 303.997 432.639 304.238C432.057 304.48 431.432 304.604 430.802 304.604C430.171 304.604 429.547 304.48 428.964 304.238C428.382 303.997 427.852 303.643 427.406 303.197C426.961 302.751 426.607 302.222 426.366 301.639C426.124 301.057 426 300.432 426 299.802C426 299.171 426.124 298.547 426.366 297.964C426.607 297.382 426.961 296.852 427.406 296.406C427.852 295.961 428.382 295.607 428.964 295.366C429.547 295.124 430.171 295 430.802 295C431.432 295 432.057 295.124 432.639 295.366C433.222 295.607 433.751 295.961 434.197 296.406C434.643 296.852 434.997 297.382 435.238 297.964C435.479 298.547 435.604 299.171 435.604 299.802ZM385.604 299.802C385.604 300.432 385.479 301.057 385.238 301.639C384.997 302.222 384.643 302.751 384.197 303.197C383.751 303.643 383.222 303.997 382.639 304.238C382.057 304.48 381.432 304.604 380.802 304.604C380.171 304.604 379.547 304.48 378.964 304.238C378.382 303.997 377.852 303.643 377.406 303.197C376.961 302.751 376.607 302.222 376.366 301.639C376.124 301.057 376 300.432 376 299.802C376 299.171 376.124 298.547 376.366 297.964C376.607 297.382 376.961 296.852 377.406 296.406C377.852 295.961 378.382 295.607 378.964 295.366C379.547 295.124 380.171 295 380.802 295C381.432 295 382.057 295.124 382.639 295.366C383.222 295.607 383.751 295.961 384.197 296.406C384.643 296.852 384.997 297.382 385.238 297.964C385.479 298.547 385.604 299.171 385.604 299.802ZM335.604 299.802C335.604 300.432 335.479 301.057 335.238 301.639C334.997 302.222 334.643 302.751 334.197 303.197C333.751 303.643 333.222 303.997 332.639 304.238C332.057 304.48 331.432 304.604 330.802 304.604C330.171 304.604 329.547 304.48 328.964 304.238C328.382 303.997 327.852 303.643 327.406 303.197C326.961 302.751 326.607 302.222 326.366 301.639C326.124 301.057 326 300.432 326 299.802C326 299.171 326.124 298.547 326.366 297.964C326.607 297.382 326.961 296.852 327.406 296.406C327.852 295.961 328.382 295.607 328.964 295.366C329.547 295.124 330.171 295 330.802 295C331.432 295 332.057 295.124 332.639 295.366C333.222 295.607 333.751 295.961 334.197 296.406C334.643 296.852 334.997 297.382 335.238 297.964C335.479 298.547 335.604 299.171 335.604 299.802ZM285.604 299.802C285.604 300.432 285.479 301.057 285.238 301.639C284.997 302.222 284.643 302.751 284.197 303.197C283.751 303.643 283.222 303.997 282.639 304.238C282.057 304.48 281.432 304.604 280.802 304.604C280.171 304.604 279.547 304.48 278.964 304.238C278.382 303.997 277.852 303.643 277.406 303.197C276.961 302.751 276.607 302.222 276.366 301.639C276.124 301.057 276 300.432 276 299.802C276 299.171 276.124 298.547 276.366 297.964C276.607 297.382 276.961 296.852 277.406 296.406C277.852 295.961 278.382 295.607 278.964 295.366C279.547 295.124 280.171 295 280.802 295C281.432 295 282.057 295.124 282.639 295.366C283.222 295.607 283.751 295.961 284.197 296.406C284.643 296.852 284.997 297.382 285.238 297.964C285.479 298.547 285.604 299.171 285.604 299.802ZM235.604 299.802C235.604 300.432 235.48 301.057 235.238 301.639C234.997 302.222 234.643 302.751 234.197 303.197C233.751 303.643 233.222 303.997 232.639 304.238C232.057 304.48 231.432 304.604 230.802 304.604C230.171 304.604 229.547 304.48 228.964 304.238C228.382 303.997 227.852 303.643 227.406 303.197C226.961 302.751 226.607 302.222 226.366 301.639C226.124 301.057 226 300.432 226 299.802C226 299.171 226.124 298.547 226.366 297.964C226.607 297.382 226.961 296.852 227.406 296.406C227.852 295.961 228.382 295.607 228.964 295.366C229.547 295.124 230.171 295 230.802 295C231.432 295 232.057 295.124 232.639 295.366C233.222 295.607 233.751 295.961 234.197 296.406C234.643 296.852 234.997 297.382 235.238 297.964C235.48 298.547 235.604 299.171 235.604 299.802ZM185.604 299.802C185.604 300.432 185.48 301.057 185.238 301.639C184.997 302.222 184.643 302.751 184.197 303.197C183.751 303.643 183.222 303.997 182.639 304.238C182.057 304.48 181.432 304.604 180.802 304.604C180.171 304.604 179.547 304.48 178.964 304.238C178.382 303.997 177.852 303.643 177.406 303.197C176.961 302.751 176.607 302.222 176.366 301.639C176.124 301.057 176 300.432 176 299.802C176 299.171 176.124 298.547 176.366 297.964C176.607 297.382 176.961 296.852 177.406 296.406C177.852 295.961 178.382 295.607 178.964 295.366C179.547 295.124 180.171 295 180.802 295C181.432 295 182.057 295.124 182.639 295.366C183.222 295.607 183.751 295.961 184.197 296.406C184.643 296.852 184.997 297.382 185.238 297.964C185.48 298.547 185.604 299.171 185.604 299.802ZM135.604 299.802C135.604 300.432 135.48 301.057 135.238 301.639C134.997 302.222 134.643 302.751 134.197 303.197C133.751 303.643 133.222 303.997 132.639 304.238C132.057 304.48 131.432 304.604 130.802 304.604C130.171 304.604 129.547 304.48 128.964 304.238C128.382 303.997 127.852 303.643 127.406 303.197C126.961 302.751 126.607 302.222 126.366 301.639C126.124 301.057 126 300.432 126 299.802C126 299.171 126.124 298.547 126.366 297.964C126.607 297.382 126.961 296.852 127.406 296.406C127.852 295.961 128.382 295.607 128.964 295.366C129.547 295.124 130.171 295 130.802 295C131.432 295 132.057 295.124 132.639 295.366C133.222 295.607 133.751 295.961 134.197 296.406C134.643 296.852 134.997 297.382 135.238 297.964C135.48 298.547 135.604 299.171 135.604 299.802ZM85.6037 299.802C85.6037 300.432 85.4795 301.057 85.2382 301.639C84.9969 302.222 84.6432 302.751 84.1973 303.197C83.7514 303.643 83.222 303.997 82.6395 304.238C82.0569 304.48 81.4324 304.604 80.8019 304.604C80.1713 304.604 79.5469 304.48 78.9643 304.238C78.3817 303.997 77.8523 303.643 77.4064 303.197C76.9605 302.751 76.6068 302.222 76.3655 301.639C76.1242 301.057 76 300.432 76 299.802C76 299.171 76.1242 298.547 76.3655 297.964C76.6068 297.382 76.9605 296.852 77.4064 296.406C77.8523 295.961 78.3817 295.607 78.9643 295.366C79.5469 295.124 80.1713 295 80.8019 295C81.4324 295 82.0569 295.124 82.6395 295.366C83.222 295.607 83.7514 295.961 84.1973 296.406C84.6432 296.852 84.9969 297.382 85.2382 297.964C85.4795 298.547 85.6037 299.171 85.6037 299.802ZM35.6037 299.802C35.6037 300.432 35.4795 301.057 35.2382 301.639C34.9969 302.222 34.6432 302.751 34.1973 303.197C33.7514 303.643 33.222 303.997 32.6395 304.238C32.0569 304.48 31.4324 304.604 30.8019 304.604C30.1713 304.604 29.5469 304.48 28.9643 304.238C28.3817 303.997 27.8523 303.643 27.4064 303.197C26.9605 302.751 26.6068 302.222 26.3655 301.639C26.1242 301.057 26 300.432 26 299.802C26 299.171 26.1242 298.547 26.3655 297.964C26.6068 297.382 26.9605 296.852 27.4064 296.406C27.8523 295.961 28.3817 295.607 28.9643 295.366C29.5469 295.124 30.1713 295 30.8019 295C31.4324 295 32.0569 295.124 32.6395 295.366C33.222 295.607 33.7514 295.961 34.1973 296.406C34.6432 296.852 34.9969 297.382 35.2382 297.964C35.4795 298.547 35.6037 299.171 35.6037 299.802ZM535.604 249.802C535.604 250.432 535.48 251.057 535.238 251.639C534.997 252.222 534.643 252.751 534.197 253.197C533.751 253.643 533.222 253.997 532.639 254.238C532.057 254.48 531.432 254.604 530.802 254.604C530.171 254.604 529.547 254.48 528.964 254.238C528.382 253.997 527.852 253.643 527.406 253.197C526.961 252.751 526.607 252.222 526.366 251.639C526.124 251.057 526 250.432 526 249.802C526 249.171 526.124 248.547 526.366 247.964C526.607 247.382 526.961 246.852 527.406 246.406C527.852 245.961 528.382 245.607 528.964 245.366C529.547 245.124 530.171 245 530.802 245C531.432 245 532.057 245.124 532.639 245.366C533.222 245.607 533.751 245.961 534.197 246.406C534.643 246.852 534.997 247.382 535.238 247.964C535.48 248.547 535.604 249.171 535.604 249.802ZM485.604 249.802C485.604 250.432 485.479 251.057 485.238 251.639C484.997 252.222 484.643 252.751 484.197 253.197C483.751 253.643 483.222 253.997 482.639 254.238C482.057 254.48 481.432 254.604 480.802 254.604C480.171 254.604 479.547 254.48 478.964 254.238C478.382 253.997 477.852 253.643 477.406 253.197C476.961 252.751 476.607 252.222 476.366 251.639C476.124 251.057 476 250.432 476 249.802C476 249.171 476.124 248.547 476.366 247.964C476.607 247.382 476.961 246.852 477.406 246.406C477.852 245.961 478.382 245.607 478.964 245.366C479.547 245.124 480.171 245 480.802 245C481.432 245 482.057 245.124 482.639 245.366C483.222 245.607 483.751 245.961 484.197 246.406C484.643 246.852 484.997 247.382 485.238 247.964C485.479 248.547 485.604 249.171 485.604 249.802ZM435.604 249.802C435.604 250.432 435.479 251.057 435.238 251.639C434.997 252.222 434.643 252.751 434.197 253.197C433.751 253.643 433.222 253.997 432.639 254.238C432.057 254.48 431.432 254.604 430.802 254.604C430.171 254.604 429.547 254.48 428.964 254.238C428.382 253.997 427.852 253.643 427.406 253.197C426.961 252.751 426.607 252.222 426.366 251.639C426.124 251.057 426 250.432 426 249.802C426 249.171 426.124 248.547 426.366 247.964C426.607 247.382 426.961 246.852 427.406 246.406C427.852 245.961 428.382 245.607 428.964 245.366C429.547 245.124 430.171 245 430.802 245C431.432 245 432.057 245.124 432.639 245.366C433.222 245.607 433.751 245.961 434.197 246.406C434.643 246.852 434.997 247.382 435.238 247.964C435.479 248.547 435.604 249.171 435.604 249.802ZM385.604 249.802C385.604 250.432 385.479 251.057 385.238 251.639C384.997 252.222 384.643 252.751 384.197 253.197C383.751 253.643 383.222 253.997 382.639 254.238C382.057 254.48 381.432 254.604 380.802 254.604C380.171 254.604 379.547 254.48 378.964 254.238C378.382 253.997 377.852 253.643 377.406 253.197C376.961 252.751 376.607 252.222 376.366 251.639C376.124 251.057 376 250.432 376 249.802C376 249.171 376.124 248.547 376.366 247.964C376.607 247.382 376.961 246.852 377.406 246.406C377.852 245.961 378.382 245.607 378.964 245.366C379.547 245.124 380.171 245 380.802 245C381.432 245 382.057 245.124 382.639 245.366C383.222 245.607 383.751 245.961 384.197 246.406C384.643 246.852 384.997 247.382 385.238 247.964C385.479 248.547 385.604 249.171 385.604 249.802ZM335.604 249.802C335.604 250.432 335.479 251.057 335.238 251.639C334.997 252.222 334.643 252.751 334.197 253.197C333.751 253.643 333.222 253.997 332.639 254.238C332.057 254.48 331.432 254.604 330.802 254.604C330.171 254.604 329.547 254.48 328.964 254.238C328.382 253.997 327.852 253.643 327.406 253.197C326.961 252.751 326.607 252.222 326.366 251.639C326.124 251.057 326 250.432 326 249.802C326 249.171 326.124 248.547 326.366 247.964C326.607 247.382 326.961 246.852 327.406 246.406C327.852 245.961 328.382 245.607 328.964 245.366C329.547 245.124 330.171 245 330.802 245C331.432 245 332.057 245.124 332.639 245.366C333.222 245.607 333.751 245.961 334.197 246.406C334.643 246.852 334.997 247.382 335.238 247.964C335.479 248.547 335.604 249.171 335.604 249.802ZM285.604 249.802C285.604 250.432 285.479 251.057 285.238 251.639C284.997 252.222 284.643 252.751 284.197 253.197C283.751 253.643 283.222 253.997 282.639 254.238C282.057 254.48 281.432 254.604 280.802 254.604C280.171 254.604 279.547 254.48 278.964 254.238C278.382 253.997 277.852 253.643 277.406 253.197C276.961 252.751 276.607 252.222 276.366 251.639C276.124 251.057 276 250.432 276 249.802C276 249.171 276.124 248.547 276.366 247.964C276.607 247.382 276.961 246.852 277.406 246.406C277.852 245.961 278.382 245.607 278.964 245.366C279.547 245.124 280.171 245 280.802 245C281.432 245 282.057 245.124 282.639 245.366C283.222 245.607 283.751 245.961 284.197 246.406C284.643 246.852 284.997 247.382 285.238 247.964C285.479 248.547 285.604 249.171 285.604 249.802ZM235.604 249.802C235.604 250.432 235.48 251.057 235.238 251.639C234.997 252.222 234.643 252.751 234.197 253.197C233.751 253.643 233.222 253.997 232.639 254.238C232.057 254.48 231.432 254.604 230.802 254.604C230.171 254.604 229.547 254.48 228.964 254.238C228.382 253.997 227.852 253.643 227.406 253.197C226.961 252.751 226.607 252.222 226.366 251.639C226.124 251.057 226 250.432 226 249.802C226 249.171 226.124 248.547 226.366 247.964C226.607 247.382 226.961 246.852 227.406 246.406C227.852 245.961 228.382 245.607 228.964 245.366C229.547 245.124 230.171 245 230.802 245C231.432 245 232.057 245.124 232.639 245.366C233.222 245.607 233.751 245.961 234.197 246.406C234.643 246.852 234.997 247.382 235.238 247.964C235.48 248.547 235.604 249.171 235.604 249.802ZM185.604 249.802C185.604 250.432 185.48 251.057 185.238 251.639C184.997 252.222 184.643 252.751 184.197 253.197C183.751 253.643 183.222 253.997 182.639 254.238C182.057 254.48 181.432 254.604 180.802 254.604C180.171 254.604 179.547 254.48 178.964 254.238C178.382 253.997 177.852 253.643 177.406 253.197C176.961 252.751 176.607 252.222 176.366 251.639C176.124 251.057 176 250.432 176 249.802C176 249.171 176.124 248.547 176.366 247.964C176.607 247.382 176.961 246.852 177.406 246.406C177.852 245.961 178.382 245.607 178.964 245.366C179.547 245.124 180.171 245 180.802 245C181.432 245 182.057 245.124 182.639 245.366C183.222 245.607 183.751 245.961 184.197 246.406C184.643 246.852 184.997 247.382 185.238 247.964C185.48 248.547 185.604 249.171 185.604 249.802ZM135.604 249.802C135.604 250.432 135.48 251.057 135.238 251.639C134.997 252.222 134.643 252.751 134.197 253.197C133.751 253.643 133.222 253.997 132.639 254.238C132.057 254.48 131.432 254.604 130.802 254.604C130.171 254.604 129.547 254.48 128.964 254.238C128.382 253.997 127.852 253.643 127.406 253.197C126.961 252.751 126.607 252.222 126.366 251.639C126.124 251.057 126 250.432 126 249.802C126 249.171 126.124 248.547 126.366 247.964C126.607 247.382 126.961 246.852 127.406 246.406C127.852 245.961 128.382 245.607 128.964 245.366C129.547 245.124 130.171 245 130.802 245C131.432 245 132.057 245.124 132.639 245.366C133.222 245.607 133.751 245.961 134.197 246.406C134.643 246.852 134.997 247.382 135.238 247.964C135.48 248.547 135.604 249.171 135.604 249.802ZM85.6037 249.802C85.6037 250.432 85.4795 251.057 85.2382 251.639C84.9969 252.222 84.6432 252.751 84.1973 253.197C83.7514 253.643 83.222 253.997 82.6395 254.238C82.0569 254.48 81.4324 254.604 80.8019 254.604C80.1713 254.604 79.5469 254.48 78.9643 254.238C78.3817 253.997 77.8523 253.643 77.4064 253.197C76.9605 252.751 76.6068 252.222 76.3655 251.639C76.1242 251.057 76 250.432 76 249.802C76 249.171 76.1242 248.547 76.3655 247.964C76.6068 247.382 76.9605 246.852 77.4064 246.406C77.8523 245.961 78.3817 245.607 78.9643 245.366C79.5469 245.124 80.1713 245 80.8019 245C81.4324 245 82.0569 245.124 82.6395 245.366C83.222 245.607 83.7514 245.961 84.1973 246.406C84.6432 246.852 84.9969 247.382 85.2382 247.964C85.4795 248.547 85.6037 249.171 85.6037 249.802ZM35.6037 249.802C35.6037 250.432 35.4795 251.057 35.2382 251.639C34.9969 252.222 34.6432 252.751 34.1973 253.197C33.7514 253.643 33.222 253.997 32.6395 254.238C32.0569 254.48 31.4324 254.604 30.8019 254.604C30.1713 254.604 29.5469 254.48 28.9643 254.238C28.3817 253.997 27.8523 253.643 27.4064 253.197C26.9605 252.751 26.6068 252.222 26.3655 251.639C26.1242 251.057 26 250.432 26 249.802C26 249.171 26.1242 248.547 26.3655 247.964C26.6068 247.382 26.9605 246.852 27.4064 246.406C27.8523 245.961 28.3817 245.607 28.9643 245.366C29.5469 245.124 30.1713 245 30.8019 245C31.4324 245 32.0569 245.124 32.6395 245.366C33.222 245.607 33.7514 245.961 34.1973 246.406C34.6432 246.852 34.9969 247.382 35.2382 247.964C35.4795 248.547 35.6037 249.171 35.6037 249.802ZM535.604 199.802C535.604 200.432 535.48 201.057 535.238 201.639C534.997 202.222 534.643 202.751 534.197 203.197C533.751 203.643 533.222 203.997 532.639 204.238C532.057 204.48 531.432 204.604 530.802 204.604C530.171 204.604 529.547 204.48 528.964 204.238C528.382 203.997 527.852 203.643 527.406 203.197C526.961 202.751 526.607 202.222 526.366 201.639C526.124 201.057 526 200.432 526 199.802C526 199.171 526.124 198.547 526.366 197.964C526.607 197.382 526.961 196.852 527.406 196.406C527.852 195.961 528.382 195.607 528.964 195.366C529.547 195.124 530.171 195 530.802 195C531.432 195 532.057 195.124 532.639 195.366C533.222 195.607 533.751 195.961 534.197 196.406C534.643 196.852 534.997 197.382 535.238 197.964C535.48 198.547 535.604 199.171 535.604 199.802ZM485.604 199.802C485.604 200.432 485.479 201.057 485.238 201.639C484.997 202.222 484.643 202.751 484.197 203.197C483.751 203.643 483.222 203.997 482.639 204.238C482.057 204.48 481.432 204.604 480.802 204.604C480.171 204.604 479.547 204.48 478.964 204.238C478.382 203.997 477.852 203.643 477.406 203.197C476.961 202.751 476.607 202.222 476.366 201.639C476.124 201.057 476 200.432 476 199.802C476 199.171 476.124 198.547 476.366 197.964C476.607 197.382 476.961 196.852 477.406 196.406C477.852 195.961 478.382 195.607 478.964 195.366C479.547 195.124 480.171 195 480.802 195C481.432 195 482.057 195.124 482.639 195.366C483.222 195.607 483.751 195.961 484.197 196.406C484.643 196.852 484.997 197.382 485.238 197.964C485.479 198.547 485.604 199.171 485.604 199.802ZM435.604 199.802C435.604 200.432 435.479 201.057 435.238 201.639C434.997 202.222 434.643 202.751 434.197 203.197C433.751 203.643 433.222 203.997 432.639 204.238C432.057 204.48 431.432 204.604 430.802 204.604C430.171 204.604 429.547 204.48 428.964 204.238C428.382 203.997 427.852 203.643 427.406 203.197C426.961 202.751 426.607 202.222 426.366 201.639C426.124 201.057 426 200.432 426 199.802C426 199.171 426.124 198.547 426.366 197.964C426.607 197.382 426.961 196.852 427.406 196.406C427.852 195.961 428.382 195.607 428.964 195.366C429.547 195.124 430.171 195 430.802 195C431.432 195 432.057 195.124 432.639 195.366C433.222 195.607 433.751 195.961 434.197 196.406C434.643 196.852 434.997 197.382 435.238 197.964C435.479 198.547 435.604 199.171 435.604 199.802ZM385.604 199.802C385.604 200.432 385.479 201.057 385.238 201.639C384.997 202.222 384.643 202.751 384.197 203.197C383.751 203.643 383.222 203.997 382.639 204.238C382.057 204.48 381.432 204.604 380.802 204.604C380.171 204.604 379.547 204.48 378.964 204.238C378.382 203.997 377.852 203.643 377.406 203.197C376.961 202.751 376.607 202.222 376.366 201.639C376.124 201.057 376 200.432 376 199.802C376 199.171 376.124 198.547 376.366 197.964C376.607 197.382 376.961 196.852 377.406 196.406C377.852 195.961 378.382 195.607 378.964 195.366C379.547 195.124 380.171 195 380.802 195C381.432 195 382.057 195.124 382.639 195.366C383.222 195.607 383.751 195.961 384.197 196.406C384.643 196.852 384.997 197.382 385.238 197.964C385.479 198.547 385.604 199.171 385.604 199.802ZM335.604 199.802C335.604 200.432 335.479 201.057 335.238 201.639C334.997 202.222 334.643 202.751 334.197 203.197C333.751 203.643 333.222 203.997 332.639 204.238C332.057 204.48 331.432 204.604 330.802 204.604C330.171 204.604 329.547 204.48 328.964 204.238C328.382 203.997 327.852 203.643 327.406 203.197C326.961 202.751 326.607 202.222 326.366 201.639C326.124 201.057 326 200.432 326 199.802C326 199.171 326.124 198.547 326.366 197.964C326.607 197.382 326.961 196.852 327.406 196.406C327.852 195.961 328.382 195.607 328.964 195.366C329.547 195.124 330.171 195 330.802 195C331.432 195 332.057 195.124 332.639 195.366C333.222 195.607 333.751 195.961 334.197 196.406C334.643 196.852 334.997 197.382 335.238 197.964C335.479 198.547 335.604 199.171 335.604 199.802ZM285.604 199.802C285.604 200.432 285.479 201.057 285.238 201.639C284.997 202.222 284.643 202.751 284.197 203.197C283.751 203.643 283.222 203.997 282.639 204.238C282.057 204.48 281.432 204.604 280.802 204.604C280.171 204.604 279.547 204.48 278.964 204.238C278.382 203.997 277.852 203.643 277.406 203.197C276.961 202.751 276.607 202.222 276.366 201.639C276.124 201.057 276 200.432 276 199.802C276 199.171 276.124 198.547 276.366 197.964C276.607 197.382 276.961 196.852 277.406 196.406C277.852 195.961 278.382 195.607 278.964 195.366C279.547 195.124 280.171 195 280.802 195C281.432 195 282.057 195.124 282.639 195.366C283.222 195.607 283.751 195.961 284.197 196.406C284.643 196.852 284.997 197.382 285.238 197.964C285.479 198.547 285.604 199.171 285.604 199.802ZM235.604 199.802C235.604 200.432 235.48 201.057 235.238 201.639C234.997 202.222 234.643 202.751 234.197 203.197C233.751 203.643 233.222 203.997 232.639 204.238C232.057 204.48 231.432 204.604 230.802 204.604C230.171 204.604 229.547 204.48 228.964 204.238C228.382 203.997 227.852 203.643 227.406 203.197C226.961 202.751 226.607 202.222 226.366 201.639C226.124 201.057 226 200.432 226 199.802C226 199.171 226.124 198.547 226.366 197.964C226.607 197.382 226.961 196.852 227.406 196.406C227.852 195.961 228.382 195.607 228.964 195.366C229.547 195.124 230.171 195 230.802 195C231.432 195 232.057 195.124 232.639 195.366C233.222 195.607 233.751 195.961 234.197 196.406C234.643 196.852 234.997 197.382 235.238 197.964C235.48 198.547 235.604 199.171 235.604 199.802ZM185.604 199.802C185.604 200.432 185.48 201.057 185.238 201.639C184.997 202.222 184.643 202.751 184.197 203.197C183.751 203.643 183.222 203.997 182.639 204.238C182.057 204.48 181.432 204.604 180.802 204.604C180.171 204.604 179.547 204.48 178.964 204.238C178.382 203.997 177.852 203.643 177.406 203.197C176.961 202.751 176.607 202.222 176.366 201.639C176.124 201.057 176 200.432 176 199.802C176 199.171 176.124 198.547 176.366 197.964C176.607 197.382 176.961 196.852 177.406 196.406C177.852 195.961 178.382 195.607 178.964 195.366C179.547 195.124 180.171 195 180.802 195C181.432 195 182.057 195.124 182.639 195.366C183.222 195.607 183.751 195.961 184.197 196.406C184.643 196.852 184.997 197.382 185.238 197.964C185.48 198.547 185.604 199.171 185.604 199.802ZM135.604 199.802C135.604 200.432 135.48 201.057 135.238 201.639C134.997 202.222 134.643 202.751 134.197 203.197C133.751 203.643 133.222 203.997 132.639 204.238C132.057 204.48 131.432 204.604 130.802 204.604C130.171 204.604 129.547 204.48 128.964 204.238C128.382 203.997 127.852 203.643 127.406 203.197C126.961 202.751 126.607 202.222 126.366 201.639C126.124 201.057 126 200.432 126 199.802C126 199.171 126.124 198.547 126.366 197.964C126.607 197.382 126.961 196.852 127.406 196.406C127.852 195.961 128.382 195.607 128.964 195.366C129.547 195.124 130.171 195 130.802 195C131.432 195 132.057 195.124 132.639 195.366C133.222 195.607 133.751 195.961 134.197 196.406C134.643 196.852 134.997 197.382 135.238 197.964C135.48 198.547 135.604 199.171 135.604 199.802ZM85.6037 199.802C85.6037 200.432 85.4795 201.057 85.2382 201.639C84.9969 202.222 84.6432 202.751 84.1973 203.197C83.7514 203.643 83.222 203.997 82.6395 204.238C82.0569 204.48 81.4324 204.604 80.8019 204.604C80.1713 204.604 79.5469 204.48 78.9643 204.238C78.3817 203.997 77.8523 203.643 77.4064 203.197C76.9605 202.751 76.6068 202.222 76.3655 201.639C76.1242 201.057 76 200.432 76 199.802C76 199.171 76.1242 198.547 76.3655 197.964C76.6068 197.382 76.9605 196.852 77.4064 196.406C77.8523 195.961 78.3817 195.607 78.9643 195.366C79.5469 195.124 80.1713 195 80.8019 195C81.4324 195 82.0569 195.124 82.6395 195.366C83.222 195.607 83.7514 195.961 84.1973 196.406C84.6432 196.852 84.9969 197.382 85.2382 197.964C85.4795 198.547 85.6037 199.171 85.6037 199.802ZM35.6037 199.802C35.6037 200.432 35.4795 201.057 35.2382 201.639C34.9969 202.222 34.6432 202.751 34.1973 203.197C33.7514 203.643 33.222 203.997 32.6395 204.238C32.0569 204.48 31.4324 204.604 30.8019 204.604C30.1713 204.604 29.5469 204.48 28.9643 204.238C28.3817 203.997 27.8523 203.643 27.4064 203.197C26.9605 202.751 26.6068 202.222 26.3655 201.639C26.1242 201.057 26 200.432 26 199.802C26 199.171 26.1242 198.547 26.3655 197.964C26.6068 197.382 26.9605 196.852 27.4064 196.406C27.8523 195.961 28.3817 195.607 28.9643 195.366C29.5469 195.124 30.1713 195 30.8019 195C31.4324 195 32.0569 195.124 32.6395 195.366C33.222 195.607 33.7514 195.961 34.1973 196.406C34.6432 196.852 34.9969 197.382 35.2382 197.964C35.4795 198.547 35.6037 199.171 35.6037 199.802ZM535.604 149.802C535.604 150.432 535.48 151.057 535.238 151.639C534.997 152.222 534.643 152.751 534.197 153.197C533.751 153.643 533.222 153.997 532.639 154.238C532.057 154.48 531.432 154.604 530.802 154.604C530.171 154.604 529.547 154.48 528.964 154.238C528.382 153.997 527.852 153.643 527.406 153.197C526.961 152.751 526.607 152.222 526.366 151.639C526.124 151.057 526 150.432 526 149.802C526 149.171 526.124 148.547 526.366 147.964C526.607 147.382 526.961 146.852 527.406 146.406C527.852 145.961 528.382 145.607 528.964 145.366C529.547 145.124 530.171 145 530.802 145C531.432 145 532.057 145.124 532.639 145.366C533.222 145.607 533.751 145.961 534.197 146.406C534.643 146.852 534.997 147.382 535.238 147.964C535.48 148.547 535.604 149.171 535.604 149.802ZM485.604 149.802C485.604 150.432 485.479 151.057 485.238 151.639C484.997 152.222 484.643 152.751 484.197 153.197C483.751 153.643 483.222 153.997 482.639 154.238C482.057 154.48 481.432 154.604 480.802 154.604C480.171 154.604 479.547 154.48 478.964 154.238C478.382 153.997 477.852 153.643 477.406 153.197C476.961 152.751 476.607 152.222 476.366 151.639C476.124 151.057 476 150.432 476 149.802C476 149.171 476.124 148.547 476.366 147.964C476.607 147.382 476.961 146.852 477.406 146.406C477.852 145.961 478.382 145.607 478.964 145.366C479.547 145.124 480.171 145 480.802 145C481.432 145 482.057 145.124 482.639 145.366C483.222 145.607 483.751 145.961 484.197 146.406C484.643 146.852 484.997 147.382 485.238 147.964C485.479 148.547 485.604 149.171 485.604 149.802ZM435.604 149.802C435.604 150.432 435.479 151.057 435.238 151.639C434.997 152.222 434.643 152.751 434.197 153.197C433.751 153.643 433.222 153.997 432.639 154.238C432.057 154.48 431.432 154.604 430.802 154.604C430.171 154.604 429.547 154.48 428.964 154.238C428.382 153.997 427.852 153.643 427.406 153.197C426.961 152.751 426.607 152.222 426.366 151.639C426.124 151.057 426 150.432 426 149.802C426 149.171 426.124 148.547 426.366 147.964C426.607 147.382 426.961 146.852 427.406 146.406C427.852 145.961 428.382 145.607 428.964 145.366C429.547 145.124 430.171 145 430.802 145C431.432 145 432.057 145.124 432.639 145.366C433.222 145.607 433.751 145.961 434.197 146.406C434.643 146.852 434.997 147.382 435.238 147.964C435.479 148.547 435.604 149.171 435.604 149.802ZM385.604 149.802C385.604 150.432 385.479 151.057 385.238 151.639C384.997 152.222 384.643 152.751 384.197 153.197C383.751 153.643 383.222 153.997 382.639 154.238C382.057 154.48 381.432 154.604 380.802 154.604C380.171 154.604 379.547 154.48 378.964 154.238C378.382 153.997 377.852 153.643 377.406 153.197C376.961 152.751 376.607 152.222 376.366 151.639C376.124 151.057 376 150.432 376 149.802C376 149.171 376.124 148.547 376.366 147.964C376.607 147.382 376.961 146.852 377.406 146.406C377.852 145.961 378.382 145.607 378.964 145.366C379.547 145.124 380.171 145 380.802 145C381.432 145 382.057 145.124 382.639 145.366C383.222 145.607 383.751 145.961 384.197 146.406C384.643 146.852 384.997 147.382 385.238 147.964C385.479 148.547 385.604 149.171 385.604 149.802ZM335.604 149.802C335.604 150.432 335.479 151.057 335.238 151.639C334.997 152.222 334.643 152.751 334.197 153.197C333.751 153.643 333.222 153.997 332.639 154.238C332.057 154.48 331.432 154.604 330.802 154.604C330.171 154.604 329.547 154.48 328.964 154.238C328.382 153.997 327.852 153.643 327.406 153.197C326.961 152.751 326.607 152.222 326.366 151.639C326.124 151.057 326 150.432 326 149.802C326 149.171 326.124 148.547 326.366 147.964C326.607 147.382 326.961 146.852 327.406 146.406C327.852 145.961 328.382 145.607 328.964 145.366C329.547 145.124 330.171 145 330.802 145C331.432 145 332.057 145.124 332.639 145.366C333.222 145.607 333.751 145.961 334.197 146.406C334.643 146.852 334.997 147.382 335.238 147.964C335.479 148.547 335.604 149.171 335.604 149.802ZM285.604 149.802C285.604 150.432 285.479 151.057 285.238 151.639C284.997 152.222 284.643 152.751 284.197 153.197C283.751 153.643 283.222 153.997 282.639 154.238C282.057 154.48 281.432 154.604 280.802 154.604C280.171 154.604 279.547 154.48 278.964 154.238C278.382 153.997 277.852 153.643 277.406 153.197C276.961 152.751 276.607 152.222 276.366 151.639C276.124 151.057 276 150.432 276 149.802C276 149.171 276.124 148.547 276.366 147.964C276.607 147.382 276.961 146.852 277.406 146.406C277.852 145.961 278.382 145.607 278.964 145.366C279.547 145.124 280.171 145 280.802 145C281.432 145 282.057 145.124 282.639 145.366C283.222 145.607 283.751 145.961 284.197 146.406C284.643 146.852 284.997 147.382 285.238 147.964C285.479 148.547 285.604 149.171 285.604 149.802ZM235.604 149.802C235.604 150.432 235.48 151.057 235.238 151.639C234.997 152.222 234.643 152.751 234.197 153.197C233.751 153.643 233.222 153.997 232.639 154.238C232.057 154.48 231.432 154.604 230.802 154.604C230.171 154.604 229.547 154.48 228.964 154.238C228.382 153.997 227.852 153.643 227.406 153.197C226.961 152.751 226.607 152.222 226.366 151.639C226.124 151.057 226 150.432 226 149.802C226 149.171 226.124 148.547 226.366 147.964C226.607 147.382 226.961 146.852 227.406 146.406C227.852 145.961 228.382 145.607 228.964 145.366C229.547 145.124 230.171 145 230.802 145C231.432 145 232.057 145.124 232.639 145.366C233.222 145.607 233.751 145.961 234.197 146.406C234.643 146.852 234.997 147.382 235.238 147.964C235.48 148.547 235.604 149.171 235.604 149.802ZM185.604 149.802C185.604 150.432 185.48 151.057 185.238 151.639C184.997 152.222 184.643 152.751 184.197 153.197C183.751 153.643 183.222 153.997 182.639 154.238C182.057 154.48 181.432 154.604 180.802 154.604C180.171 154.604 179.547 154.48 178.964 154.238C178.382 153.997 177.852 153.643 177.406 153.197C176.961 152.751 176.607 152.222 176.366 151.639C176.124 151.057 176 150.432 176 149.802C176 149.171 176.124 148.547 176.366 147.964C176.607 147.382 176.961 146.852 177.406 146.406C177.852 145.961 178.382 145.607 178.964 145.366C179.547 145.124 180.171 145 180.802 145C181.432 145 182.057 145.124 182.639 145.366C183.222 145.607 183.751 145.961 184.197 146.406C184.643 146.852 184.997 147.382 185.238 147.964C185.48 148.547 185.604 149.171 185.604 149.802ZM135.604 149.802C135.604 150.432 135.48 151.057 135.238 151.639C134.997 152.222 134.643 152.751 134.197 153.197C133.751 153.643 133.222 153.997 132.639 154.238C132.057 154.48 131.432 154.604 130.802 154.604C130.171 154.604 129.547 154.48 128.964 154.238C128.382 153.997 127.852 153.643 127.406 153.197C126.961 152.751 126.607 152.222 126.366 151.639C126.124 151.057 126 150.432 126 149.802C126 149.171 126.124 148.547 126.366 147.964C126.607 147.382 126.961 146.852 127.406 146.406C127.852 145.961 128.382 145.607 128.964 145.366C129.547 145.124 130.171 145 130.802 145C131.432 145 132.057 145.124 132.639 145.366C133.222 145.607 133.751 145.961 134.197 146.406C134.643 146.852 134.997 147.382 135.238 147.964C135.48 148.547 135.604 149.171 135.604 149.802ZM85.6037 149.802C85.6037 150.432 85.4795 151.057 85.2382 151.639C84.9969 152.222 84.6432 152.751 84.1973 153.197C83.7514 153.643 83.222 153.997 82.6395 154.238C82.0569 154.48 81.4324 154.604 80.8019 154.604C80.1713 154.604 79.5469 154.48 78.9643 154.238C78.3817 153.997 77.8523 153.643 77.4064 153.197C76.9605 152.751 76.6068 152.222 76.3655 151.639C76.1242 151.057 76 150.432 76 149.802C76 149.171 76.1242 148.547 76.3655 147.964C76.6068 147.382 76.9605 146.852 77.4064 146.406C77.8523 145.961 78.3817 145.607 78.9643 145.366C79.5469 145.124 80.1713 145 80.8019 145C81.4324 145 82.0569 145.124 82.6395 145.366C83.222 145.607 83.7514 145.961 84.1973 146.406C84.6432 146.852 84.9969 147.382 85.2382 147.964C85.4795 148.547 85.6037 149.171 85.6037 149.802ZM35.6037 149.802C35.6037 150.432 35.4795 151.057 35.2382 151.639C34.9969 152.222 34.6432 152.751 34.1973 153.197C33.7514 153.643 33.222 153.997 32.6395 154.238C32.0569 154.48 31.4324 154.604 30.8019 154.604C30.1713 154.604 29.5469 154.48 28.9643 154.238C28.3817 153.997 27.8523 153.643 27.4064 153.197C26.9605 152.751 26.6068 152.222 26.3655 151.639C26.1242 151.057 26 150.432 26 149.802C26 149.171 26.1242 148.547 26.3655 147.964C26.6068 147.382 26.9605 146.852 27.4064 146.406C27.8523 145.961 28.3817 145.607 28.9643 145.366C29.5469 145.124 30.1713 145 30.8019 145C31.4324 145 32.0569 145.124 32.6395 145.366C33.222 145.607 33.7514 145.961 34.1973 146.406C34.6432 146.852 34.9969 147.382 35.2382 147.964C35.4795 148.547 35.6037 149.171 35.6037 149.802ZM535.604 99.8019C535.604 100.432 535.48 101.057 535.238 101.639C534.997 102.222 534.643 102.751 534.197 103.197C533.751 103.643 533.222 103.997 532.639 104.238C532.057 104.48 531.432 104.604 530.802 104.604C530.171 104.604 529.547 104.48 528.964 104.238C528.382 103.997 527.852 103.643 527.406 103.197C526.961 102.751 526.607 102.222 526.366 101.639C526.124 101.057 526 100.432 526 99.8019C526 99.1713 526.124 98.5469 526.366 97.9643C526.607 97.3817 526.961 96.8524 527.406 96.4065C527.852 95.9606 528.382 95.6069 528.964 95.3655C529.547 95.1242 530.171 95 530.802 95C531.432 95 532.057 95.1242 532.639 95.3655C533.222 95.6069 533.751 95.9606 534.197 96.4065C534.643 96.8524 534.997 97.3817 535.238 97.9643C535.48 98.5469 535.604 99.1713 535.604 99.8019ZM485.604 99.8019C485.604 100.432 485.479 101.057 485.238 101.639C484.997 102.222 484.643 102.751 484.197 103.197C483.751 103.643 483.222 103.997 482.639 104.238C482.057 104.48 481.432 104.604 480.802 104.604C480.171 104.604 479.547 104.48 478.964 104.238C478.382 103.997 477.852 103.643 477.406 103.197C476.961 102.751 476.607 102.222 476.366 101.639C476.124 101.057 476 100.432 476 99.8019C476 99.1713 476.124 98.5469 476.366 97.9643C476.607 97.3817 476.961 96.8524 477.406 96.4065C477.852 95.9606 478.382 95.6069 478.964 95.3655C479.547 95.1242 480.171 95 480.802 95C481.432 95 482.057 95.1242 482.639 95.3655C483.222 95.6069 483.751 95.9606 484.197 96.4065C484.643 96.8524 484.997 97.3817 485.238 97.9643C485.479 98.5469 485.604 99.1713 485.604 99.8019ZM435.604 99.8019C435.604 100.432 435.479 101.057 435.238 101.639C434.997 102.222 434.643 102.751 434.197 103.197C433.751 103.643 433.222 103.997 432.639 104.238C432.057 104.48 431.432 104.604 430.802 104.604C430.171 104.604 429.547 104.48 428.964 104.238C428.382 103.997 427.852 103.643 427.406 103.197C426.961 102.751 426.607 102.222 426.366 101.639C426.124 101.057 426 100.432 426 99.8019C426 99.1713 426.124 98.5469 426.366 97.9643C426.607 97.3817 426.961 96.8524 427.406 96.4065C427.852 95.9606 428.382 95.6069 428.964 95.3655C429.547 95.1242 430.171 95 430.802 95C431.432 95 432.057 95.1242 432.639 95.3655C433.222 95.6069 433.751 95.9606 434.197 96.4065C434.643 96.8524 434.997 97.3817 435.238 97.9643C435.479 98.5469 435.604 99.1713 435.604 99.8019ZM385.604 99.8019C385.604 100.432 385.479 101.057 385.238 101.639C384.997 102.222 384.643 102.751 384.197 103.197C383.751 103.643 383.222 103.997 382.639 104.238C382.057 104.48 381.432 104.604 380.802 104.604C380.171 104.604 379.547 104.48 378.964 104.238C378.382 103.997 377.852 103.643 377.406 103.197C376.961 102.751 376.607 102.222 376.366 101.639C376.124 101.057 376 100.432 376 99.8019C376 99.1713 376.124 98.5469 376.366 97.9643C376.607 97.3817 376.961 96.8524 377.406 96.4065C377.852 95.9606 378.382 95.6069 378.964 95.3655C379.547 95.1242 380.171 95 380.802 95C381.432 95 382.057 95.1242 382.639 95.3655C383.222 95.6069 383.751 95.9606 384.197 96.4065C384.643 96.8524 384.997 97.3817 385.238 97.9643C385.479 98.5469 385.604 99.1713 385.604 99.8019ZM335.604 99.8019C335.604 100.432 335.479 101.057 335.238 101.639C334.997 102.222 334.643 102.751 334.197 103.197C333.751 103.643 333.222 103.997 332.639 104.238C332.057 104.48 331.432 104.604 330.802 104.604C330.171 104.604 329.547 104.48 328.964 104.238C328.382 103.997 327.852 103.643 327.406 103.197C326.961 102.751 326.607 102.222 326.366 101.639C326.124 101.057 326 100.432 326 99.8019C326 99.1713 326.124 98.5469 326.366 97.9643C326.607 97.3817 326.961 96.8524 327.406 96.4065C327.852 95.9606 328.382 95.6069 328.964 95.3655C329.547 95.1242 330.171 95 330.802 95C331.432 95 332.057 95.1242 332.639 95.3655C333.222 95.6069 333.751 95.9606 334.197 96.4065C334.643 96.8524 334.997 97.3817 335.238 97.9643C335.479 98.5469 335.604 99.1713 335.604 99.8019ZM285.604 99.8019C285.604 100.432 285.479 101.057 285.238 101.639C284.997 102.222 284.643 102.751 284.197 103.197C283.751 103.643 283.222 103.997 282.639 104.238C282.057 104.48 281.432 104.604 280.802 104.604C280.171 104.604 279.547 104.48 278.964 104.238C278.382 103.997 277.852 103.643 277.406 103.197C276.961 102.751 276.607 102.222 276.366 101.639C276.124 101.057 276 100.432 276 99.8019C276 99.1713 276.124 98.5469 276.366 97.9643C276.607 97.3817 276.961 96.8524 277.406 96.4065C277.852 95.9606 278.382 95.6069 278.964 95.3655C279.547 95.1242 280.171 95 280.802 95C281.432 95 282.057 95.1242 282.639 95.3655C283.222 95.6069 283.751 95.9606 284.197 96.4065C284.643 96.8524 284.997 97.3817 285.238 97.9643C285.479 98.5469 285.604 99.1713 285.604 99.8019ZM235.604 99.8019C235.604 100.432 235.48 101.057 235.238 101.639C234.997 102.222 234.643 102.751 234.197 103.197C233.751 103.643 233.222 103.997 232.639 104.238C232.057 104.48 231.432 104.604 230.802 104.604C230.171 104.604 229.547 104.48 228.964 104.238C228.382 103.997 227.852 103.643 227.406 103.197C226.961 102.751 226.607 102.222 226.366 101.639C226.124 101.057 226 100.432 226 99.8019C226 99.1713 226.124 98.5469 226.366 97.9643C226.607 97.3817 226.961 96.8524 227.406 96.4065C227.852 95.9606 228.382 95.6069 228.964 95.3655C229.547 95.1242 230.171 95 230.802 95C231.432 95 232.057 95.1242 232.639 95.3655C233.222 95.6069 233.751 95.9606 234.197 96.4065C234.643 96.8524 234.997 97.3817 235.238 97.9643C235.48 98.5469 235.604 99.1713 235.604 99.8019ZM185.604 99.8019C185.604 100.432 185.48 101.057 185.238 101.639C184.997 102.222 184.643 102.751 184.197 103.197C183.751 103.643 183.222 103.997 182.639 104.238C182.057 104.48 181.432 104.604 180.802 104.604C180.171 104.604 179.547 104.48 178.964 104.238C178.382 103.997 177.852 103.643 177.406 103.197C176.961 102.751 176.607 102.222 176.366 101.639C176.124 101.057 176 100.432 176 99.8019C176 99.1713 176.124 98.5469 176.366 97.9643C176.607 97.3817 176.961 96.8524 177.406 96.4065C177.852 95.9606 178.382 95.6069 178.964 95.3655C179.547 95.1242 180.171 95 180.802 95C181.432 95 182.057 95.1242 182.639 95.3655C183.222 95.6069 183.751 95.9606 184.197 96.4065C184.643 96.8524 184.997 97.3817 185.238 97.9643C185.48 98.5469 185.604 99.1713 185.604 99.8019ZM135.604 99.8019C135.604 100.432 135.48 101.057 135.238 101.639C134.997 102.222 134.643 102.751 134.197 103.197C133.751 103.643 133.222 103.997 132.639 104.238C132.057 104.48 131.432 104.604 130.802 104.604C130.171 104.604 129.547 104.48 128.964 104.238C128.382 103.997 127.852 103.643 127.406 103.197C126.961 102.751 126.607 102.222 126.366 101.639C126.124 101.057 126 100.432 126 99.8019C126 99.1713 126.124 98.5469 126.366 97.9643C126.607 97.3817 126.961 96.8524 127.406 96.4065C127.852 95.9606 128.382 95.6069 128.964 95.3655C129.547 95.1242 130.171 95 130.802 95C131.432 95 132.057 95.1242 132.639 95.3655C133.222 95.6069 133.751 95.9606 134.197 96.4065C134.643 96.8524 134.997 97.3817 135.238 97.9643C135.48 98.5469 135.604 99.1713 135.604 99.8019ZM85.6037 99.8019C85.6037 100.432 85.4795 101.057 85.2382 101.639C84.9969 102.222 84.6432 102.751 84.1973 103.197C83.7514 103.643 83.222 103.997 82.6395 104.238C82.0569 104.48 81.4324 104.604 80.8019 104.604C80.1713 104.604 79.5469 104.48 78.9643 104.238C78.3817 103.997 77.8523 103.643 77.4064 103.197C76.9605 102.751 76.6068 102.222 76.3655 101.639C76.1242 101.057 76 100.432 76 99.8019C76 99.1713 76.1242 98.5469 76.3655 97.9643C76.6068 97.3817 76.9605 96.8524 77.4064 96.4065C77.8523 95.9606 78.3817 95.6069 78.9643 95.3655C79.5469 95.1242 80.1713 95 80.8019 95C81.4324 95 82.0569 95.1242 82.6395 95.3655C83.222 95.6069 83.7514 95.9606 84.1973 96.4065C84.6432 96.8524 84.9969 97.3817 85.2382 97.9643C85.4795 98.5469 85.6037 99.1713 85.6037 99.8019ZM35.6037 99.8019C35.6037 100.432 35.4795 101.057 35.2382 101.639C34.9969 102.222 34.6432 102.751 34.1973 103.197C33.7514 103.643 33.222 103.997 32.6395 104.238C32.0569 104.48 31.4324 104.604 30.8019 104.604C30.1713 104.604 29.5469 104.48 28.9643 104.238C28.3817 103.997 27.8523 103.643 27.4064 103.197C26.9605 102.751 26.6068 102.222 26.3655 101.639C26.1242 101.057 26 100.432 26 99.8019C26 99.1713 26.1242 98.5469 26.3655 97.9643C26.6068 97.3817 26.9605 96.8524 27.4064 96.4065C27.8523 95.9606 28.3817 95.6069 28.9643 95.3655C29.5469 95.1242 30.1713 95 30.8019 95C31.4324 95 32.0569 95.1242 32.6395 95.3655C33.222 95.6069 33.7514 95.9606 34.1973 96.4065C34.6432 96.8524 34.9969 97.3817 35.2382 97.9643C35.4795 98.5469 35.6037 99.1713 35.6037 99.8019ZM535.604 49.8019C535.604 50.4325 535.48 51.0569 535.238 51.6395C534.997 52.2221 534.643 52.7514 534.197 53.1973C533.751 53.6432 533.222 53.9969 532.639 54.2382C532.057 54.4795 531.432 54.6038 530.802 54.6038C530.171 54.6038 529.547 54.4795 528.964 54.2382C528.382 53.9969 527.852 53.6432 527.406 53.1973C526.961 52.7514 526.607 52.2221 526.366 51.6395C526.124 51.0569 526 50.4325 526 49.8019C526 49.1713 526.124 48.5469 526.366 47.9643C526.607 47.3817 526.961 46.8523 527.406 46.4064C527.852 45.9605 528.382 45.6069 528.964 45.3655C529.547 45.1242 530.171 45 530.802 45C531.432 45 532.057 45.1242 532.639 45.3655C533.222 45.6069 533.751 45.9605 534.197 46.4064C534.643 46.8523 534.997 47.3817 535.238 47.9643C535.48 48.5469 535.604 49.1713 535.604 49.8019ZM485.604 49.8019C485.604 50.4325 485.479 51.0569 485.238 51.6395C484.997 52.2221 484.643 52.7514 484.197 53.1973C483.751 53.6432 483.222 53.9969 482.639 54.2382C482.057 54.4795 481.432 54.6038 480.802 54.6038C480.171 54.6038 479.547 54.4795 478.964 54.2382C478.382 53.9969 477.852 53.6432 477.406 53.1973C476.961 52.7514 476.607 52.2221 476.366 51.6395C476.124 51.0569 476 50.4325 476 49.8019C476 49.1713 476.124 48.5469 476.366 47.9643C476.607 47.3817 476.961 46.8523 477.406 46.4064C477.852 45.9605 478.382 45.6069 478.964 45.3655C479.547 45.1242 480.171 45 480.802 45C481.432 45 482.057 45.1242 482.639 45.3655C483.222 45.6069 483.751 45.9605 484.197 46.4064C484.643 46.8523 484.997 47.3817 485.238 47.9643C485.479 48.5469 485.604 49.1713 485.604 49.8019ZM435.604 49.8019C435.604 50.4325 435.479 51.0569 435.238 51.6395C434.997 52.2221 434.643 52.7514 434.197 53.1973C433.751 53.6432 433.222 53.9969 432.639 54.2382C432.057 54.4795 431.432 54.6038 430.802 54.6038C430.171 54.6038 429.547 54.4795 428.964 54.2382C428.382 53.9969 427.852 53.6432 427.406 53.1973C426.961 52.7514 426.607 52.2221 426.366 51.6395C426.124 51.0569 426 50.4325 426 49.8019C426 49.1713 426.124 48.5469 426.366 47.9643C426.607 47.3817 426.961 46.8523 427.406 46.4064C427.852 45.9605 428.382 45.6069 428.964 45.3655C429.547 45.1242 430.171 45 430.802 45C431.432 45 432.057 45.1242 432.639 45.3655C433.222 45.6069 433.751 45.9605 434.197 46.4064C434.643 46.8523 434.997 47.3817 435.238 47.9643C435.479 48.5469 435.604 49.1713 435.604 49.8019ZM385.604 49.8019C385.604 50.4325 385.479 51.0569 385.238 51.6395C384.997 52.2221 384.643 52.7514 384.197 53.1973C383.751 53.6432 383.222 53.9969 382.639 54.2382C382.057 54.4795 381.432 54.6038 380.802 54.6038C380.171 54.6038 379.547 54.4795 378.964 54.2382C378.382 53.9969 377.852 53.6432 377.406 53.1973C376.961 52.7514 376.607 52.2221 376.366 51.6395C376.124 51.0569 376 50.4325 376 49.8019C376 49.1713 376.124 48.5469 376.366 47.9643C376.607 47.3817 376.961 46.8523 377.406 46.4064C377.852 45.9605 378.382 45.6069 378.964 45.3655C379.547 45.1242 380.171 45 380.802 45C381.432 45 382.057 45.1242 382.639 45.3655C383.222 45.6069 383.751 45.9605 384.197 46.4064C384.643 46.8523 384.997 47.3817 385.238 47.9643C385.479 48.5469 385.604 49.1713 385.604 49.8019ZM335.604 49.8019C335.604 50.4325 335.479 51.0569 335.238 51.6395C334.997 52.2221 334.643 52.7514 334.197 53.1973C333.751 53.6432 333.222 53.9969 332.639 54.2382C332.057 54.4795 331.432 54.6038 330.802 54.6038C330.171 54.6038 329.547 54.4795 328.964 54.2382C328.382 53.9969 327.852 53.6432 327.406 53.1973C326.961 52.7514 326.607 52.2221 326.366 51.6395C326.124 51.0569 326 50.4325 326 49.8019C326 49.1713 326.124 48.5469 326.366 47.9643C326.607 47.3817 326.961 46.8523 327.406 46.4064C327.852 45.9605 328.382 45.6069 328.964 45.3655C329.547 45.1242 330.171 45 330.802 45C331.432 45 332.057 45.1242 332.639 45.3655C333.222 45.6069 333.751 45.9605 334.197 46.4064C334.643 46.8523 334.997 47.3817 335.238 47.9643C335.479 48.5469 335.604 49.1713 335.604 49.8019ZM285.604 49.8019C285.604 50.4325 285.479 51.0569 285.238 51.6395C284.997 52.2221 284.643 52.7514 284.197 53.1973C283.751 53.6432 283.222 53.9969 282.639 54.2382C282.057 54.4795 281.432 54.6038 280.802 54.6038C280.171 54.6038 279.547 54.4795 278.964 54.2382C278.382 53.9969 277.852 53.6432 277.406 53.1973C276.961 52.7514 276.607 52.2221 276.366 51.6395C276.124 51.0569 276 50.4325 276 49.8019C276 49.1713 276.124 48.5469 276.366 47.9643C276.607 47.3817 276.961 46.8523 277.406 46.4064C277.852 45.9605 278.382 45.6069 278.964 45.3655C279.547 45.1242 280.171 45 280.802 45C281.432 45 282.057 45.1242 282.639 45.3655C283.222 45.6069 283.751 45.9605 284.197 46.4064C284.643 46.8523 284.997 47.3817 285.238 47.9643C285.479 48.5469 285.604 49.1713 285.604 49.8019ZM235.604 49.8019C235.604 50.4325 235.48 51.0569 235.238 51.6395C234.997 52.2221 234.643 52.7514 234.197 53.1973C233.751 53.6432 233.222 53.9969 232.639 54.2382C232.057 54.4795 231.432 54.6038 230.802 54.6038C230.171 54.6038 229.547 54.4795 228.964 54.2382C228.382 53.9969 227.852 53.6432 227.406 53.1973C226.961 52.7514 226.607 52.2221 226.366 51.6395C226.124 51.0569 226 50.4325 226 49.8019C226 49.1713 226.124 48.5469 226.366 47.9643C226.607 47.3817 226.961 46.8523 227.406 46.4064C227.852 45.9605 228.382 45.6069 228.964 45.3655C229.547 45.1242 230.171 45 230.802 45C231.432 45 232.057 45.1242 232.639 45.3655C233.222 45.6069 233.751 45.9605 234.197 46.4064C234.643 46.8523 234.997 47.3817 235.238 47.9643C235.48 48.5469 235.604 49.1713 235.604 49.8019ZM185.604 49.8019C185.604 50.4325 185.48 51.0569 185.238 51.6395C184.997 52.2221 184.643 52.7514 184.197 53.1973C183.751 53.6432 183.222 53.9969 182.639 54.2382C182.057 54.4795 181.432 54.6038 180.802 54.6038C180.171 54.6038 179.547 54.4795 178.964 54.2382C178.382 53.9969 177.852 53.6432 177.406 53.1973C176.961 52.7514 176.607 52.2221 176.366 51.6395C176.124 51.0569 176 50.4325 176 49.8019C176 49.1713 176.124 48.5469 176.366 47.9643C176.607 47.3817 176.961 46.8523 177.406 46.4064C177.852 45.9605 178.382 45.6069 178.964 45.3655C179.547 45.1242 180.171 45 180.802 45C181.432 45 182.057 45.1242 182.639 45.3655C183.222 45.6069 183.751 45.9605 184.197 46.4064C184.643 46.8523 184.997 47.3817 185.238 47.9643C185.48 48.5469 185.604 49.1713 185.604 49.8019ZM135.604 49.8019C135.604 50.4325 135.48 51.0569 135.238 51.6395C134.997 52.2221 134.643 52.7514 134.197 53.1973C133.751 53.6432 133.222 53.9969 132.639 54.2382C132.057 54.4795 131.432 54.6038 130.802 54.6038C130.171 54.6038 129.547 54.4795 128.964 54.2382C128.382 53.9969 127.852 53.6432 127.406 53.1973C126.961 52.7514 126.607 52.2221 126.366 51.6395C126.124 51.0569 126 50.4325 126 49.8019C126 49.1713 126.124 48.5469 126.366 47.9643C126.607 47.3817 126.961 46.8523 127.406 46.4064C127.852 45.9605 128.382 45.6069 128.964 45.3655C129.547 45.1242 130.171 45 130.802 45C131.432 45 132.057 45.1242 132.639 45.3655C133.222 45.6069 133.751 45.9605 134.197 46.4064C134.643 46.8523 134.997 47.3817 135.238 47.9643C135.48 48.5469 135.604 49.1713 135.604 49.8019ZM85.6037 49.8019C85.6037 50.4325 85.4795 51.0569 85.2382 51.6395C84.9969 52.2221 84.6432 52.7514 84.1973 53.1973C83.7514 53.6432 83.222 53.9969 82.6395 54.2382C82.0569 54.4795 81.4324 54.6038 80.8019 54.6038C80.1713 54.6038 79.5469 54.4795 78.9643 54.2382C78.3817 53.9969 77.8523 53.6432 77.4064 53.1973C76.9605 52.7514 76.6068 52.2221 76.3655 51.6395C76.1242 51.0569 76 50.4325 76 49.8019C76 49.1713 76.1242 48.5469 76.3655 47.9643C76.6068 47.3817 76.9605 46.8523 77.4064 46.4064C77.8523 45.9605 78.3817 45.6069 78.9643 45.3655C79.5469 45.1242 80.1713 45 80.8019 45C81.4324 45 82.0569 45.1242 82.6395 45.3655C83.222 45.6069 83.7514 45.9605 84.1973 46.4064C84.6432 46.8523 84.9969 47.3817 85.2382 47.9643C85.4795 48.5469 85.6037 49.1713 85.6037 49.8019ZM35.6037 49.8019C35.6037 50.4325 35.4795 51.0569 35.2382 51.6395C34.9969 52.2221 34.6432 52.7514 34.1973 53.1973C33.7514 53.6432 33.222 53.9969 32.6395 54.2382C32.0569 54.4795 31.4324 54.6038 30.8019 54.6038C30.1713 54.6038 29.5469 54.4795 28.9643 54.2382C28.3817 53.9969 27.8523 53.6432 27.4064 53.1973C26.9605 52.7514 26.6068 52.2221 26.3655 51.6395C26.1242 51.0569 26 50.4325 26 49.8019C26 49.1713 26.1242 48.5469 26.3655 47.9643C26.6068 47.3817 26.9605 46.8523 27.4064 46.4064C27.8523 45.9605 28.3817 45.6069 28.9643 45.3655C29.5469 45.1242 30.1713 45 30.8019 45C31.4324 45 32.0569 45.1242 32.6395 45.3655C33.222 45.6069 33.7514 45.9605 34.1973 46.4064C34.6432 46.8523 34.9969 47.3817 35.2382 47.9643C35.4795 48.5469 35.6037 49.1713 35.6037 49.8019Z" fill="#0F62FE" fill-opacity="0.5"/>
</svg>
