<svg width="270" height="233" viewBox="0 0 270 233" fill="none" xmlns="http://www.w3.org/2000/svg">
<path d="M308.147 301.917C308.147 302.293 308.073 302.666 307.927 303.013C307.781 303.361 307.568 303.676 307.299 303.942C307.03 304.208 306.711 304.419 306.359 304.563C306.008 304.707 305.631 304.781 305.25 304.781C304.87 304.781 304.493 304.707 304.142 304.563C303.79 304.419 303.471 304.208 303.202 303.942C302.933 303.676 302.719 303.361 302.574 303.013C302.428 302.666 302.353 302.293 302.353 301.917C302.353 301.541 302.428 301.169 302.574 300.821C302.719 300.474 302.933 300.158 303.202 299.892C303.471 299.626 303.79 299.415 304.142 299.271C304.493 299.127 304.87 299.053 305.25 299.053C305.631 299.053 306.008 299.127 306.359 299.271C306.711 299.415 307.03 299.626 307.299 299.892C307.568 300.158 307.781 300.474 307.927 300.821C308.073 301.169 308.147 301.541 308.147 301.917ZM277.981 301.917C277.981 302.293 277.906 302.666 277.76 303.013C277.615 303.361 277.401 303.676 277.132 303.942C276.863 304.208 276.544 304.419 276.192 304.563C275.841 304.707 275.464 304.781 275.084 304.781C274.703 304.781 274.326 304.707 273.975 304.563C273.623 304.419 273.304 304.208 273.035 303.942C272.766 303.676 272.553 303.361 272.407 303.013C272.261 302.666 272.187 302.293 272.187 301.917C272.187 301.541 272.261 301.169 272.407 300.821C272.553 300.474 272.766 300.158 273.035 299.892C273.304 299.626 273.623 299.415 273.975 299.271C274.326 299.127 274.703 299.053 275.084 299.053C275.464 299.053 275.841 299.127 276.192 299.271C276.544 299.415 276.863 299.626 277.132 299.892C277.401 300.158 277.615 300.474 277.76 300.821C277.906 301.169 277.981 301.541 277.981 301.917ZM247.814 301.917C247.814 302.293 247.739 302.666 247.594 303.013C247.448 303.361 247.235 303.676 246.966 303.942C246.697 304.208 246.377 304.419 246.026 304.563C245.674 304.707 245.297 304.781 244.917 304.781C244.537 304.781 244.16 304.707 243.808 304.563C243.457 304.419 243.137 304.208 242.868 303.942C242.599 303.676 242.386 303.361 242.24 303.013C242.095 302.666 242.02 302.293 242.02 301.917C242.02 301.541 242.095 301.169 242.24 300.821C242.386 300.474 242.599 300.158 242.868 299.892C243.137 299.626 243.457 299.415 243.808 299.271C244.16 299.127 244.537 299.053 244.917 299.053C245.297 299.053 245.674 299.127 246.026 299.271C246.377 299.415 246.697 299.626 246.966 299.892C247.235 300.158 247.448 300.474 247.594 300.821C247.739 301.169 247.814 301.541 247.814 301.917ZM217.647 301.917C217.647 302.293 217.572 302.666 217.427 303.013C217.281 303.361 217.068 303.676 216.799 303.942C216.53 304.208 216.21 304.419 215.859 304.563C215.507 304.707 215.131 304.781 214.75 304.781C214.37 304.781 213.993 304.707 213.642 304.563C213.29 304.419 212.971 304.208 212.702 303.942C212.433 303.676 212.219 303.361 212.074 303.013C211.928 302.666 211.853 302.293 211.853 301.917C211.853 301.541 211.928 301.169 212.074 300.821C212.219 300.474 212.433 300.158 212.702 299.892C212.971 299.626 213.29 299.415 213.642 299.271C213.993 299.127 214.37 299.053 214.75 299.053C215.131 299.053 215.507 299.127 215.859 299.271C216.21 299.415 216.53 299.626 216.799 299.892C217.068 300.158 217.281 300.474 217.427 300.821C217.572 301.169 217.647 301.541 217.647 301.917ZM187.481 301.917C187.481 302.293 187.406 302.666 187.26 303.013C187.115 303.361 186.901 303.676 186.632 303.942C186.363 304.208 186.044 304.419 185.692 304.563C185.341 304.707 184.964 304.781 184.584 304.781C184.203 304.781 183.826 304.707 183.475 304.563C183.123 304.419 182.804 304.208 182.535 303.942C182.266 303.676 182.053 303.361 181.907 303.013C181.761 302.666 181.687 302.293 181.687 301.917C181.687 301.541 181.761 301.169 181.907 300.821C182.053 300.474 182.266 300.158 182.535 299.892C182.804 299.626 183.123 299.415 183.475 299.271C183.826 299.127 184.203 299.053 184.584 299.053C184.964 299.053 185.341 299.127 185.692 299.271C186.044 299.415 186.363 299.626 186.632 299.892C186.901 300.158 187.115 300.474 187.26 300.821C187.406 301.169 187.481 301.541 187.481 301.917ZM157.314 301.917C157.314 302.293 157.239 302.666 157.094 303.013C156.948 303.361 156.735 303.676 156.466 303.942C156.197 304.208 155.877 304.419 155.526 304.563C155.174 304.707 154.797 304.781 154.417 304.781C154.037 304.781 153.66 304.707 153.308 304.563C152.957 304.419 152.637 304.208 152.368 303.942C152.099 303.676 151.886 303.361 151.74 303.013C151.595 302.666 151.52 302.293 151.52 301.917C151.52 301.541 151.595 301.169 151.74 300.821C151.886 300.474 152.099 300.158 152.368 299.892C152.637 299.626 152.957 299.415 153.308 299.271C153.66 299.127 154.037 299.053 154.417 299.053C154.797 299.053 155.174 299.127 155.526 299.271C155.877 299.415 156.197 299.626 156.466 299.892C156.735 300.158 156.948 300.474 157.094 300.821C157.239 301.169 157.314 301.541 157.314 301.917ZM127.147 301.917C127.147 302.293 127.072 302.666 126.927 303.013C126.781 303.361 126.568 303.676 126.299 303.942C126.03 304.208 125.71 304.419 125.359 304.563C125.007 304.707 124.631 304.781 124.25 304.781C123.87 304.781 123.493 304.707 123.142 304.563C122.79 304.419 122.471 304.208 122.202 303.942C121.933 303.676 121.719 303.361 121.574 303.013C121.428 302.666 121.353 302.293 121.353 301.917C121.353 301.541 121.428 301.169 121.574 300.821C121.719 300.474 121.933 300.158 122.202 299.892C122.471 299.626 122.79 299.415 123.142 299.271C123.493 299.127 123.87 299.053 124.25 299.053C124.631 299.053 125.007 299.127 125.359 299.271C125.71 299.415 126.03 299.626 126.299 299.892C126.568 300.158 126.781 300.474 126.927 300.821C127.072 301.169 127.147 301.541 127.147 301.917ZM96.9808 301.917C96.9808 302.293 96.9058 302.666 96.7602 303.013C96.6146 303.361 96.4012 303.676 96.1322 303.942C95.8632 304.208 95.5438 304.419 95.1923 304.563C94.8408 304.707 94.4641 304.781 94.0836 304.781C93.7032 304.781 93.3265 304.707 92.975 304.563C92.6235 304.419 92.3041 304.208 92.0351 303.942C91.766 303.676 91.5526 303.361 91.4071 303.013C91.2615 302.666 91.1865 302.293 91.1865 301.917C91.1865 301.541 91.2615 301.169 91.4071 300.821C91.5526 300.474 91.766 300.158 92.0351 299.892C92.3041 299.626 92.6235 299.415 92.975 299.271C93.3265 299.127 93.7032 299.053 94.0836 299.053C94.4641 299.053 94.8408 299.127 95.1923 299.271C95.5438 299.415 95.8632 299.626 96.1322 299.892C96.4012 300.158 96.6146 300.474 96.7602 300.821C96.9058 301.169 96.9808 301.541 96.9808 301.917ZM66.8141 301.917C66.8141 302.293 66.7392 302.666 66.5936 303.013C66.448 303.361 66.2346 303.676 65.9656 303.942C65.6965 304.208 65.3771 304.419 65.0257 304.563C64.6742 304.707 64.2974 304.781 63.917 304.781C63.5365 304.781 63.1598 304.707 62.8083 304.563C62.4568 304.419 62.1374 304.208 61.8684 303.942C61.5994 303.676 61.386 303.361 61.2404 303.013C61.0948 302.666 61.0198 302.293 61.0198 301.917C61.0198 301.541 61.0948 301.169 61.2404 300.821C61.386 300.474 61.5994 300.158 61.8684 299.892C62.1374 299.626 62.4568 299.415 62.8083 299.271C63.1598 299.127 63.5365 299.053 63.917 299.053C64.2974 299.053 64.6742 299.127 65.0257 299.271C65.3771 299.415 65.6965 299.626 65.9656 299.892C66.2346 300.158 66.448 300.474 66.5936 300.821C66.7392 301.169 66.8141 301.541 66.8141 301.917ZM36.6474 301.917C36.6474 302.293 36.5725 302.666 36.4269 303.013C36.2813 303.361 36.0679 303.676 35.7989 303.942C35.5299 304.208 35.2105 304.419 34.859 304.563C34.5075 304.707 34.1308 304.781 33.7503 304.781C33.3699 304.781 32.9931 304.707 32.6416 304.563C32.2901 304.419 31.9708 304.208 31.7017 303.942C31.4327 303.676 31.2193 303.361 31.0737 303.013C30.9281 302.666 30.8532 302.293 30.8532 301.917C30.8532 301.157 31.1584 300.429 31.7017 299.892C32.2451 299.355 32.9819 299.053 33.7503 299.053C34.1308 299.053 34.5075 299.127 34.859 299.271C35.2105 299.415 35.5299 299.626 35.7989 299.892C36.0679 300.158 36.2813 300.474 36.4269 300.821C36.5725 301.169 36.6474 301.541 36.6474 301.917ZM6.48076 301.917C6.48076 302.293 6.40583 302.666 6.26023 303.013C6.11464 303.361 5.90124 303.676 5.63222 303.942C5.36319 304.208 5.04382 304.419 4.69232 304.563C4.34083 304.707 3.9641 304.781 3.58364 304.781C3.20319 304.781 2.82646 304.707 2.47496 304.563C2.12347 304.419 1.80409 304.208 1.53507 303.942C1.26605 303.676 1.05265 303.361 0.907054 303.013C0.76146 302.666 0.686523 302.293 0.686523 301.917C0.686524 301.157 0.991756 300.429 1.53507 299.892C2.07839 299.355 2.81528 299.053 3.58364 299.053C4.35201 299.053 5.0889 299.355 5.63222 299.892C6.17553 300.429 6.48076 301.157 6.48076 301.917ZM308.147 272.095C308.147 272.471 308.073 272.844 307.927 273.191C307.781 273.539 307.568 273.854 307.299 274.12C307.03 274.386 306.711 274.597 306.359 274.741C306.008 274.885 305.631 274.959 305.25 274.959C304.87 274.959 304.493 274.885 304.142 274.741C303.79 274.597 303.471 274.386 303.202 274.12C302.933 273.854 302.719 273.539 302.574 273.191C302.428 272.844 302.353 272.471 302.353 272.095C302.353 271.719 302.428 271.347 302.574 270.999C302.719 270.652 302.933 270.336 303.202 270.07C303.471 269.804 303.79 269.593 304.142 269.449C304.493 269.305 304.87 269.231 305.25 269.231C305.631 269.231 306.008 269.305 306.359 269.449C306.711 269.593 307.03 269.804 307.299 270.07C307.568 270.336 307.781 270.652 307.927 270.999C308.073 271.347 308.147 271.719 308.147 272.095ZM277.981 272.095C277.981 272.471 277.906 272.844 277.76 273.191C277.615 273.539 277.401 273.854 277.132 274.12C276.863 274.386 276.544 274.597 276.192 274.741C275.841 274.885 275.464 274.959 275.084 274.959C274.703 274.959 274.326 274.885 273.975 274.741C273.623 274.597 273.304 274.386 273.035 274.12C272.766 273.854 272.553 273.539 272.407 273.191C272.261 272.844 272.187 272.471 272.187 272.095C272.187 271.719 272.261 271.347 272.407 270.999C272.553 270.652 272.766 270.336 273.035 270.07C273.304 269.804 273.623 269.593 273.975 269.449C274.326 269.305 274.703 269.231 275.084 269.231C275.464 269.231 275.841 269.305 276.192 269.449C276.544 269.593 276.863 269.804 277.132 270.07C277.401 270.336 277.615 270.652 277.76 270.999C277.906 271.347 277.981 271.719 277.981 272.095ZM247.814 272.095C247.814 272.471 247.739 272.844 247.594 273.191C247.448 273.539 247.235 273.854 246.966 274.12C246.697 274.386 246.377 274.597 246.026 274.741C245.674 274.885 245.297 274.959 244.917 274.959C244.537 274.959 244.16 274.885 243.808 274.741C243.457 274.597 243.137 274.386 242.868 274.12C242.599 273.854 242.386 273.539 242.24 273.191C242.095 272.844 242.02 272.471 242.02 272.095C242.02 271.719 242.095 271.347 242.24 270.999C242.386 270.652 242.599 270.336 242.868 270.07C243.137 269.804 243.457 269.593 243.808 269.449C244.16 269.305 244.537 269.231 244.917 269.231C245.297 269.231 245.674 269.305 246.026 269.449C246.377 269.593 246.697 269.804 246.966 270.07C247.235 270.336 247.448 270.652 247.594 270.999C247.739 271.347 247.814 271.719 247.814 272.095ZM217.647 272.095C217.647 272.471 217.572 272.844 217.427 273.191C217.281 273.539 217.068 273.854 216.799 274.12C216.53 274.386 216.21 274.597 215.859 274.741C215.507 274.885 215.131 274.959 214.75 274.959C214.37 274.959 213.993 274.885 213.642 274.741C213.29 274.597 212.971 274.386 212.702 274.12C212.433 273.854 212.219 273.539 212.074 273.191C211.928 272.844 211.853 272.471 211.853 272.095C211.853 271.719 211.928 271.347 212.074 270.999C212.219 270.652 212.433 270.336 212.702 270.07C212.971 269.804 213.29 269.593 213.642 269.449C213.993 269.305 214.37 269.231 214.75 269.231C215.131 269.231 215.507 269.305 215.859 269.449C216.21 269.593 216.53 269.804 216.799 270.07C217.068 270.336 217.281 270.652 217.427 270.999C217.572 271.347 217.647 271.719 217.647 272.095ZM187.481 272.095C187.481 272.471 187.406 272.844 187.26 273.191C187.115 273.539 186.901 273.854 186.632 274.12C186.363 274.386 186.044 274.597 185.692 274.741C185.341 274.885 184.964 274.959 184.584 274.959C184.203 274.959 183.826 274.885 183.475 274.741C183.123 274.597 182.804 274.386 182.535 274.12C182.266 273.854 182.053 273.539 181.907 273.191C181.761 272.844 181.687 272.471 181.687 272.095C181.687 271.719 181.761 271.347 181.907 270.999C182.053 270.652 182.266 270.336 182.535 270.07C182.804 269.804 183.123 269.593 183.475 269.449C183.826 269.305 184.203 269.231 184.584 269.231C184.964 269.231 185.341 269.305 185.692 269.449C186.044 269.593 186.363 269.804 186.632 270.07C186.901 270.336 187.115 270.652 187.26 270.999C187.406 271.347 187.481 271.719 187.481 272.095ZM157.314 272.095C157.314 272.471 157.239 272.844 157.094 273.191C156.948 273.539 156.735 273.854 156.466 274.12C156.197 274.386 155.877 274.597 155.526 274.741C155.174 274.885 154.797 274.959 154.417 274.959C154.037 274.959 153.66 274.885 153.308 274.741C152.957 274.597 152.637 274.386 152.368 274.12C152.099 273.854 151.886 273.539 151.74 273.191C151.595 272.844 151.52 272.471 151.52 272.095C151.52 271.719 151.595 271.347 151.74 270.999C151.886 270.652 152.099 270.336 152.368 270.07C152.637 269.804 152.957 269.593 153.308 269.449C153.66 269.305 154.037 269.231 154.417 269.231C154.797 269.231 155.174 269.305 155.526 269.449C155.877 269.593 156.197 269.804 156.466 270.07C156.735 270.336 156.948 270.652 157.094 270.999C157.239 271.347 157.314 271.719 157.314 272.095ZM127.147 272.095C127.147 272.471 127.072 272.844 126.927 273.191C126.781 273.539 126.568 273.854 126.299 274.12C126.03 274.386 125.71 274.597 125.359 274.741C125.007 274.885 124.631 274.959 124.25 274.959C123.87 274.959 123.493 274.885 123.142 274.741C122.79 274.597 122.471 274.386 122.202 274.12C121.933 273.854 121.719 273.539 121.574 273.191C121.428 272.844 121.353 272.471 121.353 272.095C121.353 271.719 121.428 271.347 121.574 270.999C121.719 270.652 121.933 270.336 122.202 270.07C122.471 269.804 122.79 269.593 123.142 269.449C123.493 269.305 123.87 269.231 124.25 269.231C124.631 269.231 125.007 269.305 125.359 269.449C125.71 269.593 126.03 269.804 126.299 270.07C126.568 270.336 126.781 270.652 126.927 270.999C127.072 271.347 127.147 271.719 127.147 272.095ZM96.9808 272.095C96.9808 272.471 96.9058 272.844 96.7602 273.191C96.6146 273.539 96.4012 273.854 96.1322 274.12C95.8632 274.386 95.5438 274.597 95.1923 274.741C94.8408 274.885 94.4641 274.959 94.0836 274.959C93.7032 274.959 93.3265 274.885 92.975 274.741C92.6235 274.597 92.3041 274.386 92.0351 274.12C91.766 273.854 91.5526 273.539 91.4071 273.191C91.2615 272.844 91.1865 272.471 91.1865 272.095C91.1865 271.719 91.2615 271.347 91.4071 270.999C91.5526 270.652 91.766 270.336 92.0351 270.07C92.3041 269.804 92.6235 269.593 92.975 269.449C93.3265 269.305 93.7032 269.231 94.0836 269.231C94.4641 269.231 94.8408 269.305 95.1923 269.449C95.5438 269.593 95.8632 269.804 96.1322 270.07C96.4012 270.336 96.6146 270.652 96.7602 270.999C96.9058 271.347 96.9808 271.719 96.9808 272.095ZM66.8141 272.095C66.8141 272.471 66.7392 272.844 66.5936 273.191C66.448 273.539 66.2346 273.854 65.9656 274.12C65.6965 274.386 65.3771 274.597 65.0257 274.741C64.6742 274.885 64.2974 274.959 63.917 274.959C63.5365 274.959 63.1598 274.885 62.8083 274.741C62.4568 274.597 62.1374 274.386 61.8684 274.12C61.5994 273.854 61.386 273.539 61.2404 273.191C61.0948 272.844 61.0198 272.471 61.0198 272.095C61.0198 271.719 61.0948 271.347 61.2404 270.999C61.386 270.652 61.5994 270.336 61.8684 270.07C62.1374 269.804 62.4568 269.593 62.8083 269.449C63.1598 269.305 63.5365 269.231 63.917 269.231C64.2974 269.231 64.6742 269.305 65.0257 269.449C65.3771 269.593 65.6965 269.804 65.9656 270.07C66.2346 270.336 66.448 270.652 66.5936 270.999C66.7392 271.347 66.8141 271.719 66.8141 272.095ZM36.6474 272.095C36.6474 272.471 36.5725 272.844 36.4269 273.191C36.2813 273.539 36.0679 273.854 35.7989 274.12C35.5299 274.386 35.2105 274.597 34.859 274.741C34.5075 274.885 34.1308 274.959 33.7503 274.959C33.3699 274.959 32.9931 274.885 32.6416 274.741C32.2901 274.597 31.9708 274.386 31.7017 274.12C31.4327 273.854 31.2193 273.539 31.0737 273.191C30.9281 272.844 30.8532 272.471 30.8532 272.095C30.8532 271.719 30.9281 271.347 31.0737 270.999C31.2193 270.652 31.4327 270.336 31.7017 270.07C31.9708 269.804 32.2901 269.593 32.6416 269.449C32.9931 269.305 33.3699 269.231 33.7503 269.231C34.1308 269.231 34.5075 269.305 34.859 269.449C35.2105 269.593 35.5299 269.804 35.7989 270.07C36.0679 270.336 36.2813 270.652 36.4269 270.999C36.5725 271.347 36.6474 271.719 36.6474 272.095ZM6.48076 272.095C6.48076 272.471 6.40583 272.844 6.26023 273.191C6.11464 273.539 5.90124 273.854 5.63222 274.12C5.36319 274.386 5.04382 274.597 4.69232 274.741C4.34083 274.885 3.9641 274.959 3.58364 274.959C3.20319 274.959 2.82646 274.885 2.47496 274.741C2.12347 274.597 1.80409 274.386 1.53507 274.12C1.26605 273.854 1.05265 273.539 0.907054 273.191C0.76146 272.844 0.686523 272.471 0.686523 272.095C0.686523 271.719 0.76146 271.347 0.907054 270.999C1.05265 270.652 1.26605 270.336 1.53507 270.07C1.80409 269.804 2.12347 269.593 2.47496 269.449C2.82646 269.305 3.20319 269.231 3.58364 269.231C3.9641 269.231 4.34083 269.305 4.69233 269.449C5.04382 269.593 5.3632 269.804 5.63222 270.07C5.90124 270.336 6.11464 270.652 6.26023 270.999C6.40583 271.347 6.48076 271.719 6.48076 272.095ZM308.147 242.273C308.147 242.649 308.073 243.022 307.927 243.369C307.781 243.717 307.568 244.032 307.299 244.298C307.03 244.564 306.711 244.775 306.359 244.919C306.008 245.063 305.631 245.137 305.25 245.137C304.87 245.137 304.493 245.063 304.142 244.919C303.79 244.775 303.471 244.564 303.202 244.298C302.933 244.032 302.719 243.717 302.574 243.369C302.428 243.022 302.353 242.649 302.353 242.273C302.353 241.897 302.428 241.525 302.574 241.177C302.719 240.83 302.933 240.514 303.202 240.248C303.471 239.982 303.79 239.771 304.142 239.627C304.493 239.483 304.87 239.409 305.25 239.409C305.631 239.409 306.008 239.483 306.359 239.627C306.711 239.771 307.03 239.982 307.299 240.248C307.568 240.514 307.781 240.83 307.927 241.177C308.073 241.525 308.147 241.897 308.147 242.273ZM277.981 242.273C277.981 242.649 277.906 243.022 277.76 243.369C277.615 243.717 277.401 244.032 277.132 244.298C276.863 244.564 276.544 244.775 276.192 244.919C275.841 245.063 275.464 245.137 275.084 245.137C274.703 245.137 274.326 245.063 273.975 244.919C273.623 244.775 273.304 244.564 273.035 244.298C272.766 244.032 272.553 243.717 272.407 243.369C272.261 243.022 272.187 242.649 272.187 242.273C272.187 241.897 272.261 241.525 272.407 241.177C272.553 240.83 272.766 240.514 273.035 240.248C273.304 239.982 273.623 239.771 273.975 239.627C274.326 239.483 274.703 239.409 275.084 239.409C275.464 239.409 275.841 239.483 276.192 239.627C276.544 239.771 276.863 239.982 277.132 240.248C277.401 240.514 277.615 240.83 277.76 241.177C277.906 241.525 277.981 241.897 277.981 242.273ZM247.814 242.273C247.814 242.649 247.739 243.022 247.594 243.369C247.448 243.717 247.235 244.032 246.966 244.298C246.697 244.564 246.377 244.775 246.026 244.919C245.674 245.063 245.297 245.137 244.917 245.137C244.537 245.137 244.16 245.063 243.808 244.919C243.457 244.775 243.137 244.564 242.868 244.298C242.599 244.032 242.386 243.717 242.24 243.369C242.095 243.022 242.02 242.649 242.02 242.273C242.02 241.897 242.095 241.525 242.24 241.177C242.386 240.83 242.599 240.514 242.868 240.248C243.137 239.982 243.457 239.771 243.808 239.627C244.16 239.483 244.537 239.409 244.917 239.409C245.297 239.409 245.674 239.483 246.026 239.627C246.377 239.771 246.697 239.982 246.966 240.248C247.235 240.514 247.448 240.83 247.594 241.177C247.739 241.525 247.814 241.897 247.814 242.273ZM217.647 242.273C217.647 242.649 217.572 243.022 217.427 243.369C217.281 243.717 217.068 244.032 216.799 244.298C216.53 244.564 216.21 244.775 215.859 244.919C215.507 245.063 215.131 245.137 214.75 245.137C214.37 245.137 213.993 245.063 213.642 244.919C213.29 244.775 212.971 244.564 212.702 244.298C212.433 244.032 212.219 243.717 212.074 243.369C211.928 243.022 211.853 242.649 211.853 242.273C211.853 241.897 211.928 241.525 212.074 241.177C212.219 240.83 212.433 240.514 212.702 240.248C212.971 239.982 213.29 239.771 213.642 239.627C213.993 239.483 214.37 239.409 214.75 239.409C215.131 239.409 215.507 239.483 215.859 239.627C216.21 239.771 216.53 239.982 216.799 240.248C217.068 240.514 217.281 240.83 217.427 241.177C217.572 241.525 217.647 241.897 217.647 242.273ZM187.481 242.273C187.481 242.649 187.406 243.022 187.26 243.369C187.115 243.717 186.901 244.032 186.632 244.298C186.363 244.564 186.044 244.775 185.692 244.919C185.341 245.063 184.964 245.137 184.584 245.137C184.203 245.137 183.826 245.063 183.475 244.919C183.123 244.775 182.804 244.564 182.535 244.298C182.266 244.032 182.053 243.717 181.907 243.369C181.761 243.022 181.687 242.649 181.687 242.273C181.687 241.897 181.761 241.525 181.907 241.177C182.053 240.83 182.266 240.514 182.535 240.248C182.804 239.982 183.123 239.771 183.475 239.627C183.826 239.483 184.203 239.409 184.584 239.409C184.964 239.409 185.341 239.483 185.692 239.627C186.044 239.771 186.363 239.982 186.632 240.248C186.901 240.514 187.115 240.83 187.26 241.177C187.406 241.525 187.481 241.897 187.481 242.273ZM157.314 242.273C157.314 242.649 157.239 243.022 157.094 243.369C156.948 243.717 156.735 244.032 156.466 244.298C156.197 244.564 155.877 244.775 155.526 244.919C155.174 245.063 154.797 245.137 154.417 245.137C154.037 245.137 153.66 245.063 153.308 244.919C152.957 244.775 152.637 244.564 152.368 244.298C152.099 244.032 151.886 243.717 151.74 243.369C151.595 243.022 151.52 242.649 151.52 242.273C151.52 241.897 151.595 241.525 151.74 241.177C151.886 240.83 152.099 240.514 152.368 240.248C152.637 239.982 152.957 239.771 153.308 239.627C153.66 239.483 154.037 239.409 154.417 239.409C154.797 239.409 155.174 239.483 155.526 239.627C155.877 239.771 156.197 239.982 156.466 240.248C156.735 240.514 156.948 240.83 157.094 241.177C157.239 241.525 157.314 241.897 157.314 242.273ZM127.147 242.273C127.147 242.649 127.072 243.022 126.927 243.369C126.781 243.717 126.568 244.032 126.299 244.298C126.03 244.564 125.71 244.775 125.359 244.919C125.007 245.063 124.631 245.137 124.25 245.137C123.87 245.137 123.493 245.063 123.142 244.919C122.79 244.775 122.471 244.564 122.202 244.298C121.933 244.032 121.719 243.717 121.574 243.369C121.428 243.022 121.353 242.649 121.353 242.273C121.353 241.897 121.428 241.525 121.574 241.177C121.719 240.83 121.933 240.514 122.202 240.248C122.471 239.982 122.79 239.771 123.142 239.627C123.493 239.483 123.87 239.409 124.25 239.409C124.631 239.409 125.007 239.483 125.359 239.627C125.71 239.771 126.03 239.982 126.299 240.248C126.568 240.514 126.781 240.83 126.927 241.177C127.072 241.525 127.147 241.897 127.147 242.273ZM96.9808 242.273C96.9808 242.649 96.9058 243.022 96.7602 243.369C96.6146 243.717 96.4012 244.032 96.1322 244.298C95.8632 244.564 95.5438 244.775 95.1923 244.919C94.8408 245.063 94.4641 245.137 94.0836 245.137C93.7032 245.137 93.3265 245.063 92.975 244.919C92.6235 244.775 92.3041 244.564 92.0351 244.298C91.766 244.032 91.5526 243.717 91.4071 243.369C91.2615 243.022 91.1865 242.649 91.1865 242.273C91.1865 241.897 91.2615 241.525 91.4071 241.177C91.5526 240.83 91.766 240.514 92.0351 240.248C92.3041 239.982 92.6235 239.771 92.975 239.627C93.3265 239.483 93.7032 239.409 94.0836 239.409C94.4641 239.409 94.8408 239.483 95.1923 239.627C95.5438 239.771 95.8632 239.982 96.1322 240.248C96.4012 240.514 96.6146 240.83 96.7602 241.177C96.9058 241.525 96.9808 241.897 96.9808 242.273ZM66.8141 242.273C66.8141 242.649 66.7392 243.022 66.5936 243.369C66.448 243.717 66.2346 244.032 65.9656 244.298C65.6965 244.564 65.3771 244.775 65.0257 244.919C64.6742 245.063 64.2974 245.137 63.917 245.137C63.5365 245.137 63.1598 245.063 62.8083 244.919C62.4568 244.775 62.1374 244.564 61.8684 244.298C61.5994 244.032 61.386 243.717 61.2404 243.369C61.0948 243.022 61.0198 242.649 61.0198 242.273C61.0198 241.897 61.0948 241.525 61.2404 241.177C61.386 240.83 61.5994 240.514 61.8684 240.248C62.1374 239.982 62.4568 239.771 62.8083 239.627C63.1598 239.483 63.5365 239.409 63.917 239.409C64.2974 239.409 64.6742 239.483 65.0257 239.627C65.3771 239.771 65.6965 239.982 65.9656 240.248C66.2346 240.514 66.448 240.83 66.5936 241.177C66.7392 241.525 66.8141 241.897 66.8141 242.273ZM36.6474 242.273C36.6474 242.649 36.5725 243.022 36.4269 243.369C36.2813 243.717 36.0679 244.032 35.7989 244.298C35.5299 244.564 35.2105 244.775 34.859 244.919C34.5075 245.063 34.1308 245.137 33.7503 245.137C33.3699 245.137 32.9931 245.063 32.6416 244.919C32.2901 244.775 31.9708 244.564 31.7017 244.298C31.4327 244.032 31.2193 243.717 31.0737 243.369C30.9281 243.022 30.8532 242.649 30.8532 242.273C30.8532 241.897 30.9281 241.525 31.0737 241.177C31.2193 240.83 31.4327 240.514 31.7017 240.248C31.9708 239.982 32.2901 239.771 32.6416 239.627C32.9931 239.483 33.3699 239.409 33.7503 239.409C34.1308 239.409 34.5075 239.483 34.859 239.627C35.2105 239.771 35.5299 239.982 35.7989 240.248C36.0679 240.514 36.2813 240.83 36.4269 241.177C36.5725 241.525 36.6474 241.897 36.6474 242.273ZM6.48076 242.273C6.48076 242.649 6.40583 243.022 6.26023 243.369C6.11464 243.717 5.90124 244.032 5.63222 244.298C5.3632 244.564 5.04382 244.775 4.69233 244.919C4.34083 245.063 3.9641 245.137 3.58364 245.137C3.20319 245.137 2.82646 245.063 2.47496 244.919C2.12347 244.775 1.80409 244.564 1.53507 244.298C1.26605 244.032 1.05265 243.717 0.907054 243.369C0.76146 243.022 0.686523 242.649 0.686523 242.273C0.686523 241.897 0.76146 241.525 0.907054 241.177C1.05265 240.83 1.26605 240.514 1.53507 240.248C1.80409 239.982 2.12347 239.771 2.47496 239.627C2.82646 239.483 3.20319 239.409 3.58364 239.409C3.9641 239.409 4.34083 239.483 4.69233 239.627C5.04382 239.771 5.3632 239.982 5.63222 240.248C5.90124 240.514 6.11464 240.83 6.26023 241.177C6.40583 241.525 6.48076 241.897 6.48076 242.273ZM308.147 212.451C308.147 212.827 308.073 213.2 307.927 213.547C307.781 213.895 307.568 214.211 307.299 214.477C307.03 214.742 306.711 214.953 306.359 215.097C306.008 215.241 305.631 215.315 305.25 215.315C304.87 215.315 304.493 215.241 304.142 215.097C303.79 214.953 303.471 214.742 303.202 214.477C302.933 214.211 302.719 213.895 302.574 213.547C302.428 213.2 302.353 212.827 302.353 212.451C302.353 212.075 302.428 211.703 302.574 211.355C302.719 211.008 302.933 210.692 303.202 210.426C303.471 210.16 303.79 209.949 304.142 209.805C304.493 209.661 304.87 209.587 305.25 209.587C305.631 209.587 306.008 209.661 306.359 209.805C306.711 209.949 307.03 210.16 307.299 210.426C307.568 210.692 307.781 211.008 307.927 211.355C308.073 211.703 308.147 212.075 308.147 212.451ZM277.981 212.451C277.981 212.827 277.906 213.2 277.76 213.547C277.615 213.895 277.401 214.211 277.132 214.477C276.863 214.742 276.544 214.953 276.192 215.097C275.841 215.241 275.464 215.315 275.084 215.315C274.703 215.315 274.326 215.241 273.975 215.097C273.623 214.953 273.304 214.742 273.035 214.477C272.766 214.211 272.553 213.895 272.407 213.547C272.261 213.2 272.187 212.827 272.187 212.451C272.187 212.075 272.261 211.703 272.407 211.355C272.553 211.008 272.766 210.692 273.035 210.426C273.304 210.16 273.623 209.949 273.975 209.805C274.326 209.661 274.703 209.587 275.084 209.587C275.464 209.587 275.841 209.661 276.192 209.805C276.544 209.949 276.863 210.16 277.132 210.426C277.401 210.692 277.615 211.008 277.76 211.355C277.906 211.703 277.981 212.075 277.981 212.451ZM247.814 212.451C247.814 212.827 247.739 213.2 247.594 213.547C247.448 213.895 247.235 214.211 246.966 214.477C246.697 214.742 246.377 214.953 246.026 215.097C245.674 215.241 245.297 215.315 244.917 215.315C244.537 215.315 244.16 215.241 243.808 215.097C243.457 214.953 243.137 214.742 242.868 214.477C242.599 214.211 242.386 213.895 242.24 213.547C242.095 213.2 242.02 212.827 242.02 212.451C242.02 212.075 242.095 211.703 242.24 211.355C242.386 211.008 242.599 210.692 242.868 210.426C243.137 210.16 243.457 209.949 243.808 209.805C244.16 209.661 244.537 209.587 244.917 209.587C245.297 209.587 245.674 209.661 246.026 209.805C246.377 209.949 246.697 210.16 246.966 210.426C247.235 210.692 247.448 211.008 247.594 211.355C247.739 211.703 247.814 212.075 247.814 212.451ZM217.647 212.451C217.647 212.827 217.572 213.2 217.427 213.547C217.281 213.895 217.068 214.211 216.799 214.477C216.53 214.742 216.21 214.953 215.859 215.097C215.507 215.241 215.131 215.315 214.75 215.315C214.37 215.315 213.993 215.241 213.642 215.097C213.29 214.953 212.971 214.742 212.702 214.477C212.433 214.211 212.219 213.895 212.074 213.547C211.928 213.2 211.853 212.827 211.853 212.451C211.853 212.075 211.928 211.703 212.074 211.355C212.219 211.008 212.433 210.692 212.702 210.426C212.971 210.16 213.29 209.949 213.642 209.805C213.993 209.661 214.37 209.587 214.75 209.587C215.131 209.587 215.507 209.661 215.859 209.805C216.21 209.949 216.53 210.16 216.799 210.426C217.068 210.692 217.281 211.008 217.427 211.355C217.572 211.703 217.647 212.075 217.647 212.451ZM187.481 212.451C187.481 212.827 187.406 213.2 187.26 213.547C187.115 213.895 186.901 214.211 186.632 214.477C186.363 214.742 186.044 214.953 185.692 215.097C185.341 215.241 184.964 215.315 184.584 215.315C184.203 215.315 183.826 215.241 183.475 215.097C183.123 214.953 182.804 214.742 182.535 214.477C182.266 214.211 182.053 213.895 181.907 213.547C181.761 213.2 181.687 212.827 181.687 212.451C181.687 212.075 181.761 211.703 181.907 211.355C182.053 211.008 182.266 210.692 182.535 210.426C182.804 210.16 183.123 209.949 183.475 209.805C183.826 209.661 184.203 209.587 184.584 209.587C184.964 209.587 185.341 209.661 185.692 209.805C186.044 209.949 186.363 210.16 186.632 210.426C186.901 210.692 187.115 211.008 187.26 211.355C187.406 211.703 187.481 212.075 187.481 212.451ZM157.314 212.451C157.314 212.827 157.239 213.2 157.094 213.547C156.948 213.895 156.735 214.211 156.466 214.477C156.197 214.742 155.877 214.953 155.526 215.097C155.174 215.241 154.797 215.315 154.417 215.315C154.037 215.315 153.66 215.241 153.308 215.097C152.957 214.953 152.637 214.742 152.368 214.477C152.099 214.211 151.886 213.895 151.74 213.547C151.595 213.2 151.52 212.827 151.52 212.451C151.52 212.075 151.595 211.703 151.74 211.355C151.886 211.008 152.099 210.692 152.368 210.426C152.637 210.16 152.957 209.949 153.308 209.805C153.66 209.661 154.037 209.587 154.417 209.587C154.797 209.587 155.174 209.661 155.526 209.805C155.877 209.949 156.197 210.16 156.466 210.426C156.735 210.692 156.948 211.008 157.094 211.355C157.239 211.703 157.314 212.075 157.314 212.451ZM127.147 212.451C127.147 212.827 127.072 213.2 126.927 213.547C126.781 213.895 126.568 214.211 126.299 214.477C126.03 214.742 125.71 214.953 125.359 215.097C125.007 215.241 124.631 215.315 124.25 215.315C123.87 215.315 123.493 215.241 123.142 215.097C122.79 214.953 122.471 214.742 122.202 214.477C121.933 214.211 121.719 213.895 121.574 213.547C121.428 213.2 121.353 212.827 121.353 212.451C121.353 212.075 121.428 211.703 121.574 211.355C121.719 211.008 121.933 210.692 122.202 210.426C122.471 210.16 122.79 209.949 123.142 209.805C123.493 209.661 123.87 209.587 124.25 209.587C124.631 209.587 125.007 209.661 125.359 209.805C125.71 209.949 126.03 210.16 126.299 210.426C126.568 210.692 126.781 211.008 126.927 211.355C127.072 211.703 127.147 212.075 127.147 212.451ZM96.9808 212.451C96.9808 212.827 96.9058 213.2 96.7602 213.547C96.6146 213.895 96.4012 214.211 96.1322 214.477C95.8632 214.742 95.5438 214.953 95.1923 215.097C94.8408 215.241 94.4641 215.315 94.0836 215.315C93.7032 215.315 93.3265 215.241 92.975 215.097C92.6235 214.953 92.3041 214.742 92.0351 214.477C91.766 214.211 91.5526 213.895 91.4071 213.547C91.2615 213.2 91.1865 212.827 91.1865 212.451C91.1865 212.075 91.2615 211.703 91.4071 211.355C91.5526 211.008 91.766 210.692 92.0351 210.426C92.3041 210.16 92.6235 209.949 92.975 209.805C93.3265 209.661 93.7032 209.587 94.0836 209.587C94.4641 209.587 94.8408 209.661 95.1923 209.805C95.5438 209.949 95.8632 210.16 96.1322 210.426C96.4012 210.692 96.6146 211.008 96.7602 211.355C96.9058 211.703 96.9808 212.075 96.9808 212.451ZM66.8141 212.451C66.8141 212.827 66.7392 213.2 66.5936 213.547C66.448 213.895 66.2346 214.211 65.9656 214.477C65.6965 214.742 65.3771 214.953 65.0257 215.097C64.6742 215.241 64.2974 215.315 63.917 215.315C63.5365 215.315 63.1598 215.241 62.8083 215.097C62.4568 214.953 62.1374 214.742 61.8684 214.477C61.5994 214.211 61.386 213.895 61.2404 213.547C61.0948 213.2 61.0198 212.827 61.0198 212.451C61.0198 212.075 61.0948 211.703 61.2404 211.355C61.386 211.008 61.5994 210.692 61.8684 210.426C62.1374 210.16 62.4568 209.949 62.8083 209.805C63.1598 209.661 63.5365 209.587 63.917 209.587C64.2974 209.587 64.6742 209.661 65.0257 209.805C65.3771 209.949 65.6965 210.16 65.9656 210.426C66.2346 210.692 66.448 211.008 66.5936 211.355C66.7392 211.703 66.8141 212.075 66.8141 212.451ZM36.6474 212.451C36.6474 212.827 36.5725 213.2 36.4269 213.547C36.2813 213.895 36.0679 214.211 35.7989 214.477C35.5299 214.742 35.2105 214.953 34.859 215.097C34.5075 215.241 34.1308 215.315 33.7503 215.315C33.3699 215.315 32.9931 215.241 32.6416 215.097C32.2901 214.953 31.9708 214.742 31.7017 214.477C31.4327 214.211 31.2193 213.895 31.0737 213.547C30.9281 213.2 30.8532 212.827 30.8532 212.451C30.8532 212.075 30.9281 211.703 31.0737 211.355C31.2193 211.008 31.4327 210.692 31.7017 210.426C31.9708 210.16 32.2901 209.949 32.6416 209.805C32.9931 209.661 33.3699 209.587 33.7503 209.587C34.1308 209.587 34.5075 209.661 34.859 209.805C35.2105 209.949 35.5299 210.16 35.7989 210.426C36.0679 210.692 36.2813 211.008 36.4269 211.355C36.5725 211.703 36.6474 212.075 36.6474 212.451ZM6.48076 212.451C6.48076 212.827 6.40583 213.2 6.26023 213.547C6.11464 213.895 5.90124 214.211 5.63222 214.477C5.3632 214.742 5.04382 214.953 4.69233 215.097C4.34083 215.241 3.9641 215.315 3.58364 215.315C3.20319 215.315 2.82646 215.241 2.47496 215.097C2.12347 214.953 1.80409 214.742 1.53507 214.477C1.26605 214.211 1.05265 213.895 0.907054 213.547C0.76146 213.2 0.686523 212.827 0.686523 212.451C0.686523 212.075 0.76146 211.703 0.907054 211.355C1.05265 211.008 1.26605 210.692 1.53507 210.426C1.80409 210.16 2.12347 209.949 2.47496 209.805C2.82646 209.661 3.20319 209.587 3.58364 209.587C3.9641 209.587 4.34083 209.661 4.69233 209.805C5.04382 209.949 5.3632 210.16 5.63222 210.426C5.90124 210.692 6.11464 211.008 6.26023 211.355C6.40583 211.703 6.48076 212.075 6.48076 212.451ZM308.147 182.629C308.147 183.006 308.073 183.378 307.927 183.725C307.781 184.073 307.568 184.389 307.299 184.655C307.03 184.921 306.711 185.132 306.359 185.275C306.008 185.419 305.631 185.493 305.25 185.493C304.87 185.493 304.493 185.419 304.142 185.275C303.79 185.132 303.471 184.921 303.202 184.655C302.933 184.389 302.719 184.073 302.574 183.725C302.428 183.378 302.353 183.006 302.353 182.629C302.353 182.253 302.428 181.881 302.574 181.533C302.719 181.186 302.933 180.87 303.202 180.604C303.471 180.338 303.79 180.127 304.142 179.983C304.493 179.84 304.87 179.765 305.25 179.765C305.631 179.765 306.008 179.84 306.359 179.983C306.711 180.127 307.03 180.338 307.299 180.604C307.568 180.87 307.781 181.186 307.927 181.533C308.073 181.881 308.147 182.253 308.147 182.629ZM277.981 182.629C277.981 183.006 277.906 183.378 277.76 183.725C277.615 184.073 277.401 184.389 277.132 184.655C276.863 184.921 276.544 185.132 276.192 185.275C275.841 185.419 275.464 185.493 275.084 185.493C274.703 185.493 274.326 185.419 273.975 185.275C273.623 185.132 273.304 184.921 273.035 184.655C272.766 184.389 272.553 184.073 272.407 183.725C272.261 183.378 272.187 183.006 272.187 182.629C272.187 182.253 272.261 181.881 272.407 181.533C272.553 181.186 272.766 180.87 273.035 180.604C273.304 180.338 273.623 180.127 273.975 179.983C274.326 179.84 274.703 179.765 275.084 179.765C275.464 179.765 275.841 179.84 276.192 179.983C276.544 180.127 276.863 180.338 277.132 180.604C277.401 180.87 277.615 181.186 277.76 181.533C277.906 181.881 277.981 182.253 277.981 182.629ZM247.814 182.629C247.814 183.006 247.739 183.378 247.594 183.725C247.448 184.073 247.235 184.389 246.966 184.655C246.697 184.921 246.377 185.132 246.026 185.275C245.674 185.419 245.297 185.493 244.917 185.493C244.537 185.493 244.16 185.419 243.808 185.275C243.457 185.132 243.137 184.921 242.868 184.655C242.599 184.389 242.386 184.073 242.24 183.725C242.095 183.378 242.02 183.006 242.02 182.629C242.02 182.253 242.095 181.881 242.24 181.533C242.386 181.186 242.599 180.87 242.868 180.604C243.137 180.338 243.457 180.127 243.808 179.983C244.16 179.84 244.537 179.765 244.917 179.765C245.297 179.765 245.674 179.84 246.026 179.983C246.377 180.127 246.697 180.338 246.966 180.604C247.235 180.87 247.448 181.186 247.594 181.533C247.739 181.881 247.814 182.253 247.814 182.629ZM217.647 182.629C217.647 183.006 217.572 183.378 217.427 183.725C217.281 184.073 217.068 184.389 216.799 184.655C216.53 184.921 216.21 185.132 215.859 185.275C215.507 185.419 215.131 185.493 214.75 185.493C214.37 185.493 213.993 185.419 213.642 185.275C213.29 185.132 212.971 184.921 212.702 184.655C212.433 184.389 212.219 184.073 212.074 183.725C211.928 183.378 211.853 183.006 211.853 182.629C211.853 182.253 211.928 181.881 212.074 181.533C212.219 181.186 212.433 180.87 212.702 180.604C212.971 180.338 213.29 180.127 213.642 179.983C213.993 179.84 214.37 179.765 214.75 179.765C215.131 179.765 215.507 179.84 215.859 179.983C216.21 180.127 216.53 180.338 216.799 180.604C217.068 180.87 217.281 181.186 217.427 181.533C217.572 181.881 217.647 182.253 217.647 182.629ZM187.481 182.629C187.481 183.006 187.406 183.378 187.26 183.725C187.115 184.073 186.901 184.389 186.632 184.655C186.363 184.921 186.044 185.132 185.692 185.275C185.341 185.419 184.964 185.493 184.584 185.493C184.203 185.493 183.826 185.419 183.475 185.275C183.123 185.132 182.804 184.921 182.535 184.655C182.266 184.389 182.053 184.073 181.907 183.725C181.761 183.378 181.687 183.006 181.687 182.629C181.687 182.253 181.761 181.881 181.907 181.533C182.053 181.186 182.266 180.87 182.535 180.604C182.804 180.338 183.123 180.127 183.475 179.983C183.826 179.84 184.203 179.765 184.584 179.765C184.964 179.765 185.341 179.84 185.692 179.983C186.044 180.127 186.363 180.338 186.632 180.604C186.901 180.87 187.115 181.186 187.26 181.533C187.406 181.881 187.481 182.253 187.481 182.629ZM157.314 182.629C157.314 183.006 157.239 183.378 157.094 183.725C156.948 184.073 156.735 184.389 156.466 184.655C156.197 184.921 155.877 185.132 155.526 185.275C155.174 185.419 154.797 185.493 154.417 185.493C154.037 185.493 153.66 185.419 153.308 185.275C152.957 185.132 152.637 184.921 152.368 184.655C152.099 184.389 151.886 184.073 151.74 183.725C151.595 183.378 151.52 183.006 151.52 182.629C151.52 182.253 151.595 181.881 151.74 181.533C151.886 181.186 152.099 180.87 152.368 180.604C152.637 180.338 152.957 180.127 153.308 179.983C153.66 179.84 154.037 179.765 154.417 179.765C154.797 179.765 155.174 179.84 155.526 179.983C155.877 180.127 156.197 180.338 156.466 180.604C156.735 180.87 156.948 181.186 157.094 181.533C157.239 181.881 157.314 182.253 157.314 182.629ZM127.147 182.629C127.147 183.006 127.072 183.378 126.927 183.725C126.781 184.073 126.568 184.389 126.299 184.655C126.03 184.921 125.71 185.132 125.359 185.275C125.007 185.419 124.631 185.493 124.25 185.493C123.87 185.493 123.493 185.419 123.142 185.275C122.79 185.132 122.471 184.921 122.202 184.655C121.933 184.389 121.719 184.073 121.574 183.725C121.428 183.378 121.353 183.006 121.353 182.629C121.353 182.253 121.428 181.881 121.574 181.533C121.719 181.186 121.933 180.87 122.202 180.604C122.471 180.338 122.79 180.127 123.142 179.983C123.493 179.84 123.87 179.765 124.25 179.765C124.631 179.765 125.007 179.84 125.359 179.983C125.71 180.127 126.03 180.338 126.299 180.604C126.568 180.87 126.781 181.186 126.927 181.533C127.072 181.881 127.147 182.253 127.147 182.629ZM96.9808 182.629C96.9808 183.006 96.9058 183.378 96.7602 183.725C96.6146 184.073 96.4012 184.389 96.1322 184.655C95.8632 184.921 95.5438 185.132 95.1923 185.275C94.8408 185.419 94.4641 185.493 94.0836 185.493C93.7032 185.493 93.3265 185.419 92.975 185.275C92.6235 185.132 92.3041 184.921 92.0351 184.655C91.766 184.389 91.5526 184.073 91.4071 183.725C91.2615 183.378 91.1865 183.006 91.1865 182.629C91.1865 182.253 91.2615 181.881 91.4071 181.533C91.5526 181.186 91.766 180.87 92.0351 180.604C92.3041 180.338 92.6235 180.127 92.975 179.983C93.3265 179.84 93.7032 179.765 94.0836 179.765C94.4641 179.765 94.8408 179.84 95.1923 179.983C95.5438 180.127 95.8632 180.338 96.1322 180.604C96.4012 180.87 96.6146 181.186 96.7602 181.533C96.9058 181.881 96.9808 182.253 96.9808 182.629ZM66.8141 182.629C66.8141 183.006 66.7392 183.378 66.5936 183.725C66.448 184.073 66.2346 184.389 65.9656 184.655C65.6965 184.921 65.3771 185.132 65.0257 185.275C64.6742 185.419 64.2974 185.493 63.917 185.493C63.5365 185.493 63.1598 185.419 62.8083 185.275C62.4568 185.132 62.1374 184.921 61.8684 184.655C61.5994 184.389 61.386 184.073 61.2404 183.725C61.0948 183.378 61.0198 183.006 61.0198 182.629C61.0198 182.253 61.0948 181.881 61.2404 181.533C61.386 181.186 61.5994 180.87 61.8684 180.604C62.1374 180.338 62.4568 180.127 62.8083 179.983C63.1598 179.84 63.5365 179.765 63.917 179.765C64.2974 179.765 64.6742 179.84 65.0257 179.983C65.3771 180.127 65.6965 180.338 65.9656 180.604C66.2346 180.87 66.448 181.186 66.5936 181.533C66.7392 181.881 66.8141 182.253 66.8141 182.629ZM36.6474 182.629C36.6474 183.006 36.5725 183.378 36.4269 183.725C36.2813 184.073 36.0679 184.389 35.7989 184.655C35.5299 184.921 35.2105 185.132 34.859 185.275C34.5075 185.419 34.1308 185.493 33.7503 185.493C33.3699 185.493 32.9931 185.419 32.6416 185.275C32.2901 185.132 31.9708 184.921 31.7017 184.655C31.4327 184.389 31.2193 184.073 31.0737 183.725C30.9281 183.378 30.8532 183.006 30.8532 182.629C30.8532 182.253 30.9281 181.881 31.0737 181.533C31.2193 181.186 31.4327 180.87 31.7017 180.604C31.9708 180.338 32.2901 180.127 32.6416 179.983C32.9931 179.84 33.3699 179.765 33.7503 179.765C34.1308 179.765 34.5075 179.84 34.859 179.983C35.2105 180.127 35.5299 180.338 35.7989 180.604C36.0679 180.87 36.2813 181.186 36.4269 181.533C36.5725 181.881 36.6474 182.253 36.6474 182.629ZM6.48076 182.629C6.48076 183.006 6.40583 183.378 6.26023 183.725C6.11464 184.073 5.90124 184.389 5.63222 184.655C5.3632 184.921 5.04382 185.132 4.69233 185.275C4.34083 185.419 3.9641 185.493 3.58364 185.493C3.20319 185.493 2.82646 185.419 2.47496 185.275C2.12347 185.132 1.80409 184.921 1.53507 184.655C1.26605 184.389 1.05265 184.073 0.907054 183.725C0.76146 183.378 0.686523 183.006 0.686523 182.629C0.686523 182.253 0.76146 181.881 0.907054 181.533C1.05265 181.186 1.26605 180.87 1.53507 180.604C1.80409 180.338 2.12347 180.127 2.47496 179.983C2.82646 179.84 3.20319 179.765 3.58364 179.765C3.9641 179.765 4.34083 179.84 4.69233 179.983C5.04382 180.127 5.3632 180.338 5.63222 180.604C5.90124 180.87 6.11464 181.186 6.26023 181.533C6.40583 181.881 6.48076 182.253 6.48076 182.629ZM308.147 152.808C308.147 153.184 308.073 153.556 307.927 153.904C307.781 154.251 307.568 154.567 307.299 154.833C307.03 155.099 306.711 155.31 306.359 155.454C306.008 155.597 305.631 155.672 305.25 155.672C304.87 155.672 304.493 155.597 304.142 155.454C303.79 155.31 303.471 155.099 303.202 154.833C302.933 154.567 302.719 154.251 302.574 153.904C302.428 153.556 302.353 153.184 302.353 152.808C302.353 152.431 302.428 152.059 302.574 151.712C302.719 151.364 302.933 151.048 303.202 150.782C303.471 150.516 303.79 150.305 304.142 150.162C304.493 150.018 304.87 149.944 305.25 149.944C305.631 149.944 306.008 150.018 306.359 150.162C306.711 150.305 307.03 150.516 307.299 150.782C307.568 151.048 307.781 151.364 307.927 151.712C308.073 152.059 308.147 152.431 308.147 152.808ZM277.981 152.808C277.981 153.184 277.906 153.556 277.76 153.904C277.615 154.251 277.401 154.567 277.132 154.833C276.863 155.099 276.544 155.31 276.192 155.454C275.841 155.597 275.464 155.672 275.084 155.672C274.703 155.672 274.326 155.597 273.975 155.454C273.623 155.31 273.304 155.099 273.035 154.833C272.766 154.567 272.553 154.251 272.407 153.904C272.261 153.556 272.187 153.184 272.187 152.808C272.187 152.431 272.261 152.059 272.407 151.712C272.553 151.364 272.766 151.048 273.035 150.782C273.304 150.516 273.623 150.305 273.975 150.162C274.326 150.018 274.703 149.944 275.084 149.944C275.464 149.944 275.841 150.018 276.192 150.162C276.544 150.305 276.863 150.516 277.132 150.782C277.401 151.048 277.615 151.364 277.76 151.712C277.906 152.059 277.981 152.431 277.981 152.808ZM247.814 152.808C247.814 153.184 247.739 153.556 247.594 153.904C247.448 154.251 247.235 154.567 246.966 154.833C246.697 155.099 246.377 155.31 246.026 155.454C245.674 155.597 245.297 155.672 244.917 155.672C244.537 155.672 244.16 155.597 243.808 155.454C243.457 155.31 243.137 155.099 242.868 154.833C242.599 154.567 242.386 154.251 242.24 153.904C242.095 153.556 242.02 153.184 242.02 152.808C242.02 152.431 242.095 152.059 242.24 151.712C242.386 151.364 242.599 151.048 242.868 150.782C243.137 150.516 243.457 150.305 243.808 150.162C244.16 150.018 244.537 149.944 244.917 149.944C245.297 149.944 245.674 150.018 246.026 150.162C246.377 150.305 246.697 150.516 246.966 150.782C247.235 151.048 247.448 151.364 247.594 151.712C247.739 152.059 247.814 152.431 247.814 152.808ZM217.647 152.808C217.647 153.184 217.572 153.556 217.427 153.904C217.281 154.251 217.068 154.567 216.799 154.833C216.53 155.099 216.21 155.31 215.859 155.454C215.507 155.597 215.131 155.672 214.75 155.672C214.37 155.672 213.993 155.597 213.642 155.454C213.29 155.31 212.971 155.099 212.702 154.833C212.433 154.567 212.219 154.251 212.074 153.904C211.928 153.556 211.853 153.184 211.853 152.808C211.853 152.431 211.928 152.059 212.074 151.712C212.219 151.364 212.433 151.048 212.702 150.782C212.971 150.516 213.29 150.305 213.642 150.162C213.993 150.018 214.37 149.944 214.75 149.944C215.131 149.944 215.507 150.018 215.859 150.162C216.21 150.305 216.53 150.516 216.799 150.782C217.068 151.048 217.281 151.364 217.427 151.712C217.572 152.059 217.647 152.431 217.647 152.808ZM187.481 152.808C187.481 153.184 187.406 153.556 187.26 153.904C187.115 154.251 186.901 154.567 186.632 154.833C186.363 155.099 186.044 155.31 185.692 155.454C185.341 155.597 184.964 155.672 184.584 155.672C184.203 155.672 183.826 155.597 183.475 155.454C183.123 155.31 182.804 155.099 182.535 154.833C182.266 154.567 182.053 154.251 181.907 153.904C181.761 153.556 181.687 153.184 181.687 152.808C181.687 152.431 181.761 152.059 181.907 151.712C182.053 151.364 182.266 151.048 182.535 150.782C182.804 150.516 183.123 150.305 183.475 150.162C183.826 150.018 184.203 149.944 184.584 149.944C184.964 149.944 185.341 150.018 185.692 150.162C186.044 150.305 186.363 150.516 186.632 150.782C186.901 151.048 187.115 151.364 187.26 151.712C187.406 152.059 187.481 152.431 187.481 152.808ZM157.314 152.808C157.314 153.184 157.239 153.556 157.094 153.904C156.948 154.251 156.735 154.567 156.466 154.833C156.197 155.099 155.877 155.31 155.526 155.454C155.174 155.597 154.797 155.672 154.417 155.672C154.037 155.672 153.66 155.597 153.308 155.454C152.957 155.31 152.637 155.099 152.368 154.833C152.099 154.567 151.886 154.251 151.74 153.904C151.595 153.556 151.52 153.184 151.52 152.808C151.52 152.431 151.595 152.059 151.74 151.712C151.886 151.364 152.099 151.048 152.368 150.782C152.637 150.516 152.957 150.305 153.308 150.162C153.66 150.018 154.037 149.944 154.417 149.944C154.797 149.944 155.174 150.018 155.526 150.162C155.877 150.305 156.197 150.516 156.466 150.782C156.735 151.048 156.948 151.364 157.094 151.712C157.239 152.059 157.314 152.431 157.314 152.808ZM127.147 152.808C127.147 153.184 127.072 153.556 126.927 153.904C126.781 154.251 126.568 154.567 126.299 154.833C126.03 155.099 125.71 155.31 125.359 155.454C125.007 155.597 124.631 155.672 124.25 155.672C123.87 155.672 123.493 155.597 123.142 155.454C122.79 155.31 122.471 155.099 122.202 154.833C121.933 154.567 121.719 154.251 121.574 153.904C121.428 153.556 121.353 153.184 121.353 152.808C121.353 152.431 121.428 152.059 121.574 151.712C121.719 151.364 121.933 151.048 122.202 150.782C122.471 150.516 122.79 150.305 123.142 150.162C123.493 150.018 123.87 149.944 124.25 149.944C124.631 149.944 125.007 150.018 125.359 150.162C125.71 150.305 126.03 150.516 126.299 150.782C126.568 151.048 126.781 151.364 126.927 151.712C127.072 152.059 127.147 152.431 127.147 152.808ZM96.9808 152.808C96.9808 153.184 96.9058 153.556 96.7602 153.904C96.6146 154.251 96.4012 154.567 96.1322 154.833C95.8632 155.099 95.5438 155.31 95.1923 155.454C94.8408 155.597 94.4641 155.672 94.0836 155.672C93.7032 155.672 93.3265 155.597 92.975 155.454C92.6235 155.31 92.3041 155.099 92.0351 154.833C91.766 154.567 91.5526 154.251 91.4071 153.904C91.2615 153.556 91.1865 153.184 91.1865 152.808C91.1865 152.431 91.2615 152.059 91.4071 151.712C91.5526 151.364 91.766 151.048 92.0351 150.782C92.3041 150.516 92.6235 150.305 92.975 150.162C93.3265 150.018 93.7032 149.944 94.0836 149.944C94.4641 149.944 94.8408 150.018 95.1923 150.162C95.5438 150.305 95.8632 150.516 96.1322 150.782C96.4012 151.048 96.6146 151.364 96.7602 151.712C96.9058 152.059 96.9808 152.431 96.9808 152.808ZM66.8141 152.808C66.8141 153.184 66.7392 153.556 66.5936 153.904C66.448 154.251 66.2346 154.567 65.9656 154.833C65.6965 155.099 65.3771 155.31 65.0257 155.454C64.6742 155.597 64.2974 155.672 63.917 155.672C63.5365 155.672 63.1598 155.597 62.8083 155.454C62.4568 155.31 62.1374 155.099 61.8684 154.833C61.5994 154.567 61.386 154.251 61.2404 153.904C61.0948 153.556 61.0198 153.184 61.0198 152.808C61.0198 152.431 61.0948 152.059 61.2404 151.712C61.386 151.364 61.5994 151.048 61.8684 150.782C62.1374 150.516 62.4568 150.305 62.8083 150.162C63.1598 150.018 63.5365 149.944 63.917 149.944C64.2974 149.944 64.6742 150.018 65.0257 150.162C65.3771 150.305 65.6965 150.516 65.9656 150.782C66.2346 151.048 66.448 151.364 66.5936 151.712C66.7392 152.059 66.8141 152.431 66.8141 152.808ZM36.6474 152.808C36.6474 153.184 36.5725 153.556 36.4269 153.904C36.2813 154.251 36.0679 154.567 35.7989 154.833C35.5299 155.099 35.2105 155.31 34.859 155.454C34.5075 155.597 34.1308 155.672 33.7503 155.672C33.3699 155.672 32.9931 155.597 32.6416 155.454C32.2901 155.31 31.9708 155.099 31.7017 154.833C31.4327 154.567 31.2193 154.251 31.0737 153.904C30.9281 153.556 30.8532 153.184 30.8532 152.808C30.8532 152.431 30.9281 152.059 31.0737 151.712C31.2193 151.364 31.4327 151.048 31.7017 150.782C31.9708 150.516 32.2901 150.305 32.6416 150.162C32.9931 150.018 33.3699 149.944 33.7503 149.944C34.1308 149.944 34.5075 150.018 34.859 150.162C35.2105 150.305 35.5299 150.516 35.7989 150.782C36.0679 151.048 36.2813 151.364 36.4269 151.712C36.5725 152.059 36.6474 152.431 36.6474 152.808ZM6.48076 152.808C6.48076 153.184 6.40583 153.556 6.26023 153.904C6.11464 154.251 5.90124 154.567 5.63222 154.833C5.3632 155.099 5.04382 155.31 4.69233 155.454C4.34083 155.597 3.9641 155.672 3.58364 155.672C3.20319 155.672 2.82646 155.597 2.47496 155.454C2.12347 155.31 1.80409 155.099 1.53507 154.833C1.26605 154.567 1.05265 154.251 0.907054 153.904C0.76146 153.556 0.686523 153.184 0.686523 152.808C0.686523 152.431 0.76146 152.059 0.907054 151.712C1.05265 151.364 1.26605 151.048 1.53507 150.782C1.80409 150.516 2.12347 150.305 2.47496 150.162C2.82646 150.018 3.20319 149.944 3.58364 149.944C3.9641 149.944 4.34083 150.018 4.69233 150.162C5.04382 150.305 5.3632 150.516 5.63222 150.782C5.90124 151.048 6.11464 151.364 6.26023 151.712C6.40583 152.059 6.48076 152.431 6.48076 152.808ZM308.147 122.986C308.147 123.362 308.073 123.734 307.927 124.082C307.781 124.429 307.568 124.745 307.299 125.011C307.03 125.277 306.711 125.488 306.359 125.632C306.008 125.776 305.631 125.85 305.25 125.85C304.87 125.85 304.493 125.776 304.142 125.632C303.79 125.488 303.471 125.277 303.202 125.011C302.933 124.745 302.719 124.429 302.574 124.082C302.428 123.734 302.353 123.362 302.353 122.986C302.353 122.61 302.428 122.237 302.574 121.89C302.719 121.542 302.933 121.226 303.202 120.96C303.471 120.695 303.79 120.484 304.142 120.34C304.493 120.196 304.87 120.122 305.25 120.122C305.631 120.122 306.008 120.196 306.359 120.34C306.711 120.484 307.03 120.695 307.299 120.96C307.568 121.226 307.781 121.542 307.927 121.89C308.073 122.237 308.147 122.61 308.147 122.986ZM277.981 122.986C277.981 123.362 277.906 123.734 277.76 124.082C277.615 124.429 277.401 124.745 277.132 125.011C276.863 125.277 276.544 125.488 276.192 125.632C275.841 125.776 275.464 125.85 275.084 125.85C274.703 125.85 274.326 125.776 273.975 125.632C273.623 125.488 273.304 125.277 273.035 125.011C272.766 124.745 272.553 124.429 272.407 124.082C272.261 123.734 272.187 123.362 272.187 122.986C272.187 122.61 272.261 122.237 272.407 121.89C272.553 121.542 272.766 121.226 273.035 120.96C273.304 120.695 273.623 120.484 273.975 120.34C274.326 120.196 274.703 120.122 275.084 120.122C275.464 120.122 275.841 120.196 276.192 120.34C276.544 120.484 276.863 120.695 277.132 120.96C277.401 121.226 277.615 121.542 277.76 121.89C277.906 122.237 277.981 122.61 277.981 122.986ZM247.814 122.986C247.814 123.362 247.739 123.734 247.594 124.082C247.448 124.429 247.235 124.745 246.966 125.011C246.697 125.277 246.377 125.488 246.026 125.632C245.674 125.776 245.297 125.85 244.917 125.85C244.537 125.85 244.16 125.776 243.808 125.632C243.457 125.488 243.137 125.277 242.868 125.011C242.599 124.745 242.386 124.429 242.24 124.082C242.095 123.734 242.02 123.362 242.02 122.986C242.02 122.61 242.095 122.237 242.24 121.89C242.386 121.542 242.599 121.226 242.868 120.96C243.137 120.695 243.457 120.484 243.808 120.34C244.16 120.196 244.537 120.122 244.917 120.122C245.297 120.122 245.674 120.196 246.026 120.34C246.377 120.484 246.697 120.695 246.966 120.96C247.235 121.226 247.448 121.542 247.594 121.89C247.739 122.237 247.814 122.61 247.814 122.986ZM217.647 122.986C217.647 123.362 217.572 123.734 217.427 124.082C217.281 124.429 217.068 124.745 216.799 125.011C216.53 125.277 216.21 125.488 215.859 125.632C215.507 125.776 215.131 125.85 214.75 125.85C214.37 125.85 213.993 125.776 213.642 125.632C213.29 125.488 212.971 125.277 212.702 125.011C212.433 124.745 212.219 124.429 212.074 124.082C211.928 123.734 211.853 123.362 211.853 122.986C211.853 122.61 211.928 122.237 212.074 121.89C212.219 121.542 212.433 121.226 212.702 120.96C212.971 120.695 213.29 120.484 213.642 120.34C213.993 120.196 214.37 120.122 214.75 120.122C215.131 120.122 215.507 120.196 215.859 120.34C216.21 120.484 216.53 120.695 216.799 120.96C217.068 121.226 217.281 121.542 217.427 121.89C217.572 122.237 217.647 122.61 217.647 122.986ZM187.481 122.986C187.481 123.362 187.406 123.734 187.26 124.082C187.115 124.429 186.901 124.745 186.632 125.011C186.363 125.277 186.044 125.488 185.692 125.632C185.341 125.776 184.964 125.85 184.584 125.85C184.203 125.85 183.826 125.776 183.475 125.632C183.123 125.488 182.804 125.277 182.535 125.011C182.266 124.745 182.053 124.429 181.907 124.082C181.761 123.734 181.687 123.362 181.687 122.986C181.687 122.61 181.761 122.237 181.907 121.89C182.053 121.542 182.266 121.226 182.535 120.96C182.804 120.695 183.123 120.484 183.475 120.34C183.826 120.196 184.203 120.122 184.584 120.122C184.964 120.122 185.341 120.196 185.692 120.34C186.044 120.484 186.363 120.695 186.632 120.96C186.901 121.226 187.115 121.542 187.26 121.89C187.406 122.237 187.481 122.61 187.481 122.986ZM157.314 122.986C157.314 123.362 157.239 123.734 157.094 124.082C156.948 124.429 156.735 124.745 156.466 125.011C156.197 125.277 155.877 125.488 155.526 125.632C155.174 125.776 154.797 125.85 154.417 125.85C154.037 125.85 153.66 125.776 153.308 125.632C152.957 125.488 152.637 125.277 152.368 125.011C152.099 124.745 151.886 124.429 151.74 124.082C151.595 123.734 151.52 123.362 151.52 122.986C151.52 122.61 151.595 122.237 151.74 121.89C151.886 121.542 152.099 121.226 152.368 120.96C152.637 120.695 152.957 120.484 153.308 120.34C153.66 120.196 154.037 120.122 154.417 120.122C154.797 120.122 155.174 120.196 155.526 120.34C155.877 120.484 156.197 120.695 156.466 120.96C156.735 121.226 156.948 121.542 157.094 121.89C157.239 122.237 157.314 122.61 157.314 122.986ZM127.147 122.986C127.147 123.362 127.072 123.734 126.927 124.082C126.781 124.429 126.568 124.745 126.299 125.011C126.03 125.277 125.71 125.488 125.359 125.632C125.007 125.776 124.631 125.85 124.25 125.85C123.87 125.85 123.493 125.776 123.142 125.632C122.79 125.488 122.471 125.277 122.202 125.011C121.933 124.745 121.719 124.429 121.574 124.082C121.428 123.734 121.353 123.362 121.353 122.986C121.353 122.61 121.428 122.237 121.574 121.89C121.719 121.542 121.933 121.226 122.202 120.96C122.471 120.695 122.79 120.484 123.142 120.34C123.493 120.196 123.87 120.122 124.25 120.122C124.631 120.122 125.007 120.196 125.359 120.34C125.71 120.484 126.03 120.695 126.299 120.96C126.568 121.226 126.781 121.542 126.927 121.89C127.072 122.237 127.147 122.61 127.147 122.986ZM96.9808 122.986C96.9808 123.362 96.9058 123.734 96.7602 124.082C96.6146 124.429 96.4012 124.745 96.1322 125.011C95.8632 125.277 95.5438 125.488 95.1923 125.632C94.8408 125.776 94.4641 125.85 94.0836 125.85C93.7032 125.85 93.3265 125.776 92.975 125.632C92.6235 125.488 92.3041 125.277 92.0351 125.011C91.766 124.745 91.5526 124.429 91.4071 124.082C91.2615 123.734 91.1865 123.362 91.1865 122.986C91.1865 122.61 91.2615 122.237 91.4071 121.89C91.5526 121.542 91.766 121.226 92.0351 120.96C92.3041 120.695 92.6235 120.484 92.975 120.34C93.3265 120.196 93.7032 120.122 94.0836 120.122C94.4641 120.122 94.8408 120.196 95.1923 120.34C95.5438 120.484 95.8632 120.695 96.1322 120.96C96.4012 121.226 96.6146 121.542 96.7602 121.89C96.9058 122.237 96.9808 122.61 96.9808 122.986ZM66.8141 122.986C66.8141 123.362 66.7392 123.734 66.5936 124.082C66.448 124.429 66.2346 124.745 65.9656 125.011C65.6965 125.277 65.3771 125.488 65.0257 125.632C64.6742 125.776 64.2974 125.85 63.917 125.85C63.5365 125.85 63.1598 125.776 62.8083 125.632C62.4568 125.488 62.1374 125.277 61.8684 125.011C61.5994 124.745 61.386 124.429 61.2404 124.082C61.0948 123.734 61.0198 123.362 61.0198 122.986C61.0198 122.61 61.0948 122.237 61.2404 121.89C61.386 121.542 61.5994 121.226 61.8684 120.96C62.1374 120.695 62.4568 120.484 62.8083 120.34C63.1598 120.196 63.5365 120.122 63.917 120.122C64.2974 120.122 64.6742 120.196 65.0257 120.34C65.3771 120.484 65.6965 120.695 65.9656 120.96C66.2346 121.226 66.448 121.542 66.5936 121.89C66.7392 122.237 66.8141 122.61 66.8141 122.986ZM36.6474 122.986C36.6474 123.362 36.5725 123.734 36.4269 124.082C36.2813 124.429 36.0679 124.745 35.7989 125.011C35.5299 125.277 35.2105 125.488 34.859 125.632C34.5075 125.776 34.1308 125.85 33.7503 125.85C33.3699 125.85 32.9931 125.776 32.6416 125.632C32.2901 125.488 31.9708 125.277 31.7017 125.011C31.4327 124.745 31.2193 124.429 31.0737 124.082C30.9281 123.734 30.8532 123.362 30.8532 122.986C30.8532 122.61 30.9281 122.237 31.0737 121.89C31.2193 121.542 31.4327 121.226 31.7017 120.96C31.9708 120.695 32.2901 120.484 32.6416 120.34C32.9931 120.196 33.3699 120.122 33.7503 120.122C34.1308 120.122 34.5075 120.196 34.859 120.34C35.2105 120.484 35.5299 120.695 35.7989 120.96C36.0679 121.226 36.2813 121.542 36.4269 121.89C36.5725 122.237 36.6474 122.61 36.6474 122.986ZM6.48076 122.986C6.48076 123.362 6.40583 123.734 6.26023 124.082C6.11464 124.429 5.90124 124.745 5.63222 125.011C5.3632 125.277 5.04382 125.488 4.69233 125.632C4.34083 125.776 3.9641 125.85 3.58364 125.85C3.20319 125.85 2.82646 125.776 2.47496 125.632C2.12347 125.488 1.80409 125.277 1.53507 125.011C1.26605 124.745 1.05265 124.429 0.907054 124.082C0.76146 123.734 0.686523 123.362 0.686523 122.986C0.686523 122.61 0.76146 122.237 0.907054 121.89C1.05265 121.542 1.26605 121.226 1.53507 120.96C1.80409 120.695 2.12347 120.484 2.47496 120.34C2.82646 120.196 3.20319 120.122 3.58364 120.122C3.9641 120.122 4.34083 120.196 4.69233 120.34C5.04382 120.484 5.3632 120.695 5.63222 120.96C5.90124 121.226 6.11464 121.542 6.26023 121.89C6.40583 122.237 6.48076 122.61 6.48076 122.986ZM308.147 93.1637C308.147 93.5399 308.073 93.9123 307.927 94.2598C307.781 94.6072 307.568 94.923 307.299 95.1889C307.03 95.4548 306.711 95.6658 306.359 95.8097C306.008 95.9537 305.631 96.0278 305.25 96.0278C304.87 96.0278 304.493 95.9537 304.142 95.8097C303.79 95.6658 303.471 95.4548 303.202 95.1889C302.933 94.923 302.719 94.6072 302.574 94.2598C302.428 93.9123 302.353 93.5399 302.353 93.1637C302.353 92.7876 302.428 92.4152 302.574 92.0677C302.719 91.7203 302.933 91.4045 303.202 91.1386C303.471 90.8726 303.79 90.6617 304.142 90.5177C304.493 90.3738 304.87 90.2997 305.25 90.2997C305.631 90.2997 306.008 90.3738 306.359 90.5177C306.711 90.6617 307.03 90.8726 307.299 91.1386C307.568 91.4045 307.781 91.7203 307.927 92.0677C308.073 92.4152 308.147 92.7876 308.147 93.1637ZM277.981 93.1637C277.981 93.5399 277.906 93.9123 277.76 94.2598C277.615 94.6072 277.401 94.923 277.132 95.1889C276.863 95.4548 276.544 95.6658 276.192 95.8097C275.841 95.9537 275.464 96.0278 275.084 96.0278C274.703 96.0278 274.326 95.9537 273.975 95.8097C273.623 95.6658 273.304 95.4548 273.035 95.1889C272.766 94.923 272.553 94.6072 272.407 94.2598C272.261 93.9123 272.187 93.5399 272.187 93.1637C272.187 92.7876 272.261 92.4152 272.407 92.0677C272.553 91.7203 272.766 91.4045 273.035 91.1386C273.304 90.8726 273.623 90.6617 273.975 90.5177C274.326 90.3738 274.703 90.2997 275.084 90.2997C275.464 90.2997 275.841 90.3738 276.192 90.5177C276.544 90.6617 276.863 90.8726 277.132 91.1386C277.401 91.4045 277.615 91.7203 277.76 92.0677C277.906 92.4152 277.981 92.7876 277.981 93.1637ZM247.814 93.1637C247.814 93.5399 247.739 93.9123 247.594 94.2598C247.448 94.6072 247.235 94.923 246.966 95.1889C246.697 95.4548 246.377 95.6658 246.026 95.8097C245.674 95.9537 245.297 96.0278 244.917 96.0278C244.537 96.0278 244.16 95.9537 243.808 95.8097C243.457 95.6658 243.137 95.4548 242.868 95.1889C242.599 94.923 242.386 94.6072 242.24 94.2598C242.095 93.9123 242.02 93.5399 242.02 93.1637C242.02 92.7876 242.095 92.4152 242.24 92.0677C242.386 91.7203 242.599 91.4045 242.868 91.1386C243.137 90.8726 243.457 90.6617 243.808 90.5177C244.16 90.3738 244.537 90.2997 244.917 90.2997C245.297 90.2997 245.674 90.3738 246.026 90.5177C246.377 90.6617 246.697 90.8726 246.966 91.1386C247.235 91.4045 247.448 91.7203 247.594 92.0677C247.739 92.4152 247.814 92.7876 247.814 93.1637ZM217.647 93.1637C217.647 93.5399 217.572 93.9123 217.427 94.2598C217.281 94.6072 217.068 94.923 216.799 95.1889C216.53 95.4548 216.21 95.6658 215.859 95.8097C215.507 95.9537 215.131 96.0278 214.75 96.0278C214.37 96.0278 213.993 95.9537 213.642 95.8097C213.29 95.6658 212.971 95.4548 212.702 95.1889C212.433 94.923 212.219 94.6072 212.074 94.2598C211.928 93.9123 211.853 93.5399 211.853 93.1637C211.853 92.7876 211.928 92.4152 212.074 92.0677C212.219 91.7203 212.433 91.4045 212.702 91.1386C212.971 90.8726 213.29 90.6617 213.642 90.5177C213.993 90.3738 214.37 90.2997 214.75 90.2997C215.131 90.2997 215.507 90.3738 215.859 90.5177C216.21 90.6617 216.53 90.8726 216.799 91.1386C217.068 91.4045 217.281 91.7203 217.427 92.0677C217.572 92.4152 217.647 92.7876 217.647 93.1637ZM187.481 93.1637C187.481 93.5399 187.406 93.9123 187.26 94.2598C187.115 94.6072 186.901 94.923 186.632 95.1889C186.363 95.4548 186.044 95.6658 185.692 95.8097C185.341 95.9537 184.964 96.0278 184.584 96.0278C184.203 96.0278 183.826 95.9537 183.475 95.8097C183.123 95.6658 182.804 95.4548 182.535 95.1889C182.266 94.923 182.053 94.6072 181.907 94.2598C181.761 93.9123 181.687 93.5399 181.687 93.1637C181.687 92.7876 181.761 92.4152 181.907 92.0677C182.053 91.7203 182.266 91.4045 182.535 91.1386C182.804 90.8726 183.123 90.6617 183.475 90.5177C183.826 90.3738 184.203 90.2997 184.584 90.2997C184.964 90.2997 185.341 90.3738 185.692 90.5177C186.044 90.6617 186.363 90.8726 186.632 91.1386C186.901 91.4045 187.115 91.7203 187.26 92.0677C187.406 92.4152 187.481 92.7876 187.481 93.1637ZM157.314 93.1637C157.314 93.5399 157.239 93.9123 157.094 94.2598C156.948 94.6072 156.735 94.923 156.466 95.1889C156.197 95.4548 155.877 95.6658 155.526 95.8097C155.174 95.9537 154.797 96.0278 154.417 96.0278C154.037 96.0278 153.66 95.9537 153.308 95.8097C152.957 95.6658 152.637 95.4548 152.368 95.1889C152.099 94.923 151.886 94.6072 151.74 94.2598C151.595 93.9123 151.52 93.5399 151.52 93.1637C151.52 92.7876 151.595 92.4152 151.74 92.0677C151.886 91.7203 152.099 91.4045 152.368 91.1386C152.637 90.8726 152.957 90.6617 153.308 90.5177C153.66 90.3738 154.037 90.2997 154.417 90.2997C154.797 90.2997 155.174 90.3738 155.526 90.5177C155.877 90.6617 156.197 90.8726 156.466 91.1386C156.735 91.4045 156.948 91.7203 157.094 92.0677C157.239 92.4152 157.314 92.7876 157.314 93.1637ZM127.147 93.1637C127.147 93.5399 127.072 93.9123 126.927 94.2598C126.781 94.6072 126.568 94.923 126.299 95.1889C126.03 95.4548 125.71 95.6658 125.359 95.8097C125.007 95.9537 124.631 96.0278 124.25 96.0278C123.87 96.0278 123.493 95.9537 123.142 95.8097C122.79 95.6658 122.471 95.4548 122.202 95.1889C121.933 94.923 121.719 94.6072 121.574 94.2598C121.428 93.9123 121.353 93.5399 121.353 93.1637C121.353 92.7876 121.428 92.4152 121.574 92.0677C121.719 91.7203 121.933 91.4045 122.202 91.1386C122.471 90.8726 122.79 90.6617 123.142 90.5177C123.493 90.3738 123.87 90.2997 124.25 90.2997C124.631 90.2997 125.007 90.3738 125.359 90.5177C125.71 90.6617 126.03 90.8726 126.299 91.1386C126.568 91.4045 126.781 91.7203 126.927 92.0677C127.072 92.4152 127.147 92.7876 127.147 93.1637ZM96.9808 93.1637C96.9808 93.5399 96.9058 93.9123 96.7602 94.2598C96.6146 94.6072 96.4012 94.923 96.1322 95.1889C95.8632 95.4548 95.5438 95.6658 95.1923 95.8097C94.8408 95.9537 94.4641 96.0278 94.0836 96.0278C93.7032 96.0278 93.3265 95.9537 92.975 95.8097C92.6235 95.6658 92.3041 95.4548 92.0351 95.1889C91.766 94.923 91.5526 94.6072 91.4071 94.2598C91.2615 93.9123 91.1865 93.5399 91.1865 93.1637C91.1865 92.7876 91.2615 92.4152 91.4071 92.0677C91.5526 91.7203 91.766 91.4045 92.0351 91.1386C92.3041 90.8726 92.6235 90.6617 92.975 90.5177C93.3265 90.3738 93.7032 90.2997 94.0836 90.2997C94.4641 90.2997 94.8408 90.3738 95.1923 90.5177C95.5438 90.6617 95.8632 90.8726 96.1322 91.1386C96.4012 91.4045 96.6146 91.7203 96.7602 92.0677C96.9058 92.4152 96.9808 92.7876 96.9808 93.1637ZM66.8141 93.1637C66.8141 93.5399 66.7392 93.9123 66.5936 94.2598C66.448 94.6072 66.2346 94.923 65.9656 95.1889C65.6965 95.4548 65.3771 95.6658 65.0257 95.8097C64.6742 95.9537 64.2974 96.0278 63.917 96.0278C63.5365 96.0278 63.1598 95.9537 62.8083 95.8097C62.4568 95.6658 62.1374 95.4548 61.8684 95.1889C61.5994 94.923 61.386 94.6072 61.2404 94.2598C61.0948 93.9123 61.0198 93.5399 61.0198 93.1637C61.0198 92.7876 61.0948 92.4152 61.2404 92.0677C61.386 91.7203 61.5994 91.4045 61.8684 91.1386C62.1374 90.8726 62.4568 90.6617 62.8083 90.5177C63.1598 90.3738 63.5365 90.2997 63.917 90.2997C64.2974 90.2997 64.6742 90.3738 65.0257 90.5177C65.3771 90.6617 65.6965 90.8726 65.9656 91.1386C66.2346 91.4045 66.448 91.7203 66.5936 92.0677C66.7392 92.4152 66.8141 92.7876 66.8141 93.1637ZM36.6474 93.1637C36.6474 93.5399 36.5725 93.9123 36.4269 94.2598C36.2813 94.6072 36.0679 94.923 35.7989 95.1889C35.5299 95.4548 35.2105 95.6658 34.859 95.8097C34.5075 95.9537 34.1308 96.0278 33.7503 96.0278C33.3699 96.0278 32.9931 95.9537 32.6416 95.8097C32.2901 95.6658 31.9708 95.4548 31.7017 95.1889C31.4327 94.923 31.2193 94.6072 31.0737 94.2598C30.9281 93.9123 30.8532 93.5399 30.8532 93.1637C30.8532 92.7876 30.9281 92.4152 31.0737 92.0677C31.2193 91.7203 31.4327 91.4045 31.7017 91.1386C31.9708 90.8726 32.2901 90.6617 32.6416 90.5177C32.9931 90.3738 33.3699 90.2997 33.7503 90.2997C34.1308 90.2997 34.5075 90.3738 34.859 90.5177C35.2105 90.6617 35.5299 90.8726 35.7989 91.1386C36.0679 91.4045 36.2813 91.7203 36.4269 92.0677C36.5725 92.4152 36.6474 92.7876 36.6474 93.1637ZM6.48076 93.1637C6.48076 93.5399 6.40583 93.9123 6.26023 94.2598C6.11464 94.6072 5.90124 94.923 5.63222 95.1889C5.3632 95.4548 5.04382 95.6658 4.69233 95.8097C4.34083 95.9537 3.9641 96.0278 3.58364 96.0278C3.20319 96.0278 2.82646 95.9537 2.47496 95.8097C2.12347 95.6658 1.80409 95.4548 1.53507 95.1889C1.26605 94.923 1.05265 94.6072 0.907054 94.2598C0.76146 93.9123 0.686523 93.5399 0.686523 93.1637C0.686523 92.7876 0.76146 92.4152 0.907054 92.0677C1.05265 91.7203 1.26605 91.4045 1.53507 91.1386C1.80409 90.8726 2.12347 90.6617 2.47496 90.5177C2.82646 90.3738 3.20319 90.2997 3.58364 90.2997C3.9641 90.2997 4.34083 90.3738 4.69233 90.5177C5.04382 90.6617 5.3632 90.8726 5.63222 91.1386C5.90124 91.4045 6.11464 91.7203 6.26023 92.0677C6.40583 92.4152 6.48076 92.7876 6.48076 93.1637ZM308.147 63.3418C308.147 63.718 308.073 64.0904 307.927 64.4379C307.781 64.7853 307.568 65.1011 307.299 65.367C307.03 65.6329 306.711 65.8439 306.359 65.9878C306.008 66.1318 305.631 66.2058 305.25 66.2058C304.87 66.2058 304.493 66.1318 304.142 65.9878C303.79 65.8439 303.471 65.6329 303.202 65.367C302.933 65.1011 302.719 64.7853 302.574 64.4379C302.428 64.0904 302.353 63.718 302.353 63.3418C302.353 62.9657 302.428 62.5933 302.574 62.2458C302.719 61.8984 302.933 61.5826 303.202 61.3167C303.471 61.0507 303.79 60.8398 304.142 60.6958C304.493 60.5519 304.87 60.4778 305.25 60.4778C305.631 60.4778 306.008 60.5519 306.359 60.6958C306.711 60.8398 307.03 61.0507 307.299 61.3167C307.568 61.5826 307.781 61.8984 307.927 62.2458C308.073 62.5933 308.147 62.9657 308.147 63.3418ZM277.981 63.3418C277.981 63.718 277.906 64.0904 277.76 64.4379C277.615 64.7853 277.401 65.1011 277.132 65.367C276.863 65.6329 276.544 65.8439 276.192 65.9878C275.841 66.1318 275.464 66.2058 275.084 66.2058C274.703 66.2058 274.326 66.1318 273.975 65.9878C273.623 65.8439 273.304 65.6329 273.035 65.367C272.766 65.1011 272.553 64.7853 272.407 64.4379C272.261 64.0904 272.187 63.718 272.187 63.3418C272.187 62.9657 272.261 62.5933 272.407 62.2458C272.553 61.8984 272.766 61.5826 273.035 61.3167C273.304 61.0507 273.623 60.8398 273.975 60.6958C274.326 60.5519 274.703 60.4778 275.084 60.4778C275.464 60.4778 275.841 60.5519 276.192 60.6958C276.544 60.8398 276.863 61.0507 277.132 61.3167C277.401 61.5826 277.615 61.8984 277.76 62.2458C277.906 62.5933 277.981 62.9657 277.981 63.3418ZM247.814 63.3418C247.814 63.718 247.739 64.0904 247.594 64.4379C247.448 64.7853 247.235 65.1011 246.966 65.367C246.697 65.6329 246.377 65.8439 246.026 65.9878C245.674 66.1318 245.297 66.2058 244.917 66.2058C244.537 66.2058 244.16 66.1318 243.808 65.9878C243.457 65.8439 243.137 65.6329 242.868 65.367C242.599 65.1011 242.386 64.7853 242.24 64.4379C242.095 64.0904 242.02 63.718 242.02 63.3418C242.02 62.9657 242.095 62.5933 242.24 62.2458C242.386 61.8984 242.599 61.5826 242.868 61.3167C243.137 61.0507 243.457 60.8398 243.808 60.6958C244.16 60.5519 244.537 60.4778 244.917 60.4778C245.297 60.4778 245.674 60.5519 246.026 60.6958C246.377 60.8398 246.697 61.0507 246.966 61.3167C247.235 61.5826 247.448 61.8984 247.594 62.2458C247.739 62.5933 247.814 62.9657 247.814 63.3418ZM217.647 63.3418C217.647 63.718 217.572 64.0904 217.427 64.4379C217.281 64.7853 217.068 65.1011 216.799 65.367C216.53 65.6329 216.21 65.8439 215.859 65.9878C215.507 66.1318 215.131 66.2058 214.75 66.2058C214.37 66.2058 213.993 66.1318 213.642 65.9878C213.29 65.8439 212.971 65.6329 212.702 65.367C212.433 65.1011 212.219 64.7853 212.074 64.4379C211.928 64.0904 211.853 63.718 211.853 63.3418C211.853 62.9657 211.928 62.5933 212.074 62.2458C212.219 61.8984 212.433 61.5826 212.702 61.3167C212.971 61.0507 213.29 60.8398 213.642 60.6958C213.993 60.5519 214.37 60.4778 214.75 60.4778C215.131 60.4778 215.507 60.5519 215.859 60.6958C216.21 60.8398 216.53 61.0507 216.799 61.3167C217.068 61.5826 217.281 61.8984 217.427 62.2458C217.572 62.5933 217.647 62.9657 217.647 63.3418ZM187.481 63.3418C187.481 63.718 187.406 64.0904 187.26 64.4379C187.115 64.7853 186.901 65.1011 186.632 65.367C186.363 65.6329 186.044 65.8439 185.692 65.9878C185.341 66.1318 184.964 66.2058 184.584 66.2058C184.203 66.2058 183.826 66.1318 183.475 65.9878C183.123 65.8439 182.804 65.6329 182.535 65.367C182.266 65.1011 182.053 64.7853 181.907 64.4379C181.761 64.0904 181.687 63.718 181.687 63.3418C181.687 62.9657 181.761 62.5933 181.907 62.2458C182.053 61.8984 182.266 61.5826 182.535 61.3167C182.804 61.0507 183.123 60.8398 183.475 60.6958C183.826 60.5519 184.203 60.4778 184.584 60.4778C184.964 60.4778 185.341 60.5519 185.692 60.6958C186.044 60.8398 186.363 61.0507 186.632 61.3167C186.901 61.5826 187.115 61.8984 187.26 62.2458C187.406 62.5933 187.481 62.9657 187.481 63.3418ZM157.314 63.3418C157.314 63.718 157.239 64.0904 157.094 64.4379C156.948 64.7853 156.735 65.1011 156.466 65.367C156.197 65.6329 155.877 65.8439 155.526 65.9878C155.174 66.1318 154.797 66.2058 154.417 66.2058C154.037 66.2058 153.66 66.1318 153.308 65.9878C152.957 65.8439 152.637 65.6329 152.368 65.367C152.099 65.1011 151.886 64.7853 151.74 64.4379C151.595 64.0904 151.52 63.718 151.52 63.3418C151.52 62.9657 151.595 62.5933 151.74 62.2458C151.886 61.8984 152.099 61.5826 152.368 61.3167C152.637 61.0507 152.957 60.8398 153.308 60.6958C153.66 60.5519 154.037 60.4778 154.417 60.4778C154.797 60.4778 155.174 60.5519 155.526 60.6958C155.877 60.8398 156.197 61.0507 156.466 61.3167C156.735 61.5826 156.948 61.8984 157.094 62.2458C157.239 62.5933 157.314 62.9657 157.314 63.3418ZM127.147 63.3418C127.147 63.718 127.072 64.0904 126.927 64.4379C126.781 64.7853 126.568 65.1011 126.299 65.367C126.03 65.6329 125.71 65.8439 125.359 65.9878C125.007 66.1318 124.631 66.2058 124.25 66.2058C123.87 66.2058 123.493 66.1318 123.142 65.9878C122.79 65.8439 122.471 65.6329 122.202 65.367C121.933 65.1011 121.719 64.7853 121.574 64.4379C121.428 64.0904 121.353 63.718 121.353 63.3418C121.353 62.9657 121.428 62.5933 121.574 62.2458C121.719 61.8984 121.933 61.5826 122.202 61.3167C122.471 61.0507 122.79 60.8398 123.142 60.6958C123.493 60.5519 123.87 60.4778 124.25 60.4778C124.631 60.4778 125.007 60.5519 125.359 60.6958C125.71 60.8398 126.03 61.0507 126.299 61.3167C126.568 61.5826 126.781 61.8984 126.927 62.2458C127.072 62.5933 127.147 62.9657 127.147 63.3418ZM96.9808 63.3418C96.9808 63.718 96.9058 64.0904 96.7602 64.4379C96.6146 64.7853 96.4012 65.1011 96.1322 65.367C95.8632 65.6329 95.5438 65.8439 95.1923 65.9878C94.8408 66.1318 94.4641 66.2058 94.0836 66.2058C93.7032 66.2058 93.3265 66.1318 92.975 65.9878C92.6235 65.8439 92.3041 65.6329 92.0351 65.367C91.766 65.1011 91.5526 64.7853 91.4071 64.4379C91.2615 64.0904 91.1865 63.718 91.1865 63.3418C91.1865 62.9657 91.2615 62.5933 91.4071 62.2458C91.5526 61.8984 91.766 61.5826 92.0351 61.3167C92.3041 61.0507 92.6235 60.8398 92.975 60.6958C93.3265 60.5519 93.7032 60.4778 94.0836 60.4778C94.4641 60.4778 94.8408 60.5519 95.1923 60.6958C95.5438 60.8398 95.8632 61.0507 96.1322 61.3167C96.4012 61.5826 96.6146 61.8984 96.7602 62.2458C96.9058 62.5933 96.9808 62.9657 96.9808 63.3418ZM66.8141 63.3418C66.8141 63.718 66.7392 64.0904 66.5936 64.4379C66.448 64.7853 66.2346 65.1011 65.9656 65.367C65.6965 65.6329 65.3771 65.8439 65.0257 65.9878C64.6742 66.1318 64.2974 66.2058 63.917 66.2058C63.5365 66.2058 63.1598 66.1318 62.8083 65.9878C62.4568 65.8439 62.1374 65.6329 61.8684 65.367C61.5994 65.1011 61.386 64.7853 61.2404 64.4379C61.0948 64.0904 61.0198 63.718 61.0198 63.3418C61.0198 62.9657 61.0948 62.5933 61.2404 62.2458C61.386 61.8984 61.5994 61.5826 61.8684 61.3167C62.1374 61.0507 62.4568 60.8398 62.8083 60.6958C63.1598 60.5519 63.5365 60.4778 63.917 60.4778C64.2974 60.4778 64.6742 60.5519 65.0257 60.6958C65.3771 60.8398 65.6965 61.0507 65.9656 61.3167C66.2346 61.5826 66.448 61.8984 66.5936 62.2458C66.7392 62.5933 66.8141 62.9657 66.8141 63.3418ZM36.6474 63.3418C36.6474 63.718 36.5725 64.0904 36.4269 64.4379C36.2813 64.7853 36.0679 65.1011 35.7989 65.367C35.5299 65.6329 35.2105 65.8439 34.859 65.9878C34.5075 66.1318 34.1308 66.2058 33.7503 66.2058C33.3699 66.2058 32.9931 66.1318 32.6416 65.9878C32.2901 65.8439 31.9708 65.6329 31.7017 65.367C31.4327 65.1011 31.2193 64.7853 31.0737 64.4379C30.9281 64.0904 30.8532 63.718 30.8532 63.3418C30.8532 62.9657 30.9281 62.5933 31.0737 62.2458C31.2193 61.8984 31.4327 61.5826 31.7017 61.3167C31.9708 61.0507 32.2901 60.8398 32.6416 60.6958C32.9931 60.5519 33.3699 60.4778 33.7503 60.4778C34.1308 60.4778 34.5075 60.5519 34.859 60.6958C35.2105 60.8398 35.5299 61.0507 35.7989 61.3167C36.0679 61.5826 36.2813 61.8984 36.4269 62.2458C36.5725 62.5933 36.6474 62.9657 36.6474 63.3418ZM6.48076 63.3418C6.48076 63.718 6.40583 64.0904 6.26023 64.4379C6.11464 64.7853 5.90124 65.1011 5.63222 65.367C5.3632 65.6329 5.04382 65.8439 4.69233 65.9878C4.34083 66.1318 3.9641 66.2058 3.58364 66.2058C3.20319 66.2058 2.82646 66.1318 2.47496 65.9878C2.12347 65.8439 1.80409 65.6329 1.53507 65.367C1.26605 65.1011 1.05265 64.7853 0.907054 64.4379C0.76146 64.0904 0.686523 63.718 0.686523 63.3418C0.686523 62.9657 0.76146 62.5933 0.907054 62.2458C1.05265 61.8984 1.26605 61.5826 1.53507 61.3167C1.80409 61.0507 2.12347 60.8398 2.47496 60.6958C2.82646 60.5519 3.20319 60.4778 3.58364 60.4778C3.9641 60.4778 4.34083 60.5519 4.69233 60.6958C5.04382 60.8398 5.3632 61.0507 5.63222 61.3167C5.90124 61.5826 6.11464 61.8984 6.26023 62.2458C6.40583 62.5933 6.48076 62.9657 6.48076 63.3418ZM308.147 33.5199C308.147 33.896 308.073 34.2685 307.927 34.6159C307.781 34.9634 307.568 35.2791 307.299 35.5451C307.03 35.811 306.711 36.022 306.359 36.1659C306.008 36.3099 305.631 36.3839 305.25 36.3839C304.87 36.3839 304.493 36.3099 304.142 36.1659C303.79 36.022 303.471 35.811 303.202 35.5451C302.933 35.2791 302.719 34.9634 302.574 34.6159C302.428 34.2685 302.353 33.896 302.353 33.5199C302.353 33.1438 302.428 32.7714 302.574 32.4239C302.719 32.0765 302.933 31.7607 303.202 31.4948C303.471 31.2288 303.79 31.0179 304.142 30.8739C304.493 30.73 304.87 30.6559 305.25 30.6559C305.631 30.6559 306.008 30.73 306.359 30.8739C306.711 31.0179 307.03 31.2288 307.299 31.4948C307.568 31.7607 307.781 32.0765 307.927 32.4239C308.073 32.7714 308.147 33.1438 308.147 33.5199ZM277.981 33.5199C277.981 33.896 277.906 34.2685 277.76 34.6159C277.615 34.9634 277.401 35.2791 277.132 35.5451C276.863 35.811 276.544 36.022 276.192 36.1659C275.841 36.3099 275.464 36.3839 275.084 36.3839C274.703 36.3839 274.326 36.3099 273.975 36.1659C273.623 36.022 273.304 35.811 273.035 35.5451C272.766 35.2791 272.553 34.9634 272.407 34.6159C272.261 34.2685 272.187 33.896 272.187 33.5199C272.187 33.1438 272.261 32.7714 272.407 32.4239C272.553 32.0765 272.766 31.7607 273.035 31.4948C273.304 31.2288 273.623 31.0179 273.975 30.8739C274.326 30.73 274.703 30.6559 275.084 30.6559C275.464 30.6559 275.841 30.73 276.192 30.8739C276.544 31.0179 276.863 31.2288 277.132 31.4948C277.401 31.7607 277.615 32.0765 277.76 32.4239C277.906 32.7714 277.981 33.1438 277.981 33.5199ZM247.814 33.5199C247.814 33.896 247.739 34.2685 247.594 34.6159C247.448 34.9634 247.235 35.2791 246.966 35.5451C246.697 35.811 246.377 36.022 246.026 36.1659C245.674 36.3099 245.297 36.3839 244.917 36.3839C244.537 36.3839 244.16 36.3099 243.808 36.1659C243.457 36.022 243.137 35.811 242.868 35.5451C242.599 35.2791 242.386 34.9634 242.24 34.6159C242.095 34.2685 242.02 33.896 242.02 33.5199C242.02 33.1438 242.095 32.7714 242.24 32.4239C242.386 32.0765 242.599 31.7607 242.868 31.4948C243.137 31.2288 243.457 31.0179 243.808 30.8739C244.16 30.73 244.537 30.6559 244.917 30.6559C245.297 30.6559 245.674 30.73 246.026 30.8739C246.377 31.0179 246.697 31.2288 246.966 31.4948C247.235 31.7607 247.448 32.0765 247.594 32.4239C247.739 32.7714 247.814 33.1438 247.814 33.5199ZM217.647 33.5199C217.647 33.896 217.572 34.2685 217.427 34.6159C217.281 34.9634 217.068 35.2791 216.799 35.5451C216.53 35.811 216.21 36.022 215.859 36.1659C215.507 36.3099 215.131 36.3839 214.75 36.3839C214.37 36.3839 213.993 36.3099 213.642 36.1659C213.29 36.022 212.971 35.811 212.702 35.5451C212.433 35.2791 212.219 34.9634 212.074 34.6159C211.928 34.2685 211.853 33.896 211.853 33.5199C211.853 33.1438 211.928 32.7714 212.074 32.4239C212.219 32.0765 212.433 31.7607 212.702 31.4948C212.971 31.2288 213.29 31.0179 213.642 30.8739C213.993 30.73 214.37 30.6559 214.75 30.6559C215.131 30.6559 215.507 30.73 215.859 30.8739C216.21 31.0179 216.53 31.2288 216.799 31.4948C217.068 31.7607 217.281 32.0765 217.427 32.4239C217.572 32.7714 217.647 33.1438 217.647 33.5199ZM187.481 33.5199C187.481 33.896 187.406 34.2685 187.26 34.6159C187.115 34.9634 186.901 35.2791 186.632 35.5451C186.363 35.811 186.044 36.022 185.692 36.1659C185.341 36.3099 184.964 36.3839 184.584 36.3839C184.203 36.3839 183.826 36.3099 183.475 36.1659C183.123 36.022 182.804 35.811 182.535 35.5451C182.266 35.2791 182.053 34.9634 181.907 34.6159C181.761 34.2685 181.687 33.896 181.687 33.5199C181.687 33.1438 181.761 32.7714 181.907 32.4239C182.053 32.0765 182.266 31.7607 182.535 31.4948C182.804 31.2288 183.123 31.0179 183.475 30.8739C183.826 30.73 184.203 30.6559 184.584 30.6559C184.964 30.6559 185.341 30.73 185.692 30.8739C186.044 31.0179 186.363 31.2288 186.632 31.4948C186.901 31.7607 187.115 32.0765 187.26 32.4239C187.406 32.7714 187.481 33.1438 187.481 33.5199ZM157.314 33.5199C157.314 33.896 157.239 34.2685 157.094 34.6159C156.948 34.9634 156.735 35.2791 156.466 35.5451C156.197 35.811 155.877 36.022 155.526 36.1659C155.174 36.3099 154.797 36.3839 154.417 36.3839C154.037 36.3839 153.66 36.3099 153.308 36.1659C152.957 36.022 152.637 35.811 152.368 35.5451C152.099 35.2791 151.886 34.9634 151.74 34.6159C151.595 34.2685 151.52 33.896 151.52 33.5199C151.52 33.1438 151.595 32.7714 151.74 32.4239C151.886 32.0765 152.099 31.7607 152.368 31.4948C152.637 31.2288 152.957 31.0179 153.308 30.8739C153.66 30.73 154.037 30.6559 154.417 30.6559C154.797 30.6559 155.174 30.73 155.526 30.8739C155.877 31.0179 156.197 31.2288 156.466 31.4948C156.735 31.7607 156.948 32.0765 157.094 32.4239C157.239 32.7714 157.314 33.1438 157.314 33.5199ZM127.147 33.5199C127.147 33.896 127.072 34.2685 126.927 34.6159C126.781 34.9634 126.568 35.2791 126.299 35.5451C126.03 35.811 125.71 36.022 125.359 36.1659C125.007 36.3099 124.631 36.3839 124.25 36.3839C123.87 36.3839 123.493 36.3099 123.142 36.1659C122.79 36.022 122.471 35.811 122.202 35.5451C121.933 35.2791 121.719 34.9634 121.574 34.6159C121.428 34.2685 121.353 33.896 121.353 33.5199C121.353 33.1438 121.428 32.7714 121.574 32.4239C121.719 32.0765 121.933 31.7607 122.202 31.4948C122.471 31.2288 122.79 31.0179 123.142 30.8739C123.493 30.73 123.87 30.6559 124.25 30.6559C124.631 30.6559 125.007 30.73 125.359 30.8739C125.71 31.0179 126.03 31.2288 126.299 31.4948C126.568 31.7607 126.781 32.0765 126.927 32.4239C127.072 32.7714 127.147 33.1438 127.147 33.5199ZM96.9808 33.5199C96.9808 33.896 96.9058 34.2685 96.7602 34.6159C96.6146 34.9634 96.4012 35.2791 96.1322 35.5451C95.8632 35.811 95.5438 36.022 95.1923 36.1659C94.8408 36.3099 94.4641 36.3839 94.0836 36.3839C93.7032 36.3839 93.3265 36.3099 92.975 36.1659C92.6235 36.022 92.3041 35.811 92.0351 35.5451C91.766 35.2791 91.5526 34.9634 91.4071 34.6159C91.2615 34.2685 91.1865 33.896 91.1865 33.5199C91.1865 33.1438 91.2615 32.7714 91.4071 32.4239C91.5526 32.0765 91.766 31.7607 92.0351 31.4948C92.3041 31.2288 92.6235 31.0179 92.975 30.8739C93.3265 30.73 93.7032 30.6559 94.0836 30.6559C94.4641 30.6559 94.8408 30.73 95.1923 30.8739C95.5438 31.0179 95.8632 31.2288 96.1322 31.4948C96.4012 31.7607 96.6146 32.0765 96.7602 32.4239C96.9058 32.7714 96.9808 33.1438 96.9808 33.5199ZM66.8141 33.5199C66.8141 33.896 66.7392 34.2685 66.5936 34.6159C66.448 34.9634 66.2346 35.2791 65.9656 35.5451C65.6965 35.811 65.3771 36.022 65.0257 36.1659C64.6742 36.3099 64.2974 36.3839 63.917 36.3839C63.5365 36.3839 63.1598 36.3099 62.8083 36.1659C62.4568 36.022 62.1374 35.811 61.8684 35.5451C61.5994 35.2791 61.386 34.9634 61.2404 34.6159C61.0948 34.2685 61.0198 33.896 61.0198 33.5199C61.0198 33.1438 61.0948 32.7714 61.2404 32.4239C61.386 32.0765 61.5994 31.7607 61.8684 31.4948C62.1374 31.2288 62.4568 31.0179 62.8083 30.8739C63.1598 30.73 63.5365 30.6559 63.917 30.6559C64.2974 30.6559 64.6742 30.73 65.0257 30.8739C65.3771 31.0179 65.6965 31.2288 65.9656 31.4948C66.2346 31.7607 66.448 32.0765 66.5936 32.4239C66.7392 32.7714 66.8141 33.1438 66.8141 33.5199ZM36.6474 33.5199C36.6474 33.896 36.5725 34.2685 36.4269 34.6159C36.2813 34.9634 36.0679 35.2791 35.7989 35.5451C35.5299 35.811 35.2105 36.022 34.859 36.1659C34.5075 36.3099 34.1308 36.3839 33.7503 36.3839C33.3699 36.3839 32.9931 36.3099 32.6416 36.1659C32.2901 36.022 31.9708 35.811 31.7017 35.5451C31.4327 35.2791 31.2193 34.9634 31.0737 34.6159C30.9281 34.2685 30.8532 33.896 30.8532 33.5199C30.8532 33.1438 30.9281 32.7714 31.0737 32.4239C31.2193 32.0765 31.4327 31.7607 31.7017 31.4948C31.9708 31.2288 32.2901 31.0179 32.6416 30.8739C32.9931 30.73 33.3699 30.6559 33.7503 30.6559C34.1308 30.6559 34.5075 30.73 34.859 30.8739C35.2105 31.0179 35.5299 31.2288 35.7989 31.4948C36.0679 31.7607 36.2813 32.0765 36.4269 32.4239C36.5725 32.7714 36.6474 33.1438 36.6474 33.5199ZM6.48076 33.5199C6.48076 33.896 6.40583 34.2685 6.26023 34.6159C6.11464 34.9634 5.90124 35.2791 5.63222 35.5451C5.3632 35.811 5.04382 36.022 4.69233 36.1659C4.34083 36.3099 3.9641 36.3839 3.58364 36.3839C3.20319 36.3839 2.82646 36.3099 2.47496 36.1659C2.12347 36.022 1.80409 35.811 1.53507 35.5451C1.26605 35.2791 1.05265 34.9634 0.907054 34.6159C0.76146 34.2685 0.686523 33.896 0.686523 33.5199C0.686523 33.1438 0.76146 32.7714 0.907054 32.4239C1.05265 32.0765 1.26605 31.7607 1.53507 31.4948C1.80409 31.2288 2.12347 31.0179 2.47496 30.8739C2.82646 30.73 3.20319 30.6559 3.58364 30.6559C3.9641 30.6559 4.34083 30.73 4.69233 30.8739C5.04382 31.0179 5.3632 31.2288 5.63222 31.4948C5.90124 31.7607 6.11464 32.0765 6.26023 32.4239C6.40583 32.7714 6.48076 33.1438 6.48076 33.5199ZM308.147 3.69804C308.147 4.07415 308.073 4.44657 307.927 4.79404C307.781 5.14152 307.568 5.45726 307.299 5.72321C307.03 5.98916 306.711 6.20011 306.359 6.34404C306.008 6.48797 305.631 6.56206 305.25 6.56206C304.87 6.56206 304.493 6.48797 304.142 6.34404C303.79 6.20011 303.471 5.98916 303.202 5.72321C302.933 5.45726 302.719 5.14152 302.574 4.79404C302.428 4.44657 302.353 4.07415 302.353 3.69804C302.353 3.32193 302.428 2.94951 302.574 2.60203C302.719 2.25455 302.933 1.93881 303.202 1.67287C303.471 1.40692 303.79 1.19597 304.142 1.05204C304.493 0.908107 304.87 0.834015 305.25 0.834015C305.631 0.834015 306.008 0.908107 306.359 1.05204C306.711 1.19597 307.03 1.40692 307.299 1.67287C307.568 1.93881 307.781 2.25455 307.927 2.60203C308.073 2.94951 308.147 3.32193 308.147 3.69804ZM277.981 3.69804C277.981 4.07415 277.906 4.44657 277.76 4.79404C277.615 5.14152 277.401 5.45726 277.132 5.72321C276.863 5.98916 276.544 6.20011 276.192 6.34404C275.841 6.48797 275.464 6.56206 275.084 6.56206C274.703 6.56206 274.326 6.48797 273.975 6.34404C273.623 6.20011 273.304 5.98916 273.035 5.72321C272.766 5.45726 272.553 5.14152 272.407 4.79404C272.261 4.44657 272.187 4.07415 272.187 3.69804C272.187 3.32193 272.261 2.94951 272.407 2.60203C272.553 2.25455 272.766 1.93881 273.035 1.67287C273.304 1.40692 273.623 1.19597 273.975 1.05204C274.326 0.908107 274.703 0.834015 275.084 0.834015C275.464 0.834015 275.841 0.908107 276.192 1.05204C276.544 1.19597 276.863 1.40692 277.132 1.67287C277.401 1.93881 277.615 2.25455 277.76 2.60203C277.906 2.94951 277.981 3.32193 277.981 3.69804ZM247.814 3.69804C247.814 4.07415 247.739 4.44657 247.594 4.79404C247.448 5.14152 247.235 5.45726 246.966 5.72321C246.697 5.98916 246.377 6.20011 246.026 6.34404C245.674 6.48797 245.297 6.56206 244.917 6.56206C244.537 6.56206 244.16 6.48797 243.808 6.34404C243.457 6.20011 243.137 5.98916 242.868 5.72321C242.599 5.45726 242.386 5.14152 242.24 4.79404C242.095 4.44657 242.02 4.07415 242.02 3.69804C242.02 3.32193 242.095 2.94951 242.24 2.60203C242.386 2.25455 242.599 1.93881 242.868 1.67287C243.137 1.40692 243.457 1.19597 243.808 1.05204C244.16 0.908107 244.537 0.834015 244.917 0.834015C245.297 0.834015 245.674 0.908107 246.026 1.05204C246.377 1.19597 246.697 1.40692 246.966 1.67287C247.235 1.93881 247.448 2.25455 247.594 2.60203C247.739 2.94951 247.814 3.32193 247.814 3.69804ZM217.647 3.69804C217.647 4.07415 217.572 4.44657 217.427 4.79404C217.281 5.14152 217.068 5.45726 216.799 5.72321C216.53 5.98916 216.21 6.20011 215.859 6.34404C215.507 6.48797 215.131 6.56206 214.75 6.56206C214.37 6.56206 213.993 6.48797 213.642 6.34404C213.29 6.20011 212.971 5.98916 212.702 5.72321C212.433 5.45726 212.219 5.14152 212.074 4.79404C211.928 4.44657 211.853 4.07415 211.853 3.69804C211.853 3.32193 211.928 2.94951 212.074 2.60203C212.219 2.25455 212.433 1.93881 212.702 1.67287C212.971 1.40692 213.29 1.19597 213.642 1.05204C213.993 0.908107 214.37 0.834015 214.75 0.834015C215.131 0.834015 215.507 0.908107 215.859 1.05204C216.21 1.19597 216.53 1.40692 216.799 1.67287C217.068 1.93881 217.281 2.25455 217.427 2.60203C217.572 2.94951 217.647 3.32193 217.647 3.69804ZM187.481 3.69804C187.481 4.07415 187.406 4.44657 187.26 4.79404C187.115 5.14152 186.901 5.45726 186.632 5.72321C186.363 5.98916 186.044 6.20011 185.692 6.34404C185.341 6.48797 184.964 6.56206 184.584 6.56206C184.203 6.56206 183.826 6.48797 183.475 6.34404C183.123 6.20011 182.804 5.98916 182.535 5.72321C182.266 5.45726 182.053 5.14152 181.907 4.79404C181.761 4.44657 181.687 4.07415 181.687 3.69804C181.687 3.32193 181.761 2.94951 181.907 2.60203C182.053 2.25455 182.266 1.93881 182.535 1.67287C182.804 1.40692 183.123 1.19597 183.475 1.05204C183.826 0.908107 184.203 0.834015 184.584 0.834015C184.964 0.834015 185.341 0.908107 185.692 1.05204C186.044 1.19597 186.363 1.40692 186.632 1.67287C186.901 1.93881 187.115 2.25455 187.26 2.60203C187.406 2.94951 187.481 3.32193 187.481 3.69804ZM157.314 3.69804C157.314 4.07415 157.239 4.44657 157.094 4.79404C156.948 5.14152 156.735 5.45726 156.466 5.72321C156.197 5.98916 155.877 6.20011 155.526 6.34404C155.174 6.48797 154.797 6.56206 154.417 6.56206C154.037 6.56206 153.66 6.48797 153.308 6.34404C152.957 6.20011 152.637 5.98916 152.368 5.72321C152.099 5.45726 151.886 5.14152 151.74 4.79404C151.595 4.44657 151.52 4.07415 151.52 3.69804C151.52 3.32193 151.595 2.94951 151.74 2.60203C151.886 2.25455 152.099 1.93881 152.368 1.67287C152.637 1.40692 152.957 1.19597 153.308 1.05204C153.66 0.908107 154.037 0.834015 154.417 0.834015C154.797 0.834015 155.174 0.908107 155.526 1.05204C155.877 1.19597 156.197 1.40692 156.466 1.67287C156.735 1.93881 156.948 2.25455 157.094 2.60203C157.239 2.94951 157.314 3.32193 157.314 3.69804ZM127.147 3.69804C127.147 4.07415 127.072 4.44657 126.927 4.79404C126.781 5.14152 126.568 5.45726 126.299 5.72321C126.03 5.98916 125.71 6.20011 125.359 6.34404C125.007 6.48797 124.631 6.56206 124.25 6.56206C123.87 6.56206 123.493 6.48797 123.142 6.34404C122.79 6.20011 122.471 5.98916 122.202 5.72321C121.933 5.45726 121.719 5.14152 121.574 4.79404C121.428 4.44657 121.353 4.07415 121.353 3.69804C121.353 3.32193 121.428 2.94951 121.574 2.60203C121.719 2.25455 121.933 1.93881 122.202 1.67287C122.471 1.40692 122.79 1.19597 123.142 1.05204C123.493 0.908107 123.87 0.834015 124.25 0.834015C124.631 0.834015 125.007 0.908107 125.359 1.05204C125.71 1.19597 126.03 1.40692 126.299 1.67287C126.568 1.93881 126.781 2.25455 126.927 2.60203C127.072 2.94951 127.147 3.32193 127.147 3.69804ZM96.9808 3.69804C96.9808 4.07415 96.9058 4.44657 96.7602 4.79404C96.6146 5.14152 96.4012 5.45726 96.1322 5.72321C95.8632 5.98916 95.5438 6.20011 95.1923 6.34404C94.8408 6.48797 94.4641 6.56206 94.0836 6.56206C93.7032 6.56206 93.3265 6.48797 92.975 6.34404C92.6235 6.20011 92.3041 5.98916 92.0351 5.72321C91.766 5.45726 91.5526 5.14152 91.4071 4.79404C91.2615 4.44657 91.1865 4.07415 91.1865 3.69804C91.1865 3.32193 91.2615 2.94951 91.4071 2.60203C91.5526 2.25455 91.766 1.93881 92.0351 1.67287C92.3041 1.40692 92.6235 1.19597 92.975 1.05204C93.3265 0.908107 93.7032 0.834015 94.0836 0.834015C94.4641 0.834015 94.8408 0.908107 95.1923 1.05204C95.5438 1.19597 95.8632 1.40692 96.1322 1.67287C96.4012 1.93881 96.6146 2.25455 96.7602 2.60203C96.9058 2.94951 96.9808 3.32193 96.9808 3.69804ZM66.8141 3.69804C66.8141 4.07415 66.7392 4.44657 66.5936 4.79404C66.448 5.14152 66.2346 5.45726 65.9656 5.72321C65.6965 5.98916 65.3771 6.20011 65.0257 6.34404C64.6742 6.48797 64.2974 6.56206 63.917 6.56206C63.5365 6.56206 63.1598 6.48797 62.8083 6.34404C62.4568 6.20011 62.1374 5.98916 61.8684 5.72321C61.5994 5.45726 61.386 5.14152 61.2404 4.79404C61.0948 4.44657 61.0198 4.07415 61.0198 3.69804C61.0198 3.32193 61.0948 2.94951 61.2404 2.60203C61.386 2.25455 61.5994 1.93881 61.8684 1.67287C62.1374 1.40692 62.4568 1.19597 62.8083 1.05204C63.1598 0.908107 63.5365 0.834015 63.917 0.834015C64.2974 0.834015 64.6742 0.908107 65.0257 1.05204C65.3771 1.19597 65.6965 1.40692 65.9656 1.67287C66.2346 1.93881 66.448 2.25455 66.5936 2.60203C66.7392 2.94951 66.8141 3.32193 66.8141 3.69804ZM36.6474 3.69804C36.6474 4.07415 36.5725 4.44657 36.4269 4.79404C36.2813 5.14152 36.0679 5.45726 35.7989 5.72321C35.5299 5.98916 35.2105 6.20011 34.859 6.34404C34.5075 6.48797 34.1308 6.56206 33.7503 6.56206C33.3699 6.56206 32.9931 6.48797 32.6416 6.34404C32.2901 6.20011 31.9708 5.98916 31.7017 5.72321C31.4327 5.45726 31.2193 5.14152 31.0737 4.79404C30.9281 4.44657 30.8532 4.07415 30.8532 3.69804C30.8532 3.32193 30.9281 2.94951 31.0737 2.60203C31.2193 2.25455 31.4327 1.93881 31.7017 1.67287C31.9708 1.40692 32.2901 1.19597 32.6416 1.05204C32.9931 0.908106 33.3699 0.834015 33.7503 0.834015C34.1308 0.834015 34.5075 0.908107 34.859 1.05204C35.2105 1.19597 35.5299 1.40692 35.7989 1.67287C36.0679 1.93881 36.2813 2.25455 36.4269 2.60203C36.5725 2.94951 36.6474 3.32193 36.6474 3.69804ZM6.48076 3.69804C6.48076 4.07415 6.40583 4.44657 6.26023 4.79404C6.11464 5.14152 5.90124 5.45726 5.63222 5.72321C5.3632 5.98916 5.04382 6.20011 4.69233 6.34404C4.34083 6.48797 3.9641 6.56206 3.58364 6.56206C3.20319 6.56206 2.82646 6.48797 2.47496 6.34404C2.12347 6.20011 1.80409 5.98916 1.53507 5.72321C1.26605 5.45726 1.05265 5.14152 0.907054 4.79404C0.76146 4.44657 0.686523 4.07415 0.686523 3.69804C0.686523 3.32193 0.76146 2.94951 0.907054 2.60203C1.05265 2.25455 1.26605 1.93881 1.53507 1.67287C1.80409 1.40692 2.12347 1.19597 2.47496 1.05204C2.82646 0.908106 3.20319 0.834015 3.58364 0.834015C3.9641 0.834015 4.34083 0.908106 4.69233 1.05204C5.04382 1.19597 5.3632 1.40692 5.63222 1.67287C5.90124 1.93881 6.11464 2.25455 6.26023 2.60203C6.40583 2.94951 6.48076 3.32193 6.48076 3.69804Z" fill="#0F62FE" fill-opacity="0.5"/>
</svg>
