<svg width="246" height="241" viewBox="0 0 246 241" fill="none" xmlns="http://www.w3.org/2000/svg">
<path d="M245.253 29.1822V321.191C245.253 326.46 241.256 330.739 236.333 330.739H63.1317C58.2086 330.739 54.2114 326.46 54.2114 321.191V29.1822C54.2114 23.9127 58.2086 19.6343 63.1317 19.6343H236.333C241.256 19.6343 245.253 23.9127 245.253 29.1822Z" fill="#ED509E"/>
<path d="M235.766 41.4078V310.94C235.766 315.804 232.166 319.753 227.732 319.753H71.733C67.2989 319.753 63.6987 315.804 63.6987 310.94V41.4078C63.6987 36.5438 67.2989 32.5947 71.733 32.5947H227.732C232.166 32.5947 235.766 36.5438 235.766 41.4078Z" fill="#FEF3DD"/>
<path d="M225.787 71.5163C225.787 75.3307 223.179 78.4277 219.967 78.4277H167.589C164.377 78.4277 161.769 75.3307 161.769 71.5163C161.769 67.702 164.377 64.605 167.589 64.605H219.967C223.179 64.605 225.787 67.702 225.787 71.5163Z" fill="#2E03E5"/>
<path d="M225.602 93.4846C225.602 97.299 222.295 100.396 218.222 100.396H151.808C147.735 100.396 144.428 97.299 144.428 93.4846C144.428 89.6702 147.735 86.5732 151.808 86.5732H218.222C222.295 86.5732 225.602 89.6702 225.602 93.4846Z" fill="#2E03E5"/>
<path d="M129.463 173.212C129.463 177.026 127.225 180.123 124.469 180.123H79.5246C76.7685 180.123 74.5308 177.026 74.5308 173.212C74.5308 169.397 76.7685 166.3 79.5246 166.3H124.469C127.225 166.3 129.463 169.397 129.463 173.212Z" fill="#2E03E5"/>
<path d="M130.385 193.452C130.385 197.266 128.147 200.363 125.391 200.363H80.4469C77.6909 200.363 75.4531 197.266 75.4531 193.452C75.4531 189.638 77.6909 186.541 80.4469 186.541H125.391C128.147 186.541 130.385 189.638 130.385 193.452Z" fill="#2E03E5"/>
<path d="M193.11 192.465C193.11 196.279 190.872 199.376 188.116 199.376H143.172C140.415 199.376 138.178 196.279 138.178 192.465C138.178 188.651 140.415 185.554 143.172 185.554H188.116C190.872 185.554 193.11 188.651 193.11 192.465Z" fill="#2E03E5"/>
<path d="M227.254 172.718C227.254 176.532 223.625 179.629 219.155 179.629H146.263C141.793 179.629 138.164 176.532 138.164 172.718C138.164 168.904 141.793 165.807 146.263 165.807H219.155C223.625 165.807 227.254 168.904 227.254 172.718Z" fill="#2E03E5"/>
<path d="M163.607 213.693C163.607 217.507 159.978 220.604 155.508 220.604H82.6158C78.1458 220.604 74.5166 217.507 74.5166 213.693C74.5166 209.878 78.1458 206.781 82.6158 206.781H155.508C159.978 206.781 163.607 209.878 163.607 213.693Z" fill="#2E03E5"/>
<path d="M118.831 79.4148C118.831 92.7651 108.704 103.605 96.2317 103.605C83.7591 103.605 73.6323 92.7651 73.6323 79.4148C73.6323 66.0645 83.7591 55.2251 96.2317 55.2251C108.704 55.2251 118.831 66.0645 118.831 79.4148Z" fill="#2E03E5"/>
<path d="M218.041 49.9161V341.925C218.041 347.194 214.044 351.473 209.121 351.473H35.9198C30.9967 351.473 26.9995 347.194 26.9995 341.925V49.9161C26.9995 44.6466 30.9967 40.3682 35.9198 40.3682H209.121C214.044 40.3682 218.041 44.6466 218.041 49.9161Z" fill="#ED509E"/>
<path d="M208.555 62.1421V331.674C208.555 336.538 204.955 340.487 200.52 340.487H44.5216C40.0875 340.487 36.4873 336.538 36.4873 331.674V62.1421C36.4873 57.2782 40.0875 53.3291 44.5216 53.3291H200.52C204.955 53.3291 208.555 57.2782 208.555 62.1421Z" fill="#FEF3DD"/>
<path d="M198.575 102.124C198.575 105.939 195.968 109.036 192.756 109.036H140.377C137.165 109.036 134.558 105.939 134.558 102.124C134.558 98.3099 137.165 95.2129 140.377 95.2129H192.756C195.968 95.2129 198.575 98.3099 198.575 102.124Z" fill="#2E03E5"/>
<path d="M198.697 79.1682C198.697 82.9826 196.774 86.0795 194.406 86.0795H155.792C153.424 86.0795 151.501 82.9826 151.501 79.1682C151.501 75.3538 153.424 72.2568 155.792 72.2568H194.406C196.774 72.2568 198.697 75.3538 198.697 79.1682Z" fill="#2E03E5"/>
<path d="M102.251 193.946C102.251 197.76 100.014 200.857 97.2575 200.857H52.3132C49.5571 200.857 47.3193 197.76 47.3193 193.946C47.3193 190.132 49.5571 187.035 52.3132 187.035H97.2575C100.014 187.035 102.251 190.132 102.251 193.946Z" fill="#2E03E5"/>
<path d="M136.396 234.427C136.396 238.241 132.767 241.338 128.297 241.338H55.4043C50.9344 241.338 47.3052 238.241 47.3052 234.427C47.3052 230.613 50.9344 227.516 55.4043 227.516H128.297C132.767 227.516 136.396 230.613 136.396 234.427Z" fill="#2E03E5"/>
<path d="M173.715 211.224V216.161C173.715 218.613 170.394 220.604 166.303 220.604H54.2946C50.2038 220.604 46.8823 218.613 46.8823 216.161V211.224C46.8823 208.772 50.2038 206.781 54.2946 206.781H166.303C170.394 206.781 173.715 208.772 173.715 211.224Z" fill="#2E03E5"/>
<path d="M91.6197 100.149C91.6197 113.499 81.4929 124.339 69.0203 124.339C56.5477 124.339 46.4209 113.499 46.4209 100.149C46.4209 86.7989 56.5477 75.9595 69.0203 75.9595C81.4929 75.9595 91.6197 86.7989 91.6197 100.149Z" fill="#2E03E5"/>
<path d="M191.291 9.92932V301.938C191.291 307.208 187.294 311.486 182.371 311.486H9.16976C4.24667 311.486 0.249512 307.208 0.249512 301.938V9.92932C0.249512 4.65979 4.24667 0.381348 9.16976 0.381348H182.371C187.294 0.381348 191.291 4.65979 191.291 9.92932Z" fill="#ED509E"/>
<path d="M181.804 22.1548V291.687C181.804 296.551 178.204 300.5 173.77 300.5H17.7711C13.337 300.5 9.73682 296.551 9.73682 291.687V22.1548C9.73682 17.2909 13.337 13.3418 17.7711 13.3418H173.77C178.204 13.3418 181.804 17.2909 181.804 22.1548Z" fill="#FEF3DD"/>
<path d="M171.825 42.3899C171.825 46.2042 169.217 49.3012 166.005 49.3012H113.627C110.415 49.3012 107.807 46.2042 107.807 42.3899C107.807 38.5755 110.415 35.4785 113.627 35.4785H166.005C169.217 35.4785 171.825 38.5755 171.825 42.3899Z" fill="#2E03E5"/>
<path d="M171.947 61.8904C171.947 65.7047 170.024 68.8017 167.656 68.8017H129.042C126.674 68.8017 124.751 65.7047 124.751 61.8904C124.751 58.076 126.674 54.979 129.042 54.979H167.656C170.024 54.979 171.947 58.076 171.947 61.8904Z" fill="#2E03E5"/>
<path d="M171.64 82.1306C171.64 85.945 168.334 89.0419 164.261 89.0419H97.8462C93.7735 89.0419 90.4668 85.945 90.4668 82.1306C90.4668 78.3162 93.7735 75.2192 97.8462 75.2192H164.261C168.334 75.2192 171.64 78.3162 171.64 82.1306Z" fill="#2E03E5"/>
<path d="M75.5014 153.959C75.5014 157.774 73.2636 160.871 70.5075 160.871H25.5632C22.8071 160.871 20.5693 157.774 20.5693 153.959C20.5693 150.145 22.8071 147.048 25.5632 147.048H70.5075C73.2636 147.048 75.5014 150.145 75.5014 153.959Z" fill="#2E03E5"/>
<path d="M76.4232 212.706C76.4232 216.52 74.1855 219.617 71.4294 219.617H26.485C23.7289 219.617 21.4912 216.52 21.4912 212.706C21.4912 208.891 23.7289 205.794 26.485 205.794H71.4294C74.1855 205.794 76.4232 208.891 76.4232 212.706Z" fill="#2E03E5"/>
<path d="M170.511 192.959C170.511 196.773 168.273 199.87 165.517 199.87H120.573C117.817 199.87 115.579 196.773 115.579 192.959C115.579 189.144 117.817 186.047 120.573 186.047H165.517C168.273 186.047 170.511 189.144 170.511 192.959Z" fill="#2E03E5"/>
<path d="M173.293 153.465C173.293 157.279 169.663 160.376 165.193 160.376H92.3008C87.8309 160.376 84.2017 157.279 84.2017 153.465C84.2017 149.651 87.8309 146.554 92.3008 146.554H165.193C169.663 146.554 173.293 149.651 173.293 153.465Z" fill="#2E03E5"/>
<path d="M109.645 194.44C109.645 198.254 106.016 201.351 101.546 201.351H28.6534C24.1834 201.351 20.5542 198.254 20.5542 194.44C20.5542 190.625 24.1834 187.528 28.6534 187.528H101.546C106.016 187.528 109.645 190.625 109.645 194.44Z" fill="#2E03E5"/>
<path d="M146.965 171.237V176.174C146.965 178.626 143.643 180.617 139.553 180.617H27.5442C23.4533 180.617 20.1318 178.626 20.1318 176.174V171.237C20.1318 168.785 23.4533 166.794 27.5442 166.794H139.553C143.643 166.794 146.965 168.785 146.965 171.237Z" fill="#2E03E5"/>
<path d="M64.8692 60.1619C64.8692 73.5122 54.7424 84.3516 42.2698 84.3516C29.7972 84.3516 19.6704 73.5122 19.6704 60.1619C19.6704 46.8116 29.7972 35.9722 42.2698 35.9722C54.7424 35.9722 64.8692 46.8116 64.8692 60.1619Z" fill="#2E03E5"/>
</svg>
