<svg width="1312" height="134" viewBox="0 0 1312 134" fill="none" xmlns="http://www.w3.org/2000/svg">
<rect width="695" height="134" fill="#F1F4FB"/>
<path d="M33.148 30.7256V20.9536H39.588V22.5916H34.996V24.9576H39.056V26.5956H34.996V29.0876H39.588V30.7256H33.148ZM43.5505 30.7256H41.7025V20.9536H46.1125C46.5605 20.9536 46.9619 21.0236 47.3165 21.1636C47.6712 21.3036 47.9699 21.5089 48.2125 21.7796C48.4645 22.0409 48.6559 22.3583 48.7865 22.7316C48.9265 23.1049 48.9965 23.5203 48.9965 23.9776C48.9965 24.6496 48.8425 25.2283 48.5345 25.7136C48.2359 26.1989 47.7832 26.5443 47.1765 26.7496L49.1785 30.7256H47.1205L45.3005 26.9596H43.5505V30.7256ZM45.9305 25.4056C46.2852 25.4056 46.5652 25.3123 46.7705 25.1256C46.9759 24.9296 47.0785 24.6543 47.0785 24.2996V23.6556C47.0785 23.3009 46.9759 23.0303 46.7705 22.8436C46.5652 22.6569 46.2852 22.5636 45.9305 22.5636H43.5505V25.4056H45.9305ZM51.1594 30.7256V20.9536H55.5554C56.0034 20.9536 56.4047 21.0283 56.7594 21.1776C57.1234 21.3176 57.4314 21.5229 57.6834 21.7936C57.9354 22.0549 58.1267 22.3723 58.2574 22.7456C58.3881 23.1189 58.4534 23.5296 58.4534 23.9776C58.4534 24.4349 58.3881 24.8503 58.2574 25.2236C58.1267 25.5876 57.9354 25.9049 57.6834 26.1756C57.4314 26.4369 57.1234 26.6423 56.7594 26.7916C56.4047 26.9316 56.0034 27.0016 55.5554 27.0016H53.0074V30.7256H51.1594ZM53.0074 25.4056H55.3874C55.7421 25.4056 56.0221 25.3123 56.2274 25.1256C56.4327 24.9296 56.5354 24.6543 56.5354 24.2996V23.6556C56.5354 23.3009 56.4327 23.0303 56.2274 22.8436C56.0221 22.6569 55.7421 22.5636 55.3874 22.5636H53.0074V25.4056Z" fill="#161616"/>
<g clip-path="url(#clip0_1888_26788)">
<path d="M182.5 26.8125H151.5C150.472 26.8125 149.487 27.2208 148.76 27.9475C148.033 28.6742 147.625 29.6598 147.625 30.6875V73.3125C147.625 74.3402 148.033 75.3258 148.76 76.0525C149.487 76.7792 150.472 77.1875 151.5 77.1875H182.5C183.528 77.1875 184.513 76.7792 185.24 76.0525C185.967 75.3258 186.375 74.3402 186.375 73.3125V30.6875C186.375 29.6598 185.967 28.6742 185.24 27.9475C184.513 27.2208 183.528 26.8125 182.5 26.8125ZM182.5 30.6875V42.3125H151.5V30.6875H182.5ZM151.5 57.8125V46.1875H182.5V57.8125H151.5ZM151.5 73.3125V61.6875H182.5V73.3125H151.5Z" fill="black"/>
<path d="M157.312 38.4375C158.383 38.4375 159.25 37.5701 159.25 36.5C159.25 35.4299 158.383 34.5625 157.312 34.5625C156.242 34.5625 155.375 35.4299 155.375 36.5C155.375 37.5701 156.242 38.4375 157.312 38.4375Z" fill="black"/>
<path d="M157.312 53.9375C158.383 53.9375 159.25 53.0701 159.25 52C159.25 50.9299 158.383 50.0625 157.312 50.0625C156.242 50.0625 155.375 50.9299 155.375 52C155.375 53.0701 156.242 53.9375 157.312 53.9375Z" fill="black"/>
<path d="M157.312 69.4375C158.383 69.4375 159.25 68.5701 159.25 67.5C159.25 66.4299 158.383 65.5625 157.312 65.5625C156.242 65.5625 155.375 66.4299 155.375 67.5C155.375 68.5701 156.242 69.4375 157.312 69.4375Z" fill="black"/>
</g>
<g clip-path="url(#clip1_1888_26788)">
<path d="M291.5 26.8125H260.5C259.472 26.8125 258.487 27.2208 257.76 27.9475C257.033 28.6742 256.625 29.6598 256.625 30.6875V73.3125C256.625 74.3402 257.033 75.3258 257.76 76.0525C258.487 76.7792 259.472 77.1875 260.5 77.1875H291.5C292.528 77.1875 293.513 76.7792 294.24 76.0525C294.967 75.3258 295.375 74.3402 295.375 73.3125V30.6875C295.375 29.6598 294.967 28.6742 294.24 27.9475C293.513 27.2208 292.528 26.8125 291.5 26.8125ZM291.5 30.6875V42.3125H260.5V30.6875H291.5ZM260.5 57.8125V46.1875H291.5V57.8125H260.5ZM260.5 73.3125V61.6875H291.5V73.3125H260.5Z" fill="black"/>
<path d="M266.312 38.4375C267.383 38.4375 268.25 37.5701 268.25 36.5C268.25 35.4299 267.383 34.5625 266.312 34.5625C265.242 34.5625 264.375 35.4299 264.375 36.5C264.375 37.5701 265.242 38.4375 266.312 38.4375Z" fill="black"/>
<path d="M266.312 53.9375C267.383 53.9375 268.25 53.0701 268.25 52C268.25 50.9299 267.383 50.0625 266.312 50.0625C265.242 50.0625 264.375 50.9299 264.375 52C264.375 53.0701 265.242 53.9375 266.312 53.9375Z" fill="black"/>
<path d="M266.312 69.4375C267.383 69.4375 268.25 68.5701 268.25 67.5C268.25 66.4299 267.383 65.5625 266.312 65.5625C265.242 65.5625 264.375 66.4299 264.375 67.5C264.375 68.5701 265.242 69.4375 266.312 69.4375Z" fill="black"/>
</g>
<path d="M260.192 110.803C258.95 110.803 257.984 110.383 257.294 109.543C256.603 108.693 256.258 107.447 256.258 105.805C256.258 104.162 256.603 102.902 257.294 102.025C257.984 101.138 258.95 100.695 260.192 100.695C261.013 100.695 261.699 100.881 262.25 101.255C262.81 101.628 263.244 102.155 263.552 102.837L262.6 103.411C262.404 102.907 262.105 102.505 261.704 102.207C261.302 101.899 260.798 101.745 260.192 101.745C259.772 101.745 259.394 101.824 259.058 101.983C258.731 102.141 258.451 102.37 258.218 102.669C257.994 102.958 257.821 103.308 257.7 103.719C257.578 104.12 257.518 104.573 257.518 105.077V106.533C257.518 107.541 257.751 108.329 258.218 108.899C258.684 109.468 259.342 109.753 260.192 109.753C260.817 109.753 261.34 109.594 261.76 109.277C262.18 108.95 262.488 108.521 262.684 107.989L263.622 108.577C263.314 109.267 262.87 109.813 262.292 110.215C261.713 110.607 261.013 110.803 260.192 110.803ZM265.491 103.411H266.611V106.435H268.053L269.453 104.223C269.556 104.055 269.654 103.919 269.747 103.817C269.84 103.705 269.934 103.621 270.027 103.565C270.12 103.509 270.218 103.471 270.321 103.453C270.424 103.425 270.54 103.411 270.671 103.411H271.329V104.391H270.461L269.327 106.183C269.252 106.304 269.187 106.402 269.131 106.477C269.075 106.551 269.019 106.617 268.963 106.673C268.907 106.719 268.846 106.761 268.781 106.799C268.716 106.827 268.636 106.855 268.543 106.883V106.939C268.739 106.967 268.907 107.032 269.047 107.135C269.196 107.228 269.35 107.415 269.509 107.695L270.615 109.655H271.441V110.635H270.629C270.386 110.635 270.162 110.574 269.957 110.453C269.761 110.322 269.57 110.089 269.383 109.753L268.053 107.387H266.611V110.635H265.491V103.411ZM272.27 109.655H273.222C273.344 109.487 273.451 109.286 273.544 109.053C273.638 108.819 273.717 108.539 273.782 108.213C273.848 107.886 273.899 107.499 273.936 107.051C273.974 106.603 273.992 106.075 273.992 105.469V103.411H278.878V110.635H277.758V104.391H275.056V105.497C275.056 106.197 275.028 106.808 274.972 107.331C274.926 107.853 274.856 108.301 274.762 108.675C274.678 109.048 274.576 109.356 274.454 109.599C274.333 109.832 274.202 110.019 274.062 110.159C273.885 110.336 273.689 110.462 273.474 110.537C273.26 110.602 273.003 110.635 272.704 110.635H272.27V109.655ZM286.674 110.635C286.254 110.635 285.951 110.523 285.764 110.299C285.587 110.075 285.475 109.795 285.428 109.459H285.358C285.2 109.907 284.938 110.243 284.574 110.467C284.21 110.691 283.776 110.803 283.272 110.803C282.507 110.803 281.91 110.607 281.48 110.215C281.06 109.823 280.85 109.291 280.85 108.619C280.85 107.937 281.098 107.415 281.592 107.051C282.096 106.687 282.876 106.505 283.93 106.505H285.358V105.791C285.358 105.277 285.218 104.885 284.938 104.615C284.658 104.344 284.229 104.209 283.65 104.209C283.212 104.209 282.843 104.307 282.544 104.503C282.255 104.699 282.012 104.96 281.816 105.287L281.144 104.657C281.34 104.265 281.653 103.933 282.082 103.663C282.512 103.383 283.053 103.243 283.706 103.243C284.584 103.243 285.265 103.457 285.75 103.887C286.236 104.316 286.478 104.913 286.478 105.679V109.655H287.304V110.635H286.674ZM283.454 109.851C283.734 109.851 283.991 109.818 284.224 109.753C284.458 109.687 284.658 109.594 284.826 109.473C284.994 109.351 285.125 109.211 285.218 109.053C285.312 108.894 285.358 108.721 285.358 108.535V107.345H283.874C283.23 107.345 282.759 107.438 282.46 107.625C282.171 107.811 282.026 108.082 282.026 108.437V108.731C282.026 109.085 282.152 109.361 282.404 109.557C282.666 109.753 283.016 109.851 283.454 109.851ZM288.313 109.655H289.139C289.428 109.188 289.662 108.605 289.839 107.905C290.016 107.205 290.105 106.402 290.105 105.497V103.411H294.991V109.655H296.195V112.595H295.173V110.635H289.335V112.595H288.313V109.655ZM293.871 109.655V104.391H291.169V105.553C291.169 106.514 291.085 107.335 290.917 108.017C290.758 108.689 290.567 109.235 290.343 109.655H293.871Z" fill="#161616"/>
<g clip-path="url(#clip2_1888_26788)">
<path d="M397.5 26.8125H366.5C365.472 26.8125 364.487 27.2208 363.76 27.9475C363.033 28.6742 362.625 29.6598 362.625 30.6875V73.3125C362.625 74.3402 363.033 75.3258 363.76 76.0525C364.487 76.7792 365.472 77.1875 366.5 77.1875H397.5C398.528 77.1875 399.513 76.7792 400.24 76.0525C400.967 75.3258 401.375 74.3402 401.375 73.3125V30.6875C401.375 29.6598 400.967 28.6742 400.24 27.9475C399.513 27.2208 398.528 26.8125 397.5 26.8125ZM397.5 30.6875V42.3125H366.5V30.6875H397.5ZM366.5 57.8125V46.1875H397.5V57.8125H366.5ZM366.5 73.3125V61.6875H397.5V73.3125H366.5Z" fill="black"/>
<path d="M372.312 38.4375C373.383 38.4375 374.25 37.5701 374.25 36.5C374.25 35.4299 373.383 34.5625 372.312 34.5625C371.242 34.5625 370.375 35.4299 370.375 36.5C370.375 37.5701 371.242 38.4375 372.312 38.4375Z" fill="black"/>
<path d="M372.312 53.9375C373.383 53.9375 374.25 53.0701 374.25 52C374.25 50.9299 373.383 50.0625 372.312 50.0625C371.242 50.0625 370.375 50.9299 370.375 52C370.375 53.0701 371.242 53.9375 372.312 53.9375Z" fill="black"/>
<path d="M372.312 69.4375C373.383 69.4375 374.25 68.5701 374.25 67.5C374.25 66.4299 373.383 65.5625 372.312 65.5625C371.242 65.5625 370.375 66.4299 370.375 67.5C370.375 68.5701 371.242 69.4375 372.312 69.4375Z" fill="black"/>
</g>
<g clip-path="url(#clip3_1888_26788)">
<path d="M507.5 25.8125H476.5C475.472 25.8125 474.487 26.2208 473.76 26.9475C473.033 27.6742 472.625 28.6598 472.625 29.6875V72.3125C472.625 73.3402 473.033 74.3258 473.76 75.0525C474.487 75.7792 475.472 76.1875 476.5 76.1875H507.5C508.528 76.1875 509.513 75.7792 510.24 75.0525C510.967 74.3258 511.375 73.3402 511.375 72.3125V29.6875C511.375 28.6598 510.967 27.6742 510.24 26.9475C509.513 26.2208 508.528 25.8125 507.5 25.8125ZM507.5 29.6875V41.3125H476.5V29.6875H507.5ZM476.5 56.8125V45.1875H507.5V56.8125H476.5ZM476.5 72.3125V60.6875H507.5V72.3125H476.5Z" fill="black"/>
<path d="M482.312 37.4375C483.383 37.4375 484.25 36.5701 484.25 35.5C484.25 34.4299 483.383 33.5625 482.312 33.5625C481.242 33.5625 480.375 34.4299 480.375 35.5C480.375 36.5701 481.242 37.4375 482.312 37.4375Z" fill="black"/>
<path d="M482.312 52.9375C483.383 52.9375 484.25 52.0701 484.25 51C484.25 49.9299 483.383 49.0625 482.312 49.0625C481.242 49.0625 480.375 49.9299 480.375 51C480.375 52.0701 481.242 52.9375 482.312 52.9375Z" fill="black"/>
<path d="M482.312 68.4375C483.383 68.4375 484.25 67.5701 484.25 66.5C484.25 65.4299 483.383 64.5625 482.312 64.5625C481.242 64.5625 480.375 65.4299 480.375 66.5C480.375 67.5701 481.242 68.4375 482.312 68.4375Z" fill="black"/>
</g>
<g clip-path="url(#clip4_1888_26788)">
<path d="M618.5 25.8125H587.5C586.472 25.8125 585.487 26.2208 584.76 26.9475C584.033 27.6742 583.625 28.6598 583.625 29.6875V72.3125C583.625 73.3402 584.033 74.3258 584.76 75.0525C585.487 75.7792 586.472 76.1875 587.5 76.1875H618.5C619.528 76.1875 620.513 75.7792 621.24 75.0525C621.967 74.3258 622.375 73.3402 622.375 72.3125V29.6875C622.375 28.6598 621.967 27.6742 621.24 26.9475C620.513 26.2208 619.528 25.8125 618.5 25.8125ZM618.5 29.6875V41.3125H587.5V29.6875H618.5ZM587.5 56.8125V45.1875H618.5V56.8125H587.5ZM587.5 72.3125V60.6875H618.5V72.3125H587.5Z" fill="black"/>
<path d="M593.312 37.4375C594.383 37.4375 595.25 36.5701 595.25 35.5C595.25 34.4299 594.383 33.5625 593.312 33.5625C592.242 33.5625 591.375 34.4299 591.375 35.5C591.375 36.5701 592.242 37.4375 593.312 37.4375Z" fill="black"/>
<path d="M593.312 52.9375C594.383 52.9375 595.25 52.0701 595.25 51C595.25 49.9299 594.383 49.0625 593.312 49.0625C592.242 49.0625 591.375 49.9299 591.375 51C591.375 52.0701 592.242 52.9375 593.312 52.9375Z" fill="black"/>
<path d="M593.312 68.4375C594.383 68.4375 595.25 67.5701 595.25 66.5C595.25 65.4299 594.383 64.5625 593.312 64.5625C592.242 64.5625 591.375 65.4299 591.375 66.5C591.375 67.5701 592.242 68.4375 593.312 68.4375Z" fill="black"/>
</g>
<rect x="724" width="278" height="134" fill="#F1F4FB"/>
<path d="M757.148 21.228H764.708V31H762.86V22.866H758.996V31H757.148V21.228ZM766.199 29.572H767.151C767.245 29.432 767.329 29.264 767.403 29.068C767.487 28.872 767.557 28.634 767.613 28.354C767.669 28.0647 767.711 27.724 767.739 27.332C767.777 26.9307 767.795 26.464 767.795 25.932V23.692H773.353V31H771.561V25.12H769.503V26.016C769.503 26.6787 769.48 27.2573 769.433 27.752C769.387 28.2373 769.317 28.6573 769.223 29.012C769.139 29.3667 769.032 29.6653 768.901 29.908C768.78 30.1413 768.645 30.3327 768.495 30.482C768.281 30.6967 768.038 30.846 767.767 30.93C767.497 31.014 767.165 31.056 766.773 31.056H766.199V29.572ZM780.943 31C780.551 31 780.238 30.888 780.005 30.664C779.781 30.4307 779.641 30.1227 779.585 29.74H779.501C779.38 30.216 779.132 30.5753 778.759 30.818C778.386 31.0513 777.924 31.168 777.373 31.168C776.626 31.168 776.052 30.972 775.651 30.58C775.25 30.188 775.049 29.6653 775.049 29.012C775.049 28.256 775.32 27.696 775.861 27.332C776.402 26.9587 777.172 26.772 778.171 26.772H779.417V26.24C779.417 25.8293 779.31 25.512 779.095 25.288C778.88 25.064 778.535 24.952 778.059 24.952C777.639 24.952 777.298 25.0453 777.037 25.232C776.785 25.4093 776.57 25.624 776.393 25.876L775.329 24.924C775.6 24.504 775.959 24.168 776.407 23.916C776.855 23.6547 777.448 23.524 778.185 23.524C779.174 23.524 779.926 23.748 780.439 24.196C780.952 24.644 781.209 25.288 781.209 26.128V29.572H781.937V31H780.943ZM777.975 29.866C778.376 29.866 778.717 29.7773 778.997 29.6C779.277 29.4227 779.417 29.1613 779.417 28.816V27.85H778.269C777.336 27.85 776.869 28.1487 776.869 28.746V28.984C776.869 29.2827 776.962 29.5067 777.149 29.656C777.345 29.796 777.62 29.866 777.975 29.866ZM784.771 25.12H782.545V23.692H788.789V25.12H786.563V31H784.771V25.12ZM793.128 31.168C792.587 31.168 792.101 31.0793 791.672 30.902C791.252 30.7153 790.893 30.4587 790.594 30.132C790.305 29.796 790.081 29.3947 789.922 28.928C789.763 28.452 789.684 27.92 789.684 27.332C789.684 26.7533 789.759 26.2307 789.908 25.764C790.067 25.2973 790.291 24.9007 790.58 24.574C790.869 24.238 791.224 23.9813 791.644 23.804C792.064 23.6173 792.54 23.524 793.072 23.524C793.641 23.524 794.136 23.622 794.556 23.818C794.976 24.014 795.321 24.28 795.592 24.616C795.863 24.952 796.063 25.344 796.194 25.792C796.334 26.2307 796.404 26.702 796.404 27.206V27.794H791.546V27.976C791.546 28.508 791.695 28.9373 791.994 29.264C792.293 29.5813 792.736 29.74 793.324 29.74C793.772 29.74 794.136 29.6467 794.416 29.46C794.705 29.2733 794.962 29.0353 795.186 28.746L796.152 29.824C795.853 30.244 795.443 30.5753 794.92 30.818C794.407 31.0513 793.809 31.168 793.128 31.168ZM793.1 24.868C792.624 24.868 792.246 25.0267 791.966 25.344C791.686 25.6613 791.546 26.072 791.546 26.576V26.688H794.542V26.562C794.542 26.058 794.416 25.652 794.164 25.344C793.921 25.0267 793.567 24.868 793.1 24.868ZM797.528 29.572H798.298L799.096 27.934C799.283 27.5607 799.554 27.3367 799.908 27.262V27.192C799.563 27.108 799.297 26.8747 799.11 26.492L798.438 25.12H797.668V23.692H798.452C798.816 23.692 799.115 23.7667 799.348 23.916C799.582 24.0653 799.787 24.3173 799.964 24.672L800.888 26.562H801.924V23.692H803.716V26.562H804.738L805.676 24.672C805.854 24.3173 806.059 24.0653 806.292 23.916C806.526 23.7667 806.82 23.692 807.174 23.692H807.958V25.12H807.188L806.53 26.492C806.344 26.8747 806.078 27.108 805.732 27.192V27.262C806.087 27.3367 806.358 27.5607 806.544 27.934L807.342 29.572H808.112V31H807.23C806.876 31 806.577 30.9253 806.334 30.776C806.101 30.6267 805.891 30.356 805.704 29.964L804.738 27.976H803.716V31H801.924V27.976H800.888L799.922 29.964C799.736 30.356 799.526 30.6267 799.292 30.776C799.059 30.9253 798.765 31 798.41 31H797.528V29.572ZM809.881 23.692H811.673V26.562H814.487V23.692H816.279V31H814.487V27.99H811.673V31H809.881V23.692ZM818.517 23.692H820.309V26.002H822.129C822.484 26.002 822.811 26.058 823.109 26.17C823.417 26.282 823.679 26.4453 823.893 26.66C824.117 26.8653 824.29 27.122 824.411 27.43C824.542 27.738 824.607 28.0927 824.607 28.494C824.607 28.8953 824.547 29.2547 824.425 29.572C824.304 29.88 824.131 30.1413 823.907 30.356C823.693 30.5613 823.431 30.72 823.123 30.832C822.825 30.944 822.493 31 822.129 31H818.517V23.692ZM821.765 29.67C822.083 29.67 822.33 29.5953 822.507 29.446C822.694 29.2967 822.787 29.0727 822.787 28.774V28.228C822.787 27.9293 822.694 27.7053 822.507 27.556C822.33 27.4067 822.083 27.332 821.765 27.332H820.309V29.67H821.765ZM825.629 23.692H827.421V31H825.629V23.692ZM832.61 31.168C832.069 31.168 831.583 31.0793 831.154 30.902C830.734 30.7153 830.375 30.4587 830.076 30.132C829.787 29.796 829.563 29.3947 829.404 28.928C829.245 28.452 829.166 27.92 829.166 27.332C829.166 26.7533 829.241 26.2307 829.39 25.764C829.549 25.2973 829.773 24.9007 830.062 24.574C830.351 24.238 830.706 23.9813 831.126 23.804C831.546 23.6173 832.022 23.524 832.554 23.524C833.123 23.524 833.618 23.622 834.038 23.818C834.458 24.014 834.803 24.28 835.074 24.616C835.345 24.952 835.545 25.344 835.676 25.792C835.816 26.2307 835.886 26.702 835.886 27.206V27.794H831.028V27.976C831.028 28.508 831.177 28.9373 831.476 29.264C831.775 29.5813 832.218 29.74 832.806 29.74C833.254 29.74 833.618 29.6467 833.898 29.46C834.187 29.2733 834.444 29.0353 834.668 28.746L835.634 29.824C835.335 30.244 834.925 30.5753 834.402 30.818C833.889 31.0513 833.291 31.168 832.61 31.168ZM832.582 24.868C832.106 24.868 831.728 25.0267 831.448 25.344C831.168 25.6613 831.028 26.072 831.028 26.576V26.688H834.024V26.562C834.024 26.058 833.898 25.652 833.646 25.344C833.403 25.0267 833.049 24.868 832.582 24.868ZM759.92 49.168C759.379 49.168 758.898 49.0793 758.478 48.902C758.058 48.7247 757.703 48.468 757.414 48.132C757.134 47.796 756.919 47.3947 756.77 46.928C756.621 46.452 756.546 45.92 756.546 45.332C756.546 44.744 756.621 44.2167 756.77 43.75C756.919 43.2833 757.134 42.8867 757.414 42.56C757.703 42.224 758.058 41.9673 758.478 41.79C758.898 41.6127 759.379 41.524 759.92 41.524C760.657 41.524 761.264 41.6873 761.74 42.014C762.225 42.3407 762.575 42.7933 762.79 43.372L761.32 44.03C761.236 43.722 761.077 43.47 760.844 43.274C760.62 43.0687 760.312 42.966 759.92 42.966C759.416 42.966 759.038 43.1247 758.786 43.442C758.543 43.7593 758.422 44.1747 758.422 44.688V46.018C758.422 46.5313 758.543 46.9467 758.786 47.264C759.038 47.572 759.416 47.726 759.92 47.726C760.349 47.726 760.681 47.6187 760.914 47.404C761.147 47.18 761.329 46.9047 761.46 46.578L762.832 47.236C762.589 47.88 762.221 48.3653 761.726 48.692C761.231 49.0093 760.629 49.168 759.92 49.168ZM764.374 41.692H766.124V44.954L765.97 46.662H766.026L766.88 45.108L769.162 41.692H770.772V49H769.022V45.738L769.176 44.016H769.12L768.266 45.584L765.984 49H764.374V41.692ZM775.894 49.168C775.353 49.168 774.872 49.0793 774.452 48.902C774.032 48.7247 773.678 48.468 773.388 48.132C773.108 47.796 772.894 47.3947 772.744 46.928C772.595 46.452 772.52 45.92 772.52 45.332C772.52 44.744 772.595 44.2167 772.744 43.75C772.894 43.2833 773.108 42.8867 773.388 42.56C773.678 42.224 774.032 41.9673 774.452 41.79C774.872 41.6127 775.353 41.524 775.894 41.524C776.632 41.524 777.238 41.6873 777.714 42.014C778.2 42.3407 778.55 42.7933 778.764 43.372L777.294 44.03C777.21 43.722 777.052 43.47 776.818 43.274C776.594 43.0687 776.286 42.966 775.894 42.966C775.39 42.966 775.012 43.1247 774.76 43.442C774.518 43.7593 774.396 44.1747 774.396 44.688V46.018C774.396 46.5313 774.518 46.9467 774.76 47.264C775.012 47.572 775.39 47.726 775.894 47.726C776.324 47.726 776.655 47.6187 776.888 47.404C777.122 47.18 777.304 46.9047 777.434 46.578L778.806 47.236C778.564 47.88 778.195 48.3653 777.7 48.692C777.206 49.0093 776.604 49.168 775.894 49.168ZM781.914 43.12H779.688V41.692H785.932V43.12H783.706V49H781.914V43.12ZM790.271 49.168C789.729 49.168 789.244 49.0793 788.815 48.902C788.395 48.7153 788.035 48.4587 787.737 48.132C787.447 47.796 787.223 47.3947 787.065 46.928C786.906 46.452 786.827 45.92 786.827 45.332C786.827 44.7533 786.901 44.2307 787.051 43.764C787.209 43.2973 787.433 42.9007 787.723 42.574C788.012 42.238 788.367 41.9813 788.787 41.804C789.207 41.6173 789.683 41.524 790.215 41.524C790.784 41.524 791.279 41.622 791.699 41.818C792.119 42.014 792.464 42.28 792.735 42.616C793.005 42.952 793.206 43.344 793.337 43.792C793.477 44.2307 793.547 44.702 793.547 45.206V45.794H788.689V45.976C788.689 46.508 788.838 46.9373 789.137 47.264C789.435 47.5813 789.879 47.74 790.467 47.74C790.915 47.74 791.279 47.6467 791.559 47.46C791.848 47.2733 792.105 47.0353 792.329 46.746L793.295 47.824C792.996 48.244 792.585 48.5753 792.063 48.818C791.549 49.0513 790.952 49.168 790.271 49.168ZM790.243 42.868C789.767 42.868 789.389 43.0267 789.109 43.344C788.829 43.6613 788.689 44.072 788.689 44.576V44.688H791.685V44.562C791.685 44.058 791.559 43.652 791.307 43.344C791.064 43.0267 790.709 42.868 790.243 42.868ZM795.283 41.692H797.341L799.273 44.912H799.329L801.233 41.692H803.235V49H801.499V43.904H801.443L800.939 44.856L799.259 47.628L797.579 44.856L797.075 43.904H797.019V49H795.283V41.692ZM805.465 41.692H807.257V44.002H809.077C809.431 44.002 809.758 44.058 810.057 44.17C810.365 44.282 810.626 44.4453 810.841 44.66C811.065 44.8653 811.237 45.122 811.359 45.43C811.489 45.738 811.555 46.0927 811.555 46.494C811.555 46.8953 811.494 47.2547 811.373 47.572C811.251 47.88 811.079 48.1413 810.855 48.356C810.64 48.5613 810.379 48.72 810.071 48.832C809.772 48.944 809.441 49 809.077 49H805.465V41.692ZM808.713 47.67C809.03 47.67 809.277 47.5953 809.455 47.446C809.641 47.2967 809.735 47.0727 809.735 46.774V46.228C809.735 45.9293 809.641 45.7053 809.455 45.556C809.277 45.4067 809.03 45.332 808.713 45.332H807.257V47.67H808.713ZM812.577 41.692H814.369V49H812.577V41.692Z" fill="#161616"/>
<g clip-path="url(#clip5_1888_26788)">
<path d="M942.5 25.8125H911.5C910.472 25.8125 909.487 26.2208 908.76 26.9475C908.033 27.6742 907.625 28.6598 907.625 29.6875V72.3125C907.625 73.3402 908.033 74.3258 908.76 75.0525C909.487 75.7792 910.472 76.1875 911.5 76.1875H942.5C943.528 76.1875 944.513 75.7792 945.24 75.0525C945.967 74.3258 946.375 73.3402 946.375 72.3125V29.6875C946.375 28.6598 945.967 27.6742 945.24 26.9475C944.513 26.2208 943.528 25.8125 942.5 25.8125ZM942.5 29.6875V41.3125H911.5V29.6875H942.5ZM911.5 56.8125V45.1875H942.5V56.8125H911.5ZM911.5 72.3125V60.6875H942.5V72.3125H911.5Z" fill="black"/>
<path d="M917.312 37.4375C918.383 37.4375 919.25 36.5701 919.25 35.5C919.25 34.4299 918.383 33.5625 917.312 33.5625C916.242 33.5625 915.375 34.4299 915.375 35.5C915.375 36.5701 916.242 37.4375 917.312 37.4375Z" fill="black"/>
<path d="M917.312 52.9375C918.383 52.9375 919.25 52.0701 919.25 51C919.25 49.9299 918.383 49.0625 917.312 49.0625C916.242 49.0625 915.375 49.9299 915.375 51C915.375 52.0701 916.242 52.9375 917.312 52.9375Z" fill="black"/>
<path d="M917.312 68.4375C918.383 68.4375 919.25 67.5701 919.25 66.5C919.25 65.4299 918.383 64.5625 917.312 64.5625C916.242 64.5625 915.375 65.4299 915.375 66.5C915.375 67.5701 916.242 68.4375 917.312 68.4375Z" fill="black"/>
</g>
<rect x="1031" width="281" height="134" fill="#F1F4FB"/>
<path d="M1067.94 31.168C1067.3 31.168 1066.71 31.0653 1066.19 30.86C1065.68 30.6453 1065.24 30.328 1064.86 29.908C1064.5 29.488 1064.22 28.97 1064.02 28.354C1063.83 27.7287 1063.73 27.0053 1063.73 26.184C1063.73 25.3627 1063.83 24.6347 1064.02 24C1064.22 23.356 1064.5 22.8193 1064.86 22.39C1065.24 21.9513 1065.68 21.62 1066.19 21.396C1066.71 21.172 1067.3 21.06 1067.94 21.06C1068.82 21.06 1069.55 21.2467 1070.13 21.62C1070.7 21.9933 1071.17 22.558 1071.51 23.314L1069.93 24.154C1069.79 23.7153 1069.56 23.3653 1069.24 23.104C1068.93 22.8333 1068.49 22.698 1067.94 22.698C1067.25 22.698 1066.7 22.9313 1066.29 23.398C1065.89 23.8647 1065.69 24.518 1065.69 25.358V26.898C1065.69 27.7473 1065.89 28.4007 1066.29 28.858C1066.7 29.306 1067.25 29.53 1067.94 29.53C1068.49 29.53 1068.94 29.3807 1069.29 29.082C1069.64 28.7833 1069.9 28.4147 1070.06 27.976L1071.55 28.858C1071.2 29.586 1070.73 30.1553 1070.14 30.566C1069.55 30.9673 1068.82 31.168 1067.94 31.168ZM1075.14 31H1073.29V21.228H1077.7C1078.15 21.228 1078.55 21.298 1078.9 21.438C1079.26 21.578 1079.56 21.7833 1079.8 22.054C1080.05 22.3153 1080.24 22.6327 1080.37 23.006C1080.51 23.3793 1080.58 23.7947 1080.58 24.252C1080.58 24.924 1080.43 25.5027 1080.12 25.988C1079.82 26.4733 1079.37 26.8187 1078.76 27.024L1080.77 31H1078.71L1076.89 27.234H1075.14V31ZM1077.52 25.68C1077.87 25.68 1078.15 25.5867 1078.36 25.4C1078.56 25.204 1078.67 24.9287 1078.67 24.574V23.93C1078.67 23.5753 1078.56 23.3047 1078.36 23.118C1078.15 22.9313 1077.87 22.838 1077.52 22.838H1075.14V25.68H1077.52ZM1090.13 23.986H1090.07L1089.31 25.54L1087.31 29.236L1085.31 25.54L1084.55 23.986H1084.5V31H1082.75V21.228H1084.83L1087.34 26.002H1087.4L1089.87 21.228H1091.88V31H1090.13V23.986Z" fill="#161616"/>
<g clip-path="url(#clip6_1888_26788)">
<path d="M1261.5 24.8125H1230.5C1229.47 24.8125 1228.49 25.2208 1227.76 25.9475C1227.03 26.6742 1226.62 27.6598 1226.62 28.6875V71.3125C1226.62 72.3402 1227.03 73.3258 1227.76 74.0525C1228.49 74.7792 1229.47 75.1875 1230.5 75.1875H1261.5C1262.53 75.1875 1263.51 74.7792 1264.24 74.0525C1264.97 73.3258 1265.38 72.3402 1265.38 71.3125V28.6875C1265.38 27.6598 1264.97 26.6742 1264.24 25.9475C1263.51 25.2208 1262.53 24.8125 1261.5 24.8125ZM1261.5 28.6875V40.3125H1230.5V28.6875H1261.5ZM1230.5 55.8125V44.1875H1261.5V55.8125H1230.5ZM1230.5 71.3125V59.6875H1261.5V71.3125H1230.5Z" fill="black"/>
<path d="M1236.31 36.4375C1237.38 36.4375 1238.25 35.5701 1238.25 34.5C1238.25 33.4299 1237.38 32.5625 1236.31 32.5625C1235.24 32.5625 1234.38 33.4299 1234.38 34.5C1234.38 35.5701 1235.24 36.4375 1236.31 36.4375Z" fill="black"/>
<path d="M1236.31 51.9375C1237.38 51.9375 1238.25 51.0701 1238.25 50C1238.25 48.9299 1237.38 48.0625 1236.31 48.0625C1235.24 48.0625 1234.38 48.9299 1234.38 50C1234.38 51.0701 1235.24 51.9375 1236.31 51.9375Z" fill="black"/>
<path d="M1236.31 67.4375C1237.38 67.4375 1238.25 66.5701 1238.25 65.5C1238.25 64.4299 1237.38 63.5625 1236.31 63.5625C1235.24 63.5625 1234.38 64.4299 1234.38 65.5C1234.38 66.5701 1235.24 67.4375 1236.31 67.4375Z" fill="black"/>
</g>
<path d="M135.573 100.863H142.671V110.635H141.495V101.899H136.749V110.635H135.573V100.863ZM145.328 103.411H146.448V104.587H146.504C146.691 104.129 146.961 103.793 147.316 103.579C147.68 103.355 148.114 103.243 148.618 103.243C149.066 103.243 149.472 103.331 149.836 103.509C150.2 103.686 150.508 103.938 150.76 104.265C151.021 104.591 151.217 104.988 151.348 105.455C151.488 105.921 151.558 106.444 151.558 107.023C151.558 107.601 151.488 108.124 151.348 108.591C151.217 109.057 151.021 109.454 150.76 109.781C150.508 110.107 150.2 110.359 149.836 110.537C149.472 110.714 149.066 110.803 148.618 110.803C147.638 110.803 146.933 110.355 146.504 109.459H146.448V113.435H145.328V103.411ZM148.31 109.795C148.945 109.795 149.444 109.599 149.808 109.207C150.172 108.805 150.354 108.283 150.354 107.639V106.407C150.354 105.763 150.172 105.245 149.808 104.853C149.444 104.451 148.945 104.251 148.31 104.251C148.058 104.251 147.815 104.288 147.582 104.363C147.358 104.428 147.162 104.521 146.994 104.643C146.826 104.764 146.691 104.913 146.588 105.091C146.495 105.259 146.448 105.441 146.448 105.637V108.325C146.448 108.558 146.495 108.768 146.588 108.955C146.691 109.132 146.826 109.286 146.994 109.417C147.162 109.538 147.358 109.631 147.582 109.697C147.815 109.762 148.058 109.795 148.31 109.795ZM156.339 110.803C155.854 110.803 155.411 110.714 155.009 110.537C154.608 110.359 154.263 110.107 153.973 109.781C153.693 109.445 153.474 109.048 153.315 108.591C153.157 108.124 153.077 107.601 153.077 107.023C153.077 106.453 153.157 105.935 153.315 105.469C153.474 105.002 153.693 104.605 153.973 104.279C154.263 103.943 154.608 103.686 155.009 103.509C155.411 103.331 155.854 103.243 156.339 103.243C156.825 103.243 157.263 103.331 157.655 103.509C158.057 103.686 158.402 103.943 158.691 104.279C158.981 104.605 159.205 105.002 159.363 105.469C159.522 105.935 159.601 106.453 159.601 107.023C159.601 107.601 159.522 108.124 159.363 108.591C159.205 109.048 158.981 109.445 158.691 109.781C158.402 110.107 158.057 110.359 157.655 110.537C157.263 110.714 156.825 110.803 156.339 110.803ZM156.339 109.809C156.946 109.809 157.441 109.622 157.823 109.249C158.206 108.875 158.397 108.306 158.397 107.541V106.505C158.397 105.739 158.206 105.17 157.823 104.797C157.441 104.423 156.946 104.237 156.339 104.237C155.733 104.237 155.238 104.423 154.855 104.797C154.473 105.17 154.281 105.739 154.281 106.505V107.541C154.281 108.306 154.473 108.875 154.855 109.249C155.238 109.622 155.733 109.809 156.339 109.809ZM160.498 109.655H161.324C161.613 109.188 161.846 108.605 162.024 107.905C162.201 107.205 162.29 106.402 162.29 105.497V103.411H167.176V109.655H168.38V112.595H167.358V110.635H161.52V112.595H160.498V109.655ZM166.056 109.655V104.391H163.354V105.553C163.354 106.514 163.27 107.335 163.102 108.017C162.943 108.689 162.752 109.235 162.528 109.655H166.056ZM174.473 103.411H175.579L172.345 112.315C172.261 112.529 172.177 112.707 172.093 112.847C172.009 112.996 171.906 113.113 171.785 113.197C171.664 113.281 171.51 113.341 171.323 113.379C171.146 113.416 170.926 113.435 170.665 113.435H170.091V112.455H171.225L171.771 110.915L169.069 103.411H170.189L171.925 108.325L172.261 109.501H172.331L172.723 108.325L174.473 103.411ZM177.167 103.411H178.287V106.435H179.729L181.129 104.223C181.232 104.055 181.33 103.919 181.423 103.817C181.517 103.705 181.61 103.621 181.703 103.565C181.797 103.509 181.895 103.471 181.997 103.453C182.1 103.425 182.217 103.411 182.347 103.411H183.005V104.391H182.137L181.003 106.183C180.929 106.304 180.863 106.402 180.807 106.477C180.751 106.551 180.695 106.617 180.639 106.673C180.583 106.719 180.523 106.761 180.457 106.799C180.392 106.827 180.313 106.855 180.219 106.883V106.939C180.415 106.967 180.583 107.032 180.723 107.135C180.873 107.228 181.027 107.415 181.185 107.695L182.291 109.655H183.117V110.635H182.305C182.063 110.635 181.839 110.574 181.633 110.453C181.437 110.322 181.246 110.089 181.059 109.753L179.729 107.387H178.287V110.635H177.167V103.411ZM186.579 104.391H184.115V103.411H190.163V104.391H187.699V110.635H186.579V104.391ZM191.788 103.411H192.908V106.029H194.826C195.554 106.029 196.133 106.234 196.562 106.645C196.991 107.055 197.206 107.62 197.206 108.339C197.206 109.067 196.996 109.631 196.576 110.033C196.156 110.434 195.577 110.635 194.84 110.635H191.788V103.411ZM194.672 109.655C195.092 109.655 195.419 109.575 195.652 109.417C195.885 109.258 196.002 108.992 196.002 108.619V108.031C196.002 107.657 195.885 107.396 195.652 107.247C195.419 107.088 195.092 107.009 194.672 107.009H192.908V109.655H194.672ZM198.424 103.411H199.544V110.635H198.424V103.411Z" fill="#161616"/>
<defs>
<clipPath id="clip0_1888_26788">
<rect width="62" height="62" fill="white" transform="translate(136 21)"/>
</clipPath>
<clipPath id="clip1_1888_26788">
<rect width="62" height="62" fill="white" transform="translate(245 21)"/>
</clipPath>
<clipPath id="clip2_1888_26788">
<rect width="62" height="62" fill="white" transform="translate(351 21)"/>
</clipPath>
<clipPath id="clip3_1888_26788">
<rect width="62" height="62" fill="white" transform="translate(461 20)"/>
</clipPath>
<clipPath id="clip4_1888_26788">
<rect width="62" height="62" fill="white" transform="translate(572 20)"/>
</clipPath>
<clipPath id="clip5_1888_26788">
<rect width="62" height="62" fill="white" transform="translate(896 20)"/>
</clipPath>
<clipPath id="clip6_1888_26788">
<rect width="62" height="62" fill="white" transform="translate(1215 19)"/>
</clipPath>
</defs>
</svg>
