<svg width="510" height="510" viewBox="0 0 510 510" fill="none" xmlns="http://www.w3.org/2000/svg">
<path d="M509.604 504.802C509.604 505.432 509.48 506.057 509.238 506.639C508.997 507.222 508.643 507.751 508.197 508.197C507.751 508.643 507.222 508.997 506.639 509.238C506.057 509.48 505.432 509.604 504.802 509.604C504.171 509.604 503.547 509.48 502.964 509.238C502.382 508.997 501.852 508.643 501.406 508.197C500.961 507.751 500.607 507.222 500.366 506.639C500.124 506.057 500 505.432 500 504.802C500 504.171 500.124 503.547 500.366 502.964C500.607 502.382 500.961 501.852 501.406 501.406C501.852 500.961 502.382 500.607 502.964 500.366C503.547 500.124 504.171 500 504.802 500C505.432 500 506.057 500.124 506.639 500.366C507.222 500.607 507.751 500.961 508.197 501.406C508.643 501.852 508.997 502.382 509.238 502.964C509.48 503.547 509.604 504.171 509.604 504.802ZM459.604 504.802C459.604 505.432 459.479 506.057 459.238 506.639C458.997 507.222 458.643 507.751 458.197 508.197C457.751 508.643 457.222 508.997 456.639 509.238C456.057 509.48 455.432 509.604 454.802 509.604C454.171 509.604 453.547 509.48 452.964 509.238C452.382 508.997 451.852 508.643 451.406 508.197C450.961 507.751 450.607 507.222 450.366 506.639C450.124 506.057 450 505.432 450 504.802C450 504.171 450.124 503.547 450.366 502.964C450.607 502.382 450.961 501.852 451.406 501.406C451.852 500.961 452.382 500.607 452.964 500.366C453.547 500.124 454.171 500 454.802 500C455.432 500 456.057 500.124 456.639 500.366C457.222 500.607 457.751 500.961 458.197 501.406C458.643 501.852 458.997 502.382 459.238 502.964C459.479 503.547 459.604 504.171 459.604 504.802ZM409.604 504.802C409.604 505.432 409.479 506.057 409.238 506.639C408.997 507.222 408.643 507.751 408.197 508.197C407.751 508.643 407.222 508.997 406.639 509.238C406.057 509.48 405.432 509.604 404.802 509.604C404.171 509.604 403.547 509.48 402.964 509.238C402.382 508.997 401.852 508.643 401.406 508.197C400.961 507.751 400.607 507.222 400.366 506.639C400.124 506.057 400 505.432 400 504.802C400 504.171 400.124 503.547 400.366 502.964C400.607 502.382 400.961 501.852 401.406 501.406C401.852 500.961 402.382 500.607 402.964 500.366C403.547 500.124 404.171 500 404.802 500C405.432 500 406.057 500.124 406.639 500.366C407.222 500.607 407.751 500.961 408.197 501.406C408.643 501.852 408.997 502.382 409.238 502.964C409.479 503.547 409.604 504.171 409.604 504.802ZM359.604 504.802C359.604 505.432 359.479 506.057 359.238 506.639C358.997 507.222 358.643 507.751 358.197 508.197C357.751 508.643 357.222 508.997 356.639 509.238C356.057 509.48 355.432 509.604 354.802 509.604C354.171 509.604 353.547 509.48 352.964 509.238C352.382 508.997 351.852 508.643 351.406 508.197C350.961 507.751 350.607 507.222 350.366 506.639C350.124 506.057 350 505.432 350 504.802C350 504.171 350.124 503.547 350.366 502.964C350.607 502.382 350.961 501.852 351.406 501.406C351.852 500.961 352.382 500.607 352.964 500.366C353.547 500.124 354.171 500 354.802 500C355.432 500 356.057 500.124 356.639 500.366C357.222 500.607 357.751 500.961 358.197 501.406C358.643 501.852 358.997 502.382 359.238 502.964C359.479 503.547 359.604 504.171 359.604 504.802ZM309.604 504.802C309.604 505.432 309.479 506.057 309.238 506.639C308.997 507.222 308.643 507.751 308.197 508.197C307.751 508.643 307.222 508.997 306.639 509.238C306.057 509.48 305.432 509.604 304.802 509.604C304.171 509.604 303.547 509.48 302.964 509.238C302.382 508.997 301.852 508.643 301.406 508.197C300.961 507.751 300.607 507.222 300.366 506.639C300.124 506.057 300 505.432 300 504.802C300 504.171 300.124 503.547 300.366 502.964C300.607 502.382 300.961 501.852 301.406 501.406C301.852 500.961 302.382 500.607 302.964 500.366C303.547 500.124 304.171 500 304.802 500C305.432 500 306.057 500.124 306.639 500.366C307.222 500.607 307.751 500.961 308.197 501.406C308.643 501.852 308.997 502.382 309.238 502.964C309.479 503.547 309.604 504.171 309.604 504.802ZM259.604 504.802C259.604 505.432 259.479 506.057 259.238 506.639C258.997 507.222 258.643 507.751 258.197 508.197C257.751 508.643 257.222 508.997 256.639 509.238C256.057 509.48 255.432 509.604 254.802 509.604C254.171 509.604 253.547 509.48 252.964 509.238C252.382 508.997 251.852 508.643 251.406 508.197C250.961 507.751 250.607 507.222 250.366 506.639C250.124 506.057 250 505.432 250 504.802C250 504.171 250.124 503.547 250.366 502.964C250.607 502.382 250.961 501.852 251.406 501.406C251.852 500.961 252.382 500.607 252.964 500.366C253.547 500.124 254.171 500 254.802 500C255.432 500 256.057 500.124 256.639 500.366C257.222 500.607 257.751 500.961 258.197 501.406C258.643 501.852 258.997 502.382 259.238 502.964C259.479 503.547 259.604 504.171 259.604 504.802ZM209.604 504.802C209.604 505.432 209.48 506.057 209.238 506.639C208.997 507.222 208.643 507.751 208.197 508.197C207.751 508.643 207.222 508.997 206.639 509.238C206.057 509.48 205.432 509.604 204.802 509.604C204.171 509.604 203.547 509.48 202.964 509.238C202.382 508.997 201.852 508.643 201.406 508.197C200.961 507.751 200.607 507.222 200.366 506.639C200.124 506.057 200 505.432 200 504.802C200 504.171 200.124 503.547 200.366 502.964C200.607 502.382 200.961 501.852 201.406 501.406C201.852 500.961 202.382 500.607 202.964 500.366C203.547 500.124 204.171 500 204.802 500C205.432 500 206.057 500.124 206.639 500.366C207.222 500.607 207.751 500.961 208.197 501.406C208.643 501.852 208.997 502.382 209.238 502.964C209.48 503.547 209.604 504.171 209.604 504.802ZM159.604 504.802C159.604 505.432 159.48 506.057 159.238 506.639C158.997 507.222 158.643 507.751 158.197 508.197C157.751 508.643 157.222 508.997 156.639 509.238C156.057 509.48 155.432 509.604 154.802 509.604C154.171 509.604 153.547 509.48 152.964 509.238C152.382 508.997 151.852 508.643 151.406 508.197C150.961 507.751 150.607 507.222 150.366 506.639C150.124 506.057 150 505.432 150 504.802C150 504.171 150.124 503.547 150.366 502.964C150.607 502.382 150.961 501.852 151.406 501.406C151.852 500.961 152.382 500.607 152.964 500.366C153.547 500.124 154.171 500 154.802 500C155.432 500 156.057 500.124 156.639 500.366C157.222 500.607 157.751 500.961 158.197 501.406C158.643 501.852 158.997 502.382 159.238 502.964C159.48 503.547 159.604 504.171 159.604 504.802ZM109.604 504.802C109.604 505.432 109.48 506.057 109.238 506.639C108.997 507.222 108.643 507.751 108.197 508.197C107.751 508.643 107.222 508.997 106.639 509.238C106.057 509.48 105.432 509.604 104.802 509.604C104.171 509.604 103.547 509.48 102.964 509.238C102.382 508.997 101.852 508.643 101.406 508.197C100.961 507.751 100.607 507.222 100.366 506.639C100.124 506.057 100 505.432 100 504.802C100 504.171 100.124 503.547 100.366 502.964C100.607 502.382 100.961 501.852 101.406 501.406C101.852 500.961 102.382 500.607 102.964 500.366C103.547 500.124 104.171 500 104.802 500C105.432 500 106.057 500.124 106.639 500.366C107.222 500.607 107.751 500.961 108.197 501.406C108.643 501.852 108.997 502.382 109.238 502.964C109.48 503.547 109.604 504.171 109.604 504.802ZM59.6037 504.802C59.6037 505.432 59.4795 506.057 59.2382 506.639C58.9969 507.222 58.6432 507.751 58.1973 508.197C57.7514 508.643 57.222 508.997 56.6395 509.238C56.0569 509.48 55.4324 509.604 54.8019 509.604C54.1713 509.604 53.5469 509.48 52.9643 509.238C52.3817 508.997 51.8523 508.643 51.4064 508.197C50.9605 507.751 50.6068 507.222 50.3655 506.639C50.1242 506.057 50 505.432 50 504.802C50 503.528 50.5059 502.307 51.4064 501.406C52.307 500.506 53.5283 500 54.8019 500C55.4324 500 56.0569 500.124 56.6395 500.366C57.222 500.607 57.7514 500.961 58.1973 501.406C58.6432 501.852 58.9969 502.382 59.2382 502.964C59.4795 503.547 59.6037 504.171 59.6037 504.802ZM9.60371 504.802C9.60371 505.432 9.47951 506.057 9.23819 506.639C8.99688 507.222 8.64317 507.751 8.19728 508.197C7.75139 508.643 7.22203 508.997 6.63945 509.238C6.05686 509.48 5.43245 509.604 4.80186 509.604C4.17127 509.604 3.54686 509.48 2.96427 509.238C2.38168 508.997 1.85233 508.643 1.40643 508.197C0.96054 507.751 0.606836 507.222 0.36552 506.639C0.124205 506.057 -5.25267e-08 505.432 0 504.802C1.59132e-07 503.528 0.50591 502.307 1.40643 501.406C2.30696 500.506 3.52833 500 4.80186 500C6.07539 500 7.29676 500.506 8.19728 501.406C9.0978 502.307 9.60371 503.528 9.60371 504.802ZM509.604 454.802C509.604 455.432 509.48 456.057 509.238 456.639C508.997 457.222 508.643 457.751 508.197 458.197C507.751 458.643 507.222 458.997 506.639 459.238C506.057 459.48 505.432 459.604 504.802 459.604C504.171 459.604 503.547 459.48 502.964 459.238C502.382 458.997 501.852 458.643 501.406 458.197C500.961 457.751 500.607 457.222 500.366 456.639C500.124 456.057 500 455.432 500 454.802C500 454.171 500.124 453.547 500.366 452.964C500.607 452.382 500.961 451.852 501.406 451.406C501.852 450.961 502.382 450.607 502.964 450.366C503.547 450.124 504.171 450 504.802 450C505.432 450 506.057 450.124 506.639 450.366C507.222 450.607 507.751 450.961 508.197 451.406C508.643 451.852 508.997 452.382 509.238 452.964C509.48 453.547 509.604 454.171 509.604 454.802ZM459.604 454.802C459.604 455.432 459.479 456.057 459.238 456.639C458.997 457.222 458.643 457.751 458.197 458.197C457.751 458.643 457.222 458.997 456.639 459.238C456.057 459.48 455.432 459.604 454.802 459.604C454.171 459.604 453.547 459.48 452.964 459.238C452.382 458.997 451.852 458.643 451.406 458.197C450.961 457.751 450.607 457.222 450.366 456.639C450.124 456.057 450 455.432 450 454.802C450 454.171 450.124 453.547 450.366 452.964C450.607 452.382 450.961 451.852 451.406 451.406C451.852 450.961 452.382 450.607 452.964 450.366C453.547 450.124 454.171 450 454.802 450C455.432 450 456.057 450.124 456.639 450.366C457.222 450.607 457.751 450.961 458.197 451.406C458.643 451.852 458.997 452.382 459.238 452.964C459.479 453.547 459.604 454.171 459.604 454.802ZM409.604 454.802C409.604 455.432 409.479 456.057 409.238 456.639C408.997 457.222 408.643 457.751 408.197 458.197C407.751 458.643 407.222 458.997 406.639 459.238C406.057 459.48 405.432 459.604 404.802 459.604C404.171 459.604 403.547 459.48 402.964 459.238C402.382 458.997 401.852 458.643 401.406 458.197C400.961 457.751 400.607 457.222 400.366 456.639C400.124 456.057 400 455.432 400 454.802C400 454.171 400.124 453.547 400.366 452.964C400.607 452.382 400.961 451.852 401.406 451.406C401.852 450.961 402.382 450.607 402.964 450.366C403.547 450.124 404.171 450 404.802 450C405.432 450 406.057 450.124 406.639 450.366C407.222 450.607 407.751 450.961 408.197 451.406C408.643 451.852 408.997 452.382 409.238 452.964C409.479 453.547 409.604 454.171 409.604 454.802ZM359.604 454.802C359.604 455.432 359.479 456.057 359.238 456.639C358.997 457.222 358.643 457.751 358.197 458.197C357.751 458.643 357.222 458.997 356.639 459.238C356.057 459.48 355.432 459.604 354.802 459.604C354.171 459.604 353.547 459.48 352.964 459.238C352.382 458.997 351.852 458.643 351.406 458.197C350.961 457.751 350.607 457.222 350.366 456.639C350.124 456.057 350 455.432 350 454.802C350 454.171 350.124 453.547 350.366 452.964C350.607 452.382 350.961 451.852 351.406 451.406C351.852 450.961 352.382 450.607 352.964 450.366C353.547 450.124 354.171 450 354.802 450C355.432 450 356.057 450.124 356.639 450.366C357.222 450.607 357.751 450.961 358.197 451.406C358.643 451.852 358.997 452.382 359.238 452.964C359.479 453.547 359.604 454.171 359.604 454.802ZM309.604 454.802C309.604 455.432 309.479 456.057 309.238 456.639C308.997 457.222 308.643 457.751 308.197 458.197C307.751 458.643 307.222 458.997 306.639 459.238C306.057 459.48 305.432 459.604 304.802 459.604C304.171 459.604 303.547 459.48 302.964 459.238C302.382 458.997 301.852 458.643 301.406 458.197C300.961 457.751 300.607 457.222 300.366 456.639C300.124 456.057 300 455.432 300 454.802C300 454.171 300.124 453.547 300.366 452.964C300.607 452.382 300.961 451.852 301.406 451.406C301.852 450.961 302.382 450.607 302.964 450.366C303.547 450.124 304.171 450 304.802 450C305.432 450 306.057 450.124 306.639 450.366C307.222 450.607 307.751 450.961 308.197 451.406C308.643 451.852 308.997 452.382 309.238 452.964C309.479 453.547 309.604 454.171 309.604 454.802ZM259.604 454.802C259.604 455.432 259.479 456.057 259.238 456.639C258.997 457.222 258.643 457.751 258.197 458.197C257.751 458.643 257.222 458.997 256.639 459.238C256.057 459.48 255.432 459.604 254.802 459.604C254.171 459.604 253.547 459.48 252.964 459.238C252.382 458.997 251.852 458.643 251.406 458.197C250.961 457.751 250.607 457.222 250.366 456.639C250.124 456.057 250 455.432 250 454.802C250 454.171 250.124 453.547 250.366 452.964C250.607 452.382 250.961 451.852 251.406 451.406C251.852 450.961 252.382 450.607 252.964 450.366C253.547 450.124 254.171 450 254.802 450C255.432 450 256.057 450.124 256.639 450.366C257.222 450.607 257.751 450.961 258.197 451.406C258.643 451.852 258.997 452.382 259.238 452.964C259.479 453.547 259.604 454.171 259.604 454.802ZM209.604 454.802C209.604 455.432 209.48 456.057 209.238 456.639C208.997 457.222 208.643 457.751 208.197 458.197C207.751 458.643 207.222 458.997 206.639 459.238C206.057 459.48 205.432 459.604 204.802 459.604C204.171 459.604 203.547 459.48 202.964 459.238C202.382 458.997 201.852 458.643 201.406 458.197C200.961 457.751 200.607 457.222 200.366 456.639C200.124 456.057 200 455.432 200 454.802C200 454.171 200.124 453.547 200.366 452.964C200.607 452.382 200.961 451.852 201.406 451.406C201.852 450.961 202.382 450.607 202.964 450.366C203.547 450.124 204.171 450 204.802 450C205.432 450 206.057 450.124 206.639 450.366C207.222 450.607 207.751 450.961 208.197 451.406C208.643 451.852 208.997 452.382 209.238 452.964C209.48 453.547 209.604 454.171 209.604 454.802ZM159.604 454.802C159.604 455.432 159.48 456.057 159.238 456.639C158.997 457.222 158.643 457.751 158.197 458.197C157.751 458.643 157.222 458.997 156.639 459.238C156.057 459.48 155.432 459.604 154.802 459.604C154.171 459.604 153.547 459.48 152.964 459.238C152.382 458.997 151.852 458.643 151.406 458.197C150.961 457.751 150.607 457.222 150.366 456.639C150.124 456.057 150 455.432 150 454.802C150 454.171 150.124 453.547 150.366 452.964C150.607 452.382 150.961 451.852 151.406 451.406C151.852 450.961 152.382 450.607 152.964 450.366C153.547 450.124 154.171 450 154.802 450C155.432 450 156.057 450.124 156.639 450.366C157.222 450.607 157.751 450.961 158.197 451.406C158.643 451.852 158.997 452.382 159.238 452.964C159.48 453.547 159.604 454.171 159.604 454.802ZM109.604 454.802C109.604 455.432 109.48 456.057 109.238 456.639C108.997 457.222 108.643 457.751 108.197 458.197C107.751 458.643 107.222 458.997 106.639 459.238C106.057 459.48 105.432 459.604 104.802 459.604C104.171 459.604 103.547 459.48 102.964 459.238C102.382 458.997 101.852 458.643 101.406 458.197C100.961 457.751 100.607 457.222 100.366 456.639C100.124 456.057 100 455.432 100 454.802C100 454.171 100.124 453.547 100.366 452.964C100.607 452.382 100.961 451.852 101.406 451.406C101.852 450.961 102.382 450.607 102.964 450.366C103.547 450.124 104.171 450 104.802 450C105.432 450 106.057 450.124 106.639 450.366C107.222 450.607 107.751 450.961 108.197 451.406C108.643 451.852 108.997 452.382 109.238 452.964C109.48 453.547 109.604 454.171 109.604 454.802ZM59.6037 454.802C59.6037 455.432 59.4795 456.057 59.2382 456.639C58.9969 457.222 58.6432 457.751 58.1973 458.197C57.7514 458.643 57.222 458.997 56.6395 459.238C56.0569 459.48 55.4324 459.604 54.8019 459.604C54.1713 459.604 53.5469 459.48 52.9643 459.238C52.3817 458.997 51.8523 458.643 51.4064 458.197C50.9605 457.751 50.6068 457.222 50.3655 456.639C50.1242 456.057 50 455.432 50 454.802C50 454.171 50.1242 453.547 50.3655 452.964C50.6068 452.382 50.9605 451.852 51.4064 451.406C51.8523 450.961 52.3817 450.607 52.9643 450.366C53.5469 450.124 54.1713 450 54.8019 450C55.4324 450 56.0569 450.124 56.6395 450.366C57.222 450.607 57.7514 450.961 58.1973 451.406C58.6432 451.852 58.9969 452.382 59.2382 452.964C59.4795 453.547 59.6037 454.171 59.6037 454.802ZM9.60371 454.802C9.60371 455.432 9.47951 456.057 9.23819 456.639C8.99688 457.222 8.64317 457.751 8.19728 458.197C7.75139 458.643 7.22203 458.997 6.63945 459.238C6.05686 459.48 5.43245 459.604 4.80186 459.604C4.17127 459.604 3.54686 459.48 2.96427 459.238C2.38168 458.997 1.85233 458.643 1.40643 458.197C0.96054 457.751 0.606836 457.222 0.36552 456.639C0.124205 456.057 -5.25267e-08 455.432 0 454.802C-5.77815e-07 454.171 0.124205 453.547 0.36552 452.964C0.606836 452.382 0.960536 451.852 1.40643 451.406C1.85232 450.961 2.38168 450.607 2.96426 450.366C3.54685 450.124 4.17127 450 4.80186 450C5.43245 450 6.05686 450.124 6.63945 450.366C7.22204 450.607 7.75139 450.961 8.19728 451.406C8.64318 451.852 8.99688 452.382 9.23819 452.964C9.47951 453.547 9.60371 454.171 9.60371 454.802ZM509.604 404.802C509.604 405.432 509.48 406.057 509.238 406.639C508.997 407.222 508.643 407.751 508.197 408.197C507.751 408.643 507.222 408.997 506.639 409.238C506.057 409.48 505.432 409.604 504.802 409.604C504.171 409.604 503.547 409.48 502.964 409.238C502.382 408.997 501.852 408.643 501.406 408.197C500.961 407.751 500.607 407.222 500.366 406.639C500.124 406.057 500 405.432 500 404.802C500 404.171 500.124 403.547 500.366 402.964C500.607 402.382 500.961 401.852 501.406 401.406C501.852 400.961 502.382 400.607 502.964 400.366C503.547 400.124 504.171 400 504.802 400C505.432 400 506.057 400.124 506.639 400.366C507.222 400.607 507.751 400.961 508.197 401.406C508.643 401.852 508.997 402.382 509.238 402.964C509.48 403.547 509.604 404.171 509.604 404.802ZM459.604 404.802C459.604 405.432 459.479 406.057 459.238 406.639C458.997 407.222 458.643 407.751 458.197 408.197C457.751 408.643 457.222 408.997 456.639 409.238C456.057 409.48 455.432 409.604 454.802 409.604C454.171 409.604 453.547 409.48 452.964 409.238C452.382 408.997 451.852 408.643 451.406 408.197C450.961 407.751 450.607 407.222 450.366 406.639C450.124 406.057 450 405.432 450 404.802C450 404.171 450.124 403.547 450.366 402.964C450.607 402.382 450.961 401.852 451.406 401.406C451.852 400.961 452.382 400.607 452.964 400.366C453.547 400.124 454.171 400 454.802 400C455.432 400 456.057 400.124 456.639 400.366C457.222 400.607 457.751 400.961 458.197 401.406C458.643 401.852 458.997 402.382 459.238 402.964C459.479 403.547 459.604 404.171 459.604 404.802ZM409.604 404.802C409.604 405.432 409.479 406.057 409.238 406.639C408.997 407.222 408.643 407.751 408.197 408.197C407.751 408.643 407.222 408.997 406.639 409.238C406.057 409.48 405.432 409.604 404.802 409.604C404.171 409.604 403.547 409.48 402.964 409.238C402.382 408.997 401.852 408.643 401.406 408.197C400.961 407.751 400.607 407.222 400.366 406.639C400.124 406.057 400 405.432 400 404.802C400 404.171 400.124 403.547 400.366 402.964C400.607 402.382 400.961 401.852 401.406 401.406C401.852 400.961 402.382 400.607 402.964 400.366C403.547 400.124 404.171 400 404.802 400C405.432 400 406.057 400.124 406.639 400.366C407.222 400.607 407.751 400.961 408.197 401.406C408.643 401.852 408.997 402.382 409.238 402.964C409.479 403.547 409.604 404.171 409.604 404.802ZM359.604 404.802C359.604 405.432 359.479 406.057 359.238 406.639C358.997 407.222 358.643 407.751 358.197 408.197C357.751 408.643 357.222 408.997 356.639 409.238C356.057 409.48 355.432 409.604 354.802 409.604C354.171 409.604 353.547 409.48 352.964 409.238C352.382 408.997 351.852 408.643 351.406 408.197C350.961 407.751 350.607 407.222 350.366 406.639C350.124 406.057 350 405.432 350 404.802C350 404.171 350.124 403.547 350.366 402.964C350.607 402.382 350.961 401.852 351.406 401.406C351.852 400.961 352.382 400.607 352.964 400.366C353.547 400.124 354.171 400 354.802 400C355.432 400 356.057 400.124 356.639 400.366C357.222 400.607 357.751 400.961 358.197 401.406C358.643 401.852 358.997 402.382 359.238 402.964C359.479 403.547 359.604 404.171 359.604 404.802ZM309.604 404.802C309.604 405.432 309.479 406.057 309.238 406.639C308.997 407.222 308.643 407.751 308.197 408.197C307.751 408.643 307.222 408.997 306.639 409.238C306.057 409.48 305.432 409.604 304.802 409.604C304.171 409.604 303.547 409.48 302.964 409.238C302.382 408.997 301.852 408.643 301.406 408.197C300.961 407.751 300.607 407.222 300.366 406.639C300.124 406.057 300 405.432 300 404.802C300 404.171 300.124 403.547 300.366 402.964C300.607 402.382 300.961 401.852 301.406 401.406C301.852 400.961 302.382 400.607 302.964 400.366C303.547 400.124 304.171 400 304.802 400C305.432 400 306.057 400.124 306.639 400.366C307.222 400.607 307.751 400.961 308.197 401.406C308.643 401.852 308.997 402.382 309.238 402.964C309.479 403.547 309.604 404.171 309.604 404.802ZM259.604 404.802C259.604 405.432 259.479 406.057 259.238 406.639C258.997 407.222 258.643 407.751 258.197 408.197C257.751 408.643 257.222 408.997 256.639 409.238C256.057 409.48 255.432 409.604 254.802 409.604C254.171 409.604 253.547 409.48 252.964 409.238C252.382 408.997 251.852 408.643 251.406 408.197C250.961 407.751 250.607 407.222 250.366 406.639C250.124 406.057 250 405.432 250 404.802C250 404.171 250.124 403.547 250.366 402.964C250.607 402.382 250.961 401.852 251.406 401.406C251.852 400.961 252.382 400.607 252.964 400.366C253.547 400.124 254.171 400 254.802 400C255.432 400 256.057 400.124 256.639 400.366C257.222 400.607 257.751 400.961 258.197 401.406C258.643 401.852 258.997 402.382 259.238 402.964C259.479 403.547 259.604 404.171 259.604 404.802ZM209.604 404.802C209.604 405.432 209.48 406.057 209.238 406.639C208.997 407.222 208.643 407.751 208.197 408.197C207.751 408.643 207.222 408.997 206.639 409.238C206.057 409.48 205.432 409.604 204.802 409.604C204.171 409.604 203.547 409.48 202.964 409.238C202.382 408.997 201.852 408.643 201.406 408.197C200.961 407.751 200.607 407.222 200.366 406.639C200.124 406.057 200 405.432 200 404.802C200 404.171 200.124 403.547 200.366 402.964C200.607 402.382 200.961 401.852 201.406 401.406C201.852 400.961 202.382 400.607 202.964 400.366C203.547 400.124 204.171 400 204.802 400C205.432 400 206.057 400.124 206.639 400.366C207.222 400.607 207.751 400.961 208.197 401.406C208.643 401.852 208.997 402.382 209.238 402.964C209.48 403.547 209.604 404.171 209.604 404.802ZM159.604 404.802C159.604 405.432 159.48 406.057 159.238 406.639C158.997 407.222 158.643 407.751 158.197 408.197C157.751 408.643 157.222 408.997 156.639 409.238C156.057 409.48 155.432 409.604 154.802 409.604C154.171 409.604 153.547 409.48 152.964 409.238C152.382 408.997 151.852 408.643 151.406 408.197C150.961 407.751 150.607 407.222 150.366 406.639C150.124 406.057 150 405.432 150 404.802C150 404.171 150.124 403.547 150.366 402.964C150.607 402.382 150.961 401.852 151.406 401.406C151.852 400.961 152.382 400.607 152.964 400.366C153.547 400.124 154.171 400 154.802 400C155.432 400 156.057 400.124 156.639 400.366C157.222 400.607 157.751 400.961 158.197 401.406C158.643 401.852 158.997 402.382 159.238 402.964C159.48 403.547 159.604 404.171 159.604 404.802ZM109.604 404.802C109.604 405.432 109.48 406.057 109.238 406.639C108.997 407.222 108.643 407.751 108.197 408.197C107.751 408.643 107.222 408.997 106.639 409.238C106.057 409.48 105.432 409.604 104.802 409.604C104.171 409.604 103.547 409.48 102.964 409.238C102.382 408.997 101.852 408.643 101.406 408.197C100.961 407.751 100.607 407.222 100.366 406.639C100.124 406.057 100 405.432 100 404.802C100 404.171 100.124 403.547 100.366 402.964C100.607 402.382 100.961 401.852 101.406 401.406C101.852 400.961 102.382 400.607 102.964 400.366C103.547 400.124 104.171 400 104.802 400C105.432 400 106.057 400.124 106.639 400.366C107.222 400.607 107.751 400.961 108.197 401.406C108.643 401.852 108.997 402.382 109.238 402.964C109.48 403.547 109.604 404.171 109.604 404.802ZM59.6037 404.802C59.6037 405.432 59.4795 406.057 59.2382 406.639C58.9969 407.222 58.6432 407.751 58.1973 408.197C57.7514 408.643 57.222 408.997 56.6395 409.238C56.0569 409.48 55.4324 409.604 54.8019 409.604C54.1713 409.604 53.5469 409.48 52.9643 409.238C52.3817 408.997 51.8523 408.643 51.4064 408.197C50.9605 407.751 50.6068 407.222 50.3655 406.639C50.1242 406.057 50 405.432 50 404.802C50 404.171 50.1242 403.547 50.3655 402.964C50.6068 402.382 50.9605 401.852 51.4064 401.406C51.8523 400.961 52.3817 400.607 52.9643 400.366C53.5469 400.124 54.1713 400 54.8019 400C55.4324 400 56.0569 400.124 56.6395 400.366C57.222 400.607 57.7514 400.961 58.1973 401.406C58.6432 401.852 58.9969 402.382 59.2382 402.964C59.4795 403.547 59.6037 404.171 59.6037 404.802ZM9.60371 404.802C9.60371 405.432 9.47951 406.057 9.23819 406.639C8.99688 407.222 8.64318 407.751 8.19728 408.197C7.75139 408.643 7.22204 408.997 6.63945 409.238C6.05686 409.48 5.43245 409.604 4.80186 409.604C4.17127 409.604 3.54685 409.48 2.96426 409.238C2.38168 408.997 1.85232 408.643 1.40643 408.197C0.960536 407.751 0.606836 407.222 0.36552 406.639C0.124205 406.057 -5.77815e-07 405.432 0 404.802C-5.77815e-07 404.171 0.124205 403.547 0.36552 402.964C0.606836 402.382 0.960536 401.852 1.40643 401.406C1.85232 400.961 2.38168 400.607 2.96426 400.366C3.54685 400.124 4.17127 400 4.80186 400C5.43245 400 6.05686 400.124 6.63945 400.366C7.22204 400.607 7.75139 400.961 8.19728 401.406C8.64318 401.852 8.99688 402.382 9.23819 402.964C9.47951 403.547 9.60371 404.171 9.60371 404.802ZM509.604 354.802C509.604 355.432 509.48 356.057 509.238 356.639C508.997 357.222 508.643 357.751 508.197 358.197C507.751 358.643 507.222 358.997 506.639 359.238C506.057 359.48 505.432 359.604 504.802 359.604C504.171 359.604 503.547 359.48 502.964 359.238C502.382 358.997 501.852 358.643 501.406 358.197C500.961 357.751 500.607 357.222 500.366 356.639C500.124 356.057 500 355.432 500 354.802C500 354.171 500.124 353.547 500.366 352.964C500.607 352.382 500.961 351.852 501.406 351.406C501.852 350.961 502.382 350.607 502.964 350.366C503.547 350.124 504.171 350 504.802 350C505.432 350 506.057 350.124 506.639 350.366C507.222 350.607 507.751 350.961 508.197 351.406C508.643 351.852 508.997 352.382 509.238 352.964C509.48 353.547 509.604 354.171 509.604 354.802ZM459.604 354.802C459.604 355.432 459.479 356.057 459.238 356.639C458.997 357.222 458.643 357.751 458.197 358.197C457.751 358.643 457.222 358.997 456.639 359.238C456.057 359.48 455.432 359.604 454.802 359.604C454.171 359.604 453.547 359.48 452.964 359.238C452.382 358.997 451.852 358.643 451.406 358.197C450.961 357.751 450.607 357.222 450.366 356.639C450.124 356.057 450 355.432 450 354.802C450 354.171 450.124 353.547 450.366 352.964C450.607 352.382 450.961 351.852 451.406 351.406C451.852 350.961 452.382 350.607 452.964 350.366C453.547 350.124 454.171 350 454.802 350C455.432 350 456.057 350.124 456.639 350.366C457.222 350.607 457.751 350.961 458.197 351.406C458.643 351.852 458.997 352.382 459.238 352.964C459.479 353.547 459.604 354.171 459.604 354.802ZM409.604 354.802C409.604 355.432 409.479 356.057 409.238 356.639C408.997 357.222 408.643 357.751 408.197 358.197C407.751 358.643 407.222 358.997 406.639 359.238C406.057 359.48 405.432 359.604 404.802 359.604C404.171 359.604 403.547 359.48 402.964 359.238C402.382 358.997 401.852 358.643 401.406 358.197C400.961 357.751 400.607 357.222 400.366 356.639C400.124 356.057 400 355.432 400 354.802C400 354.171 400.124 353.547 400.366 352.964C400.607 352.382 400.961 351.852 401.406 351.406C401.852 350.961 402.382 350.607 402.964 350.366C403.547 350.124 404.171 350 404.802 350C405.432 350 406.057 350.124 406.639 350.366C407.222 350.607 407.751 350.961 408.197 351.406C408.643 351.852 408.997 352.382 409.238 352.964C409.479 353.547 409.604 354.171 409.604 354.802ZM359.604 354.802C359.604 355.432 359.479 356.057 359.238 356.639C358.997 357.222 358.643 357.751 358.197 358.197C357.751 358.643 357.222 358.997 356.639 359.238C356.057 359.48 355.432 359.604 354.802 359.604C354.171 359.604 353.547 359.48 352.964 359.238C352.382 358.997 351.852 358.643 351.406 358.197C350.961 357.751 350.607 357.222 350.366 356.639C350.124 356.057 350 355.432 350 354.802C350 354.171 350.124 353.547 350.366 352.964C350.607 352.382 350.961 351.852 351.406 351.406C351.852 350.961 352.382 350.607 352.964 350.366C353.547 350.124 354.171 350 354.802 350C355.432 350 356.057 350.124 356.639 350.366C357.222 350.607 357.751 350.961 358.197 351.406C358.643 351.852 358.997 352.382 359.238 352.964C359.479 353.547 359.604 354.171 359.604 354.802ZM309.604 354.802C309.604 355.432 309.479 356.057 309.238 356.639C308.997 357.222 308.643 357.751 308.197 358.197C307.751 358.643 307.222 358.997 306.639 359.238C306.057 359.48 305.432 359.604 304.802 359.604C304.171 359.604 303.547 359.48 302.964 359.238C302.382 358.997 301.852 358.643 301.406 358.197C300.961 357.751 300.607 357.222 300.366 356.639C300.124 356.057 300 355.432 300 354.802C300 354.171 300.124 353.547 300.366 352.964C300.607 352.382 300.961 351.852 301.406 351.406C301.852 350.961 302.382 350.607 302.964 350.366C303.547 350.124 304.171 350 304.802 350C305.432 350 306.057 350.124 306.639 350.366C307.222 350.607 307.751 350.961 308.197 351.406C308.643 351.852 308.997 352.382 309.238 352.964C309.479 353.547 309.604 354.171 309.604 354.802ZM259.604 354.802C259.604 355.432 259.479 356.057 259.238 356.639C258.997 357.222 258.643 357.751 258.197 358.197C257.751 358.643 257.222 358.997 256.639 359.238C256.057 359.48 255.432 359.604 254.802 359.604C254.171 359.604 253.547 359.48 252.964 359.238C252.382 358.997 251.852 358.643 251.406 358.197C250.961 357.751 250.607 357.222 250.366 356.639C250.124 356.057 250 355.432 250 354.802C250 354.171 250.124 353.547 250.366 352.964C250.607 352.382 250.961 351.852 251.406 351.406C251.852 350.961 252.382 350.607 252.964 350.366C253.547 350.124 254.171 350 254.802 350C255.432 350 256.057 350.124 256.639 350.366C257.222 350.607 257.751 350.961 258.197 351.406C258.643 351.852 258.997 352.382 259.238 352.964C259.479 353.547 259.604 354.171 259.604 354.802ZM209.604 354.802C209.604 355.432 209.48 356.057 209.238 356.639C208.997 357.222 208.643 357.751 208.197 358.197C207.751 358.643 207.222 358.997 206.639 359.238C206.057 359.48 205.432 359.604 204.802 359.604C204.171 359.604 203.547 359.48 202.964 359.238C202.382 358.997 201.852 358.643 201.406 358.197C200.961 357.751 200.607 357.222 200.366 356.639C200.124 356.057 200 355.432 200 354.802C200 354.171 200.124 353.547 200.366 352.964C200.607 352.382 200.961 351.852 201.406 351.406C201.852 350.961 202.382 350.607 202.964 350.366C203.547 350.124 204.171 350 204.802 350C205.432 350 206.057 350.124 206.639 350.366C207.222 350.607 207.751 350.961 208.197 351.406C208.643 351.852 208.997 352.382 209.238 352.964C209.48 353.547 209.604 354.171 209.604 354.802ZM159.604 354.802C159.604 355.432 159.48 356.057 159.238 356.639C158.997 357.222 158.643 357.751 158.197 358.197C157.751 358.643 157.222 358.997 156.639 359.238C156.057 359.48 155.432 359.604 154.802 359.604C154.171 359.604 153.547 359.48 152.964 359.238C152.382 358.997 151.852 358.643 151.406 358.197C150.961 357.751 150.607 357.222 150.366 356.639C150.124 356.057 150 355.432 150 354.802C150 354.171 150.124 353.547 150.366 352.964C150.607 352.382 150.961 351.852 151.406 351.406C151.852 350.961 152.382 350.607 152.964 350.366C153.547 350.124 154.171 350 154.802 350C155.432 350 156.057 350.124 156.639 350.366C157.222 350.607 157.751 350.961 158.197 351.406C158.643 351.852 158.997 352.382 159.238 352.964C159.48 353.547 159.604 354.171 159.604 354.802ZM109.604 354.802C109.604 355.432 109.48 356.057 109.238 356.639C108.997 357.222 108.643 357.751 108.197 358.197C107.751 358.643 107.222 358.997 106.639 359.238C106.057 359.48 105.432 359.604 104.802 359.604C104.171 359.604 103.547 359.48 102.964 359.238C102.382 358.997 101.852 358.643 101.406 358.197C100.961 357.751 100.607 357.222 100.366 356.639C100.124 356.057 100 355.432 100 354.802C100 354.171 100.124 353.547 100.366 352.964C100.607 352.382 100.961 351.852 101.406 351.406C101.852 350.961 102.382 350.607 102.964 350.366C103.547 350.124 104.171 350 104.802 350C105.432 350 106.057 350.124 106.639 350.366C107.222 350.607 107.751 350.961 108.197 351.406C108.643 351.852 108.997 352.382 109.238 352.964C109.48 353.547 109.604 354.171 109.604 354.802ZM59.6037 354.802C59.6037 355.432 59.4795 356.057 59.2382 356.639C58.9969 357.222 58.6432 357.751 58.1973 358.197C57.7514 358.643 57.222 358.997 56.6395 359.238C56.0569 359.48 55.4324 359.604 54.8019 359.604C54.1713 359.604 53.5469 359.48 52.9643 359.238C52.3817 358.997 51.8523 358.643 51.4064 358.197C50.9605 357.751 50.6068 357.222 50.3655 356.639C50.1242 356.057 50 355.432 50 354.802C50 354.171 50.1242 353.547 50.3655 352.964C50.6068 352.382 50.9605 351.852 51.4064 351.406C51.8523 350.961 52.3817 350.607 52.9643 350.366C53.5469 350.124 54.1713 350 54.8019 350C55.4324 350 56.0569 350.124 56.6395 350.366C57.222 350.607 57.7514 350.961 58.1973 351.406C58.6432 351.852 58.9969 352.382 59.2382 352.964C59.4795 353.547 59.6037 354.171 59.6037 354.802ZM9.60371 354.802C9.60371 355.432 9.47951 356.057 9.23819 356.639C8.99688 357.222 8.64318 357.751 8.19728 358.197C7.75139 358.643 7.22204 358.997 6.63945 359.238C6.05686 359.48 5.43245 359.604 4.80186 359.604C4.17127 359.604 3.54685 359.48 2.96426 359.238C2.38168 358.997 1.85232 358.643 1.40643 358.197C0.960536 357.751 0.606836 357.222 0.36552 356.639C0.124205 356.057 -5.77815e-07 355.432 0 354.802C-5.77815e-07 354.171 0.124205 353.547 0.36552 352.964C0.606836 352.382 0.960536 351.852 1.40643 351.406C1.85232 350.961 2.38168 350.607 2.96426 350.366C3.54685 350.124 4.17127 350 4.80186 350C5.43245 350 6.05686 350.124 6.63945 350.366C7.22204 350.607 7.75139 350.961 8.19728 351.406C8.64318 351.852 8.99688 352.382 9.23819 352.964C9.47951 353.547 9.60371 354.171 9.60371 354.802ZM509.604 304.802C509.604 305.432 509.48 306.057 509.238 306.639C508.997 307.222 508.643 307.751 508.197 308.197C507.751 308.643 507.222 308.997 506.639 309.238C506.057 309.48 505.432 309.604 504.802 309.604C504.171 309.604 503.547 309.48 502.964 309.238C502.382 308.997 501.852 308.643 501.406 308.197C500.961 307.751 500.607 307.222 500.366 306.639C500.124 306.057 500 305.432 500 304.802C500 304.171 500.124 303.547 500.366 302.964C500.607 302.382 500.961 301.852 501.406 301.406C501.852 300.961 502.382 300.607 502.964 300.366C503.547 300.124 504.171 300 504.802 300C505.432 300 506.057 300.124 506.639 300.366C507.222 300.607 507.751 300.961 508.197 301.406C508.643 301.852 508.997 302.382 509.238 302.964C509.48 303.547 509.604 304.171 509.604 304.802ZM459.604 304.802C459.604 305.432 459.479 306.057 459.238 306.639C458.997 307.222 458.643 307.751 458.197 308.197C457.751 308.643 457.222 308.997 456.639 309.238C456.057 309.48 455.432 309.604 454.802 309.604C454.171 309.604 453.547 309.48 452.964 309.238C452.382 308.997 451.852 308.643 451.406 308.197C450.961 307.751 450.607 307.222 450.366 306.639C450.124 306.057 450 305.432 450 304.802C450 304.171 450.124 303.547 450.366 302.964C450.607 302.382 450.961 301.852 451.406 301.406C451.852 300.961 452.382 300.607 452.964 300.366C453.547 300.124 454.171 300 454.802 300C455.432 300 456.057 300.124 456.639 300.366C457.222 300.607 457.751 300.961 458.197 301.406C458.643 301.852 458.997 302.382 459.238 302.964C459.479 303.547 459.604 304.171 459.604 304.802ZM409.604 304.802C409.604 305.432 409.479 306.057 409.238 306.639C408.997 307.222 408.643 307.751 408.197 308.197C407.751 308.643 407.222 308.997 406.639 309.238C406.057 309.48 405.432 309.604 404.802 309.604C404.171 309.604 403.547 309.48 402.964 309.238C402.382 308.997 401.852 308.643 401.406 308.197C400.961 307.751 400.607 307.222 400.366 306.639C400.124 306.057 400 305.432 400 304.802C400 304.171 400.124 303.547 400.366 302.964C400.607 302.382 400.961 301.852 401.406 301.406C401.852 300.961 402.382 300.607 402.964 300.366C403.547 300.124 404.171 300 404.802 300C405.432 300 406.057 300.124 406.639 300.366C407.222 300.607 407.751 300.961 408.197 301.406C408.643 301.852 408.997 302.382 409.238 302.964C409.479 303.547 409.604 304.171 409.604 304.802ZM359.604 304.802C359.604 305.432 359.479 306.057 359.238 306.639C358.997 307.222 358.643 307.751 358.197 308.197C357.751 308.643 357.222 308.997 356.639 309.238C356.057 309.48 355.432 309.604 354.802 309.604C354.171 309.604 353.547 309.48 352.964 309.238C352.382 308.997 351.852 308.643 351.406 308.197C350.961 307.751 350.607 307.222 350.366 306.639C350.124 306.057 350 305.432 350 304.802C350 304.171 350.124 303.547 350.366 302.964C350.607 302.382 350.961 301.852 351.406 301.406C351.852 300.961 352.382 300.607 352.964 300.366C353.547 300.124 354.171 300 354.802 300C355.432 300 356.057 300.124 356.639 300.366C357.222 300.607 357.751 300.961 358.197 301.406C358.643 301.852 358.997 302.382 359.238 302.964C359.479 303.547 359.604 304.171 359.604 304.802ZM309.604 304.802C309.604 305.432 309.479 306.057 309.238 306.639C308.997 307.222 308.643 307.751 308.197 308.197C307.751 308.643 307.222 308.997 306.639 309.238C306.057 309.48 305.432 309.604 304.802 309.604C304.171 309.604 303.547 309.48 302.964 309.238C302.382 308.997 301.852 308.643 301.406 308.197C300.961 307.751 300.607 307.222 300.366 306.639C300.124 306.057 300 305.432 300 304.802C300 304.171 300.124 303.547 300.366 302.964C300.607 302.382 300.961 301.852 301.406 301.406C301.852 300.961 302.382 300.607 302.964 300.366C303.547 300.124 304.171 300 304.802 300C305.432 300 306.057 300.124 306.639 300.366C307.222 300.607 307.751 300.961 308.197 301.406C308.643 301.852 308.997 302.382 309.238 302.964C309.479 303.547 309.604 304.171 309.604 304.802ZM259.604 304.802C259.604 305.432 259.479 306.057 259.238 306.639C258.997 307.222 258.643 307.751 258.197 308.197C257.751 308.643 257.222 308.997 256.639 309.238C256.057 309.48 255.432 309.604 254.802 309.604C254.171 309.604 253.547 309.48 252.964 309.238C252.382 308.997 251.852 308.643 251.406 308.197C250.961 307.751 250.607 307.222 250.366 306.639C250.124 306.057 250 305.432 250 304.802C250 304.171 250.124 303.547 250.366 302.964C250.607 302.382 250.961 301.852 251.406 301.406C251.852 300.961 252.382 300.607 252.964 300.366C253.547 300.124 254.171 300 254.802 300C255.432 300 256.057 300.124 256.639 300.366C257.222 300.607 257.751 300.961 258.197 301.406C258.643 301.852 258.997 302.382 259.238 302.964C259.479 303.547 259.604 304.171 259.604 304.802ZM209.604 304.802C209.604 305.432 209.48 306.057 209.238 306.639C208.997 307.222 208.643 307.751 208.197 308.197C207.751 308.643 207.222 308.997 206.639 309.238C206.057 309.48 205.432 309.604 204.802 309.604C204.171 309.604 203.547 309.48 202.964 309.238C202.382 308.997 201.852 308.643 201.406 308.197C200.961 307.751 200.607 307.222 200.366 306.639C200.124 306.057 200 305.432 200 304.802C200 304.171 200.124 303.547 200.366 302.964C200.607 302.382 200.961 301.852 201.406 301.406C201.852 300.961 202.382 300.607 202.964 300.366C203.547 300.124 204.171 300 204.802 300C205.432 300 206.057 300.124 206.639 300.366C207.222 300.607 207.751 300.961 208.197 301.406C208.643 301.852 208.997 302.382 209.238 302.964C209.48 303.547 209.604 304.171 209.604 304.802ZM159.604 304.802C159.604 305.432 159.48 306.057 159.238 306.639C158.997 307.222 158.643 307.751 158.197 308.197C157.751 308.643 157.222 308.997 156.639 309.238C156.057 309.48 155.432 309.604 154.802 309.604C154.171 309.604 153.547 309.48 152.964 309.238C152.382 308.997 151.852 308.643 151.406 308.197C150.961 307.751 150.607 307.222 150.366 306.639C150.124 306.057 150 305.432 150 304.802C150 304.171 150.124 303.547 150.366 302.964C150.607 302.382 150.961 301.852 151.406 301.406C151.852 300.961 152.382 300.607 152.964 300.366C153.547 300.124 154.171 300 154.802 300C155.432 300 156.057 300.124 156.639 300.366C157.222 300.607 157.751 300.961 158.197 301.406C158.643 301.852 158.997 302.382 159.238 302.964C159.48 303.547 159.604 304.171 159.604 304.802ZM109.604 304.802C109.604 305.432 109.48 306.057 109.238 306.639C108.997 307.222 108.643 307.751 108.197 308.197C107.751 308.643 107.222 308.997 106.639 309.238C106.057 309.48 105.432 309.604 104.802 309.604C104.171 309.604 103.547 309.48 102.964 309.238C102.382 308.997 101.852 308.643 101.406 308.197C100.961 307.751 100.607 307.222 100.366 306.639C100.124 306.057 100 305.432 100 304.802C100 304.171 100.124 303.547 100.366 302.964C100.607 302.382 100.961 301.852 101.406 301.406C101.852 300.961 102.382 300.607 102.964 300.366C103.547 300.124 104.171 300 104.802 300C105.432 300 106.057 300.124 106.639 300.366C107.222 300.607 107.751 300.961 108.197 301.406C108.643 301.852 108.997 302.382 109.238 302.964C109.48 303.547 109.604 304.171 109.604 304.802ZM59.6037 304.802C59.6037 305.432 59.4795 306.057 59.2382 306.639C58.9969 307.222 58.6432 307.751 58.1973 308.197C57.7514 308.643 57.222 308.997 56.6395 309.238C56.0569 309.48 55.4324 309.604 54.8019 309.604C54.1713 309.604 53.5469 309.48 52.9643 309.238C52.3817 308.997 51.8523 308.643 51.4064 308.197C50.9605 307.751 50.6068 307.222 50.3655 306.639C50.1242 306.057 50 305.432 50 304.802C50 304.171 50.1242 303.547 50.3655 302.964C50.6068 302.382 50.9605 301.852 51.4064 301.406C51.8523 300.961 52.3817 300.607 52.9643 300.366C53.5469 300.124 54.1713 300 54.8019 300C55.4324 300 56.0569 300.124 56.6395 300.366C57.222 300.607 57.7514 300.961 58.1973 301.406C58.6432 301.852 58.9969 302.382 59.2382 302.964C59.4795 303.547 59.6037 304.171 59.6037 304.802ZM9.60371 304.802C9.60371 305.432 9.47951 306.057 9.23819 306.639C8.99688 307.222 8.64318 307.751 8.19728 308.197C7.75139 308.643 7.22204 308.997 6.63945 309.238C6.05686 309.48 5.43245 309.604 4.80186 309.604C4.17127 309.604 3.54685 309.48 2.96426 309.238C2.38168 308.997 1.85232 308.643 1.40643 308.197C0.960536 307.751 0.606836 307.222 0.36552 306.639C0.124205 306.057 -5.77815e-07 305.432 0 304.802C-5.77815e-07 304.171 0.124205 303.547 0.36552 302.964C0.606836 302.382 0.960536 301.852 1.40643 301.406C1.85232 300.961 2.38168 300.607 2.96426 300.366C3.54685 300.124 4.17127 300 4.80186 300C5.43245 300 6.05686 300.124 6.63945 300.366C7.22204 300.607 7.75139 300.961 8.19728 301.406C8.64318 301.852 8.99688 302.382 9.23819 302.964C9.47951 303.547 9.60371 304.171 9.60371 304.802ZM509.604 254.802C509.604 255.432 509.48 256.057 509.238 256.639C508.997 257.222 508.643 257.751 508.197 258.197C507.751 258.643 507.222 258.997 506.639 259.238C506.057 259.48 505.432 259.604 504.802 259.604C504.171 259.604 503.547 259.48 502.964 259.238C502.382 258.997 501.852 258.643 501.406 258.197C500.961 257.751 500.607 257.222 500.366 256.639C500.124 256.057 500 255.432 500 254.802C500 254.171 500.124 253.547 500.366 252.964C500.607 252.382 500.961 251.852 501.406 251.406C501.852 250.961 502.382 250.607 502.964 250.366C503.547 250.124 504.171 250 504.802 250C505.432 250 506.057 250.124 506.639 250.366C507.222 250.607 507.751 250.961 508.197 251.406C508.643 251.852 508.997 252.382 509.238 252.964C509.48 253.547 509.604 254.171 509.604 254.802ZM459.604 254.802C459.604 255.432 459.479 256.057 459.238 256.639C458.997 257.222 458.643 257.751 458.197 258.197C457.751 258.643 457.222 258.997 456.639 259.238C456.057 259.48 455.432 259.604 454.802 259.604C454.171 259.604 453.547 259.48 452.964 259.238C452.382 258.997 451.852 258.643 451.406 258.197C450.961 257.751 450.607 257.222 450.366 256.639C450.124 256.057 450 255.432 450 254.802C450 254.171 450.124 253.547 450.366 252.964C450.607 252.382 450.961 251.852 451.406 251.406C451.852 250.961 452.382 250.607 452.964 250.366C453.547 250.124 454.171 250 454.802 250C455.432 250 456.057 250.124 456.639 250.366C457.222 250.607 457.751 250.961 458.197 251.406C458.643 251.852 458.997 252.382 459.238 252.964C459.479 253.547 459.604 254.171 459.604 254.802ZM409.604 254.802C409.604 255.432 409.479 256.057 409.238 256.639C408.997 257.222 408.643 257.751 408.197 258.197C407.751 258.643 407.222 258.997 406.639 259.238C406.057 259.48 405.432 259.604 404.802 259.604C404.171 259.604 403.547 259.48 402.964 259.238C402.382 258.997 401.852 258.643 401.406 258.197C400.961 257.751 400.607 257.222 400.366 256.639C400.124 256.057 400 255.432 400 254.802C400 254.171 400.124 253.547 400.366 252.964C400.607 252.382 400.961 251.852 401.406 251.406C401.852 250.961 402.382 250.607 402.964 250.366C403.547 250.124 404.171 250 404.802 250C405.432 250 406.057 250.124 406.639 250.366C407.222 250.607 407.751 250.961 408.197 251.406C408.643 251.852 408.997 252.382 409.238 252.964C409.479 253.547 409.604 254.171 409.604 254.802ZM359.604 254.802C359.604 255.432 359.479 256.057 359.238 256.639C358.997 257.222 358.643 257.751 358.197 258.197C357.751 258.643 357.222 258.997 356.639 259.238C356.057 259.48 355.432 259.604 354.802 259.604C354.171 259.604 353.547 259.48 352.964 259.238C352.382 258.997 351.852 258.643 351.406 258.197C350.961 257.751 350.607 257.222 350.366 256.639C350.124 256.057 350 255.432 350 254.802C350 254.171 350.124 253.547 350.366 252.964C350.607 252.382 350.961 251.852 351.406 251.406C351.852 250.961 352.382 250.607 352.964 250.366C353.547 250.124 354.171 250 354.802 250C355.432 250 356.057 250.124 356.639 250.366C357.222 250.607 357.751 250.961 358.197 251.406C358.643 251.852 358.997 252.382 359.238 252.964C359.479 253.547 359.604 254.171 359.604 254.802ZM309.604 254.802C309.604 255.432 309.479 256.057 309.238 256.639C308.997 257.222 308.643 257.751 308.197 258.197C307.751 258.643 307.222 258.997 306.639 259.238C306.057 259.48 305.432 259.604 304.802 259.604C304.171 259.604 303.547 259.48 302.964 259.238C302.382 258.997 301.852 258.643 301.406 258.197C300.961 257.751 300.607 257.222 300.366 256.639C300.124 256.057 300 255.432 300 254.802C300 254.171 300.124 253.547 300.366 252.964C300.607 252.382 300.961 251.852 301.406 251.406C301.852 250.961 302.382 250.607 302.964 250.366C303.547 250.124 304.171 250 304.802 250C305.432 250 306.057 250.124 306.639 250.366C307.222 250.607 307.751 250.961 308.197 251.406C308.643 251.852 308.997 252.382 309.238 252.964C309.479 253.547 309.604 254.171 309.604 254.802ZM259.604 254.802C259.604 255.432 259.479 256.057 259.238 256.639C258.997 257.222 258.643 257.751 258.197 258.197C257.751 258.643 257.222 258.997 256.639 259.238C256.057 259.48 255.432 259.604 254.802 259.604C254.171 259.604 253.547 259.48 252.964 259.238C252.382 258.997 251.852 258.643 251.406 258.197C250.961 257.751 250.607 257.222 250.366 256.639C250.124 256.057 250 255.432 250 254.802C250 254.171 250.124 253.547 250.366 252.964C250.607 252.382 250.961 251.852 251.406 251.406C251.852 250.961 252.382 250.607 252.964 250.366C253.547 250.124 254.171 250 254.802 250C255.432 250 256.057 250.124 256.639 250.366C257.222 250.607 257.751 250.961 258.197 251.406C258.643 251.852 258.997 252.382 259.238 252.964C259.479 253.547 259.604 254.171 259.604 254.802ZM209.604 254.802C209.604 255.432 209.48 256.057 209.238 256.639C208.997 257.222 208.643 257.751 208.197 258.197C207.751 258.643 207.222 258.997 206.639 259.238C206.057 259.48 205.432 259.604 204.802 259.604C204.171 259.604 203.547 259.48 202.964 259.238C202.382 258.997 201.852 258.643 201.406 258.197C200.961 257.751 200.607 257.222 200.366 256.639C200.124 256.057 200 255.432 200 254.802C200 254.171 200.124 253.547 200.366 252.964C200.607 252.382 200.961 251.852 201.406 251.406C201.852 250.961 202.382 250.607 202.964 250.366C203.547 250.124 204.171 250 204.802 250C205.432 250 206.057 250.124 206.639 250.366C207.222 250.607 207.751 250.961 208.197 251.406C208.643 251.852 208.997 252.382 209.238 252.964C209.48 253.547 209.604 254.171 209.604 254.802ZM159.604 254.802C159.604 255.432 159.48 256.057 159.238 256.639C158.997 257.222 158.643 257.751 158.197 258.197C157.751 258.643 157.222 258.997 156.639 259.238C156.057 259.48 155.432 259.604 154.802 259.604C154.171 259.604 153.547 259.48 152.964 259.238C152.382 258.997 151.852 258.643 151.406 258.197C150.961 257.751 150.607 257.222 150.366 256.639C150.124 256.057 150 255.432 150 254.802C150 254.171 150.124 253.547 150.366 252.964C150.607 252.382 150.961 251.852 151.406 251.406C151.852 250.961 152.382 250.607 152.964 250.366C153.547 250.124 154.171 250 154.802 250C155.432 250 156.057 250.124 156.639 250.366C157.222 250.607 157.751 250.961 158.197 251.406C158.643 251.852 158.997 252.382 159.238 252.964C159.48 253.547 159.604 254.171 159.604 254.802ZM109.604 254.802C109.604 255.432 109.48 256.057 109.238 256.639C108.997 257.222 108.643 257.751 108.197 258.197C107.751 258.643 107.222 258.997 106.639 259.238C106.057 259.48 105.432 259.604 104.802 259.604C104.171 259.604 103.547 259.48 102.964 259.238C102.382 258.997 101.852 258.643 101.406 258.197C100.961 257.751 100.607 257.222 100.366 256.639C100.124 256.057 100 255.432 100 254.802C100 254.171 100.124 253.547 100.366 252.964C100.607 252.382 100.961 251.852 101.406 251.406C101.852 250.961 102.382 250.607 102.964 250.366C103.547 250.124 104.171 250 104.802 250C105.432 250 106.057 250.124 106.639 250.366C107.222 250.607 107.751 250.961 108.197 251.406C108.643 251.852 108.997 252.382 109.238 252.964C109.48 253.547 109.604 254.171 109.604 254.802ZM59.6037 254.802C59.6037 255.432 59.4795 256.057 59.2382 256.639C58.9969 257.222 58.6432 257.751 58.1973 258.197C57.7514 258.643 57.222 258.997 56.6395 259.238C56.0569 259.48 55.4324 259.604 54.8019 259.604C54.1713 259.604 53.5469 259.48 52.9643 259.238C52.3817 258.997 51.8523 258.643 51.4064 258.197C50.9605 257.751 50.6068 257.222 50.3655 256.639C50.1242 256.057 50 255.432 50 254.802C50 254.171 50.1242 253.547 50.3655 252.964C50.6068 252.382 50.9605 251.852 51.4064 251.406C51.8523 250.961 52.3817 250.607 52.9643 250.366C53.5469 250.124 54.1713 250 54.8019 250C55.4324 250 56.0569 250.124 56.6395 250.366C57.222 250.607 57.7514 250.961 58.1973 251.406C58.6432 251.852 58.9969 252.382 59.2382 252.964C59.4795 253.547 59.6037 254.171 59.6037 254.802ZM9.60371 254.802C9.60371 255.432 9.47951 256.057 9.23819 256.639C8.99688 257.222 8.64318 257.751 8.19728 258.197C7.75139 258.643 7.22204 258.997 6.63945 259.238C6.05686 259.48 5.43245 259.604 4.80186 259.604C4.17127 259.604 3.54685 259.48 2.96426 259.238C2.38168 258.997 1.85232 258.643 1.40643 258.197C0.960536 257.751 0.606836 257.222 0.36552 256.639C0.124205 256.057 -5.77815e-07 255.432 0 254.802C-5.77815e-07 254.171 0.124205 253.547 0.36552 252.964C0.606836 252.382 0.960536 251.852 1.40643 251.406C1.85232 250.961 2.38168 250.607 2.96426 250.366C3.54685 250.124 4.17127 250 4.80186 250C5.43245 250 6.05686 250.124 6.63945 250.366C7.22204 250.607 7.75139 250.961 8.19728 251.406C8.64318 251.852 8.99688 252.382 9.23819 252.964C9.47951 253.547 9.60371 254.171 9.60371 254.802ZM509.604 204.802C509.604 205.432 509.48 206.057 509.238 206.639C508.997 207.222 508.643 207.751 508.197 208.197C507.751 208.643 507.222 208.997 506.639 209.238C506.057 209.48 505.432 209.604 504.802 209.604C504.171 209.604 503.547 209.48 502.964 209.238C502.382 208.997 501.852 208.643 501.406 208.197C500.961 207.751 500.607 207.222 500.366 206.639C500.124 206.057 500 205.432 500 204.802C500 204.171 500.124 203.547 500.366 202.964C500.607 202.382 500.961 201.852 501.406 201.406C501.852 200.961 502.382 200.607 502.964 200.366C503.547 200.124 504.171 200 504.802 200C505.432 200 506.057 200.124 506.639 200.366C507.222 200.607 507.751 200.961 508.197 201.406C508.643 201.852 508.997 202.382 509.238 202.964C509.48 203.547 509.604 204.171 509.604 204.802ZM459.604 204.802C459.604 205.432 459.479 206.057 459.238 206.639C458.997 207.222 458.643 207.751 458.197 208.197C457.751 208.643 457.222 208.997 456.639 209.238C456.057 209.48 455.432 209.604 454.802 209.604C454.171 209.604 453.547 209.48 452.964 209.238C452.382 208.997 451.852 208.643 451.406 208.197C450.961 207.751 450.607 207.222 450.366 206.639C450.124 206.057 450 205.432 450 204.802C450 204.171 450.124 203.547 450.366 202.964C450.607 202.382 450.961 201.852 451.406 201.406C451.852 200.961 452.382 200.607 452.964 200.366C453.547 200.124 454.171 200 454.802 200C455.432 200 456.057 200.124 456.639 200.366C457.222 200.607 457.751 200.961 458.197 201.406C458.643 201.852 458.997 202.382 459.238 202.964C459.479 203.547 459.604 204.171 459.604 204.802ZM409.604 204.802C409.604 205.432 409.479 206.057 409.238 206.639C408.997 207.222 408.643 207.751 408.197 208.197C407.751 208.643 407.222 208.997 406.639 209.238C406.057 209.48 405.432 209.604 404.802 209.604C404.171 209.604 403.547 209.48 402.964 209.238C402.382 208.997 401.852 208.643 401.406 208.197C400.961 207.751 400.607 207.222 400.366 206.639C400.124 206.057 400 205.432 400 204.802C400 204.171 400.124 203.547 400.366 202.964C400.607 202.382 400.961 201.852 401.406 201.406C401.852 200.961 402.382 200.607 402.964 200.366C403.547 200.124 404.171 200 404.802 200C405.432 200 406.057 200.124 406.639 200.366C407.222 200.607 407.751 200.961 408.197 201.406C408.643 201.852 408.997 202.382 409.238 202.964C409.479 203.547 409.604 204.171 409.604 204.802ZM359.604 204.802C359.604 205.432 359.479 206.057 359.238 206.639C358.997 207.222 358.643 207.751 358.197 208.197C357.751 208.643 357.222 208.997 356.639 209.238C356.057 209.48 355.432 209.604 354.802 209.604C354.171 209.604 353.547 209.48 352.964 209.238C352.382 208.997 351.852 208.643 351.406 208.197C350.961 207.751 350.607 207.222 350.366 206.639C350.124 206.057 350 205.432 350 204.802C350 204.171 350.124 203.547 350.366 202.964C350.607 202.382 350.961 201.852 351.406 201.406C351.852 200.961 352.382 200.607 352.964 200.366C353.547 200.124 354.171 200 354.802 200C355.432 200 356.057 200.124 356.639 200.366C357.222 200.607 357.751 200.961 358.197 201.406C358.643 201.852 358.997 202.382 359.238 202.964C359.479 203.547 359.604 204.171 359.604 204.802ZM309.604 204.802C309.604 205.432 309.479 206.057 309.238 206.639C308.997 207.222 308.643 207.751 308.197 208.197C307.751 208.643 307.222 208.997 306.639 209.238C306.057 209.48 305.432 209.604 304.802 209.604C304.171 209.604 303.547 209.48 302.964 209.238C302.382 208.997 301.852 208.643 301.406 208.197C300.961 207.751 300.607 207.222 300.366 206.639C300.124 206.057 300 205.432 300 204.802C300 204.171 300.124 203.547 300.366 202.964C300.607 202.382 300.961 201.852 301.406 201.406C301.852 200.961 302.382 200.607 302.964 200.366C303.547 200.124 304.171 200 304.802 200C305.432 200 306.057 200.124 306.639 200.366C307.222 200.607 307.751 200.961 308.197 201.406C308.643 201.852 308.997 202.382 309.238 202.964C309.479 203.547 309.604 204.171 309.604 204.802ZM259.604 204.802C259.604 205.432 259.479 206.057 259.238 206.639C258.997 207.222 258.643 207.751 258.197 208.197C257.751 208.643 257.222 208.997 256.639 209.238C256.057 209.48 255.432 209.604 254.802 209.604C254.171 209.604 253.547 209.48 252.964 209.238C252.382 208.997 251.852 208.643 251.406 208.197C250.961 207.751 250.607 207.222 250.366 206.639C250.124 206.057 250 205.432 250 204.802C250 204.171 250.124 203.547 250.366 202.964C250.607 202.382 250.961 201.852 251.406 201.406C251.852 200.961 252.382 200.607 252.964 200.366C253.547 200.124 254.171 200 254.802 200C255.432 200 256.057 200.124 256.639 200.366C257.222 200.607 257.751 200.961 258.197 201.406C258.643 201.852 258.997 202.382 259.238 202.964C259.479 203.547 259.604 204.171 259.604 204.802ZM209.604 204.802C209.604 205.432 209.48 206.057 209.238 206.639C208.997 207.222 208.643 207.751 208.197 208.197C207.751 208.643 207.222 208.997 206.639 209.238C206.057 209.48 205.432 209.604 204.802 209.604C204.171 209.604 203.547 209.48 202.964 209.238C202.382 208.997 201.852 208.643 201.406 208.197C200.961 207.751 200.607 207.222 200.366 206.639C200.124 206.057 200 205.432 200 204.802C200 204.171 200.124 203.547 200.366 202.964C200.607 202.382 200.961 201.852 201.406 201.406C201.852 200.961 202.382 200.607 202.964 200.366C203.547 200.124 204.171 200 204.802 200C205.432 200 206.057 200.124 206.639 200.366C207.222 200.607 207.751 200.961 208.197 201.406C208.643 201.852 208.997 202.382 209.238 202.964C209.48 203.547 209.604 204.171 209.604 204.802ZM159.604 204.802C159.604 205.432 159.48 206.057 159.238 206.639C158.997 207.222 158.643 207.751 158.197 208.197C157.751 208.643 157.222 208.997 156.639 209.238C156.057 209.48 155.432 209.604 154.802 209.604C154.171 209.604 153.547 209.48 152.964 209.238C152.382 208.997 151.852 208.643 151.406 208.197C150.961 207.751 150.607 207.222 150.366 206.639C150.124 206.057 150 205.432 150 204.802C150 204.171 150.124 203.547 150.366 202.964C150.607 202.382 150.961 201.852 151.406 201.406C151.852 200.961 152.382 200.607 152.964 200.366C153.547 200.124 154.171 200 154.802 200C155.432 200 156.057 200.124 156.639 200.366C157.222 200.607 157.751 200.961 158.197 201.406C158.643 201.852 158.997 202.382 159.238 202.964C159.48 203.547 159.604 204.171 159.604 204.802ZM109.604 204.802C109.604 205.432 109.48 206.057 109.238 206.639C108.997 207.222 108.643 207.751 108.197 208.197C107.751 208.643 107.222 208.997 106.639 209.238C106.057 209.48 105.432 209.604 104.802 209.604C104.171 209.604 103.547 209.48 102.964 209.238C102.382 208.997 101.852 208.643 101.406 208.197C100.961 207.751 100.607 207.222 100.366 206.639C100.124 206.057 100 205.432 100 204.802C100 204.171 100.124 203.547 100.366 202.964C100.607 202.382 100.961 201.852 101.406 201.406C101.852 200.961 102.382 200.607 102.964 200.366C103.547 200.124 104.171 200 104.802 200C105.432 200 106.057 200.124 106.639 200.366C107.222 200.607 107.751 200.961 108.197 201.406C108.643 201.852 108.997 202.382 109.238 202.964C109.48 203.547 109.604 204.171 109.604 204.802ZM59.6037 204.802C59.6037 205.432 59.4795 206.057 59.2382 206.639C58.9969 207.222 58.6432 207.751 58.1973 208.197C57.7514 208.643 57.222 208.997 56.6395 209.238C56.0569 209.48 55.4324 209.604 54.8019 209.604C54.1713 209.604 53.5469 209.48 52.9643 209.238C52.3817 208.997 51.8523 208.643 51.4064 208.197C50.9605 207.751 50.6068 207.222 50.3655 206.639C50.1242 206.057 50 205.432 50 204.802C50 204.171 50.1242 203.547 50.3655 202.964C50.6068 202.382 50.9605 201.852 51.4064 201.406C51.8523 200.961 52.3817 200.607 52.9643 200.366C53.5469 200.124 54.1713 200 54.8019 200C55.4324 200 56.0569 200.124 56.6395 200.366C57.222 200.607 57.7514 200.961 58.1973 201.406C58.6432 201.852 58.9969 202.382 59.2382 202.964C59.4795 203.547 59.6037 204.171 59.6037 204.802ZM9.60371 204.802C9.60371 205.432 9.47951 206.057 9.23819 206.639C8.99688 207.222 8.64318 207.751 8.19728 208.197C7.75139 208.643 7.22204 208.997 6.63945 209.238C6.05686 209.48 5.43245 209.604 4.80186 209.604C4.17127 209.604 3.54685 209.48 2.96426 209.238C2.38168 208.997 1.85232 208.643 1.40643 208.197C0.960536 207.751 0.606836 207.222 0.36552 206.639C0.124205 206.057 -5.77815e-07 205.432 0 204.802C-5.77815e-07 204.171 0.124205 203.547 0.36552 202.964C0.606836 202.382 0.960536 201.852 1.40643 201.406C1.85232 200.961 2.38168 200.607 2.96426 200.366C3.54685 200.124 4.17127 200 4.80186 200C5.43245 200 6.05686 200.124 6.63945 200.366C7.22204 200.607 7.75139 200.961 8.19728 201.406C8.64318 201.852 8.99688 202.382 9.23819 202.964C9.47951 203.547 9.60371 204.171 9.60371 204.802ZM509.604 154.802C509.604 155.432 509.48 156.057 509.238 156.639C508.997 157.222 508.643 157.751 508.197 158.197C507.751 158.643 507.222 158.997 506.639 159.238C506.057 159.48 505.432 159.604 504.802 159.604C504.171 159.604 503.547 159.48 502.964 159.238C502.382 158.997 501.852 158.643 501.406 158.197C500.961 157.751 500.607 157.222 500.366 156.639C500.124 156.057 500 155.432 500 154.802C500 154.171 500.124 153.547 500.366 152.964C500.607 152.382 500.961 151.852 501.406 151.406C501.852 150.961 502.382 150.607 502.964 150.366C503.547 150.124 504.171 150 504.802 150C505.432 150 506.057 150.124 506.639 150.366C507.222 150.607 507.751 150.961 508.197 151.406C508.643 151.852 508.997 152.382 509.238 152.964C509.48 153.547 509.604 154.171 509.604 154.802ZM459.604 154.802C459.604 155.432 459.479 156.057 459.238 156.639C458.997 157.222 458.643 157.751 458.197 158.197C457.751 158.643 457.222 158.997 456.639 159.238C456.057 159.48 455.432 159.604 454.802 159.604C454.171 159.604 453.547 159.48 452.964 159.238C452.382 158.997 451.852 158.643 451.406 158.197C450.961 157.751 450.607 157.222 450.366 156.639C450.124 156.057 450 155.432 450 154.802C450 154.171 450.124 153.547 450.366 152.964C450.607 152.382 450.961 151.852 451.406 151.406C451.852 150.961 452.382 150.607 452.964 150.366C453.547 150.124 454.171 150 454.802 150C455.432 150 456.057 150.124 456.639 150.366C457.222 150.607 457.751 150.961 458.197 151.406C458.643 151.852 458.997 152.382 459.238 152.964C459.479 153.547 459.604 154.171 459.604 154.802ZM409.604 154.802C409.604 155.432 409.479 156.057 409.238 156.639C408.997 157.222 408.643 157.751 408.197 158.197C407.751 158.643 407.222 158.997 406.639 159.238C406.057 159.48 405.432 159.604 404.802 159.604C404.171 159.604 403.547 159.48 402.964 159.238C402.382 158.997 401.852 158.643 401.406 158.197C400.961 157.751 400.607 157.222 400.366 156.639C400.124 156.057 400 155.432 400 154.802C400 154.171 400.124 153.547 400.366 152.964C400.607 152.382 400.961 151.852 401.406 151.406C401.852 150.961 402.382 150.607 402.964 150.366C403.547 150.124 404.171 150 404.802 150C405.432 150 406.057 150.124 406.639 150.366C407.222 150.607 407.751 150.961 408.197 151.406C408.643 151.852 408.997 152.382 409.238 152.964C409.479 153.547 409.604 154.171 409.604 154.802ZM359.604 154.802C359.604 155.432 359.479 156.057 359.238 156.639C358.997 157.222 358.643 157.751 358.197 158.197C357.751 158.643 357.222 158.997 356.639 159.238C356.057 159.48 355.432 159.604 354.802 159.604C354.171 159.604 353.547 159.48 352.964 159.238C352.382 158.997 351.852 158.643 351.406 158.197C350.961 157.751 350.607 157.222 350.366 156.639C350.124 156.057 350 155.432 350 154.802C350 154.171 350.124 153.547 350.366 152.964C350.607 152.382 350.961 151.852 351.406 151.406C351.852 150.961 352.382 150.607 352.964 150.366C353.547 150.124 354.171 150 354.802 150C355.432 150 356.057 150.124 356.639 150.366C357.222 150.607 357.751 150.961 358.197 151.406C358.643 151.852 358.997 152.382 359.238 152.964C359.479 153.547 359.604 154.171 359.604 154.802ZM309.604 154.802C309.604 155.432 309.479 156.057 309.238 156.639C308.997 157.222 308.643 157.751 308.197 158.197C307.751 158.643 307.222 158.997 306.639 159.238C306.057 159.48 305.432 159.604 304.802 159.604C304.171 159.604 303.547 159.48 302.964 159.238C302.382 158.997 301.852 158.643 301.406 158.197C300.961 157.751 300.607 157.222 300.366 156.639C300.124 156.057 300 155.432 300 154.802C300 154.171 300.124 153.547 300.366 152.964C300.607 152.382 300.961 151.852 301.406 151.406C301.852 150.961 302.382 150.607 302.964 150.366C303.547 150.124 304.171 150 304.802 150C305.432 150 306.057 150.124 306.639 150.366C307.222 150.607 307.751 150.961 308.197 151.406C308.643 151.852 308.997 152.382 309.238 152.964C309.479 153.547 309.604 154.171 309.604 154.802ZM259.604 154.802C259.604 155.432 259.479 156.057 259.238 156.639C258.997 157.222 258.643 157.751 258.197 158.197C257.751 158.643 257.222 158.997 256.639 159.238C256.057 159.48 255.432 159.604 254.802 159.604C254.171 159.604 253.547 159.48 252.964 159.238C252.382 158.997 251.852 158.643 251.406 158.197C250.961 157.751 250.607 157.222 250.366 156.639C250.124 156.057 250 155.432 250 154.802C250 154.171 250.124 153.547 250.366 152.964C250.607 152.382 250.961 151.852 251.406 151.406C251.852 150.961 252.382 150.607 252.964 150.366C253.547 150.124 254.171 150 254.802 150C255.432 150 256.057 150.124 256.639 150.366C257.222 150.607 257.751 150.961 258.197 151.406C258.643 151.852 258.997 152.382 259.238 152.964C259.479 153.547 259.604 154.171 259.604 154.802ZM209.604 154.802C209.604 155.432 209.48 156.057 209.238 156.639C208.997 157.222 208.643 157.751 208.197 158.197C207.751 158.643 207.222 158.997 206.639 159.238C206.057 159.48 205.432 159.604 204.802 159.604C204.171 159.604 203.547 159.48 202.964 159.238C202.382 158.997 201.852 158.643 201.406 158.197C200.961 157.751 200.607 157.222 200.366 156.639C200.124 156.057 200 155.432 200 154.802C200 154.171 200.124 153.547 200.366 152.964C200.607 152.382 200.961 151.852 201.406 151.406C201.852 150.961 202.382 150.607 202.964 150.366C203.547 150.124 204.171 150 204.802 150C205.432 150 206.057 150.124 206.639 150.366C207.222 150.607 207.751 150.961 208.197 151.406C208.643 151.852 208.997 152.382 209.238 152.964C209.48 153.547 209.604 154.171 209.604 154.802ZM159.604 154.802C159.604 155.432 159.48 156.057 159.238 156.639C158.997 157.222 158.643 157.751 158.197 158.197C157.751 158.643 157.222 158.997 156.639 159.238C156.057 159.48 155.432 159.604 154.802 159.604C154.171 159.604 153.547 159.48 152.964 159.238C152.382 158.997 151.852 158.643 151.406 158.197C150.961 157.751 150.607 157.222 150.366 156.639C150.124 156.057 150 155.432 150 154.802C150 154.171 150.124 153.547 150.366 152.964C150.607 152.382 150.961 151.852 151.406 151.406C151.852 150.961 152.382 150.607 152.964 150.366C153.547 150.124 154.171 150 154.802 150C155.432 150 156.057 150.124 156.639 150.366C157.222 150.607 157.751 150.961 158.197 151.406C158.643 151.852 158.997 152.382 159.238 152.964C159.48 153.547 159.604 154.171 159.604 154.802ZM109.604 154.802C109.604 155.432 109.48 156.057 109.238 156.639C108.997 157.222 108.643 157.751 108.197 158.197C107.751 158.643 107.222 158.997 106.639 159.238C106.057 159.48 105.432 159.604 104.802 159.604C104.171 159.604 103.547 159.48 102.964 159.238C102.382 158.997 101.852 158.643 101.406 158.197C100.961 157.751 100.607 157.222 100.366 156.639C100.124 156.057 100 155.432 100 154.802C100 154.171 100.124 153.547 100.366 152.964C100.607 152.382 100.961 151.852 101.406 151.406C101.852 150.961 102.382 150.607 102.964 150.366C103.547 150.124 104.171 150 104.802 150C105.432 150 106.057 150.124 106.639 150.366C107.222 150.607 107.751 150.961 108.197 151.406C108.643 151.852 108.997 152.382 109.238 152.964C109.48 153.547 109.604 154.171 109.604 154.802ZM59.6037 154.802C59.6037 155.432 59.4795 156.057 59.2382 156.639C58.9969 157.222 58.6432 157.751 58.1973 158.197C57.7514 158.643 57.222 158.997 56.6395 159.238C56.0569 159.48 55.4324 159.604 54.8019 159.604C54.1713 159.604 53.5469 159.48 52.9643 159.238C52.3817 158.997 51.8523 158.643 51.4064 158.197C50.9605 157.751 50.6068 157.222 50.3655 156.639C50.1242 156.057 50 155.432 50 154.802C50 154.171 50.1242 153.547 50.3655 152.964C50.6068 152.382 50.9605 151.852 51.4064 151.406C51.8523 150.961 52.3817 150.607 52.9643 150.366C53.5469 150.124 54.1713 150 54.8019 150C55.4324 150 56.0569 150.124 56.6395 150.366C57.222 150.607 57.7514 150.961 58.1973 151.406C58.6432 151.852 58.9969 152.382 59.2382 152.964C59.4795 153.547 59.6037 154.171 59.6037 154.802ZM9.60371 154.802C9.60371 155.432 9.47951 156.057 9.23819 156.639C8.99688 157.222 8.64318 157.751 8.19728 158.197C7.75139 158.643 7.22204 158.997 6.63945 159.238C6.05686 159.48 5.43245 159.604 4.80186 159.604C4.17127 159.604 3.54685 159.48 2.96426 159.238C2.38168 158.997 1.85232 158.643 1.40643 158.197C0.960536 157.751 0.606836 157.222 0.36552 156.639C0.124205 156.057 -5.77815e-07 155.432 0 154.802C-5.77815e-07 154.171 0.124205 153.547 0.36552 152.964C0.606836 152.382 0.960536 151.852 1.40643 151.406C1.85232 150.961 2.38168 150.607 2.96426 150.366C3.54685 150.124 4.17127 150 4.80186 150C5.43245 150 6.05686 150.124 6.63945 150.366C7.22204 150.607 7.75139 150.961 8.19728 151.406C8.64318 151.852 8.99688 152.382 9.23819 152.964C9.47951 153.547 9.60371 154.171 9.60371 154.802ZM509.604 104.802C509.604 105.432 509.48 106.057 509.238 106.639C508.997 107.222 508.643 107.751 508.197 108.197C507.751 108.643 507.222 108.997 506.639 109.238C506.057 109.48 505.432 109.604 504.802 109.604C504.171 109.604 503.547 109.48 502.964 109.238C502.382 108.997 501.852 108.643 501.406 108.197C500.961 107.751 500.607 107.222 500.366 106.639C500.124 106.057 500 105.432 500 104.802C500 104.171 500.124 103.547 500.366 102.964C500.607 102.382 500.961 101.852 501.406 101.406C501.852 100.961 502.382 100.607 502.964 100.366C503.547 100.124 504.171 100 504.802 100C505.432 100 506.057 100.124 506.639 100.366C507.222 100.607 507.751 100.961 508.197 101.406C508.643 101.852 508.997 102.382 509.238 102.964C509.48 103.547 509.604 104.171 509.604 104.802ZM459.604 104.802C459.604 105.432 459.479 106.057 459.238 106.639C458.997 107.222 458.643 107.751 458.197 108.197C457.751 108.643 457.222 108.997 456.639 109.238C456.057 109.48 455.432 109.604 454.802 109.604C454.171 109.604 453.547 109.48 452.964 109.238C452.382 108.997 451.852 108.643 451.406 108.197C450.961 107.751 450.607 107.222 450.366 106.639C450.124 106.057 450 105.432 450 104.802C450 104.171 450.124 103.547 450.366 102.964C450.607 102.382 450.961 101.852 451.406 101.406C451.852 100.961 452.382 100.607 452.964 100.366C453.547 100.124 454.171 100 454.802 100C455.432 100 456.057 100.124 456.639 100.366C457.222 100.607 457.751 100.961 458.197 101.406C458.643 101.852 458.997 102.382 459.238 102.964C459.479 103.547 459.604 104.171 459.604 104.802ZM409.604 104.802C409.604 105.432 409.479 106.057 409.238 106.639C408.997 107.222 408.643 107.751 408.197 108.197C407.751 108.643 407.222 108.997 406.639 109.238C406.057 109.48 405.432 109.604 404.802 109.604C404.171 109.604 403.547 109.48 402.964 109.238C402.382 108.997 401.852 108.643 401.406 108.197C400.961 107.751 400.607 107.222 400.366 106.639C400.124 106.057 400 105.432 400 104.802C400 104.171 400.124 103.547 400.366 102.964C400.607 102.382 400.961 101.852 401.406 101.406C401.852 100.961 402.382 100.607 402.964 100.366C403.547 100.124 404.171 100 404.802 100C405.432 100 406.057 100.124 406.639 100.366C407.222 100.607 407.751 100.961 408.197 101.406C408.643 101.852 408.997 102.382 409.238 102.964C409.479 103.547 409.604 104.171 409.604 104.802ZM359.604 104.802C359.604 105.432 359.479 106.057 359.238 106.639C358.997 107.222 358.643 107.751 358.197 108.197C357.751 108.643 357.222 108.997 356.639 109.238C356.057 109.48 355.432 109.604 354.802 109.604C354.171 109.604 353.547 109.48 352.964 109.238C352.382 108.997 351.852 108.643 351.406 108.197C350.961 107.751 350.607 107.222 350.366 106.639C350.124 106.057 350 105.432 350 104.802C350 104.171 350.124 103.547 350.366 102.964C350.607 102.382 350.961 101.852 351.406 101.406C351.852 100.961 352.382 100.607 352.964 100.366C353.547 100.124 354.171 100 354.802 100C355.432 100 356.057 100.124 356.639 100.366C357.222 100.607 357.751 100.961 358.197 101.406C358.643 101.852 358.997 102.382 359.238 102.964C359.479 103.547 359.604 104.171 359.604 104.802ZM309.604 104.802C309.604 105.432 309.479 106.057 309.238 106.639C308.997 107.222 308.643 107.751 308.197 108.197C307.751 108.643 307.222 108.997 306.639 109.238C306.057 109.48 305.432 109.604 304.802 109.604C304.171 109.604 303.547 109.48 302.964 109.238C302.382 108.997 301.852 108.643 301.406 108.197C300.961 107.751 300.607 107.222 300.366 106.639C300.124 106.057 300 105.432 300 104.802C300 104.171 300.124 103.547 300.366 102.964C300.607 102.382 300.961 101.852 301.406 101.406C301.852 100.961 302.382 100.607 302.964 100.366C303.547 100.124 304.171 100 304.802 100C305.432 100 306.057 100.124 306.639 100.366C307.222 100.607 307.751 100.961 308.197 101.406C308.643 101.852 308.997 102.382 309.238 102.964C309.479 103.547 309.604 104.171 309.604 104.802ZM259.604 104.802C259.604 105.432 259.479 106.057 259.238 106.639C258.997 107.222 258.643 107.751 258.197 108.197C257.751 108.643 257.222 108.997 256.639 109.238C256.057 109.48 255.432 109.604 254.802 109.604C254.171 109.604 253.547 109.48 252.964 109.238C252.382 108.997 251.852 108.643 251.406 108.197C250.961 107.751 250.607 107.222 250.366 106.639C250.124 106.057 250 105.432 250 104.802C250 104.171 250.124 103.547 250.366 102.964C250.607 102.382 250.961 101.852 251.406 101.406C251.852 100.961 252.382 100.607 252.964 100.366C253.547 100.124 254.171 100 254.802 100C255.432 100 256.057 100.124 256.639 100.366C257.222 100.607 257.751 100.961 258.197 101.406C258.643 101.852 258.997 102.382 259.238 102.964C259.479 103.547 259.604 104.171 259.604 104.802ZM209.604 104.802C209.604 105.432 209.48 106.057 209.238 106.639C208.997 107.222 208.643 107.751 208.197 108.197C207.751 108.643 207.222 108.997 206.639 109.238C206.057 109.48 205.432 109.604 204.802 109.604C204.171 109.604 203.547 109.48 202.964 109.238C202.382 108.997 201.852 108.643 201.406 108.197C200.961 107.751 200.607 107.222 200.366 106.639C200.124 106.057 200 105.432 200 104.802C200 104.171 200.124 103.547 200.366 102.964C200.607 102.382 200.961 101.852 201.406 101.406C201.852 100.961 202.382 100.607 202.964 100.366C203.547 100.124 204.171 100 204.802 100C205.432 100 206.057 100.124 206.639 100.366C207.222 100.607 207.751 100.961 208.197 101.406C208.643 101.852 208.997 102.382 209.238 102.964C209.48 103.547 209.604 104.171 209.604 104.802ZM159.604 104.802C159.604 105.432 159.48 106.057 159.238 106.639C158.997 107.222 158.643 107.751 158.197 108.197C157.751 108.643 157.222 108.997 156.639 109.238C156.057 109.48 155.432 109.604 154.802 109.604C154.171 109.604 153.547 109.48 152.964 109.238C152.382 108.997 151.852 108.643 151.406 108.197C150.961 107.751 150.607 107.222 150.366 106.639C150.124 106.057 150 105.432 150 104.802C150 104.171 150.124 103.547 150.366 102.964C150.607 102.382 150.961 101.852 151.406 101.406C151.852 100.961 152.382 100.607 152.964 100.366C153.547 100.124 154.171 100 154.802 100C155.432 100 156.057 100.124 156.639 100.366C157.222 100.607 157.751 100.961 158.197 101.406C158.643 101.852 158.997 102.382 159.238 102.964C159.48 103.547 159.604 104.171 159.604 104.802ZM109.604 104.802C109.604 105.432 109.48 106.057 109.238 106.639C108.997 107.222 108.643 107.751 108.197 108.197C107.751 108.643 107.222 108.997 106.639 109.238C106.057 109.48 105.432 109.604 104.802 109.604C104.171 109.604 103.547 109.48 102.964 109.238C102.382 108.997 101.852 108.643 101.406 108.197C100.961 107.751 100.607 107.222 100.366 106.639C100.124 106.057 100 105.432 100 104.802C100 104.171 100.124 103.547 100.366 102.964C100.607 102.382 100.961 101.852 101.406 101.406C101.852 100.961 102.382 100.607 102.964 100.366C103.547 100.124 104.171 100 104.802 100C105.432 100 106.057 100.124 106.639 100.366C107.222 100.607 107.751 100.961 108.197 101.406C108.643 101.852 108.997 102.382 109.238 102.964C109.48 103.547 109.604 104.171 109.604 104.802ZM59.6037 104.802C59.6037 105.432 59.4795 106.057 59.2382 106.639C58.9969 107.222 58.6432 107.751 58.1973 108.197C57.7514 108.643 57.222 108.997 56.6395 109.238C56.0569 109.48 55.4324 109.604 54.8019 109.604C54.1713 109.604 53.5469 109.48 52.9643 109.238C52.3817 108.997 51.8523 108.643 51.4064 108.197C50.9605 107.751 50.6068 107.222 50.3655 106.639C50.1242 106.057 50 105.432 50 104.802C50 104.171 50.1242 103.547 50.3655 102.964C50.6068 102.382 50.9605 101.852 51.4064 101.406C51.8523 100.961 52.3817 100.607 52.9643 100.366C53.5469 100.124 54.1713 100 54.8019 100C55.4324 100 56.0569 100.124 56.6395 100.366C57.222 100.607 57.7514 100.961 58.1973 101.406C58.6432 101.852 58.9969 102.382 59.2382 102.964C59.4795 103.547 59.6037 104.171 59.6037 104.802ZM9.60371 104.802C9.60371 105.432 9.47951 106.057 9.23819 106.639C8.99688 107.222 8.64318 107.751 8.19728 108.197C7.75139 108.643 7.22204 108.997 6.63945 109.238C6.05686 109.48 5.43245 109.604 4.80186 109.604C4.17127 109.604 3.54685 109.48 2.96426 109.238C2.38168 108.997 1.85232 108.643 1.40643 108.197C0.960536 107.751 0.606836 107.222 0.36552 106.639C0.124205 106.057 -5.77815e-07 105.432 0 104.802C-5.77815e-07 104.171 0.124205 103.547 0.36552 102.964C0.606836 102.382 0.960536 101.852 1.40643 101.406C1.85232 100.961 2.38168 100.607 2.96426 100.366C3.54685 100.124 4.17127 100 4.80186 100C5.43245 100 6.05686 100.124 6.63945 100.366C7.22204 100.607 7.75139 100.961 8.19728 101.406C8.64318 101.852 8.99688 102.382 9.23819 102.964C9.47951 103.547 9.60371 104.171 9.60371 104.802ZM509.604 54.8019C509.604 55.4325 509.48 56.0569 509.238 56.6395C508.997 57.2221 508.643 57.7514 508.197 58.1973C507.751 58.6432 507.222 58.9969 506.639 59.2382C506.057 59.4795 505.432 59.6037 504.802 59.6037C504.171 59.6037 503.547 59.4795 502.964 59.2382C502.382 58.9969 501.852 58.6432 501.406 58.1973C500.961 57.7514 500.607 57.2221 500.366 56.6395C500.124 56.0569 500 55.4325 500 54.8019C500 54.1713 500.124 53.5469 500.366 52.9643C500.607 52.3817 500.961 51.8524 501.406 51.4065C501.852 50.9606 502.382 50.6069 502.964 50.3655C503.547 50.1242 504.171 50 504.802 50C505.432 50 506.057 50.1242 506.639 50.3655C507.222 50.6069 507.751 50.9606 508.197 51.4065C508.643 51.8524 508.997 52.3817 509.238 52.9643C509.48 53.5469 509.604 54.1713 509.604 54.8019ZM459.604 54.8019C459.604 55.4325 459.479 56.0569 459.238 56.6395C458.997 57.2221 458.643 57.7514 458.197 58.1973C457.751 58.6432 457.222 58.9969 456.639 59.2382C456.057 59.4795 455.432 59.6037 454.802 59.6037C454.171 59.6037 453.547 59.4795 452.964 59.2382C452.382 58.9969 451.852 58.6432 451.406 58.1973C450.961 57.7514 450.607 57.2221 450.366 56.6395C450.124 56.0569 450 55.4325 450 54.8019C450 54.1713 450.124 53.5469 450.366 52.9643C450.607 52.3817 450.961 51.8524 451.406 51.4065C451.852 50.9606 452.382 50.6069 452.964 50.3655C453.547 50.1242 454.171 50 454.802 50C455.432 50 456.057 50.1242 456.639 50.3655C457.222 50.6069 457.751 50.9606 458.197 51.4065C458.643 51.8524 458.997 52.3817 459.238 52.9643C459.479 53.5469 459.604 54.1713 459.604 54.8019ZM409.604 54.8019C409.604 55.4325 409.479 56.0569 409.238 56.6395C408.997 57.2221 408.643 57.7514 408.197 58.1973C407.751 58.6432 407.222 58.9969 406.639 59.2382C406.057 59.4795 405.432 59.6037 404.802 59.6037C404.171 59.6037 403.547 59.4795 402.964 59.2382C402.382 58.9969 401.852 58.6432 401.406 58.1973C400.961 57.7514 400.607 57.2221 400.366 56.6395C400.124 56.0569 400 55.4325 400 54.8019C400 54.1713 400.124 53.5469 400.366 52.9643C400.607 52.3817 400.961 51.8524 401.406 51.4065C401.852 50.9606 402.382 50.6069 402.964 50.3655C403.547 50.1242 404.171 50 404.802 50C405.432 50 406.057 50.1242 406.639 50.3655C407.222 50.6069 407.751 50.9606 408.197 51.4065C408.643 51.8524 408.997 52.3817 409.238 52.9643C409.479 53.5469 409.604 54.1713 409.604 54.8019ZM359.604 54.8019C359.604 55.4325 359.479 56.0569 359.238 56.6395C358.997 57.2221 358.643 57.7514 358.197 58.1973C357.751 58.6432 357.222 58.9969 356.639 59.2382C356.057 59.4795 355.432 59.6037 354.802 59.6037C354.171 59.6037 353.547 59.4795 352.964 59.2382C352.382 58.9969 351.852 58.6432 351.406 58.1973C350.961 57.7514 350.607 57.2221 350.366 56.6395C350.124 56.0569 350 55.4325 350 54.8019C350 54.1713 350.124 53.5469 350.366 52.9643C350.607 52.3817 350.961 51.8524 351.406 51.4065C351.852 50.9606 352.382 50.6069 352.964 50.3655C353.547 50.1242 354.171 50 354.802 50C355.432 50 356.057 50.1242 356.639 50.3655C357.222 50.6069 357.751 50.9606 358.197 51.4065C358.643 51.8524 358.997 52.3817 359.238 52.9643C359.479 53.5469 359.604 54.1713 359.604 54.8019ZM309.604 54.8019C309.604 55.4325 309.479 56.0569 309.238 56.6395C308.997 57.2221 308.643 57.7514 308.197 58.1973C307.751 58.6432 307.222 58.9969 306.639 59.2382C306.057 59.4795 305.432 59.6037 304.802 59.6037C304.171 59.6037 303.547 59.4795 302.964 59.2382C302.382 58.9969 301.852 58.6432 301.406 58.1973C300.961 57.7514 300.607 57.2221 300.366 56.6395C300.124 56.0569 300 55.4325 300 54.8019C300 54.1713 300.124 53.5469 300.366 52.9643C300.607 52.3817 300.961 51.8524 301.406 51.4065C301.852 50.9606 302.382 50.6069 302.964 50.3655C303.547 50.1242 304.171 50 304.802 50C305.432 50 306.057 50.1242 306.639 50.3655C307.222 50.6069 307.751 50.9606 308.197 51.4065C308.643 51.8524 308.997 52.3817 309.238 52.9643C309.479 53.5469 309.604 54.1713 309.604 54.8019ZM259.604 54.8019C259.604 55.4325 259.479 56.0569 259.238 56.6395C258.997 57.2221 258.643 57.7514 258.197 58.1973C257.751 58.6432 257.222 58.9969 256.639 59.2382C256.057 59.4795 255.432 59.6037 254.802 59.6037C254.171 59.6037 253.547 59.4795 252.964 59.2382C252.382 58.9969 251.852 58.6432 251.406 58.1973C250.961 57.7514 250.607 57.2221 250.366 56.6395C250.124 56.0569 250 55.4325 250 54.8019C250 54.1713 250.124 53.5469 250.366 52.9643C250.607 52.3817 250.961 51.8524 251.406 51.4065C251.852 50.9606 252.382 50.6069 252.964 50.3655C253.547 50.1242 254.171 50 254.802 50C255.432 50 256.057 50.1242 256.639 50.3655C257.222 50.6069 257.751 50.9606 258.197 51.4065C258.643 51.8524 258.997 52.3817 259.238 52.9643C259.479 53.5469 259.604 54.1713 259.604 54.8019ZM209.604 54.8019C209.604 55.4325 209.48 56.0569 209.238 56.6395C208.997 57.2221 208.643 57.7514 208.197 58.1973C207.751 58.6432 207.222 58.9969 206.639 59.2382C206.057 59.4795 205.432 59.6037 204.802 59.6037C204.171 59.6037 203.547 59.4795 202.964 59.2382C202.382 58.9969 201.852 58.6432 201.406 58.1973C200.961 57.7514 200.607 57.2221 200.366 56.6395C200.124 56.0569 200 55.4325 200 54.8019C200 54.1713 200.124 53.5469 200.366 52.9643C200.607 52.3817 200.961 51.8524 201.406 51.4065C201.852 50.9606 202.382 50.6069 202.964 50.3655C203.547 50.1242 204.171 50 204.802 50C205.432 50 206.057 50.1242 206.639 50.3655C207.222 50.6069 207.751 50.9606 208.197 51.4065C208.643 51.8524 208.997 52.3817 209.238 52.9643C209.48 53.5469 209.604 54.1713 209.604 54.8019ZM159.604 54.8019C159.604 55.4325 159.48 56.0569 159.238 56.6395C158.997 57.2221 158.643 57.7514 158.197 58.1973C157.751 58.6432 157.222 58.9969 156.639 59.2382C156.057 59.4795 155.432 59.6037 154.802 59.6037C154.171 59.6037 153.547 59.4795 152.964 59.2382C152.382 58.9969 151.852 58.6432 151.406 58.1973C150.961 57.7514 150.607 57.2221 150.366 56.6395C150.124 56.0569 150 55.4325 150 54.8019C150 54.1713 150.124 53.5469 150.366 52.9643C150.607 52.3817 150.961 51.8524 151.406 51.4065C151.852 50.9606 152.382 50.6069 152.964 50.3655C153.547 50.1242 154.171 50 154.802 50C155.432 50 156.057 50.1242 156.639 50.3655C157.222 50.6069 157.751 50.9606 158.197 51.4065C158.643 51.8524 158.997 52.3817 159.238 52.9643C159.48 53.5469 159.604 54.1713 159.604 54.8019ZM109.604 54.8019C109.604 55.4325 109.48 56.0569 109.238 56.6395C108.997 57.2221 108.643 57.7514 108.197 58.1973C107.751 58.6432 107.222 58.9969 106.639 59.2382C106.057 59.4795 105.432 59.6037 104.802 59.6037C104.171 59.6037 103.547 59.4795 102.964 59.2382C102.382 58.9969 101.852 58.6432 101.406 58.1973C100.961 57.7514 100.607 57.2221 100.366 56.6395C100.124 56.0569 100 55.4325 100 54.8019C100 54.1713 100.124 53.5469 100.366 52.9643C100.607 52.3817 100.961 51.8524 101.406 51.4065C101.852 50.9606 102.382 50.6069 102.964 50.3655C103.547 50.1242 104.171 50 104.802 50C105.432 50 106.057 50.1242 106.639 50.3655C107.222 50.6069 107.751 50.9606 108.197 51.4065C108.643 51.8524 108.997 52.3817 109.238 52.9643C109.48 53.5469 109.604 54.1713 109.604 54.8019ZM59.6037 54.8019C59.6037 55.4325 59.4795 56.0569 59.2382 56.6395C58.9969 57.2221 58.6432 57.7514 58.1973 58.1973C57.7514 58.6432 57.222 58.9969 56.6395 59.2382C56.0569 59.4795 55.4324 59.6037 54.8019 59.6037C54.1713 59.6037 53.5469 59.4795 52.9643 59.2382C52.3817 58.9969 51.8523 58.6432 51.4064 58.1973C50.9605 57.7514 50.6068 57.2221 50.3655 56.6395C50.1242 56.0569 50 55.4325 50 54.8019C50 54.1713 50.1242 53.5469 50.3655 52.9643C50.6068 52.3817 50.9605 51.8524 51.4064 51.4065C51.8523 50.9606 52.3817 50.6069 52.9643 50.3655C53.5469 50.1242 54.1713 50 54.8019 50C55.4324 50 56.0569 50.1242 56.6395 50.3655C57.222 50.6069 57.7514 50.9606 58.1973 51.4065C58.6432 51.8524 58.9969 52.3817 59.2382 52.9643C59.4795 53.5469 59.6037 54.1713 59.6037 54.8019ZM9.60371 54.8019C9.60371 55.4325 9.47951 56.0569 9.23819 56.6395C8.99688 57.2221 8.64318 57.7514 8.19728 58.1973C7.75139 58.6432 7.22204 58.9969 6.63945 59.2382C6.05686 59.4795 5.43245 59.6037 4.80186 59.6037C4.17127 59.6037 3.54685 59.4795 2.96426 59.2382C2.38168 58.9969 1.85232 58.6432 1.40643 58.1973C0.960536 57.7514 0.606836 57.2221 0.36552 56.6395C0.124205 56.0569 -5.77815e-07 55.4325 0 54.8019C-5.77815e-07 54.1713 0.124205 53.5469 0.36552 52.9643C0.606836 52.3817 0.960536 51.8524 1.40643 51.4065C1.85232 50.9606 2.38168 50.6069 2.96426 50.3655C3.54685 50.1242 4.17127 50 4.80186 50C5.43245 50 6.05686 50.1242 6.63945 50.3655C7.22204 50.6069 7.75139 50.9606 8.19728 51.4065C8.64318 51.8524 8.99688 52.3817 9.23819 52.9643C9.47951 53.5469 9.60371 54.1713 9.60371 54.8019ZM509.604 4.80188C509.604 5.43247 509.48 6.05688 509.238 6.63947C508.997 7.22205 508.643 7.75143 508.197 8.19733C507.751 8.64322 507.222 8.9969 506.639 9.23822C506.057 9.47954 505.432 9.60376 504.802 9.60376C504.171 9.60376 503.547 9.47954 502.964 9.23822C502.382 8.9969 501.852 8.64322 501.406 8.19733C500.961 7.75143 500.607 7.22205 500.366 6.63947C500.124 6.05688 500 5.43247 500 4.80188C500 4.17129 500.124 3.54688 500.366 2.96429C500.607 2.38171 500.961 1.85233 501.406 1.40643C501.852 0.960539 502.382 0.606855 502.964 0.36554C503.547 0.124224 504.171 -5.25287e-07 504.802 0C505.432 -5.25287e-07 506.057 0.124224 506.639 0.36554C507.222 0.606855 507.751 0.960539 508.197 1.40643C508.643 1.85233 508.997 2.38171 509.238 2.96429C509.48 3.54688 509.604 4.17129 509.604 4.80188ZM459.604 4.80188C459.604 5.43247 459.479 6.05688 459.238 6.63947C458.997 7.22205 458.643 7.75143 458.197 8.19733C457.751 8.64322 457.222 8.9969 456.639 9.23822C456.057 9.47954 455.432 9.60376 454.802 9.60376C454.171 9.60376 453.547 9.47954 452.964 9.23822C452.382 8.9969 451.852 8.64322 451.406 8.19733C450.961 7.75143 450.607 7.22205 450.366 6.63947C450.124 6.05688 450 5.43247 450 4.80188C450 4.17129 450.124 3.54688 450.366 2.96429C450.607 2.38171 450.961 1.85233 451.406 1.40643C451.852 0.960539 452.382 0.606855 452.964 0.36554C453.547 0.124224 454.171 -5.25287e-07 454.802 0C455.432 -5.25287e-07 456.057 0.124224 456.639 0.36554C457.222 0.606855 457.751 0.960539 458.197 1.40643C458.643 1.85233 458.997 2.38171 459.238 2.96429C459.479 3.54688 459.604 4.17129 459.604 4.80188ZM409.604 4.80188C409.604 5.43247 409.479 6.05688 409.238 6.63947C408.997 7.22205 408.643 7.75143 408.197 8.19733C407.751 8.64322 407.222 8.9969 406.639 9.23822C406.057 9.47954 405.432 9.60376 404.802 9.60376C404.171 9.60376 403.547 9.47954 402.964 9.23822C402.382 8.9969 401.852 8.64322 401.406 8.19733C400.961 7.75143 400.607 7.22205 400.366 6.63947C400.124 6.05688 400 5.43247 400 4.80188C400 4.17129 400.124 3.54688 400.366 2.96429C400.607 2.38171 400.961 1.85233 401.406 1.40643C401.852 0.960539 402.382 0.606855 402.964 0.36554C403.547 0.124224 404.171 -5.25287e-07 404.802 0C405.432 -5.25287e-07 406.057 0.124224 406.639 0.36554C407.222 0.606855 407.751 0.960539 408.197 1.40643C408.643 1.85233 408.997 2.38171 409.238 2.96429C409.479 3.54688 409.604 4.17129 409.604 4.80188ZM359.604 4.80188C359.604 5.43247 359.479 6.05688 359.238 6.63947C358.997 7.22205 358.643 7.75143 358.197 8.19733C357.751 8.64322 357.222 8.9969 356.639 9.23822C356.057 9.47954 355.432 9.60376 354.802 9.60376C354.171 9.60376 353.547 9.47954 352.964 9.23822C352.382 8.9969 351.852 8.64322 351.406 8.19733C350.961 7.75143 350.607 7.22205 350.366 6.63947C350.124 6.05688 350 5.43247 350 4.80188C350 4.17129 350.124 3.54688 350.366 2.96429C350.607 2.38171 350.961 1.85233 351.406 1.40643C351.852 0.960539 352.382 0.606855 352.964 0.36554C353.547 0.124224 354.171 -5.25287e-07 354.802 0C355.432 -5.25287e-07 356.057 0.124224 356.639 0.36554C357.222 0.606855 357.751 0.960539 358.197 1.40643C358.643 1.85233 358.997 2.38171 359.238 2.96429C359.479 3.54688 359.604 4.17129 359.604 4.80188ZM309.604 4.80188C309.604 5.43247 309.479 6.05688 309.238 6.63947C308.997 7.22205 308.643 7.75143 308.197 8.19733C307.751 8.64322 307.222 8.9969 306.639 9.23822C306.057 9.47954 305.432 9.60376 304.802 9.60376C304.171 9.60376 303.547 9.47954 302.964 9.23822C302.382 8.9969 301.852 8.64322 301.406 8.19733C300.961 7.75143 300.607 7.22205 300.366 6.63947C300.124 6.05688 300 5.43247 300 4.80188C300 4.17129 300.124 3.54688 300.366 2.96429C300.607 2.38171 300.961 1.85233 301.406 1.40643C301.852 0.960539 302.382 0.606855 302.964 0.36554C303.547 0.124224 304.171 -5.25287e-07 304.802 0C305.432 -5.25287e-07 306.057 0.124224 306.639 0.36554C307.222 0.606855 307.751 0.960539 308.197 1.40643C308.643 1.85233 308.997 2.38171 309.238 2.96429C309.479 3.54688 309.604 4.17129 309.604 4.80188ZM259.604 4.80188C259.604 5.43247 259.479 6.05688 259.238 6.63947C258.997 7.22205 258.643 7.75143 258.197 8.19733C257.751 8.64322 257.222 8.9969 256.639 9.23822C256.057 9.47954 255.432 9.60376 254.802 9.60376C254.171 9.60376 253.547 9.47954 252.964 9.23822C252.382 8.9969 251.852 8.64322 251.406 8.19733C250.961 7.75143 250.607 7.22205 250.366 6.63947C250.124 6.05688 250 5.43247 250 4.80188C250 4.17129 250.124 3.54688 250.366 2.96429C250.607 2.38171 250.961 1.85233 251.406 1.40643C251.852 0.960539 252.382 0.606855 252.964 0.36554C253.547 0.124224 254.171 -5.25287e-07 254.802 0C255.432 -5.25287e-07 256.057 0.124224 256.639 0.36554C257.222 0.606855 257.751 0.960539 258.197 1.40643C258.643 1.85233 258.997 2.38171 259.238 2.96429C259.479 3.54688 259.604 4.17129 259.604 4.80188ZM209.604 4.80188C209.604 5.43247 209.48 6.05688 209.238 6.63947C208.997 7.22205 208.643 7.75143 208.197 8.19733C207.751 8.64322 207.222 8.9969 206.639 9.23822C206.057 9.47954 205.432 9.60376 204.802 9.60376C204.171 9.60376 203.547 9.47954 202.964 9.23822C202.382 8.9969 201.852 8.64322 201.406 8.19733C200.961 7.75143 200.607 7.22205 200.366 6.63947C200.124 6.05688 200 5.43247 200 4.80188C200 4.17129 200.124 3.54688 200.366 2.96429C200.607 2.38171 200.961 1.85233 201.406 1.40643C201.852 0.960539 202.382 0.606855 202.964 0.36554C203.547 0.124224 204.171 -5.25287e-07 204.802 0C205.432 -5.25287e-07 206.057 0.124224 206.639 0.36554C207.222 0.606855 207.751 0.960539 208.197 1.40643C208.643 1.85233 208.997 2.38171 209.238 2.96429C209.48 3.54688 209.604 4.17129 209.604 4.80188ZM159.604 4.80188C159.604 5.43247 159.48 6.05688 159.238 6.63947C158.997 7.22205 158.643 7.75143 158.197 8.19733C157.751 8.64322 157.222 8.9969 156.639 9.23822C156.057 9.47954 155.432 9.60376 154.802 9.60376C154.171 9.60376 153.547 9.47954 152.964 9.23822C152.382 8.9969 151.852 8.64322 151.406 8.19733C150.961 7.75143 150.607 7.22205 150.366 6.63947C150.124 6.05688 150 5.43247 150 4.80188C150 4.17129 150.124 3.54688 150.366 2.96429C150.607 2.38171 150.961 1.85233 151.406 1.40643C151.852 0.960539 152.382 0.606855 152.964 0.36554C153.547 0.124224 154.171 -5.25287e-07 154.802 0C155.432 -5.25287e-07 156.057 0.124224 156.639 0.36554C157.222 0.606855 157.751 0.960539 158.197 1.40643C158.643 1.85233 158.997 2.38171 159.238 2.96429C159.48 3.54688 159.604 4.17129 159.604 4.80188ZM109.604 4.80188C109.604 5.43247 109.48 6.05688 109.238 6.63947C108.997 7.22205 108.643 7.75143 108.197 8.19733C107.751 8.64322 107.222 8.9969 106.639 9.23822C106.057 9.47954 105.432 9.60376 104.802 9.60376C104.171 9.60376 103.547 9.47954 102.964 9.23822C102.382 8.9969 101.852 8.64322 101.406 8.19733C100.961 7.75143 100.607 7.22205 100.366 6.63947C100.124 6.05688 100 5.43247 100 4.80188C100 4.17129 100.124 3.54688 100.366 2.96429C100.607 2.38171 100.961 1.85233 101.406 1.40643C101.852 0.960539 102.382 0.606855 102.964 0.36554C103.547 0.124224 104.171 -5.25287e-07 104.802 0C105.432 -5.25287e-07 106.057 0.124224 106.639 0.36554C107.222 0.606855 107.751 0.960539 108.197 1.40643C108.643 1.85233 108.997 2.38171 109.238 2.96429C109.48 3.54688 109.604 4.17129 109.604 4.80188ZM59.6037 4.80188C59.6037 5.43247 59.4795 6.05688 59.2382 6.63947C58.9969 7.22205 58.6432 7.75143 58.1973 8.19733C57.7514 8.64322 57.222 8.9969 56.6395 9.23822C56.0569 9.47954 55.4324 9.60376 54.8019 9.60376C54.1713 9.60376 53.5469 9.47954 52.9643 9.23822C52.3817 8.9969 51.8523 8.64322 51.4064 8.19733C50.9605 7.75143 50.6068 7.22205 50.3655 6.63947C50.1242 6.05688 50 5.43247 50 4.80188C50 4.17129 50.1242 3.54688 50.3655 2.96429C50.6068 2.38171 50.9605 1.85233 51.4064 1.40643C51.8523 0.960539 52.3817 0.606856 52.9643 0.36554C53.5469 0.124223 54.1713 0 54.8019 0C55.4324 -5.25287e-07 56.0569 0.124224 56.6395 0.36554C57.222 0.606855 57.7514 0.960539 58.1973 1.40643C58.6432 1.85233 58.9969 2.38171 59.2382 2.96429C59.4795 3.54688 59.6037 4.17129 59.6037 4.80188ZM9.60371 4.80188C9.60371 5.43247 9.47951 6.05688 9.23819 6.63947C8.99688 7.22205 8.64318 7.75143 8.19728 8.19733C7.75139 8.64322 7.22204 8.9969 6.63945 9.23822C6.05686 9.47954 5.43245 9.60376 4.80186 9.60376C4.17127 9.60376 3.54685 9.47954 2.96426 9.23822C2.38168 8.9969 1.85232 8.64322 1.40643 8.19733C0.960536 7.75143 0.606836 7.22205 0.36552 6.63947C0.124205 6.05688 -5.77815e-07 5.43247 0 4.80188C-5.77815e-07 4.17129 0.124205 3.54688 0.36552 2.96429C0.606836 2.38171 0.960536 1.85233 1.40643 1.40643C1.85232 0.960539 2.38168 0.606856 2.96426 0.36554C3.54685 0.124223 4.17127 0 4.80186 0C5.43245 0 6.05686 0.124223 6.63945 0.36554C7.22204 0.606856 7.75139 0.960539 8.19728 1.40643C8.64318 1.85233 8.99688 2.38171 9.23819 2.96429C9.47951 3.54688 9.60371 4.17129 9.60371 4.80188Z" fill="#0F62FE" fill-opacity="0.5"/>
</svg>
