<svg width="422" height="267" viewBox="0 0 422 267" fill="none" xmlns="http://www.w3.org/2000/svg">
<path d="M962 -4H0V537H962V-4Z" fill="black"/>
<path d="M30.0625 -4V537" stroke="#262626" stroke-miterlimit="10" stroke-linecap="round"/>
<path d="M270.562 -4V537" stroke="#262626" stroke-miterlimit="10" stroke-linecap="round"/>
<path d="M150.312 -4V537" stroke="#262626" stroke-miterlimit="10" stroke-linecap="round"/>
<path d="M390.812 -4V537" stroke="#262626" stroke-miterlimit="10" stroke-linecap="round"/>
<path d="M90.1875 -4V537" stroke="#262626" stroke-miterlimit="10" stroke-linecap="round"/>
<path d="M330.688 -4V537" stroke="#262626" stroke-miterlimit="10" stroke-linecap="round"/>
<path d="M210.438 -4V537" stroke="#262626" stroke-miterlimit="10" stroke-linecap="round"/>
<path d="M15.0312 -4V537" stroke="#262626" stroke-miterlimit="10" stroke-linecap="round"/>
<path d="M255.531 -4V537" stroke="#262626" stroke-miterlimit="10" stroke-linecap="round"/>
<path d="M135.281 -4V537" stroke="#262626" stroke-miterlimit="10" stroke-linecap="round"/>
<path d="M375.781 -4V537" stroke="#262626" stroke-miterlimit="10" stroke-linecap="round"/>
<path d="M75.1562 -4V537" stroke="#262626" stroke-miterlimit="10" stroke-linecap="round"/>
<path d="M315.656 -4V537" stroke="#262626" stroke-miterlimit="10" stroke-linecap="round"/>
<path d="M195.406 -4V537" stroke="#262626" stroke-miterlimit="10" stroke-linecap="round"/>
<path d="M45.0938 -4V537" stroke="#262626" stroke-miterlimit="10" stroke-linecap="round"/>
<path d="M285.594 -4V537" stroke="#262626" stroke-miterlimit="10" stroke-linecap="round"/>
<path d="M165.344 -4V537" stroke="#262626" stroke-miterlimit="10" stroke-linecap="round"/>
<path d="M405.844 -4V537" stroke="#262626" stroke-miterlimit="10" stroke-linecap="round"/>
<path d="M105.219 -4V537" stroke="#262626" stroke-miterlimit="10" stroke-linecap="round"/>
<path d="M345.719 -4V537" stroke="#262626" stroke-miterlimit="10" stroke-linecap="round"/>
<path d="M225.469 -4V537" stroke="#262626" stroke-miterlimit="10" stroke-linecap="round"/>
<path d="M7.51562 -4V537" stroke="#262626" stroke-miterlimit="10" stroke-linecap="round"/>
<path d="M248.016 -4V537" stroke="#262626" stroke-miterlimit="10" stroke-linecap="round"/>
<path d="M127.766 -4V537" stroke="#262626" stroke-miterlimit="10" stroke-linecap="round"/>
<path d="M368.266 -4V537" stroke="#262626" stroke-miterlimit="10" stroke-linecap="round"/>
<path d="M67.6406 -4V537" stroke="#262626" stroke-miterlimit="10" stroke-linecap="round"/>
<path d="M308.141 -4V537" stroke="#262626" stroke-miterlimit="10" stroke-linecap="round"/>
<path d="M187.891 -4V537" stroke="#262626" stroke-miterlimit="10" stroke-linecap="round"/>
<path d="M37.5781 -4V537" stroke="#262626" stroke-miterlimit="10" stroke-linecap="round"/>
<path d="M278.078 -4V537" stroke="#262626" stroke-miterlimit="10" stroke-linecap="round"/>
<path d="M157.828 -4V537" stroke="#262626" stroke-miterlimit="10" stroke-linecap="round"/>
<path d="M398.328 -4V537" stroke="#262626" stroke-miterlimit="10" stroke-linecap="round"/>
<path d="M97.7031 -4V537" stroke="#262626" stroke-miterlimit="10" stroke-linecap="round"/>
<path d="M338.203 -4V537" stroke="#262626" stroke-miterlimit="10" stroke-linecap="round"/>
<path d="M217.953 -4V537" stroke="#262626" stroke-miterlimit="10" stroke-linecap="round"/>
<path d="M22.5469 -4V537" stroke="#262626" stroke-miterlimit="10" stroke-linecap="round"/>
<path d="M263.047 -4V537" stroke="#262626" stroke-miterlimit="10" stroke-linecap="round"/>
<path d="M142.797 -4V537" stroke="#262626" stroke-miterlimit="10" stroke-linecap="round"/>
<path d="M383.297 -4V537" stroke="#262626" stroke-miterlimit="10" stroke-linecap="round"/>
<path d="M82.6719 -4V537" stroke="#262626" stroke-miterlimit="10" stroke-linecap="round"/>
<path d="M323.172 -4V537" stroke="#262626" stroke-miterlimit="10" stroke-linecap="round"/>
<path d="M202.922 -4V537" stroke="#262626" stroke-miterlimit="10" stroke-linecap="round"/>
<path d="M52.6094 -4V537" stroke="#262626" stroke-miterlimit="10" stroke-linecap="round"/>
<path d="M293.109 -4V537" stroke="#262626" stroke-miterlimit="10" stroke-linecap="round"/>
<path d="M172.859 -4V537" stroke="#262626" stroke-miterlimit="10" stroke-linecap="round"/>
<path d="M413.359 -4V537" stroke="#262626" stroke-miterlimit="10" stroke-linecap="round"/>
<path d="M112.734 -4V537" stroke="#262626" stroke-miterlimit="10" stroke-linecap="round"/>
<path d="M353.234 -4V537" stroke="#262626" stroke-miterlimit="10" stroke-linecap="round"/>
<path d="M232.984 -4V537" stroke="#262626" stroke-miterlimit="10" stroke-linecap="round"/>
<path d="M0 32.2397L62.784 -4" stroke="#262626" stroke-miterlimit="10" stroke-linecap="round"/>
<path d="M0 40.9165L77.8152 -4" stroke="#262626" stroke-miterlimit="10" stroke-linecap="round"/>
<path d="M0 49.5932L92.8465 -4" stroke="#262626" stroke-miterlimit="10" stroke-linecap="round"/>
<path d="M0 66.9456L122.909 -4" stroke="#262626" stroke-miterlimit="10" stroke-linecap="round"/>
<path d="M0 6.21163L17.6902 -4" stroke="#262626" stroke-miterlimit="10" stroke-linecap="round"/>
<path d="M0 14.8873L32.7215 -4" stroke="#262626" stroke-miterlimit="10" stroke-linecap="round"/>
<path d="M0 75.6213L137.94 -4" stroke="#262626" stroke-miterlimit="10" stroke-linecap="round"/>
<path d="M152.971 -4L0 84.298" stroke="#262626" stroke-miterlimit="10" stroke-linecap="round"/>
<path d="M0 101.65L183.034 -4" stroke="#262626" stroke-miterlimit="10" stroke-linecap="round"/>
<path d="M0 110.327L198.065 -4" stroke="#262626" stroke-miterlimit="10" stroke-linecap="round"/>
<path d="M0 119.003L213.096 -4" stroke="#262626" stroke-miterlimit="10" stroke-linecap="round"/>
<path d="M0 136.355L243.159 -4" stroke="#262626" stroke-miterlimit="10" stroke-linecap="round"/>
<path d="M0 145.032L258.19 -4" stroke="#262626" stroke-miterlimit="10" stroke-linecap="round"/>
<path d="M0 153.708L273.222 -4" stroke="#262626" stroke-miterlimit="10" stroke-linecap="round"/>
<path d="M0 171.061L303.284 -4" stroke="#262626" stroke-miterlimit="10" stroke-linecap="round"/>
<path d="M0 179.737L318.315 -4" stroke="#262626" stroke-miterlimit="10" stroke-linecap="round"/>
<path d="M333.347 -4L0 188.414" stroke="#262626" stroke-miterlimit="10" stroke-linecap="round"/>
<path d="M0 205.766L363.409 -4" stroke="#262626" stroke-miterlimit="10" stroke-linecap="round"/>
<path d="M0 214.443L378.44 -4" stroke="#262626" stroke-miterlimit="10" stroke-linecap="round"/>
<path d="M0 223.118L393.472 -4" stroke="#262626" stroke-miterlimit="10" stroke-linecap="round"/>
<path d="M0 240.471L423.534 -4" stroke="#262626" stroke-miterlimit="10" stroke-linecap="round"/>
<path d="M0 249.148L438.565 -4" stroke="#262626" stroke-miterlimit="10" stroke-linecap="round"/>
<path d="M453.597 -4L0 257.823" stroke="#262626" stroke-miterlimit="10" stroke-linecap="round"/>
<path d="M0 275.177L483.659 -4" stroke="#262626" stroke-miterlimit="10" stroke-linecap="round"/>
<path d="M0 283.852L498.69 -4" stroke="#262626" stroke-miterlimit="10" stroke-linecap="round"/>
<path d="M0 292.529L513.721 -4" stroke="#262626" stroke-miterlimit="10" stroke-linecap="round"/>
<path d="M0 309.882L543.784 -4" stroke="#262626" stroke-miterlimit="10" stroke-linecap="round"/>
<path d="M558.815 -4L0 318.558" stroke="#262626" stroke-miterlimit="10" stroke-linecap="round"/>
<path d="M0 327.234L573.846 -4" stroke="#262626" stroke-miterlimit="10" stroke-linecap="round"/>
<path d="M0 344.586L603.909 -4" stroke="#262626" stroke-miterlimit="10" stroke-linecap="round"/>
<path d="M0 353.263L618.94 -4" stroke="#262626" stroke-miterlimit="10" stroke-linecap="round"/>
<path d="M633.971 -4L0 361.939" stroke="#262626" stroke-miterlimit="10" stroke-linecap="round"/>
<path d="M0 379.292L664.034 -4" stroke="#262626" stroke-miterlimit="10" stroke-linecap="round"/>
<path d="M679.065 -4L0 387.968" stroke="#262626" stroke-miterlimit="10" stroke-linecap="round"/>
<path d="M0 396.645L694.096 -4" stroke="#262626" stroke-miterlimit="10" stroke-linecap="round"/>
<path d="M0 413.997L724.159 -4" stroke="#262626" stroke-miterlimit="10" stroke-linecap="round"/>
<path d="M0 422.673L739.19 -4" stroke="#262626" stroke-miterlimit="10" stroke-linecap="round"/>
<path d="M754.221 -4L0 431.35" stroke="#262626" stroke-miterlimit="10" stroke-linecap="round"/>
<path d="M784.284 -4L0 448.702" stroke="#262626" stroke-miterlimit="10" stroke-linecap="round"/>
<path d="M0 457.379L799.315 -4" stroke="#262626" stroke-miterlimit="10" stroke-linecap="round"/>
<path d="M0 466.054L814.346 -4" stroke="#262626" stroke-miterlimit="10" stroke-linecap="round"/>
<path d="M0 483.408L844.409 -4" stroke="#262626" stroke-miterlimit="10" stroke-linecap="round"/>
<path d="M859.44 -4L0 492.084" stroke="#262626" stroke-miterlimit="10" stroke-linecap="round"/>
<path d="M0 500.76L874.471 -4" stroke="#262626" stroke-miterlimit="10" stroke-linecap="round"/>
<path d="M0 518.113L904.534 -4" stroke="#262626" stroke-miterlimit="10" stroke-linecap="round"/>
<path d="M0 526.788L919.565 -4" stroke="#262626" stroke-miterlimit="10" stroke-linecap="round"/>
<path d="M934.596 -4L0 535.465" stroke="#262626" stroke-miterlimit="10" stroke-linecap="round"/>
<path d="M27.4023 537L961.999 -2.46509" stroke="#262626" stroke-miterlimit="10" stroke-linecap="round"/>
<path d="M42.4336 537L961.999 6.21161" stroke="#262626" stroke-miterlimit="10" stroke-linecap="round"/>
<path d="M57.4648 537L961.999 14.8873" stroke="#262626" stroke-miterlimit="10" stroke-linecap="round"/>
<path d="M87.5273 537L961.999 32.2397" stroke="#262626" stroke-miterlimit="10" stroke-linecap="round"/>
<path d="M102.559 537L961.999 40.9165" stroke="#262626" stroke-miterlimit="10" stroke-linecap="round"/>
<path d="M961.999 49.5932L117.59 537" stroke="#262626" stroke-miterlimit="10" stroke-linecap="round"/>
<path d="M961.999 66.9456L147.652 537" stroke="#262626" stroke-miterlimit="10" stroke-linecap="round"/>
<path d="M162.684 537L961.999 75.6213" stroke="#262626" stroke-miterlimit="10" stroke-linecap="round"/>
<path d="M177.715 537L961.999 84.298" stroke="#262626" stroke-miterlimit="10" stroke-linecap="round"/>
<path d="M207.777 537L961.999 101.65" stroke="#262626" stroke-miterlimit="10" stroke-linecap="round"/>
<path d="M222.809 537L961.999 110.327" stroke="#262626" stroke-miterlimit="10" stroke-linecap="round"/>
<path d="M237.84 537L961.999 119.003" stroke="#262626" stroke-miterlimit="10" stroke-linecap="round"/>
<path d="M961.999 136.355L267.902 537" stroke="#262626" stroke-miterlimit="10" stroke-linecap="round"/>
<path d="M282.934 537L961.999 145.032" stroke="#262626" stroke-miterlimit="10" stroke-linecap="round"/>
<path d="M297.965 537L961.999 153.708" stroke="#262626" stroke-miterlimit="10" stroke-linecap="round"/>
<path d="M328.027 537L961.999 171.061" stroke="#262626" stroke-miterlimit="10" stroke-linecap="round"/>
<path d="M961.999 179.737L343.059 537" stroke="#262626" stroke-miterlimit="10" stroke-linecap="round"/>
<path d="M358.09 537L961.999 188.414" stroke="#262626" stroke-miterlimit="10" stroke-linecap="round"/>
<path d="M388.152 537L961.999 205.766" stroke="#262626" stroke-miterlimit="10" stroke-linecap="round"/>
<path d="M403.184 537L961.999 214.443" stroke="#262626" stroke-miterlimit="10" stroke-linecap="round"/>
<path d="M961.999 223.118L418.215 537" stroke="#262626" stroke-miterlimit="10" stroke-linecap="round"/>
<path d="M0 23.5641L47.7527 -4" stroke="#262626" stroke-miterlimit="10" stroke-linecap="round"/>
<path d="M0 92.9737L168.003 -4" stroke="#262626" stroke-miterlimit="10" stroke-linecap="round"/>
<path d="M0 162.384L288.253 -4" stroke="#262626" stroke-miterlimit="10" stroke-linecap="round"/>
<path d="M0 231.795L408.503 -4" stroke="#262626" stroke-miterlimit="10" stroke-linecap="round"/>
<path d="M528.753 -4L0 301.205" stroke="#262626" stroke-miterlimit="10" stroke-linecap="round"/>
<path d="M0 370.616L649.003 -4" stroke="#262626" stroke-miterlimit="10" stroke-linecap="round"/>
<path d="M0 440.026L769.253 -4" stroke="#262626" stroke-miterlimit="10" stroke-linecap="round"/>
<path d="M0 509.436L889.503 -4" stroke="#262626" stroke-miterlimit="10" stroke-linecap="round"/>
<path d="M961.999 23.564L72.4961 537" stroke="#262626" stroke-miterlimit="10" stroke-linecap="round"/>
<path d="M961.999 92.9738L192.746 537" stroke="#262626" stroke-miterlimit="10" stroke-linecap="round"/>
<path d="M312.996 537L961.999 162.384" stroke="#262626" stroke-miterlimit="10" stroke-linecap="round"/>
<path d="M418.215 -4L961.999 309.882" stroke="#262626" stroke-miterlimit="10" stroke-linecap="round"/>
<path d="M961.999 318.558L403.184 -4" stroke="#262626" stroke-miterlimit="10" stroke-linecap="round"/>
<path d="M388.152 -4L961.999 327.234" stroke="#262626" stroke-miterlimit="10" stroke-linecap="round"/>
<path d="M358.09 -4L961.999 344.586" stroke="#262626" stroke-miterlimit="10" stroke-linecap="round"/>
<path d="M343.059 -4L961.999 353.263" stroke="#262626" stroke-miterlimit="10" stroke-linecap="round"/>
<path d="M961.999 361.939L328.027 -4" stroke="#262626" stroke-miterlimit="10" stroke-linecap="round"/>
<path d="M297.965 -4L961.999 379.292" stroke="#262626" stroke-miterlimit="10" stroke-linecap="round"/>
<path d="M961.999 387.968L282.934 -4" stroke="#262626" stroke-miterlimit="10" stroke-linecap="round"/>
<path d="M267.902 -4L961.999 396.645" stroke="#262626" stroke-miterlimit="10" stroke-linecap="round"/>
<path d="M237.84 -4L961.999 413.997" stroke="#262626" stroke-miterlimit="10" stroke-linecap="round"/>
<path d="M222.809 -4L961.999 422.673" stroke="#262626" stroke-miterlimit="10" stroke-linecap="round"/>
<path d="M961.999 431.35L207.777 -4" stroke="#262626" stroke-miterlimit="10" stroke-linecap="round"/>
<path d="M961.999 448.702L177.715 -4" stroke="#262626" stroke-miterlimit="10" stroke-linecap="round"/>
<path d="M162.684 -4L961.999 457.379" stroke="#262626" stroke-miterlimit="10" stroke-linecap="round"/>
<path d="M147.652 -4L961.999 466.054" stroke="#262626" stroke-miterlimit="10" stroke-linecap="round"/>
<path d="M117.59 -4L961.999 483.408" stroke="#262626" stroke-miterlimit="10" stroke-linecap="round"/>
<path d="M961.999 492.084L102.559 -4" stroke="#262626" stroke-miterlimit="10" stroke-linecap="round"/>
<path d="M87.5273 -4L961.999 500.76" stroke="#262626" stroke-miterlimit="10" stroke-linecap="round"/>
<path d="M57.4648 -4L961.999 518.113" stroke="#262626" stroke-miterlimit="10" stroke-linecap="round"/>
<path d="M42.4336 -4L961.999 526.788" stroke="#262626" stroke-miterlimit="10" stroke-linecap="round"/>
<path d="M961.999 535.465L27.4023 -4" stroke="#262626" stroke-miterlimit="10" stroke-linecap="round"/>
<path d="M0 -2.46509L934.596 537" stroke="#262626" stroke-miterlimit="10" stroke-linecap="round"/>
<path d="M0 6.21163L919.565 537" stroke="#262626" stroke-miterlimit="10" stroke-linecap="round"/>
<path d="M0 14.8873L904.534 537" stroke="#262626" stroke-miterlimit="10" stroke-linecap="round"/>
<path d="M0 32.2397L874.471 537" stroke="#262626" stroke-miterlimit="10" stroke-linecap="round"/>
<path d="M0 40.9165L859.44 537" stroke="#262626" stroke-miterlimit="10" stroke-linecap="round"/>
<path d="M844.409 537L0 49.5932" stroke="#262626" stroke-miterlimit="10" stroke-linecap="round"/>
<path d="M814.346 537L0 66.9456" stroke="#262626" stroke-miterlimit="10" stroke-linecap="round"/>
<path d="M0 75.6213L799.315 537" stroke="#262626" stroke-miterlimit="10" stroke-linecap="round"/>
<path d="M0 84.298L784.284 537" stroke="#262626" stroke-miterlimit="10" stroke-linecap="round"/>
<path d="M0 101.65L754.221 537" stroke="#262626" stroke-miterlimit="10" stroke-linecap="round"/>
<path d="M0 110.327L739.19 537" stroke="#262626" stroke-miterlimit="10" stroke-linecap="round"/>
<path d="M0 119.003L724.159 537" stroke="#262626" stroke-miterlimit="10" stroke-linecap="round"/>
<path d="M694.096 537L0 136.355" stroke="#262626" stroke-miterlimit="10" stroke-linecap="round"/>
<path d="M0 145.032L679.065 537" stroke="#262626" stroke-miterlimit="10" stroke-linecap="round"/>
<path d="M0 153.708L664.034 537" stroke="#262626" stroke-miterlimit="10" stroke-linecap="round"/>
<path d="M0 171.061L633.971 537" stroke="#262626" stroke-miterlimit="10" stroke-linecap="round"/>
<path d="M618.94 537L0 179.737" stroke="#262626" stroke-miterlimit="10" stroke-linecap="round"/>
<path d="M0 188.414L603.909 537" stroke="#262626" stroke-miterlimit="10" stroke-linecap="round"/>
<path d="M0 205.766L573.846 537" stroke="#262626" stroke-miterlimit="10" stroke-linecap="round"/>
<path d="M0 214.443L558.815 537" stroke="#262626" stroke-miterlimit="10" stroke-linecap="round"/>
<path d="M543.784 537L0 223.118" stroke="#262626" stroke-miterlimit="10" stroke-linecap="round"/>
<path d="M513.721 537L0 240.471" stroke="#262626" stroke-miterlimit="10" stroke-linecap="round"/>
<path d="M0 249.148L498.69 537" stroke="#262626" stroke-miterlimit="10" stroke-linecap="round"/>
<path d="M0 257.823L483.659 537" stroke="#262626" stroke-miterlimit="10" stroke-linecap="round"/>
<path d="M312.996 -4L961.999 370.616" stroke="#262626" stroke-miterlimit="10" stroke-linecap="round"/>
<path d="M192.746 -4L961.999 440.026" stroke="#262626" stroke-miterlimit="10" stroke-linecap="round"/>
<path d="M72.4961 -4L961.999 509.436" stroke="#262626" stroke-miterlimit="10" stroke-linecap="round"/>
<path d="M889.503 537L0 23.5641" stroke="#262626" stroke-miterlimit="10" stroke-linecap="round"/>
<path d="M769.253 537L0 92.9737" stroke="#262626" stroke-miterlimit="10" stroke-linecap="round"/>
<path d="M0 162.384L649.003 537" stroke="#262626" stroke-miterlimit="10" stroke-linecap="round"/>
<path d="M0 231.795L528.753 537" stroke="#262626" stroke-miterlimit="10" stroke-linecap="round"/>
<path d="M240.5 -4V537" stroke="#6F6F6F" stroke-miterlimit="10" stroke-linecap="round"/>
<path d="M120.25 -4V537" stroke="#6F6F6F" stroke-miterlimit="10" stroke-linecap="round"/>
<path d="M360.75 -4V537" stroke="#6F6F6F" stroke-miterlimit="10" stroke-linecap="round"/>
<path d="M60.125 -4V537" stroke="#6F6F6F" stroke-miterlimit="10" stroke-linecap="round"/>
<path d="M300.625 -4V537" stroke="#6F6F6F" stroke-miterlimit="10" stroke-linecap="round"/>
<path d="M180.375 -4V537" stroke="#6F6F6F" stroke-miterlimit="10" stroke-linecap="round"/>
<path d="M420.875 -4V537" stroke="#6F6F6F" stroke-miterlimit="10" stroke-linecap="round"/>
<path d="M0 58.2689L107.878 -4" stroke="#6F6F6F" stroke-miterlimit="10" stroke-linecap="round"/>
<path d="M0 127.68L228.128 -4" stroke="#6F6F6F" stroke-miterlimit="10" stroke-linecap="round"/>
<path d="M0 197.089L348.378 -4" stroke="#6F6F6F" stroke-miterlimit="10" stroke-linecap="round"/>
<path d="M0 266.5L468.628 -4" stroke="#6F6F6F" stroke-miterlimit="10" stroke-linecap="round"/>
<path d="M0 335.911L588.878 -4" stroke="#6F6F6F" stroke-miterlimit="10" stroke-linecap="round"/>
<path d="M0 405.32L709.128 -4" stroke="#6F6F6F" stroke-miterlimit="10" stroke-linecap="round"/>
<path d="M829.378 -4L0 474.731" stroke="#6F6F6F" stroke-miterlimit="10" stroke-linecap="round"/>
<path d="M12.3711 537L949.627 -4" stroke="#6F6F6F" stroke-miterlimit="10" stroke-linecap="round"/>
<path d="M132.621 537L961.999 58.2689" stroke="#6F6F6F" stroke-miterlimit="10" stroke-linecap="round"/>
<path d="M252.871 537L961.999 127.68" stroke="#6F6F6F" stroke-miterlimit="10" stroke-linecap="round"/>
<path d="M961.999 197.089L373.121 537" stroke="#6F6F6F" stroke-miterlimit="10" stroke-linecap="round"/>
<path d="M373.121 -4L961.999 335.911" stroke="#6F6F6F" stroke-miterlimit="10" stroke-linecap="round"/>
<path d="M252.871 -4L961.999 405.32" stroke="#6F6F6F" stroke-miterlimit="10" stroke-linecap="round"/>
<path d="M961.999 474.731L132.621 -4" stroke="#6F6F6F" stroke-miterlimit="10" stroke-linecap="round"/>
<path d="M12.3711 -4L949.627 537" stroke="#6F6F6F" stroke-miterlimit="10" stroke-linecap="round"/>
<path d="M0 58.2689L829.378 537" stroke="#6F6F6F" stroke-miterlimit="10" stroke-linecap="round"/>
<path d="M0 127.68L709.128 537" stroke="#6F6F6F" stroke-miterlimit="10" stroke-linecap="round"/>
<path d="M588.878 537L0 197.089" stroke="#6F6F6F" stroke-miterlimit="10" stroke-linecap="round"/>
<path d="M0 266.5L468.628 537" stroke="#6F6F6F" stroke-miterlimit="10" stroke-linecap="round"/>
</svg>
