<svg width="291" height="253" viewBox="0 0 291 253" fill="none" xmlns="http://www.w3.org/2000/svg">
<path d="M205.214 158.428L232.16 142.905L259.107 158.428L232.16 174.01L205.214 158.428Z" fill="#F0F0F0"/>
<path d="M232.161 194.707L205.214 179.184V158.429L232.161 174.01V194.707Z" fill="#EBEBEB"/>
<path d="M228.143 189.881C228.202 189.881 228.26 189.881 228.318 189.823C228.434 189.765 228.493 189.648 228.493 189.474V189.067C228.493 189.009 228.434 188.951 228.376 188.951C228.318 188.951 228.26 189.009 228.26 189.067V189.474C228.26 189.532 228.26 189.532 228.26 189.59C228.26 189.59 228.202 189.59 228.143 189.59C228.027 189.532 227.911 189.241 227.911 188.951V186.509C227.911 186.451 227.852 186.393 227.794 186.393C227.736 186.393 227.678 186.451 227.678 186.509V188.951C227.678 189.3 227.852 189.707 228.085 189.823C228.027 189.881 228.085 189.881 228.143 189.881Z" fill="#E0E0E0"/>
<path d="M229.6 187.73V187.497C229.6 186.393 228.785 184.997 227.854 184.416C227.33 184.125 226.864 184.067 226.515 184.3C226.166 184.532 225.933 184.939 225.933 185.521V185.579L229.6 187.73ZM227.039 184.474C227.272 184.474 227.504 184.532 227.737 184.707C228.552 185.172 229.25 186.276 229.367 187.265L226.282 185.463C226.282 185.056 226.457 184.707 226.69 184.59C226.748 184.532 226.864 184.474 227.039 184.474Z" fill="#E0E0E0"/>
<path d="M223.198 187.091C223.256 187.091 223.314 187.033 223.314 186.975V183.022C223.314 182.963 223.256 182.905 223.198 182.905C223.139 182.905 223.081 182.963 223.081 183.022V186.975C223.023 187.033 223.139 187.091 223.198 187.091Z" fill="#E0E0E0"/>
<path d="M223.604 184.068C223.721 184.01 223.779 183.951 223.721 183.893L223.255 182.73L222.731 183.37C222.673 183.428 222.673 183.486 222.731 183.544C222.79 183.603 222.848 183.603 222.906 183.544L223.139 183.254L223.43 184.01C223.488 184.01 223.546 184.068 223.604 184.068Z" fill="#E0E0E0"/>
<path d="M221.916 186.335C221.974 186.335 222.032 186.277 222.032 186.219V182.266C222.032 182.208 221.974 182.149 221.916 182.149C221.858 182.149 221.799 182.208 221.799 182.266V186.219C221.799 186.277 221.858 186.335 221.916 186.335Z" fill="#E0E0E0"/>
<path d="M222.323 183.312C222.439 183.254 222.497 183.196 222.439 183.137L221.973 181.975L221.45 182.614C221.391 182.672 221.391 182.73 221.45 182.789C221.508 182.847 221.566 182.847 221.624 182.789L221.857 182.498L222.148 183.254C222.206 183.312 222.264 183.312 222.323 183.312Z" fill="#E0E0E0"/>
<path d="M232.16 194.707L259.107 179.184V158.429L232.16 174.01V194.707Z" fill="#E0E0E0"/>
<path d="M246.653 186.335L244.616 187.498V166.8L246.653 165.638V186.335Z" fill="#EBEBEB"/>
<path d="M216.736 168.952L220.577 171.161C221.392 171.626 222.032 172.556 222.032 173.312C222.032 174.01 221.392 174.242 220.577 173.777L216.736 171.568C215.921 171.103 215.281 170.172 215.281 169.417C215.339 168.719 215.979 168.545 216.736 168.952Z" fill="#E0E0E0"/>
<path d="M244.616 166.801L217.669 151.219L219.706 150.057L246.653 165.638L244.616 166.801Z" fill="#FAFAFA"/>
<path d="M219.706 166.801L246.653 151.219L244.616 150.057L217.669 165.638L219.706 166.801Z" fill="#FAFAFA"/>
<g opacity="0.8">
<path opacity="0.8" d="M257.943 157.731L232.102 172.672L206.378 157.789L232.16 142.905L257.943 157.731Z" fill="#E0E0E0"/>
</g>
<path d="M219.707 168.893V166.8L217.67 165.638V167.731L219.707 168.893Z" fill="#F0F0F0"/>
<path d="M206.435 135.115L233.382 119.592L260.329 135.115L233.382 150.638L206.435 135.115Z" fill="#F0F0F0"/>
<g opacity="0.8">
<path opacity="0.8" d="M258.058 135.347L232.45 150.115L206.434 135.115L232.042 120.348L258.058 135.347Z" fill="#E0E0E0"/>
</g>
<path d="M233.382 171.394L206.436 155.871V135.115L233.382 150.638V171.394Z" fill="#EBEBEB"/>
<path d="M229.365 166.567C229.423 166.567 229.482 166.567 229.54 166.509C229.656 166.451 229.714 166.335 229.714 166.16V165.753C229.714 165.695 229.656 165.637 229.598 165.637C229.54 165.637 229.482 165.695 229.482 165.753V166.16C229.482 166.219 229.482 166.219 229.482 166.277C229.482 166.277 229.423 166.277 229.365 166.277C229.249 166.219 229.132 165.928 229.132 165.637V163.195C229.132 163.137 229.074 163.079 229.016 163.079C228.958 163.079 228.9 163.137 228.9 163.195V165.637C228.9 165.986 229.074 166.393 229.307 166.509C229.249 166.567 229.307 166.567 229.365 166.567Z" fill="#E0E0E0"/>
<path d="M230.821 164.416V164.184C230.821 163.079 230.006 161.684 229.075 161.103C228.551 160.812 228.086 160.754 227.737 160.986C227.387 161.219 227.155 161.626 227.155 162.207V162.265L230.821 164.416ZM228.202 161.161C228.435 161.161 228.668 161.219 228.901 161.393C229.715 161.858 230.414 162.963 230.53 163.951L227.446 162.149C227.446 161.742 227.62 161.393 227.853 161.277C227.969 161.219 228.086 161.161 228.202 161.161Z" fill="#E0E0E0"/>
<path d="M224.419 163.777C224.477 163.777 224.536 163.719 224.536 163.661V159.707C224.536 159.649 224.477 159.591 224.419 159.591C224.361 159.591 224.303 159.649 224.303 159.707V163.661C224.245 163.719 224.303 163.777 224.419 163.777Z" fill="#E0E0E0"/>
<path d="M224.826 160.696C224.943 160.637 225.001 160.579 224.942 160.521L224.477 159.358L223.953 159.998C223.895 160.056 223.895 160.114 223.953 160.172C224.011 160.23 224.07 160.23 224.128 160.172L224.361 159.882L224.652 160.637C224.71 160.696 224.768 160.696 224.826 160.696Z" fill="#E0E0E0"/>
<path d="M223.138 163.022C223.196 163.022 223.254 162.964 223.254 162.906V158.952C223.254 158.894 223.196 158.836 223.138 158.836C223.079 158.836 223.021 158.894 223.021 158.952V162.906C222.963 162.964 223.021 163.022 223.138 163.022Z" fill="#E0E0E0"/>
<path d="M223.544 159.998C223.661 159.94 223.719 159.882 223.661 159.824L223.195 158.661L222.671 159.301C222.613 159.359 222.613 159.417 222.671 159.475C222.73 159.533 222.788 159.533 222.846 159.475L223.079 159.184L223.37 159.94C223.428 159.94 223.486 159.998 223.544 159.998Z" fill="#E0E0E0"/>
<path d="M233.382 171.394L260.329 155.871V135.115L233.382 150.638V171.394Z" fill="#E0E0E0"/>
<path d="M247.875 163.022L245.838 164.184V143.487L247.875 142.324V163.022Z" fill="#EBEBEB"/>
<path d="M217.958 145.638L221.799 147.848C222.614 148.313 223.254 149.243 223.254 149.999C223.254 150.697 222.614 150.929 221.799 150.464L217.958 148.255C217.143 147.79 216.503 146.859 216.503 146.104C216.561 145.406 217.201 145.173 217.958 145.638Z" fill="#E0E0E0"/>
<path d="M245.838 143.487L218.891 127.906L220.928 126.743L247.875 142.324L245.838 143.487Z" fill="#FAFAFA"/>
<path d="M220.928 143.487L247.875 127.906L245.838 126.743L218.891 142.324L220.928 143.487Z" fill="#FAFAFA"/>
<path d="M220.928 145.58V143.487L218.891 142.324V144.359L220.928 145.58Z" fill="#F0F0F0"/>
<g opacity="0.8">
<path opacity="0.8" d="M232.45 150.115L230.006 151.51L206.435 137.906V135.115L232.45 150.115Z" fill="#E0E0E0"/>
</g>
<path d="M203.699 114.359L230.704 98.8359L257.65 114.359L230.704 129.94L203.699 114.359Z" fill="#F0F0F0"/>
<path d="M230.704 150.638L203.699 135.115V114.359L230.704 129.941V150.638Z" fill="#EBEBEB"/>
<path d="M226.687 145.87C226.745 145.87 226.803 145.87 226.862 145.812C226.978 145.754 227.036 145.638 227.036 145.463V145.056C227.036 144.998 226.978 144.94 226.92 144.94C226.862 144.94 226.803 144.998 226.803 145.056V145.463C226.803 145.521 226.803 145.521 226.803 145.58C226.803 145.58 226.745 145.58 226.687 145.58C226.571 145.521 226.454 145.231 226.454 144.94V142.498C226.454 142.44 226.396 142.382 226.338 142.382C226.28 142.382 226.221 142.44 226.221 142.498V144.94C226.221 145.289 226.396 145.696 226.629 145.812C226.512 145.812 226.571 145.87 226.687 145.87Z" fill="#E0E0E0"/>
<path d="M228.143 143.719V143.487C228.143 142.382 227.328 140.987 226.397 140.405C225.873 140.115 225.408 140.056 225.058 140.289C224.709 140.522 224.476 140.929 224.476 141.51V141.568L228.143 143.719ZM225.524 140.405C225.757 140.405 225.99 140.463 226.222 140.638C227.037 141.103 227.736 142.208 227.852 143.196L224.767 141.394C224.767 140.987 224.942 140.638 225.175 140.522C225.233 140.463 225.408 140.405 225.524 140.405Z" fill="#E0E0E0"/>
<path d="M221.683 143.022C221.742 143.022 221.8 142.964 221.8 142.906V138.952C221.8 138.894 221.742 138.836 221.683 138.836C221.625 138.836 221.567 138.894 221.567 138.952V142.906C221.567 142.964 221.625 143.022 221.683 143.022Z" fill="#E0E0E0"/>
<path d="M222.09 139.998C222.148 139.998 222.148 139.998 222.09 139.998C222.207 139.94 222.265 139.882 222.207 139.824L221.741 138.661L221.217 139.301C221.159 139.359 221.159 139.417 221.217 139.475C221.275 139.533 221.334 139.533 221.392 139.475L221.625 139.184L221.916 139.94C221.974 139.94 222.032 139.998 222.09 139.998Z" fill="#E0E0E0"/>
<path d="M220.402 142.324C220.46 142.324 220.518 142.266 220.518 142.207V138.254C220.518 138.196 220.46 138.138 220.402 138.138C220.343 138.138 220.285 138.196 220.285 138.254V142.207C220.285 142.207 220.343 142.324 220.402 142.324Z" fill="#E0E0E0"/>
<path d="M220.809 139.242C220.867 139.242 220.867 139.242 220.809 139.242C220.925 139.184 220.983 139.126 220.925 139.068L220.459 137.905L219.936 138.545C219.877 138.603 219.877 138.661 219.936 138.719C219.994 138.777 220.052 138.777 220.11 138.719L220.343 138.429L220.634 139.184C220.692 139.242 220.75 139.242 220.809 139.242Z" fill="#E0E0E0"/>
<path d="M230.704 150.638L257.65 135.115V114.359L230.704 129.941V150.638Z" fill="#E0E0E0"/>
<path d="M245.196 142.324L243.159 143.487V122.731L245.196 121.568V142.324Z" fill="#EBEBEB"/>
<path d="M215.279 124.94L219.121 127.15C219.935 127.615 220.576 128.545 220.576 129.301C220.576 129.998 219.935 130.231 219.121 129.766L215.279 127.556C214.465 127.091 213.824 126.161 213.824 125.405C213.824 124.708 214.465 124.475 215.279 124.94Z" fill="#E0E0E0"/>
<path d="M243.159 122.731L216.213 107.208L218.25 106.045L245.196 121.568L243.159 122.731Z" fill="#FAFAFA"/>
<path d="M218.25 122.731L245.196 107.208L243.159 106.045L216.213 121.568L218.25 122.731Z" fill="#FAFAFA"/>
<path d="M218.25 124.824V122.731L216.213 121.568V123.661L218.25 124.824Z" fill="#F0F0F0"/>
<path d="M192.875 100.812V206.392C192.875 207.381 192.177 207.73 191.362 207.264L64.3694 134.009C63.5546 133.544 62.8562 132.382 62.8562 131.393V25.813C62.8562 24.8246 63.5546 24.4758 64.3694 24.9409L191.362 98.1959C192.177 98.661 192.875 99.8238 192.875 100.812Z" fill="#0F62FE"/>
<path d="M64.3694 24.9411L191.362 98.1961C192.177 98.6612 192.875 99.824 192.875 100.812V107.44L62.8562 32.2666V25.8132C62.8562 24.8248 63.4964 24.4179 64.3694 24.9411Z" fill="#263238"/>
<path d="M80.6079 36.6268C81.4227 37.092 82.1211 38.2547 82.1211 39.185C82.1211 40.1152 81.4809 40.5222 80.6079 40.057C79.7931 39.5919 79.0947 38.4292 79.0947 37.4989C79.0947 36.5687 79.7349 36.1617 80.6079 36.6268Z" fill="white"/>
<path d="M74.6719 33.2548C75.4867 33.7199 76.1851 34.8827 76.1851 35.8129C76.1851 36.7431 75.5449 37.1501 74.6719 36.685C73.8571 36.2199 73.1587 35.0571 73.1587 34.1269C73.1587 33.1966 73.8571 32.7897 74.6719 33.2548Z" fill="white"/>
<path d="M68.7334 29.8251C69.5482 30.2902 70.2466 31.453 70.2466 32.3832C70.2466 33.3134 69.6064 33.7204 68.7334 33.2553C67.9186 32.7902 67.2202 31.6274 67.2202 30.6972C67.2202 29.767 67.9186 29.36 68.7334 29.8251Z" fill="white"/>
<path d="M152.077 98.0221V129.417L179.256 145.115V113.72L152.077 98.0221ZM151.495 96.9756L179.896 113.371V146.103L151.553 129.766V96.9756H151.495Z" fill="#FAFAFA"/>
<path d="M142.357 124.766V91.3939L113.432 74.708V108.08L142.357 124.766ZM141.775 91.7427V123.777L114.014 107.731V75.6964L141.775 91.7427Z" fill="#FAFAFA"/>
<path d="M124.197 91.1618L122.684 87.8478C124.139 87.5571 125.827 87.906 127.573 88.8362V91.8013C126.351 91.2199 125.187 90.9873 124.197 91.1618Z" fill="#0F62FE"/>
<path d="M121.638 93.3713L119.193 91.0457C119.775 89.4759 120.823 88.4294 122.22 88.0225L123.733 91.3364C122.744 91.6271 122.045 92.3248 121.638 93.3713Z" fill="#0F62FE"/>
<path d="M131.531 108.312L133.044 111.626C131.647 111.917 129.959 111.626 128.155 110.638V107.673C129.436 108.254 130.541 108.487 131.531 108.312Z" fill="#0F62FE"/>
<path d="M123.673 103.312L122.16 104.824C120.821 102.847 119.773 100.58 119.133 98.3125L121.636 98.8357C122.043 100.406 122.742 101.917 123.673 103.312Z" fill="#0F62FE"/>
<path d="M127.515 107.266V110.231C125.711 109.126 124.023 107.499 122.626 105.58L124.139 104.068C125.187 105.347 126.293 106.452 127.515 107.266Z" fill="#0F62FE"/>
<path d="M118.96 91.627L121.404 93.9525C121.23 94.5339 121.172 95.1153 121.172 95.813C121.172 96.5106 121.288 97.2664 121.404 97.9641L118.96 97.4408C118.727 96.3943 118.611 95.2897 118.611 94.3013C118.611 93.3711 118.727 92.4409 118.96 91.627Z" fill="#0F62FE"/>
<g opacity="0.2">
<path opacity="0.2" d="M124.197 91.1618L122.684 87.8478C124.139 87.5571 125.827 87.906 127.573 88.8362V91.8013C126.351 91.2199 125.187 90.9873 124.197 91.1618Z" fill="black"/>
<path opacity="0.2" d="M121.638 93.3713L119.193 91.0457C119.775 89.4759 120.823 88.4294 122.22 88.0225L123.733 91.3364C122.744 91.6271 122.045 92.3248 121.638 93.3713Z" fill="black"/>
<path opacity="0.2" d="M131.531 108.312L133.044 111.626C131.647 111.917 129.959 111.626 128.155 110.638V107.673C129.436 108.254 130.541 108.487 131.531 108.312Z" fill="black"/>
<path opacity="0.2" d="M123.673 103.312L122.16 104.824C120.821 102.847 119.773 100.58 119.133 98.3125L121.636 98.8357C122.043 100.406 122.742 101.917 123.673 103.312Z" fill="black"/>
<path opacity="0.2" d="M127.515 107.266V110.231C125.711 109.126 124.023 107.499 122.626 105.58L124.139 104.068C125.187 105.347 126.293 106.452 127.515 107.266Z" fill="black"/>
<path opacity="0.2" d="M118.96 91.627L121.404 93.9525C121.23 94.5339 121.172 95.1153 121.172 95.813C121.172 96.5106 121.288 97.2664 121.404 97.9641L118.96 97.4408C118.727 96.3943 118.611 95.2897 118.611 94.3013C118.611 93.3711 118.727 92.4409 118.96 91.627Z" fill="black"/>
</g>
<path d="M128.155 92.2083V89.2432C129.959 90.3478 131.647 91.9757 133.044 93.8943L131.531 95.4059C130.541 94.1268 129.436 93.0222 128.155 92.2083Z" fill="#FAFAFA"/>
<path d="M132.055 96.1034L133.568 94.5918C134.906 96.5685 135.954 98.8359 136.594 101.103L134.15 100.58C133.684 99.0685 132.986 97.4987 132.055 96.1034Z" fill="#FAFAFA"/>
<path d="M134.558 103.603C134.558 102.906 134.441 102.15 134.325 101.452L136.769 101.975C137.002 103.022 137.119 104.127 137.119 105.115C137.119 106.161 137.002 107.033 136.769 107.847L134.325 105.522C134.441 104.94 134.558 104.301 134.558 103.603Z" fill="#FAFAFA"/>
<path d="M134.092 106.045L136.537 108.37C135.955 109.94 134.907 110.987 133.51 111.394L131.997 108.08C132.986 107.847 133.685 107.091 134.092 106.045Z" fill="#FAFAFA"/>
<path d="M133.394 102.906C133.394 99.3594 130.891 95.1152 127.865 93.3129C124.78 91.5688 122.336 92.9641 122.336 96.5106C122.336 100.057 124.838 104.301 127.865 106.103C130.891 107.906 133.394 106.452 133.394 102.906Z" fill="#0F62FE"/>
<path opacity="0.2" d="M133.394 102.906C133.394 99.3594 130.891 95.1152 127.865 93.3129C124.78 91.5688 122.336 92.9641 122.336 96.5106C122.336 100.057 124.838 104.301 127.865 106.103C130.891 107.906 133.394 106.452 133.394 102.906Z" fill="black"/>
<path d="M128.389 97.9054C128.389 98.138 128.389 98.3706 128.389 98.6031C128.389 98.7775 128.447 98.952 128.505 99.1264C128.563 99.3008 128.621 99.4752 128.738 99.6496C128.854 99.824 128.971 99.9985 129.087 100.115C129.262 100.289 129.436 100.405 129.611 100.522C129.785 100.638 130.018 100.696 130.135 100.754C130.309 100.754 130.426 100.754 130.484 100.696C130.6 100.638 130.658 100.522 130.717 100.405C130.775 100.289 130.775 100.115 130.833 99.9403C130.833 99.824 130.833 99.7078 130.833 99.5915C130.833 99.4752 130.833 99.3589 130.833 99.2426C130.833 99.0682 130.775 98.8938 130.717 98.7194C130.658 98.545 130.6 98.3706 130.484 98.1961C130.367 98.0217 130.251 97.8473 130.135 97.731C129.96 97.5566 129.785 97.4403 129.611 97.3241C129.436 97.2078 129.262 97.1496 129.087 97.0915C128.912 97.0915 128.796 97.0915 128.738 97.1496C128.621 97.2078 128.563 97.3241 128.505 97.4403C128.447 97.6148 128.447 97.731 128.389 97.9054ZM126.468 95.7543C126.41 95.6962 126.41 95.638 126.352 95.5799C126.293 95.5217 126.235 95.4636 126.177 95.4636L125.537 95.1148C125.479 95.0566 125.42 95.0566 125.42 95.0566C125.362 95.0566 125.362 95.1148 125.362 95.1729C125.362 95.1729 125.362 95.1729 125.362 95.2311V95.2892L129.203 103.312C129.262 103.371 129.262 103.429 129.32 103.487C129.378 103.545 129.436 103.603 129.494 103.603L130.135 103.952C130.193 104.01 130.251 104.01 130.251 104.01C130.309 104.01 130.309 103.952 130.309 103.894C130.309 103.894 130.309 103.894 130.309 103.836V103.777L126.468 95.7543ZM129.96 99.4171C129.96 99.5915 129.902 99.6496 129.902 99.7078C129.844 99.7659 129.785 99.7659 129.669 99.7078C129.553 99.6496 129.494 99.5333 129.436 99.4752C129.378 99.3589 129.378 99.2426 129.378 99.0682C129.378 98.8357 129.378 98.6613 129.378 98.4868C129.378 98.3124 129.436 98.2543 129.436 98.1961C129.494 98.138 129.553 98.138 129.669 98.1961C129.785 98.2543 129.844 98.3706 129.902 98.4287C129.96 98.545 129.96 98.6613 129.96 98.8357C129.96 99.0682 129.96 99.2426 129.96 99.4171ZM124.78 98.952C124.78 99.1845 124.78 99.4171 124.78 99.6496C124.78 99.824 124.838 99.9985 124.897 100.173C124.955 100.347 125.013 100.522 125.129 100.696C125.246 100.871 125.362 101.045 125.479 101.161C125.653 101.336 125.828 101.452 126.002 101.568C126.177 101.684 126.41 101.743 126.526 101.801C126.701 101.801 126.817 101.801 126.875 101.743C126.992 101.684 127.05 101.568 127.108 101.452C127.166 101.336 127.166 101.161 127.225 100.987C127.225 100.871 127.225 100.754 127.225 100.638C127.225 100.522 127.225 100.405 127.225 100.289C127.225 100.115 127.166 99.9403 127.108 99.7659C127.05 99.5915 126.992 99.4171 126.875 99.2426C126.759 99.0682 126.643 98.8938 126.526 98.7775C126.352 98.6031 126.177 98.4868 126.002 98.3706C125.828 98.2543 125.595 98.1961 125.479 98.138C125.304 98.138 125.188 98.138 125.129 98.1961C125.013 98.2543 124.955 98.3706 124.897 98.4868C124.838 98.6613 124.838 98.7775 124.78 98.952ZM126.352 100.522C126.352 100.696 126.293 100.754 126.293 100.812C126.235 100.871 126.177 100.871 126.061 100.812C125.944 100.754 125.886 100.638 125.828 100.58C125.77 100.464 125.77 100.347 125.77 100.173C125.77 99.9403 125.77 99.7659 125.77 99.5915C125.77 99.4171 125.828 99.3589 125.828 99.3008C125.886 99.2427 125.944 99.2427 126.061 99.3008C126.177 99.3589 126.235 99.4752 126.293 99.5333C126.352 99.6496 126.352 99.7659 126.352 99.9403C126.352 100.115 126.352 100.289 126.352 100.522Z" fill="#FAFAFA"/>
<path d="M104.528 102.964V69.5921L75.6029 52.9062V86.278L104.528 102.964ZM103.946 69.8828V101.917L76.1849 85.871V53.8946L103.946 69.8828Z" fill="#FAFAFA"/>
<path d="M90.3861 70.4065V67.4414C92.1903 68.546 93.8781 70.1739 95.2749 72.0925L93.7617 73.6041C92.7141 72.2669 91.6083 71.1623 90.3861 70.4065Z" fill="#FAFAFA"/>
<path d="M94.2255 74.3017L95.7387 72.79C97.0773 74.7668 98.1249 77.0342 98.7651 79.3016L96.3207 78.7784C95.8551 77.2667 95.1567 75.697 94.2255 74.3017Z" fill="#FAFAFA"/>
<path d="M86.3681 69.36L84.8549 66.0461C86.3099 65.7554 87.9977 66.1042 89.7437 67.0344V69.9995C88.5215 69.4181 87.3575 69.1856 86.3681 69.36Z" fill="#0F62FE"/>
<path d="M83.8086 71.5695L81.3642 69.2439C81.9462 67.6742 82.9938 66.6277 84.3906 66.2207L85.9038 69.5346C84.9144 69.8253 84.216 70.523 83.8086 71.5695Z" fill="#0F62FE"/>
<path d="M93.7016 86.453L95.2148 89.7669C93.818 90.0576 92.1302 89.7669 90.326 88.7786V85.8135C91.6064 86.453 92.7122 86.6274 93.7016 86.453Z" fill="#0F62FE"/>
<path d="M81.1308 69.8252L83.5752 72.1508C83.4006 72.7321 83.3424 73.3135 83.3424 74.0112C83.3424 74.7089 83.4588 75.4647 83.5752 76.1623L81.1308 75.6391C80.898 74.5926 80.7816 73.4879 80.7816 72.4996C80.7816 71.5694 80.898 70.6391 81.1308 69.8252Z" fill="#0F62FE"/>
<path d="M85.8462 81.5107L84.333 83.0223C82.9944 81.0456 81.9468 78.7782 81.3066 76.5107L83.751 77.034C84.2166 78.6037 84.915 80.1153 85.8462 81.5107Z" fill="#0F62FE"/>
<path d="M96.7288 81.8015C96.7288 81.1039 96.6123 80.3481 96.4959 79.6504L98.9403 80.1736C99.1731 81.2201 99.2896 82.3248 99.2896 83.3132C99.2896 84.3597 99.1731 85.2317 98.9403 86.0457L96.4959 83.7201C96.6123 83.0806 96.7288 82.4992 96.7288 81.8015Z" fill="#0F62FE"/>
<path d="M96.2631 84.2432L98.7075 86.5687C98.1255 88.1385 97.0779 89.185 95.6811 89.5919L94.1679 86.278C95.1573 85.9873 95.8557 85.2897 96.2631 84.2432Z" fill="#0F62FE"/>
<path d="M89.686 85.4066V88.3717C87.8818 87.2671 86.194 85.6392 84.7972 83.7206L86.3104 82.209C87.358 83.5462 88.4638 84.6508 89.686 85.4066Z" fill="#0F62FE"/>
<g opacity="0.2">
<path opacity="0.2" d="M86.3681 69.36L84.8549 66.0461C86.3099 65.7554 87.9977 66.1042 89.7437 67.0344V69.9995C88.5215 69.4181 87.3575 69.1856 86.3681 69.36Z" fill="black"/>
<path opacity="0.2" d="M83.8086 71.5695L81.3642 69.2439C81.9462 67.6742 82.9938 66.6277 84.3906 66.2207L85.9038 69.5346C84.9144 69.8253 84.216 70.523 83.8086 71.5695Z" fill="black"/>
<path opacity="0.2" d="M93.7016 86.453L95.2148 89.7669C93.818 90.0576 92.1302 89.7669 90.326 88.7786V85.8135C91.6064 86.453 92.7122 86.6274 93.7016 86.453Z" fill="black"/>
<path opacity="0.2" d="M81.1308 69.8252L83.5752 72.1508C83.4006 72.7321 83.3424 73.3135 83.3424 74.0112C83.3424 74.7089 83.4588 75.4647 83.5752 76.1623L81.1308 75.6391C80.898 74.5926 80.7816 73.4879 80.7816 72.4996C80.7816 71.5694 80.898 70.6391 81.1308 69.8252Z" fill="black"/>
<path opacity="0.2" d="M85.8462 81.5107L84.333 83.0223C82.9944 81.0456 81.9468 78.7782 81.3066 76.5107L83.751 77.034C84.2166 78.6037 84.915 80.1153 85.8462 81.5107Z" fill="black"/>
<path opacity="0.2" d="M96.7288 81.8015C96.7288 81.1039 96.6123 80.3481 96.4959 79.6504L98.9403 80.1736C99.1731 81.2201 99.2896 82.3248 99.2896 83.3132C99.2896 84.3597 99.1731 85.2317 98.9403 86.0457L96.4959 83.7201C96.6123 83.0806 96.7288 82.4992 96.7288 81.8015Z" fill="black"/>
<path opacity="0.2" d="M96.2631 84.2432L98.7075 86.5687C98.1255 88.1385 97.0779 89.185 95.6811 89.5919L94.1679 86.278C95.1573 85.9873 95.8557 85.2897 96.2631 84.2432Z" fill="black"/>
<path opacity="0.2" d="M89.686 85.4066V88.3717C87.8818 87.2671 86.194 85.6392 84.7972 83.7206L86.3104 82.209C87.358 83.5462 88.4638 84.6508 89.686 85.4066Z" fill="black"/>
</g>
<path d="M95.5645 81.1041C95.5645 77.5576 93.0618 73.3135 90.0354 71.5112C86.9508 69.767 84.5064 71.1623 84.5064 74.7088C84.5064 78.2553 87.009 82.4994 90.0354 84.3017C93.12 86.0459 95.5645 84.6506 95.5645 81.1041Z" fill="#0F62FE"/>
<path opacity="0.2" d="M95.5645 81.1041C95.5645 77.5576 93.0618 73.3135 90.0354 71.5112C86.9508 69.767 84.5064 71.1623 84.5064 74.7088C84.5064 78.2553 87.009 82.4994 90.0354 84.3017C93.12 86.0459 95.5645 84.6506 95.5645 81.1041Z" fill="black"/>
<path d="M90.5595 76.1042C90.5595 76.3368 90.5595 76.5693 90.5595 76.8019C90.5595 76.9763 90.6177 77.1507 90.6759 77.3251C90.7341 77.4995 90.7923 77.674 90.9087 77.8484C91.0251 78.0228 91.1415 78.1972 91.2579 78.3135C91.4325 78.4879 91.6071 78.6042 91.7817 78.7205C91.9563 78.8367 92.1891 78.8949 92.3055 78.953C92.4801 78.953 92.5965 78.953 92.6547 78.8949C92.7711 78.8367 92.8293 78.7205 92.8875 78.6042C92.9457 78.4879 92.9457 78.3135 93.0039 78.1391C93.0039 78.0228 93.0039 77.9065 93.0039 77.7902C93.0039 77.674 93.0039 77.5577 93.0039 77.4414C93.0039 77.267 92.9457 77.0926 92.8875 76.9182C92.8293 76.7437 92.7711 76.5693 92.6547 76.3949C92.5383 76.2205 92.4219 76.0461 92.3055 75.9298C92.1309 75.7554 91.9563 75.6391 91.7817 75.5228C91.6071 75.4065 91.3743 75.3484 91.2579 75.2903C91.0833 75.2903 90.9669 75.2903 90.9087 75.3484C90.7923 75.4065 90.7341 75.5228 90.6759 75.6391C90.6177 75.7554 90.6177 75.9298 90.5595 76.1042ZM88.6389 73.8949C88.5807 73.8368 88.5807 73.7787 88.5225 73.7205C88.4643 73.6624 88.4061 73.6042 88.3479 73.6042L87.7078 73.2554C87.6496 73.1973 87.5914 73.1973 87.5914 73.1973C87.5332 73.1973 87.5331 73.2554 87.5331 73.3135C87.5331 73.3135 87.5331 73.3135 87.5331 73.3717V73.4298L91.3743 81.453C91.4325 81.5111 91.4325 81.5693 91.4907 81.6274C91.5489 81.6855 91.6071 81.7437 91.6653 81.7437L92.3055 82.0925C92.3637 82.1507 92.4219 82.1507 92.4219 82.1507C92.4801 82.1507 92.4801 82.0925 92.4801 82.0344C92.4801 82.0344 92.4801 82.0344 92.4801 81.9762V81.9181L88.6389 73.8949ZM92.1309 77.6158C92.1309 77.7902 92.0727 77.8484 92.0727 77.9065C92.0145 77.9647 91.9563 77.9647 91.8399 77.9065C91.7235 77.8484 91.6653 77.7321 91.6071 77.674C91.5489 77.5577 91.5489 77.4414 91.5489 77.267C91.5489 77.0344 91.5489 76.86 91.5489 76.6856C91.5489 76.5112 91.6071 76.453 91.6071 76.3949C91.6653 76.3368 91.7235 76.3368 91.8399 76.3949C91.9563 76.453 92.0145 76.5693 92.0727 76.6275C92.1309 76.7437 92.1309 76.86 92.1309 77.0344C92.1309 77.2089 92.1309 77.4414 92.1309 77.6158ZM86.9512 77.1507C86.9512 77.3833 86.9512 77.6158 86.9512 77.8484C86.9512 78.0228 87.0094 78.1972 87.0676 78.3716C87.1258 78.546 87.184 78.7205 87.3004 78.8949C87.4168 79.0693 87.5332 79.2437 87.6496 79.36C87.8242 79.5344 87.9987 79.6507 88.1733 79.767C88.3479 79.8832 88.5807 79.9414 88.6971 79.9995C88.8717 79.9995 88.9881 79.9995 89.0463 79.9414C89.1627 79.8832 89.2209 79.767 89.2791 79.6507C89.3373 79.5344 89.3373 79.36 89.3955 79.1856C89.3955 79.0693 89.3955 78.953 89.3955 78.8367C89.3955 78.7205 89.3955 78.6042 89.3955 78.4879C89.3955 78.3135 89.3373 78.1391 89.2791 77.9647C89.2209 77.7902 89.1627 77.6158 89.0463 77.4414C88.9299 77.267 88.8135 77.0926 88.6971 76.9763C88.5225 76.8019 88.3479 76.6856 88.1733 76.5693C87.9987 76.453 87.766 76.3949 87.6496 76.3368C87.475 76.3368 87.3586 76.3368 87.3004 76.3949C87.184 76.453 87.1258 76.5693 87.0676 76.6856C87.0094 76.86 87.0094 76.9763 86.9512 77.1507ZM88.5225 78.6623C88.5225 78.8367 88.4643 78.8949 88.4643 78.953C88.4061 79.0112 88.3479 79.0112 88.2316 78.953C88.1152 78.8949 88.057 78.7786 87.9988 78.7205C87.9406 78.6042 87.9406 78.4879 87.9406 78.3135C87.9406 78.0809 87.9406 77.9065 87.9406 77.7321C87.9406 77.5577 87.9988 77.4995 87.9988 77.4414C88.057 77.3833 88.1152 77.3833 88.2316 77.4414C88.3479 77.4995 88.4061 77.6158 88.4643 77.674C88.5225 77.7902 88.5225 77.9065 88.5225 78.0809C88.5225 78.3135 88.5225 78.4879 88.5225 78.6623Z" fill="#FAFAFA"/>
<path d="M179.896 154.3V187.033L151.495 170.637V137.905L179.896 154.3Z" fill="#0F62FE"/>
<path opacity="0.7" d="M179.896 154.3V187.033L151.495 170.637V137.905L179.896 154.3Z" fill="#FAFAFA"/>
<path d="M179.896 162.963C178.907 163.312 177.685 163.196 176.346 162.382C173.262 160.638 170.817 156.335 170.817 152.789C170.817 151.394 171.225 150.347 171.865 149.649L179.896 154.301V162.963Z" fill="#0F62FE"/>
<path d="M167.384 163.719C167.093 162.789 166.57 162.789 166.162 163.661L162.146 172.382L156.152 149.824C155.919 148.893 155.512 148.893 155.221 149.824L151.496 163.137V170.637L173.321 183.195L167.384 163.719Z" fill="#0F62FE"/>
<g opacity="0.2">
<path opacity="0.2" d="M179.896 162.963C178.907 163.312 177.685 163.196 176.346 162.382C173.262 160.638 170.817 156.335 170.817 152.789C170.817 151.394 171.225 150.347 171.865 149.649L179.896 154.301V162.963Z" fill="black"/>
<path opacity="0.2" d="M167.384 163.719C167.093 162.789 166.57 162.789 166.162 163.661L162.146 172.382L156.152 149.824C155.919 148.893 155.512 148.893 155.221 149.824L151.496 163.137V170.637L173.321 183.195L167.384 163.719Z" fill="black"/>
</g>
<path d="M152.077 138.952V170.347L179.257 186.044V154.649L152.077 138.952ZM151.495 137.905L179.839 154.242V186.975L151.495 170.637V137.905Z" fill="#0F62FE"/>
<path opacity="0.7" d="M152.077 138.952V170.347L179.257 186.044V154.649L152.077 138.952ZM151.495 137.905L179.839 154.242V186.975L151.495 170.637V137.905Z" fill="#FAFAFA"/>
<path d="M142.067 132.441V165.173L113.666 148.836V116.104L142.067 132.441Z" fill="#0F62FE"/>
<path opacity="0.7" d="M142.067 132.441V165.173L113.666 148.836V116.104L142.067 132.441Z" fill="#FAFAFA"/>
<path d="M142.067 141.103C141.078 141.452 139.856 141.335 138.517 140.521C135.433 138.777 132.988 134.475 132.988 130.929C132.988 129.533 133.396 128.487 134.036 127.789L142.067 132.44V141.103Z" fill="#0F62FE"/>
<path d="M129.555 141.917C129.264 140.987 128.741 140.987 128.333 141.859L124.317 150.58L118.323 128.022C118.09 127.092 117.683 127.092 117.392 128.022L113.667 141.336V148.836L135.492 161.394L129.555 141.917Z" fill="#0F62FE"/>
<g opacity="0.2">
<path opacity="0.2" d="M142.067 141.103C141.078 141.452 139.856 141.335 138.517 140.521C135.433 138.777 132.988 134.475 132.988 130.929C132.988 129.533 133.396 128.487 134.036 127.789L142.067 132.44V141.103Z" fill="black"/>
<path opacity="0.2" d="M129.555 141.917C129.264 140.987 128.741 140.987 128.333 141.859L124.317 150.58L118.323 128.022C118.09 127.092 117.683 127.092 117.392 128.022L113.667 141.336V148.836L135.492 161.394L129.555 141.917Z" fill="black"/>
</g>
<path d="M114.248 117.092V148.487L141.428 164.184V132.789L114.248 117.092ZM113.666 116.104L142.01 132.441V165.173L113.666 148.836V116.104Z" fill="#0F62FE"/>
<path opacity="0.7" d="M114.248 117.092V148.487L141.428 164.184V132.789L114.248 117.092ZM113.666 116.104L142.01 132.441V165.173L113.666 148.836V116.104Z" fill="#FAFAFA"/>
<path d="M104.236 110.638V143.37L75.8342 127.033V94.3008L104.236 110.638Z" fill="#0F62FE"/>
<path opacity="0.7" d="M104.236 110.638V143.37L75.8342 127.033V94.3008L104.236 110.638Z" fill="#FAFAFA"/>
<path d="M104.236 119.3C103.246 119.649 102.024 119.533 100.686 118.719C97.601 116.975 95.1566 112.672 95.1566 109.126C95.1566 107.73 95.564 106.684 96.2042 105.986L104.236 110.637V119.3Z" fill="#0F62FE"/>
<path d="M91.7238 120.114C91.4328 119.184 90.909 119.184 90.5016 120.056L86.4858 128.777L80.4912 106.219C80.2584 105.289 79.851 105.289 79.56 106.219L75.8352 119.533V127.033L97.6602 139.591L91.7238 120.114Z" fill="#0F62FE"/>
<g opacity="0.2">
<path opacity="0.2" d="M104.236 119.3C103.246 119.649 102.024 119.533 100.686 118.719C97.601 116.975 95.1566 112.672 95.1566 109.126C95.1566 107.73 95.564 106.684 96.2042 105.986L104.236 110.637V119.3Z" fill="black"/>
<path opacity="0.2" d="M91.7238 120.114C91.4328 119.184 90.909 119.184 90.5016 120.056L86.4858 128.777L80.4912 106.219C80.2584 105.289 79.851 105.289 79.56 106.219L75.8352 119.533V127.033L97.6602 139.591L91.7238 120.114Z" fill="black"/>
</g>
<path d="M76.4168 95.2891V126.684L103.596 142.382V110.987L76.4168 95.2891ZM75.8348 94.3008L104.178 110.638V143.37L75.8348 127.033V94.3008Z" fill="#0F62FE"/>
<path opacity="0.7" d="M76.4168 95.2891V126.684L103.596 142.382V110.987L76.4168 95.2891ZM75.8348 94.3008L104.178 110.638V143.37L75.8348 127.033V94.3008Z" fill="#FAFAFA"/>
<path d="M79.3857 105.464L71.0632 107.731L73.8567 109.301L68.7352 113.022L69.4335 114.068L74.6715 110.289L75.3699 113.371L79.3857 105.464Z" fill="#263238"/>
<path d="M35.9676 84.9406L54.2424 95.4637C55.0572 95.9288 55.7556 97.0916 55.7556 98.08V112.789L60.4116 117.615C61.11 118.312 60.819 118.777 59.8878 118.661L55.7556 118.196V124.649C55.7556 125.638 55.0572 125.987 54.2424 125.521L35.9676 114.998C35.1528 114.533 34.4544 113.37 34.4544 112.382V85.8708C34.4544 84.8243 35.1528 84.4173 35.9676 84.9406Z" fill="#37474F"/>
<path d="M49.6456 100.986L50.4022 100.928C51.3916 100.87 52.6138 100.463 52.6138 99.0098C52.6138 98.0214 51.9154 96.8586 51.1006 96.3354C50.4604 95.9284 49.8784 96.1028 49.6456 96.6842C49.4128 95.8703 48.889 95.0563 48.1906 94.7075C47.3175 94.2424 46.6774 94.5912 46.6774 95.5796C46.6774 96.9749 47.8996 98.7772 48.889 100.056L49.6456 100.986Z" fill="#FAFAFA"/>
<path d="M42.4267 92.6729L38.3527 90.3474C37.5379 89.8823 36.8395 90.0567 36.8395 90.8125C36.8395 91.5683 37.5379 92.5567 38.3527 93.0218L42.4267 95.3473C43.2415 95.8124 43.9399 95.5799 43.9399 94.8822C43.9399 94.1846 43.2415 93.1962 42.4267 92.6729Z" fill="#FAFAFA"/>
<path d="M51.1582 105.754L47.0842 103.428C46.2694 102.963 45.571 103.138 45.571 103.894C45.571 104.649 46.2694 105.638 47.0842 106.103L51.1582 108.428C51.973 108.893 52.6714 108.661 52.6714 107.963C52.6714 107.207 51.973 106.219 51.1582 105.754Z" fill="#FAFAFA"/>
<path d="M51.1582 111.452L38.3542 104.068C37.5394 103.603 36.841 103.836 36.841 104.533C36.841 105.289 37.5394 106.277 38.3542 106.743L51.1582 114.126C51.973 114.591 52.6714 114.359 52.6714 113.661C52.6714 112.905 51.973 111.917 51.1582 111.452Z" fill="#FAFAFA"/>
<path d="M51.1582 116.743L38.3542 109.359C37.5394 108.894 36.841 109.127 36.841 109.824C36.841 110.58 37.5394 111.568 38.3542 112.034L51.1582 119.417C51.973 119.882 52.6714 119.65 52.6714 118.952C52.6714 118.196 51.973 117.208 51.1582 116.743Z" fill="#FAFAFA"/>
<path d="M242.519 223.137L214.175 239.474L185.774 223.137L214.175 206.742L242.519 223.137Z" fill="#0F62FE"/>
<path opacity="0.7" d="M242.519 223.137L214.175 239.474L185.774 223.137L214.175 206.742L242.519 223.137Z" fill="#FAFAFA"/>
<path d="M235.011 227.44C233.265 227.323 231.519 226.916 230.18 226.161C227.096 224.417 227.096 221.568 230.18 219.765C231.402 219.068 232.916 218.661 234.487 218.486L242.519 223.137L235.011 227.44Z" fill="#0F62FE"/>
<path d="M215.573 224.242C215.922 223.719 215.165 223.544 213.768 223.835L200.208 227.033L210.8 214.01C211.266 213.486 210.626 213.37 209.403 213.719L192.234 219.3L185.716 223.079L207.541 235.637L215.573 224.242Z" fill="#0F62FE"/>
<g opacity="0.2">
<g opacity="0.2">
<path opacity="0.2" d="M235.011 227.44C233.265 227.323 231.519 226.916 230.18 226.161C227.096 224.417 227.096 221.568 230.18 219.765C231.402 219.068 232.916 218.661 234.487 218.486L242.519 223.137L235.011 227.44Z" fill="black"/>
</g>
<g opacity="0.2">
<path opacity="0.2" d="M215.573 224.242C215.922 223.719 215.165 223.544 213.768 223.835L200.208 227.033L210.8 214.01C211.266 213.486 210.626 213.37 209.403 213.719L192.234 219.3L185.716 223.079L207.541 235.637L215.573 224.242Z" fill="black"/>
</g>
</g>
<path d="M214.175 207.44L186.996 223.137L214.175 238.835L241.355 223.137L214.175 207.44ZM214.175 206.742L242.519 223.079L214.175 239.416L185.832 223.079L214.175 206.742Z" fill="#0F62FE"/>
<path opacity="0.7" d="M214.175 207.44L186.996 223.137L214.175 238.835L241.355 223.137L214.175 207.44ZM214.175 206.742L242.519 223.079L214.175 239.416L185.832 223.079L214.175 206.742Z" fill="#FAFAFA"/>
<path d="M242.519 223.138V225.87L214.175 242.207V239.475L242.519 223.138Z" fill="#0F62FE"/>
<path opacity="0.6" d="M242.519 223.138V225.87L214.175 242.207V239.475L242.519 223.138Z" fill="#FAFAFA"/>
<path d="M185.774 223.138L214.175 239.475V242.207L185.774 225.87V223.138Z" fill="#0F62FE"/>
<path opacity="0.1" d="M185.774 223.138L214.175 239.475V242.207L185.774 225.87V223.138Z" fill="#FAFAFA"/>
<path d="M22.6407 161.8L51.0424 145.463L79.3857 161.8L51.0424 178.195L22.6407 161.8Z" fill="#263238"/>
<path d="M51.0423 145.463L79.3857 161.8V183.602L51.0423 199.997V145.463Z" fill="#263238"/>
<path d="M72.2847 187.73L77.0571 154.998L48.6555 138.661L43.9413 171.335L72.2847 187.73Z" fill="#0F62FE"/>
<path opacity="0.7" d="M72.2847 187.73L77.0571 154.998L48.6555 138.661L43.9413 171.335L72.2847 187.73Z" fill="#FAFAFA"/>
<path d="M77.0582 154.998L79.7354 154.417L75.1958 186.045L72.2858 187.731L77.0582 154.998Z" fill="#0F62FE"/>
<path opacity="0.1" d="M77.0582 154.998L79.7354 154.417L75.1958 186.045L72.2858 187.731L77.0582 154.998Z" fill="#FAFAFA"/>
<path d="M51.392 138.021L48.6566 138.661L77.0581 154.998L79.7354 154.417L51.392 138.021Z" fill="#0F62FE"/>
<path opacity="0.6" d="M51.392 138.021L48.6566 138.661L77.0581 154.998L79.7354 154.417L51.392 138.021Z" fill="#FAFAFA"/>
<path d="M68.5605 154.765C68.9097 153.312 69.8409 152.149 71.0049 151.567L76.9995 155.056L76.1265 161.277C75.0207 161.858 73.7403 161.974 72.4017 161.567C69.6663 160.579 67.9203 157.556 68.5605 154.765Z" fill="#0F62FE"/>
<path opacity="0.2" d="M68.5605 154.765C68.9097 153.312 69.8409 152.149 71.0049 151.567L76.9995 155.056L76.1265 161.277C75.0207 161.858 73.7403 161.974 72.4017 161.567C69.6663 160.579 67.9203 157.556 68.5605 154.765Z" fill="black"/>
<path d="M62.1581 156.102C61.9835 155.172 61.4597 155.114 61.0523 155.986L56.8619 164.532L53.6609 146.219C53.4863 145.288 53.0207 145.172 52.5551 146.044L45.7457 158.777L43.9415 171.335L67.5707 184.997C67.6289 184.707 63.3803 162.498 62.1581 156.102Z" fill="#0F62FE"/>
<path opacity="0.2" d="M62.1581 156.102C61.9835 155.172 61.4597 155.114 61.0523 155.986L56.8619 164.532L53.6609 146.219C53.4863 145.288 53.0207 145.172 52.5551 146.044L45.7457 158.777L43.9415 171.335L67.5707 184.997C67.6289 184.707 63.3803 162.498 62.1581 156.102Z" fill="black"/>
<path d="M49.1217 139.591L44.5821 171.103L71.8779 186.858L76.4175 155.347L49.1217 139.591ZM48.6561 138.661L76.9995 154.998L72.2853 187.73L43.9419 171.393L48.6561 138.661Z" fill="#0F62FE"/>
<path opacity="0.7" d="M49.1217 139.591L44.5821 171.103L71.8779 186.858L76.4175 155.347L49.1217 139.591ZM48.6561 138.661L76.9995 154.998L72.2853 187.73L43.9419 171.393L48.6561 138.661Z" fill="#FAFAFA"/>
<path d="M62.8566 193.195L67.5708 160.463L39.2274 144.067L34.455 176.8L62.8566 193.195Z" fill="#0F62FE"/>
<path opacity="0.7" d="M62.8566 193.195L67.5708 160.463L39.2274 144.067L34.455 176.8L62.8566 193.195Z" fill="#FAFAFA"/>
<path d="M67.5713 160.463L70.3066 159.882L65.7088 191.509L62.8571 193.195L67.5713 160.463Z" fill="#0F62FE"/>
<path opacity="0.1" d="M67.5713 160.463L70.3066 159.882L65.7088 191.509L62.8571 193.195L67.5713 160.463Z" fill="#FAFAFA"/>
<path d="M41.9633 143.486L39.2279 144.068L67.5713 160.463L70.3066 159.882L41.9633 143.486Z" fill="#0F62FE"/>
<path opacity="0.6" d="M41.9633 143.486L39.2279 144.068L67.5713 160.463L70.3066 159.882L41.9633 143.486Z" fill="#FAFAFA"/>
<path d="M59.1318 160.23C59.481 158.776 60.4122 157.614 61.5762 157.032L67.5708 160.521L66.6978 166.741C65.592 167.323 64.3116 167.439 62.973 167.032C60.1794 166.044 58.4916 163.021 59.1318 160.23Z" fill="#0F62FE"/>
<path opacity="0.2" d="M59.1318 160.23C59.481 158.776 60.4122 157.614 61.5762 157.032L67.5708 160.521L66.6978 166.741C65.592 167.323 64.3116 167.439 62.973 167.032C60.1794 166.044 58.4916 163.021 59.1318 160.23Z" fill="black"/>
<path d="M52.6718 161.567C52.4972 160.637 51.9734 160.579 51.566 161.451L47.3756 169.997L44.1746 151.683C44 150.753 43.5344 150.637 43.0688 151.509L36.2594 164.241L34.4552 176.799L58.0844 190.462C58.1426 190.171 53.894 167.962 52.6718 161.567Z" fill="#0F62FE"/>
<path opacity="0.2" d="M52.6718 161.567C52.4972 160.637 51.9734 160.579 51.566 161.451L47.3756 169.997L44.1746 151.683C44 150.753 43.5344 150.637 43.0688 151.509L36.2594 164.241L34.4552 176.799L58.0844 190.462C58.1426 190.171 53.894 167.962 52.6718 161.567Z" fill="black"/>
<path d="M39.6348 144.998L35.0952 176.509L62.391 192.265L66.9306 160.753L39.6348 144.998ZM39.2274 144.067L67.5708 160.463L62.8566 193.195L34.5132 176.858L39.2274 144.067Z" fill="#0F62FE"/>
<path opacity="0.7" d="M39.6348 144.998L35.0952 176.509L62.391 192.265L66.9306 160.753L39.6348 144.998ZM39.2274 144.067L67.5708 160.463L62.8566 193.195L34.5132 176.858L39.2274 144.067Z" fill="#FAFAFA"/>
<path d="M51.0425 199.998L22.6409 183.603V161.801L51.0425 178.196V199.998Z" fill="#37474F"/>
<path d="M51.0423 178.195L79.3857 161.858V183.66L51.0423 199.998V178.195ZM63.2061 176.626L67.2801 174.3C68.0949 173.835 68.7933 172.847 68.7933 172.091C68.7933 171.335 68.0949 171.102 67.2801 171.626L63.2061 173.951C62.3913 174.416 61.6929 175.405 61.6929 176.161C61.6929 176.858 62.3331 177.091 63.2061 176.626Z" fill="#455A64"/>
<path d="M22.669 161.839L51.0449 178.205L43.9445 190.49L15.5686 174.124L22.669 161.839Z" fill="#455A64"/>
<path d="M79.3853 167.266L81.7715 168.603L79.3853 161.801V167.266Z" fill="#263238"/>
<path d="M140.146 216.219L140.263 212.73L137.353 212.207L137.178 215.23C137.062 215.928 136.538 216.16 136.421 216.567C136.305 216.974 138.4 220.986 139.622 221.858C140.845 222.73 142.765 221.626 142.94 221.16C143.115 220.753 141.368 221.044 141.077 220.463C140.612 219.649 140.146 216.219 140.146 216.219Z" fill="#FFA8A7"/>
<path d="M136.944 215.812C137.351 216.16 137.642 216.916 138.166 218.021C138.69 219.125 139.447 220.928 140.261 221.16C141.193 221.451 143.113 220.928 141.891 220.811C141.658 220.811 141.193 220.695 141.076 220.405C140.96 220.172 140.96 220.114 140.96 220.114C140.96 220.114 141.367 220.288 142.24 220.23C142.997 220.172 143.521 220.346 143.928 220.928C144.103 221.218 143.812 221.742 143.812 221.742C143.462 222.207 142.764 222.614 141.193 222.73C139.679 222.846 138.69 222.614 138.108 221.567C137.41 220.288 136.188 218.893 135.722 218.195C135.082 217.323 136.013 216.044 136.944 215.812Z" fill="#263238"/>
<path d="M140.903 220.23C141.019 220.462 141.659 220.521 142.009 220.579C142.358 220.637 142.532 220.928 141.95 221.102C141.019 221.218 140.554 220.172 140.903 220.23Z" fill="#FFA8A7"/>
<path d="M112.559 204.882L115.003 202.324L113.141 199.998L111.046 202.149C110.464 202.556 109.94 202.44 109.591 202.614C109.242 202.847 108.136 207.265 108.427 208.719C108.718 210.172 110.929 210.579 111.337 210.405C111.744 210.23 110.231 209.242 110.406 208.603C110.697 207.73 112.559 204.882 112.559 204.882Z" fill="#FFA8A7"/>
<path d="M110.464 202.382C110.522 202.905 110.231 203.661 109.882 204.823C109.533 205.986 108.893 207.847 109.358 208.602C109.882 209.474 111.628 210.288 110.813 209.416C110.639 209.242 110.348 208.835 110.464 208.544C110.522 208.312 110.58 208.254 110.58 208.254C110.58 208.254 110.813 208.661 111.453 209.184C112.035 209.649 112.326 210.114 112.21 210.812C112.152 211.161 111.57 211.335 111.57 211.335C110.988 211.451 110.173 211.335 108.951 210.347C107.729 209.416 107.147 208.602 107.438 207.44C107.787 206.044 107.787 204.184 107.903 203.312C108.02 202.323 109.591 201.975 110.464 202.382Z" fill="#263238"/>
<path d="M110.522 208.37C110.406 208.603 110.93 209.126 111.104 209.417C111.337 209.707 111.221 210.056 110.697 209.765C109.94 209.184 110.231 208.079 110.522 208.37Z" fill="#FFA8A7"/>
<path d="M132.171 150.987C131.414 148.312 131.88 146.684 132.462 144.359C133.568 140.115 134.615 135.812 134.615 135.812C134.615 135.812 135.372 119.592 135.43 118.138C135.488 116.394 135.779 115.406 135.954 113.952C136.012 113.138 136.652 113.022 136.594 113.08V116.336C136.594 116.336 137.583 115.464 138.107 114.824C138.631 114.185 139.213 114.243 139.388 114.592C139.562 114.941 138.631 115.58 138.224 116.452C137.816 117.324 136.594 118.894 136.594 118.894V127.731L138.922 129.068L139.388 137.557L135.779 150.696L132.171 150.987Z" fill="#FFA8A7"/>
<path d="M142.765 145.405L142.241 149.823L137.876 150.347L138.516 144.475L142.765 145.405Z" fill="#FFA8A7"/>
<path d="M164.939 111.336V144.068L136.596 127.673V94.999L164.939 111.336Z" fill="#0F62FE"/>
<path opacity="0.7" d="M164.939 111.336V144.068L136.596 127.673V94.999L164.939 111.336Z" fill="#FAFAFA"/>
<path d="M164.939 119.998C163.95 120.347 162.728 120.231 161.389 119.417C158.305 117.673 155.86 113.371 155.86 109.824C155.86 108.429 156.268 107.382 156.908 106.685L164.939 111.336V119.998Z" fill="#0F62FE"/>
<path opacity="0.2" d="M164.939 119.998C163.95 120.347 162.728 120.231 161.389 119.417C158.305 117.673 155.86 113.371 155.86 109.824C155.86 108.429 156.268 107.382 156.908 106.685L164.939 111.336V119.998Z" fill="black"/>
<path d="M152.427 120.813C152.136 119.882 151.613 119.882 151.205 120.754L147.189 129.475L141.195 106.917C140.962 105.987 140.555 105.987 140.264 106.917L136.539 120.231V127.731L158.364 140.289L152.427 120.813Z" fill="#0F62FE"/>
<path opacity="0.2" d="M152.427 120.813C152.136 119.882 151.613 119.882 151.205 120.754L147.189 129.475L141.195 106.917C140.962 105.987 140.555 105.987 140.264 106.917L136.539 120.231V127.731L158.364 140.289L152.427 120.813Z" fill="black"/>
<path d="M137.178 95.9874V127.382L164.357 143.08V111.685L137.178 95.9874ZM136.596 94.999L164.939 111.336V144.068L136.596 127.731V94.999Z" fill="#0F62FE"/>
<path opacity="0.7" d="M137.178 95.9874V127.382L164.357 143.08V111.685L137.178 95.9874ZM136.596 94.999L164.939 111.336V144.068L136.596 127.731V94.999Z" fill="#FAFAFA"/>
<path d="M164.939 144.068L167.325 142.673V109.999L164.939 111.336V144.068Z" fill="#0F62FE"/>
<path opacity="0.1" d="M164.939 144.068L167.325 142.673V109.999L164.939 111.336V144.068Z" fill="#FAFAFA"/>
<path d="M167.325 109.999L138.924 93.6035L136.596 94.9988L164.939 111.336L167.325 109.999Z" fill="#0F62FE"/>
<path opacity="0.6" d="M167.325 109.999L138.924 93.6035L136.596 94.9988L164.939 111.336L167.325 109.999Z" fill="#FAFAFA"/>
<path d="M132.172 150.986C132.23 151.335 132.404 152.091 132.754 153.37C133.394 155.696 134.383 159.01 134.791 160.114C134.791 160.172 134.849 160.23 134.849 160.23L133.103 163.021C133.103 163.021 134.267 164.475 137.701 165.463C141.134 166.451 145.267 164.416 145.267 164.416C145.267 164.416 146.14 159.823 146.314 158.544C146.314 158.486 146.372 158.37 146.372 158.196C146.431 157.905 146.431 157.672 146.489 157.44V157.382C146.547 157.091 146.605 156.742 146.663 156.335C146.896 155.23 147.362 153.835 148.933 152.963C149.399 152.672 159.467 148.719 161.039 147.789C162.319 147.033 162.436 146.335 162.668 145.696C162.901 145.114 165.928 135.056 166.277 134.01C166.626 132.963 166.975 132.731 167.79 131.859C168.605 130.987 168.838 130.812 169.129 130.056C169.361 129.242 169.07 129.126 168.954 128.719C168.779 128.196 168.954 127.847 168.838 127.44C168.721 126.917 168.372 126.801 168.314 126.626C168.197 126.277 168.314 126.103 168.081 125.463C168.023 125.231 167.732 124.824 167.266 124.649V125.812C166.801 127.614 164.88 128.487 164.589 128.37C164.356 128.254 163.949 127.208 163.425 126.801C162.901 126.335 162.145 126.394 162.377 126.975C162.552 127.266 162.901 128.428 163.076 128.952C163.25 129.475 163.832 130.58 163.716 131.394C163.541 132.498 158.362 143.952 158.362 143.952C158.362 143.952 152.774 145.812 148.293 147.149C145.499 148.021 143.23 148.545 143.23 148.545C142.939 148.486 142.415 148.428 141.833 148.312C141.658 148.254 141.484 148.254 141.309 148.196C138.981 147.789 135.547 147.149 134.616 146.975C134.558 146.975 134.441 146.917 134.383 146.917C134.15 146.917 133.918 146.917 133.743 146.917C133.045 147.091 132.521 147.672 132.346 148.138C132.055 148.835 131.881 149.591 132.172 150.986Z" fill="#FFA8A7"/>
<path d="M141.89 166.742C141.89 166.742 133.451 187.382 132.695 189.242C131.938 191.103 131.123 191.742 130.017 192.498C128.912 193.254 114.187 203.428 114.187 203.428C111.917 202.498 111.859 201.044 111.859 201.044C111.859 201.044 119.483 191.393 121.055 189.998C122.626 188.603 125.652 187.905 125.652 187.905L129.377 172.207C129.901 169.824 129.552 167.149 133.16 163.021L141.89 166.742Z" fill="#37474F"/>
<path d="M139.272 165.58C137.526 168.022 135.955 170.115 135.489 172.905C134.558 178.777 136.828 185.987 137.119 190.405C137.119 190.405 135.722 192.498 135.606 194.824C135.548 196.626 137.119 213.254 137.119 213.254C137.119 213.254 138.632 214.184 140.378 213.835C140.378 213.835 143.928 189.766 144.627 181.975C145.325 174.126 145.325 164.417 145.325 164.417L139.272 165.58Z" fill="#37474F"/>
<path d="M145.559 138.894C145.559 138.894 146.373 137.033 144.977 135.173C143.289 132.964 140.146 131.975 136.829 133.138C135.199 133.719 133.162 135.58 133.22 139.708C133.278 142.208 140.321 143.545 140.321 145.289L145.559 138.894Z" fill="#263238"/>
<path d="M145.792 139.824C145.792 139.824 146.839 141.278 146.723 141.452C146.607 141.627 145.966 141.801 145.966 141.801L145.792 139.824Z" fill="#F28F8F"/>
<path d="M142.531 135.231C143.521 135.696 145.209 136.51 145.791 140.056C146.373 143.661 145.791 144.882 145.325 145.347C144.976 145.696 143.23 145.754 142.299 145.521C141.135 145.231 138.574 144.358 137.352 142.498C135.897 140.347 135.489 137.44 137.002 136.219C139.098 134.475 141.717 134.824 142.531 135.231Z" fill="#FFA8A7"/>
<path d="M145.268 164.417L133.104 163.021C132.231 164.417 130.194 166.801 130.601 169.126C131.125 171.917 132.638 173.893 137.236 175.231" fill="#37474F"/>
<path d="M133.278 155.173C133.918 157.44 134.384 159.068 134.791 160.115C134.791 160.173 134.849 160.231 134.849 160.231L133.103 163.021C133.103 163.021 134.267 164.475 137.701 165.463C141.135 166.452 145.267 164.417 145.267 164.417C145.267 164.417 146.14 159.824 146.315 158.545C146.315 158.487 146.373 158.37 146.373 158.196C146.431 157.963 146.431 157.731 146.489 157.44V157.382C146.548 156.917 146.664 156.452 146.664 156.335C142.299 154.359 143.288 148.429 143.288 148.429C142.997 148.37 142.474 148.312 141.892 148.196C141.717 148.196 141.542 148.138 141.368 148.08C139.331 147.731 137.934 147.44 136.13 147.091C136.13 147.033 132.289 151.452 133.278 155.173Z" fill="#FAFAFA"/>
<path d="M134.442 159.068C134.5 159.185 137.817 161.045 138.865 161.336C137.293 161.278 135.955 160.871 134.849 160.231L134.442 159.068Z" fill="#F0F0F0"/>
<path d="M142.822 135.348C142.822 135.348 143.811 138.603 142.88 140.754C142.88 140.754 142.24 139.475 141.134 139.882C140.028 140.289 140.203 141.801 141.134 142.499C142.065 143.196 142.88 142.789 142.88 142.789C142.88 142.789 142.822 144.475 141.774 145.696C141.774 145.696 138.166 147.15 135.081 144.126C132.288 141.394 132.404 136.22 136.303 134.708C140.203 133.254 142.822 135.348 142.822 135.348Z" fill="#263238"/>
<path d="M135.722 181.8L134.732 173.777C134.732 173.777 131.822 172.672 130.542 170.986C130.542 170.986 131.124 173.021 133.452 174.591C133.626 174.823 135.198 183.021 135.198 183.021L135.722 181.8Z" fill="#263238"/>
<path d="M131.357 138.662C132.696 139.243 133.743 138.196 134.442 136.452C135.198 134.766 135.373 133.022 133.976 132.441C132.637 131.859 131.008 132.964 130.251 134.65C129.553 136.394 130.018 138.08 131.357 138.662Z" fill="#263238"/>
<path d="M136.595 116.336C136.595 116.336 137.177 116.045 137.585 115.405C137.992 114.766 138.574 114.533 138.923 114.766C139.156 114.882 138.865 115.347 138.69 115.696C138.516 116.103 138.05 117.15 137.526 117.673C137.003 118.196 136.595 118.312 136.595 118.894C136.595 118.894 136.13 118.487 136.13 117.673C136.13 116.801 136.595 116.336 136.595 116.336Z" fill="#FFA8A7"/>
</svg>
