<svg width="32" height="32" viewBox="0 0 32 32" fill="none" xmlns="http://www.w3.org/2000/svg">
<g clip-path="url(#clip0_74_8379)">
<path d="M29.2427 4.02997L21.2427 2.02997C21.0386 1.9793 20.8238 1.99381 20.6284 2.07147L10.9284 5.95147L3.2427 4.02997C3.09527 3.99309 2.94137 3.99029 2.7927 4.02179C2.64403 4.0533 2.50449 4.11827 2.38469 4.21178C2.2649 4.30529 2.16799 4.42488 2.10133 4.56145C2.03467 4.69803 2.00002 4.848 2 4.99997V27C2.00002 27.2229 2.07456 27.4395 2.21177 27.6153C2.34899 27.791 2.541 27.9159 2.7573 27.97L10.7573 29.97C10.8367 29.9896 10.9182 29.9997 11 30C11.1273 30 11.2535 29.9757 11.3716 29.9282L21.0716 26.0482L28.7576 27.9701C28.905 28.0069 29.0589 28.0097 29.2075 27.9781C29.3562 27.9466 29.4957 27.8816 29.6154 27.7881C29.7352 27.6946 29.8321 27.575 29.8987 27.4384C29.9653 27.3019 30 27.1519 30 27V4.99997C30 4.777 29.9254 4.56044 29.7882 4.38469C29.651 4.20894 29.459 4.08409 29.2427 4.02997ZM28 11H22V4.28057L28 5.78057V11ZM10 19H4V13H10V19ZM12 11V7.67707L20 4.47707V11H12ZM20 13V19H12V13H20ZM12 21H20V24.3227L12 27.5227V21ZM22 13H28V19H22V13ZM10 7.78057V11H4V6.28057L10 7.78057ZM4 21H10V27.7192L4 26.2192V21ZM22 24.2187V21H28V25.7192L22 24.2187Z" fill="#085CF7"/>
</g>
<defs>
<clipPath id="clip0_74_8379">
<rect width="32" height="32" fill="white"/>
</clipPath>
</defs>
</svg>
