<svg width="29" height="30" viewBox="0 0 29 30" fill="none" xmlns="http://www.w3.org/2000/svg">
<g clip-path="url(#clip0_74_13803)">
<path d="M23.0136 22.711C23.5549 21.4116 23.7 19.9812 23.4306 18.5996C23.1612 17.2179 22.4894 15.9468 21.4995 14.9459C21.7719 14.2597 21.8236 13.5057 21.6475 12.7888C21.4714 12.0718 21.0761 11.4276 20.5168 10.9457L23.0324 8.43007C23.3718 8.08986 23.5624 7.62892 23.5624 7.14836C23.5624 6.6678 23.3718 6.20686 23.0324 5.86665L20.4694 3.3036C20.1292 2.96411 19.6683 2.77344 19.1877 2.77344C18.7071 2.77344 18.2461 2.96411 17.906 3.3036L5.96847 15.2411C5.62911 15.5813 5.43854 16.0423 5.43854 16.5228C5.43854 17.0033 5.62911 17.4643 5.96847 17.8045L8.53153 20.3676C8.87173 20.707 9.33267 20.8976 9.81324 20.8976C10.2938 20.8976 10.7547 20.707 11.0949 20.3676L15.4222 16.0399C16.0358 16.7499 16.9046 17.1892 17.8401 17.2626C18.7756 17.336 19.7024 17.0375 20.4192 16.4319C21.1642 17.2843 21.6217 18.3497 21.7268 19.4768C21.8319 20.604 21.5792 21.7356 21.0046 22.711H14.5V26.336H3.625V28.1485H25.375V22.711H23.0136ZM9.81297 19.086L7.25 16.5226L8.95257 14.8203L11.5157 17.3833L9.81297 19.086ZM14.5 13.6485C14.5013 13.8775 14.5245 14.1058 14.5691 14.3304L12.7972 16.1018L10.234 13.5388L19.1878 4.58504L21.7509 7.14809L18.8067 10.0926C18.2823 9.98838 17.7413 10.0021 17.2229 10.1329C16.7045 10.2636 16.2216 10.508 15.8094 10.8484C15.3971 11.1888 15.0657 11.6167 14.8393 12.101C14.6128 12.5853 14.4969 13.1139 14.5 13.6485ZM18.125 15.461C17.7665 15.461 17.4161 15.3547 17.118 15.1556C16.82 14.9564 16.5877 14.6733 16.4505 14.3421C16.3133 14.011 16.2774 13.6465 16.3473 13.2949C16.4173 12.9433 16.5899 12.6204 16.8434 12.3669C17.0969 12.1134 17.4198 11.9408 17.7714 11.8709C18.123 11.8009 18.4874 11.8368 18.8186 11.974C19.1498 12.1112 19.4329 12.3435 19.632 12.6416C19.8312 12.9396 19.9375 13.2901 19.9375 13.6485C19.9369 14.1291 19.7458 14.5898 19.406 14.9296C19.0662 15.2693 18.6055 15.4605 18.125 15.461ZM23.5625 26.336H16.3125V24.5235H23.5625V26.336Z" fill="#0659F4"/>
</g>
<defs>
<clipPath id="clip0_74_13803">
<rect width="29" height="29" fill="white" transform="translate(0 0.960938)"/>
</clipPath>
</defs>
</svg>
