<svg width="32" height="32" viewBox="0 0 32 32" fill="none" xmlns="http://www.w3.org/2000/svg">
<g clip-path="url(#clip0_49_2904)">
<path d="M28.8299 23.1699L22.9999 17.3299V12.9999C23.0007 12.8683 22.9755 12.7379 22.9257 12.616C22.8759 12.4942 22.8026 12.3834 22.7099 12.2899L12.7099 2.28994C12.617 2.19621 12.5064 2.12182 12.3845 2.07105C12.2627 2.02028 12.132 1.99414 11.9999 1.99414C11.8679 1.99414 11.7372 2.02028 11.6154 2.07105C11.4935 2.12182 11.3829 2.19621 11.2899 2.28994L2.28994 11.2899C2.19621 11.3829 2.12182 11.4935 2.07105 11.6154C2.02028 11.7372 1.99414 11.8679 1.99414 11.9999C1.99414 12.132 2.02028 12.2627 2.07105 12.3845C2.12182 12.5064 2.19621 12.617 2.28994 12.7099L12.2899 22.7099C12.3834 22.8026 12.4942 22.8759 12.616 22.9257C12.7379 22.9755 12.8683 23.0007 12.9999 22.9999H17.3399L23.1699 28.8399C23.9205 29.5905 24.9385 30.0122 25.9999 30.0122C27.0614 30.0122 28.0794 29.5905 28.8299 28.8399C29.5805 28.0894 30.0022 27.0714 30.0022 26.0099C30.0022 24.9485 29.5805 23.9305 28.8299 23.1799V23.1699ZM5.99994 10.4099L8.28994 12.7099L9.70994 11.2899L7.40994 8.99994L8.99994 7.40994L13.2899 11.7099L14.7099 10.2899L10.4099 5.99994L11.9999 4.40994L18.5899 10.9999L10.9999 18.5899L4.40994 11.9999L5.99994 10.4099ZM27.4099 27.4099C27.0352 27.7824 26.5283 27.9915 25.9999 27.9915C25.4716 27.9915 24.9647 27.7824 24.5899 27.4099L18.4599 21.2899C18.2469 21.1434 18.0047 21.0445 17.7499 20.9999H13.4099L12.4099 19.9999L19.9999 12.4099L20.9999 13.4099V17.7499C21.001 18.0123 21.1052 18.2637 21.2899 18.4499L27.4099 24.5899C27.7824 24.9647 27.9915 25.4716 27.9915 25.9999C27.9915 26.5283 27.7824 27.0352 27.4099 27.4099Z" fill="#085CF7"/>
</g>
<defs>
<clipPath id="clip0_49_2904">
<rect width="32" height="32" fill="white"/>
</clipPath>
</defs>
</svg>
