<svg width="32" height="32" viewBox="0 0 32 32" fill="none" xmlns="http://www.w3.org/2000/svg">
<g clip-path="url(#clip0_44_2086)">
<path d="M20.3332 21.4823L22.5732 19.2423C22.873 18.9424 23.2542 18.7371 23.6696 18.6517C24.085 18.5664 24.5163 18.6049 24.91 18.7623L27.6381 19.8536C28.0402 20.0145 28.3849 20.2922 28.6277 20.6509C28.8704 21.0096 29.0001 21.4328 28.9999 21.8659V26.8272C29.0006 27.1221 28.9411 27.414 28.825 27.685C28.709 27.9561 28.5388 28.2006 28.325 28.4036C28.1111 28.6067 27.8581 28.7639 27.5814 28.8657C27.3046 28.9675 27.01 29.0118 26.7156 28.9958C7.59372 27.8054 3.73202 11.6114 3.01452 5.40791C2.9798 5.10466 3.00969 4.7975 3.10221 4.50664C3.19473 4.21577 3.3478 3.94779 3.55133 3.72033C3.75486 3.49287 4.00425 3.31108 4.28309 3.18693C4.56193 3.06278 4.86389 2.99907 5.16912 3.00001H10.0419C10.4749 3 10.898 3.12975 11.2566 3.37252C11.6152 3.6153 11.8928 3.95995 12.0536 4.36201L13.1449 7.09001C13.3024 7.48374 13.3408 7.91501 13.2555 8.33037C13.1701 8.74573 12.9648 9.12693 12.6649 9.42671L10.4249 11.6667C10.4249 11.6667 11.6666 20.399 20.3332 21.4823Z" fill="#4CA912"/>
<path d="M27 13V11H22.414L29 4.414L27.586 3L21 9.586V5H19V13H27Z" fill="#4CA912"/>
</g>
<defs>
<clipPath id="clip0_44_2086">
<rect width="32" height="32" fill="white"/>
</clipPath>
</defs>
</svg>
