<svg width="20" height="20" viewBox="0 0 20 20" fill="none" xmlns="http://www.w3.org/2000/svg">
<path fill-rule="evenodd" clip-rule="evenodd" d="M16.2481 18.125H16.1419C3.86065 17.4187 2.11689 7.05625 1.87314 3.89375C1.83348 3.39714 1.99308 2.90516 2.31672 2.52641C2.64036 2.14766 3.10142 1.91327 3.59814 1.875H7.04189C7.55415 1.8745 8.01486 2.1866 8.20439 2.6625L9.1544 5C9.34137 5.46446 9.23316 5.99569 8.8794 6.35L7.54814 7.69375C7.9741 10.1143 9.86618 12.0114 12.2856 12.4438L13.6419 11.1C14.0016 10.7501 14.5356 10.6492 14.9981 10.8438L17.3544 11.7875C17.8229 11.9829 18.1267 12.4423 18.1231 12.95V16.25C18.1231 17.2855 17.2837 18.125 16.2481 18.125ZM3.74814 3.125C3.40297 3.125 3.12314 3.40482 3.12314 3.75V3.8C3.41064 7.5 5.25439 16.25 16.2106 16.875C16.3765 16.8853 16.5396 16.829 16.6639 16.7188C16.7882 16.6086 16.8635 16.4534 16.8731 16.2875V12.95L14.5169 12.0063L12.7231 13.7875L12.4231 13.75C6.98565 13.0688 6.24815 7.63125 6.24815 7.575L6.21065 7.275L7.98565 5.48125L7.04814 3.125H3.74814Z" fill="white"/>
</svg>
