<svg width="32" height="32" viewBox="0 0 32 32" fill="none" xmlns="http://www.w3.org/2000/svg">
<g clip-path="url(#clip0_74_11801)">
<path d="M16 0.000488281L4 5.97839V20.0443C4 23.2269 5.26428 26.2791 7.51472 28.5296C9.76515 30.78 12.8174 32.0443 16 32.0443C19.1826 32.0443 22.2348 30.78 24.4853 28.5296C26.7357 26.2791 28 23.2269 28 20.0443V5.97839L16 0.000488281ZM22.83 27.3143L16 23.9119V26.14L21.0361 28.6488C19.5189 29.5323 17.796 30.0009 16.0403 30.0076C14.2847 30.0143 12.5582 29.5587 11.0344 28.6867C9.51058 27.8147 8.24313 26.557 7.35942 25.0399C6.47571 23.5229 6.00687 21.7999 6 20.0443V7.20999L16 2.22839L26 7.20999V10.96L16 5.97829V8.20619L26 13.1878V16.9378L16 11.9562V14.1841L26 19.1656V20.0443C26.0005 20.9527 25.876 21.8569 25.63 22.7314L16 17.934V20.1619L24.8952 24.5932C24.3675 25.6117 23.669 26.5321 22.83 27.3143Z" fill="#085CF7"/>
</g>
<defs>
<clipPath id="clip0_74_11801">
<rect width="32" height="32" fill="white"/>
</clipPath>
</defs>
</svg>
