<svg width="32" height="32" viewBox="0 0 32 32" fill="none" xmlns="http://www.w3.org/2000/svg">
<g clip-path="url(#clip0_74_8347)">
<path d="M30.0001 10.68L28.0001 4.67999C27.9305 4.47301 27.7951 4.29449 27.6145 4.1717C27.4339 4.04891 27.2181 3.9886 27.0001 3.99999H5.00006C4.782 3.9886 4.5662 4.04891 4.38563 4.1717C4.20506 4.29449 4.06964 4.47301 4.00006 4.67999L2.00006 10.68C1.98566 10.7862 1.98566 10.8938 2.00006 11V17C2.00006 17.2652 2.10542 17.5196 2.29296 17.7071C2.48049 17.8946 2.73485 18 3.00006 18H4.00006V28H6.00006V18H12.0001V28H28.0001V18H29.0001C29.2653 18 29.5196 17.8946 29.7072 17.7071C29.8947 17.5196 30.0001 17.2652 30.0001 17V11C30.0145 10.8938 30.0145 10.7862 30.0001 10.68V10.68ZM26.0001 26H14.0001V18H26.0001V26ZM28.0001 16H24.0001V12H22.0001V16H17.0001V12H15.0001V16H10.0001V12H8.00006V16H4.00006V11.16L5.72006 5.99999H26.2801L28.0001 11.16V16Z" fill="#085CF7"/>
</g>
<defs>
<clipPath id="clip0_74_8347">
<rect width="32" height="32" fill="white"/>
</clipPath>
</defs>
</svg>
