<svg width="32" height="32" viewBox="0 0 32 32" fill="none" xmlns="http://www.w3.org/2000/svg">
<g clip-path="url(#clip0_74_8607)">
<path d="M16 10H8V12H16V10Z" fill="#085CF7"/>
<path d="M20 6H8V8H20V6Z" fill="#085CF7"/>
<path d="M20 2H8V4H20V2Z" fill="#085CF7"/>
<path d="M4.7111 28L10.3423 18.0039L17.7764 24.4939C18.0011 24.6938 18.268 24.8404 18.5572 24.9229C18.8465 25.0054 19.1506 25.0216 19.4469 24.9703C19.7432 24.919 20.0242 24.8015 20.2689 24.6266C20.5135 24.4516 20.7156 24.2238 20.86 23.96L27.8307 13.5566L26.1685 12.4434L19.1685 22.8906L19.0985 22.9941L11.664 16.5034C11.4393 16.3045 11.1727 16.1587 10.8841 16.0767C10.5954 15.9946 10.292 15.9785 9.9963 16.0294C9.70058 16.0804 9.42007 16.1971 9.17552 16.371C8.93097 16.545 8.72861 16.7716 8.5834 17.0342L4 25.1826V2H2V28C2.00061 28.5302 2.21152 29.0386 2.58646 29.4135C2.9614 29.7885 3.46975 29.9994 4 30H30V28H4.7111Z" fill="#085CF7"/>
</g>
<defs>
<clipPath id="clip0_74_8607">
<rect width="32" height="32" fill="white"/>
</clipPath>
</defs>
</svg>
